<svg id="Layer_1" data-name="Layer 1" xmlns="http://www.w3.org/2000/svg" viewBox="0 0 22.79 26.18"><defs><style>.cls-1{opacity:0.3;isolation:isolate;}.cls-2{fill:#7abed1;}.cls-3{fill:#e56a59;}</style></defs><g class="cls-1"><path class="cls-2" d="M18.94,9.1a6.15,6.15,0,0,1-1.52.18c-2.23,0-5.1-1.85-5.1-3.25s2.91-3.24,5.15-3.24a13.74,13.74,0,0,1,2.28.46c-1.49.38-3.29,1.77-3.29,2.83A3.51,3.51,0,0,0,18.94,9.1ZM4.3,14.28c0-1.06,1.89-2.3,3.38-2.68a16,16,0,0,0-2.37-.46c-3.67,0-4.6,1.85-4.6,3.25s2.37,3.25,4.6,3.25a5.77,5.77,0,0,0,1.44,0A3.87,3.87,0,0,1,4.3,14.28Z"/></g><path d="M17.42,26.18a8.18,8.18,0,0,1-4.79-1.45.25.25,0,0,1-.06-.35.25.25,0,0,1,.35-.06,7.68,7.68,0,0,0,4.5,1.36,7.68,7.68,0,0,0,4.5-1.36.25.25,0,0,1,.29.41A8.18,8.18,0,0,1,17.42,26.18Zm-12.16,0A8.2,8.2,0,0,1,.47,24.73a.25.25,0,0,1,0-.35.24.24,0,0,1,.34-.06,7.71,7.71,0,0,0,4.5,1.36,7.68,7.68,0,0,0,4.5-1.36.25.25,0,0,1,.3.41A8.21,8.21,0,0,1,5.26,26.18Zm12.16-4.05a8.19,8.19,0,0,1-4.79-1.46.23.23,0,0,1-.06-.34.25.25,0,0,1,.35-.06,7.68,7.68,0,0,0,4.5,1.36,7.68,7.68,0,0,0,4.5-1.36.25.25,0,0,1,.35.06.24.24,0,0,1-.06.34A8.19,8.19,0,0,1,17.42,22.13Zm-12.16,0A8.21,8.21,0,0,1,.47,20.67a.23.23,0,0,1,0-.34.23.23,0,0,1,.34-.06,7.71,7.71,0,0,0,4.5,1.36,7.68,7.68,0,0,0,4.5-1.36.25.25,0,0,1,.35.06.24.24,0,0,1,0,.34A8.22,8.22,0,0,1,5.26,22.13Zm0-4.05c-3,0-5.31-1.67-5.31-3.8s2.33-3.79,5.31-3.79,5.32,1.66,5.32,3.79S8.29,18.08,5.31,18.08Zm0-7.09C2.61,11,.5,12.43.5,14.28s2.11,3.3,4.81,3.3,4.82-1.45,4.82-3.3S8,11,5.31,11Zm12.11,7a8.19,8.19,0,0,1-4.79-1.46.25.25,0,0,1-.06-.35.25.25,0,0,1,.35,0,7.76,7.76,0,0,0,4.5,1.36,7.76,7.76,0,0,0,4.5-1.36.25.25,0,1,1,.29.4A8.19,8.19,0,0,1,17.42,18Zm0-4.11a8.18,8.18,0,0,1-4.79-1.45.25.25,0,0,1-.06-.35.25.25,0,0,1,.35-.06,7.68,7.68,0,0,0,4.5,1.36,7.68,7.68,0,0,0,4.5-1.36.25.25,0,0,1,.29.41A8.18,8.18,0,0,1,17.42,13.92Zm0-4.05c-3,0-5.31-1.66-5.31-3.79s2.33-3.8,5.31-3.8S22.79,4,22.79,6.08,20.45,9.87,17.47,9.87Zm0-7.09c-2.7,0-4.81,1.45-4.81,3.3s2.11,3.29,4.81,3.29,4.82-1.44,4.82-3.29S20.17,2.78,17.47,2.78Z"/><path class="cls-3" d="M5.4,8.71a.5.5,0,0,1-.5-.5V3.5a.55.55,0,0,1,.5-.5.5.5,0,0,1,.5.5V8.2a.51.51,0,0,1-.5.51Z"/><path class="cls-3" d="M8.39,3.5a.49.49,0,0,1-.32-.12L5.39,1.15,2.71,3.38a.5.5,0,0,1-.64-.76l3-2.5a.49.49,0,0,1,.64,0l3,2.5a.49.49,0,0,1,.06.7A.48.48,0,0,1,8.39,3.5Z"/></svg>