<svg id="Layer_1" data-name="Layer 1" xmlns="http://www.w3.org/2000/svg" viewBox="0 0 19 17.98"><defs><style>.cls-1{fill:none;}</style></defs><polygon class="cls-1" points="16.47 15.54 17 15.54 16.5 15.54 16.47 15.54"/><polygon class="cls-1" points="0.5 15.54 0 15.54 0.53 15.54 0.5 15.54"/><polygon class="cls-1" points="6 13.05 9.11 12.11 6.88 9.88 6 13.05"/><path class="cls-1" d="M17.56,1.93,17,1.41a1.53,1.53,0,0,0-1.7-.29l2.51,2.51A1.49,1.49,0,0,0,17.56,1.93Z"/><rect class="cls-1" x="7.2" y="4.82" width="10.18" height="3.72" transform="translate(-1.12 10.65) rotate(-45.01)"/><path d="M16.5,11.59a.5.5,0,0,0-.5.5v3.44A1.53,1.53,0,0,1,14.4,17H2.6A1.53,1.53,0,0,1,1,15.53V5.42A1.53,1.53,0,0,1,2.6,4H6.33a.5.5,0,0,0,.5-.5.5.5,0,0,0-.5-.5H2.6A2.52,2.52,0,0,0,0,5.42H0V15.54H0A2.53,2.53,0,0,0,2.6,18H14.4A2.53,2.53,0,0,0,17,15.54h0V12.09A.5.5,0,0,0,16.5,11.59Z"/><path d="M18.27,1.23,17.75.71a2.54,2.54,0,0,0-3.53,0l-7.9,7.9A1,1,0,0,0,6.07,9L5,12.78a1,1,0,0,0,.25.92.92.92,0,0,0,.66.28.69.69,0,0,0,.25,0l3.76-1a1,1,0,0,0,.42-.24l7.9-7.91A2.49,2.49,0,0,0,18.27,1.23ZM6,13.05l.88-3.17,2.23,2.23Zm4-1.45L7.38,9l7.2-7.2L17.21,4.4ZM15.34,1.12a1.53,1.53,0,0,1,1.7.29l.52.52a1.49,1.49,0,0,1,.29,1.7Z"/></svg>