<svg id="Layer_1" data-name="Layer 1" xmlns="http://www.w3.org/2000/svg" viewBox="0 0 18 20"><defs><style>.cls-1{fill:none;}.cls-2{fill:#7abed1;}</style></defs><path class="cls-1" d="M16,3H2A1,1,0,0,0,1,4V18a1,1,0,0,0,1,1H16a1,1,0,0,0,1-1V4A1,1,0,0,0,16,3ZM6,14a2,2,0,1,1,2-2A2,2,0,0,1,6,14Z"/><path d="M16,2H15V0H13V2H5V0H3V2H2A2,2,0,0,0,0,4V18a2,2,0,0,0,2,2H16a2,2,0,0,0,2-2V4A2,2,0,0,0,16,2Zm1,16a1,1,0,0,1-1,1H2a1,1,0,0,1-1-1V4A1,1,0,0,1,2,3H16a1,1,0,0,1,1,1Z"/><circle class="cls-2" cx="6" cy="12" r="2"/></svg>