<svg id="Layer_1" data-name="Layer 1" xmlns="http://www.w3.org/2000/svg" viewBox="0 0 15 23"><path d="M2.11,23a1,1,0,0,1-.61-.19A1.14,1.14,0,0,1,1,21.86V19.77a1.14,1.14,0,0,1-1-1.14V1.14A1.13,1.13,0,0,1,1.12,0h11.1A2.82,2.82,0,0,1,15,2.86V16.91a2.83,2.83,0,0,1-2.78,2.87H6.47v2.08a1.14,1.14,0,0,1-.51.95,1.1,1.1,0,0,1-1.07.09l-1.16-.53-1.15.53A1.1,1.1,0,0,1,2.11,23ZM2,19.78v2.08a.14.14,0,0,0,.07.12.09.09,0,0,0,.1,0l1.57-.72L5.3,22h.11a.16.16,0,0,0,.06-.12V19.78Zm8.51-1h1.72A1.83,1.83,0,0,0,14,16.91v-14A1.83,1.83,0,0,0,12.22,1H10.5ZM6,18.78H9.5V1H1.12A.14.14,0,0,0,1,1.14V18.63a.14.14,0,0,0,.12.15Z"/></svg>