<svg id="Layer_1" data-name="Layer 1" xmlns="http://www.w3.org/2000/svg" viewBox="0 0 14 14"><path d="M4.67,7A2.33,2.33,0,1,1,7,9.33,2.33,2.33,0,0,1,4.67,7ZM3.41,7A3.59,3.59,0,1,0,7,3.41,3.58,3.58,0,0,0,3.41,7ZM9.9,3.26a.86.86,0,0,0,.14.47.77.77,0,0,0,.38.31.87.87,0,0,0,.48,0,.9.9,0,0,0,.43-.23.84.84,0,0,0,.18-.92.8.8,0,0,0-.31-.37.77.77,0,0,0-.46-.15h0a.84.84,0,0,0-.6.25A.87.87,0,0,0,9.9,3.26ZM4.17,12.7a4,4,0,0,1-1.3-.24,2.16,2.16,0,0,1-.8-.53,2.08,2.08,0,0,1-.53-.8,4,4,0,0,1-.24-1.3c0-.74,0-1,0-2.83s0-2.09,0-2.83a4,4,0,0,1,.24-1.3,2.08,2.08,0,0,1,.53-.8,2.08,2.08,0,0,1,.8-.53,4,4,0,0,1,1.3-.24c.74,0,1,0,2.83,0s2.09,0,2.83,0a4,4,0,0,1,1.3.24,2.08,2.08,0,0,1,.8.53,2.08,2.08,0,0,1,.53.8,4,4,0,0,1,.24,1.3c0,.74,0,1,0,2.83s0,2.09,0,2.83a4,4,0,0,1-.24,1.3,2.41,2.41,0,0,1-1.33,1.33,4,4,0,0,1-1.3.24c-.74,0-1,0-2.83,0S4.91,12.73,4.17,12.7ZM4.11,0A5,5,0,0,0,2.42.37a3.51,3.51,0,0,0-1.25.8,3.56,3.56,0,0,0-.8,1.24A5.16,5.16,0,0,0,0,4.11C0,4.86,0,5.1,0,7S0,9.14,0,9.89a5.16,5.16,0,0,0,.33,1.7,3.56,3.56,0,0,0,.8,1.24,3.51,3.51,0,0,0,1.25.8A5,5,0,0,0,4.11,14c.75,0,1,0,2.89,0s2.14,0,2.89,0a5.16,5.16,0,0,0,1.7-.33,3.56,3.56,0,0,0,1.24-.8,3.42,3.42,0,0,0,.8-1.24A5.16,5.16,0,0,0,14,9.89c0-.75,0-1,0-2.89s0-2.14,0-2.89a5.16,5.16,0,0,0-.33-1.7,3.5,3.5,0,0,0-2-2A5.16,5.16,0,0,0,9.89,0C9.14,0,8.9,0,7,0S4.86,0,4.11,0Z"/></svg>