<svg id="Layer_1" data-name="Layer 1" xmlns="http://www.w3.org/2000/svg" viewBox="0 0 14.5 18.5"><defs><style>.cls-1{opacity:0.3;isolation:isolate;}.cls-2{fill:#7abed1;}.cls-3{fill:#e56a59;}</style></defs><g class="cls-1"><path class="cls-2" d="M3.35,12.79v-1c0-3,1.11-5,3.9-5H3.75c-3.56-.16-3.62.73-3.5,4v4c0,3,1.06,3.5,5,3.5h3C5.46,18.25,3.35,15.8,3.35,12.79Z"/></g><path d="M12.19,18.5H2.31A2.34,2.34,0,0,1,0,16.14V9A2.34,2.34,0,0,1,2.31,6.61h1V4a4,4,0,1,1,7.91,0V6.61h1A2.34,2.34,0,0,1,14.5,9v7.17A2.34,2.34,0,0,1,12.19,18.5ZM2.31,7.11A1.83,1.83,0,0,0,.5,9v7.17A1.83,1.83,0,0,0,2.31,18h9.88A1.83,1.83,0,0,0,14,16.14V9a1.83,1.83,0,0,0-1.81-1.86Zm1.49-.5h6.91V4A3.46,3.46,0,1,0,3.8,4Z"/><path class="cls-3" d="M7.25,15.5c-.74,0-1.33-.44-1.33-1V13A1.56,1.56,0,0,1,5,11.65C5,10.74,6,10,7.25,10s2.25.74,2.25,1.65A1.53,1.53,0,0,1,8.58,13v1.51C8.58,15.06,8,15.5,7.25,15.5Zm0-5c-1,0-1.75.53-1.75,1.15a1.13,1.13,0,0,0,.77.95l.15.07v1.82c0,.28.38.51.83.51s.83-.23.83-.51V12.67l.15-.07A1.13,1.13,0,0,0,9,11.65C9,11,8.2,10.5,7.25,10.5Z"/></svg>