<svg id="Layer_1" data-name="Layer 1" xmlns="http://www.w3.org/2000/svg" viewBox="0 0 17 17"><path d="M16.5,17H1.19A1.2,1.2,0,0,1,0,15.8V.5A.5.5,0,0,1,.5,0,.5.5,0,0,1,1,.5V15.8a.2.2,0,0,0,.19.2H16.5a.5.5,0,0,1,0,1Z"/><path d="M3.17,12.55a.54.54,0,0,1-.34-.12.51.51,0,0,1,0-.71l3.56-4a.52.52,0,0,1,.37-.17h0a.54.54,0,0,1,.38.17l2.27,2.57,4.85-6.55L10.75,4a.5.5,0,0,1-.54-.46A.5.5,0,0,1,10.67,3l4.56-.31a.38.38,0,0,1,.15,0h0a.56.56,0,0,1,.17.09h0a.52.52,0,0,1,.1.11l0,.06a.5.5,0,0,1,0,.13l.79,4.43a.51.51,0,0,1-.41.58.5.5,0,0,1-.58-.4L15,4.4l-5.16,7a.49.49,0,0,1-.38.21.57.57,0,0,1-.4-.17L6.72,8.81,3.54,12.39A.5.5,0,0,1,3.17,12.55Z"/></svg>