<svg id="Layer_1" data-name="Layer 1" xmlns="http://www.w3.org/2000/svg" viewBox="0 0 22 22"><defs><style>.cls-1{fill:#7abed1;opacity:0.3;isolation:isolate;}.cls-2{fill:#e56a59;}</style></defs><path class="cls-1" d="M4.73,17.69V8.77C4.73,4,6.85,2.83,9.39,2.83H6.59C1.45,2.82,1,1.91,1,6V17.69c0,3.77,0,3.19,5.54,3.19H9.35C6.81,20.88,4.73,21.43,4.73,17.69Z"/><path d="M17.41,1a.25.25,0,0,0-.5,0ZM11.24,1A.25.25,0,0,0,11,.75a.25.25,0,0,0-.25.25ZM5.08,1a.25.25,0,0,0-.5,0ZM17,20.89l.18.17h0ZM20.89,17l.17.18h0Zm-3.05-.3v-.25h0Zm-1.18,1.18h0ZM4.58,4.28a.25.25,0,0,0,.5,0Zm6.16,0a.25.25,0,0,0,.25.25.25.25,0,0,0,.25-.25Zm6.17,0a.25.25,0,1,0,.5,0Zm4.34-.55a1.43,1.43,0,0,0-1.42-1.42v.5a.92.92,0,0,1,.92.92ZM19.83,2.31H17.15v.5h2.68Zm-2.67,0H11v.5h6.17ZM11,2.31H4.83v.5H11Zm-6.16,0H2.17v.5H4.83Zm-2.66,0A1.43,1.43,0,0,0,.75,3.73h.5a.92.92,0,0,1,.92-.92ZM.75,19.83a1.43,1.43,0,0,0,1.42,1.42v-.5a.92.92,0,0,1-.92-.92Zm1.42,1.42H16.69v-.5H2.17Zm14.52,0a.64.64,0,0,0,.45-.19l-.35-.35a.18.18,0,0,1-.1,0Zm.45-.19,3.92-3.92-.35-.35-3.92,3.92Zm3.92-3.92a.64.64,0,0,0,.19-.45h-.5a.18.18,0,0,1,0,.1Zm-.06-.7-3.16,0v.5l3.17,0Zm-3.16,0a1.43,1.43,0,0,0-1.43,1.43h.5a.93.93,0,0,1,.93-.93Zm-1.43,1.43,0,3.16h.5l0-3.17ZM4.58,1V4.28h.5V1Zm6.16,0V4.28h.5V1Zm6.17,0V4.28h.5V1ZM.75,3.73V6.94h.5V3.73Zm0,3.21V19.83h.5V6.94Zm20.5,9.75V6.94h-.5v9.75Zm0-9.75V3.73h-.5V6.94ZM1,7.19H21v-.5H1Z"/><path class="cls-2" d="M8.66,14.69V12a.77.77,0,0,0-.76-.77H6.21a.4.4,0,0,0,0,.79H7.88V13H6.21a.39.39,0,0,0-.39.39.38.38,0,0,0,.39.39H7.88v.94H6.21a.39.39,0,0,0-.39.39.38.38,0,0,0,.39.39H7.9A.76.76,0,0,0,8.66,14.69Z"/><path class="cls-2" d="M12.05,12a.4.4,0,0,0,0-.79H10.36A.77.77,0,0,0,9.6,12v2.69a.76.76,0,0,0,.76.76h1.32a.76.76,0,0,0,.76-.76v-1a.76.76,0,0,0-.76-.76h-1.3V12Zm-.94,1.71h.55v.94H10.38v-.94Z"/><path class="cls-2" d="M15.46,13h-1.3V12h1.67a.4.4,0,0,0,0-.79H14.14a.77.77,0,0,0-.76.77v1a.76.76,0,0,0,.76.76h1.3v.94H13.77a.39.39,0,0,0-.39.39.38.38,0,0,0,.39.39h1.69a.76.76,0,0,0,.76-.76v-1A.76.76,0,0,0,15.46,13Z"/></svg>