<svg id="Layer_1" data-name="Layer 1" xmlns="http://www.w3.org/2000/svg" viewBox="0 0 20.52 15.47"><defs><style>.cls-1{fill:none;}</style></defs><path class="cls-1" d="M16.46,10.29a2.39,2.39,0,0,1,.33,1.08,2.09,2.09,0,0,1-.34,1.23.93.93,0,0,0,.29,0,1.14,1.14,0,0,0,.74-.48,1.16,1.16,0,0,0-.31-1.61A1.13,1.13,0,0,0,16.46,10.29Z"/><path class="cls-1" d="M15.32,10.49a1.15,1.15,0,1,0,0,1.93,1.22,1.22,0,0,0,.49-1A1.26,1.26,0,0,0,15.32,10.49Z"/><path class="cls-1" d="M4.93,2.52H17V2.46A1.45,1.45,0,0,0,15.56,1H2.44A1.46,1.46,0,0,0,1,2.46v8.05A1.43,1.43,0,0,0,2.43,12h0V5A2.45,2.45,0,0,1,4.93,2.52Z"/><path class="cls-1" d="M19.52,6s0,0,0-.1V5a1.45,1.45,0,0,0-1.46-1.44H4.93A1.45,1.45,0,0,0,3.47,5v8a1.48,1.48,0,0,0,1.46,1.47H18.05A1.49,1.49,0,0,0,19.51,13l0-4.82s0,0,0-.09ZM4.76,6.13v-1H18.05v1Zm13.55,6.53a2.17,2.17,0,0,1-1.79.94,2.12,2.12,0,0,1-.92-.2,2.25,2.25,0,0,1-.93.2,2.16,2.16,0,0,1,0-4.31,2.26,2.26,0,0,1,.93.21,2.17,2.17,0,0,1,3,1.54A2.16,2.16,0,0,1,18.31,12.66Z"/><path d="M17.73,9.67A2.12,2.12,0,0,0,15.6,9.5a2.26,2.26,0,0,0-.93-.21,2.16,2.16,0,0,0,0,4.31,2.25,2.25,0,0,0,.93-.2,2.12,2.12,0,0,0,.92.2A2.15,2.15,0,0,0,18.64,11,2.13,2.13,0,0,0,17.73,9.67ZM15.3,12.42a1.16,1.16,0,1,1,0-1.93,1.26,1.26,0,0,1,.47.92A1.22,1.22,0,0,1,15.3,12.42Zm2.18-.32a1.14,1.14,0,0,1-.74.48.93.93,0,0,1-.29,0,2.09,2.09,0,0,0,.34-1.23,2.39,2.39,0,0,0-.33-1.08,1.13,1.13,0,0,1,.71.2,1.16,1.16,0,0,1,.31,1.61Z"/><path d="M20.52,6.06a.68.68,0,0,0,0-.12h0V5a2.45,2.45,0,0,0-2.46-2.44H18V2.46A2.45,2.45,0,0,0,15.56,0H2.44A2.46,2.46,0,0,0,0,2.46v8.05A2.44,2.44,0,0,0,2.44,13l0,.06a2.48,2.48,0,0,0,2.46,2.46H18.05A2.49,2.49,0,0,0,20.51,13V8.22a.42.42,0,0,0,0-.13ZM2.47,12h0A1.43,1.43,0,0,1,1,10.51v-8A1.46,1.46,0,0,1,2.44,1H15.56A1.45,1.45,0,0,1,17,2.46v.06H4.93A2.45,2.45,0,0,0,2.47,5Zm17,1.05a1.49,1.49,0,0,1-1.46,1.47H4.93A1.48,1.48,0,0,1,3.47,13V5A1.45,1.45,0,0,1,4.93,3.52H18.05A1.45,1.45,0,0,1,19.51,5v1c0,.06,0,.13,0,.1V8.09c0,.06,0,.1,0,.09Z"/><rect x="4.76" y="5.13" width="13.29" height="1"/></svg>