<svg id="Layer_1" data-name="Layer 1" xmlns="http://www.w3.org/2000/svg" viewBox="0 0 11 18"><path d="M5,13.84a.49.49,0,0,1-.36-.15.56.56,0,0,1-.14-.38v-1A4.67,4.67,0,0,1,5.14,10,15.83,15.83,0,0,1,6.88,7.78,13.74,13.74,0,0,0,8.24,6.11a2.65,2.65,0,0,0,.43-1.45,2.19,2.19,0,0,0-.93-1.85,3.47,3.47,0,0,0-2.12-.68q-2.83,0-3.33,3a.61.61,0,0,1-.62.56H.52a.52.52,0,0,1-.38-.15A.6.6,0,0,1,0,5.17,5.29,5.29,0,0,1,.74,2.61a5.16,5.16,0,0,1,2-1.9,6,6,0,0,1,3-.71,6,6,0,0,1,3,.66,4.16,4.16,0,0,1,1.79,1.67A4.41,4.41,0,0,1,11,4.51a4.29,4.29,0,0,1-.55,2.23A13.56,13.56,0,0,1,8.81,8.92a14.21,14.21,0,0,0-1.36,1.73,3.25,3.25,0,0,0-.52,1.54c0,.48,0,.83,0,1.07-.08.39-.28.58-.59.58ZM4.81,18a.61.61,0,0,1-.41-.15.69.69,0,0,1-.14-.43V15.87a.62.62,0,0,1,.14-.41.58.58,0,0,1,.41-.17H6.36a.54.54,0,0,1,.4.17.55.55,0,0,1,.17.41v1.55a.61.61,0,0,1-.17.43.57.57,0,0,1-.4.15Z"/></svg>