<svg id="Layer_1" data-name="Layer 1" xmlns="http://www.w3.org/2000/svg" viewBox="0 0 13 16"><path d="M11,16H2a2,2,0,0,1-2-1.93V6.93A2,2,0,0,1,2,5h.25V4.07A4.17,4.17,0,0,1,6.5,0a4.17,4.17,0,0,1,4.25,4.07V5H11a2,2,0,0,1,2,1.93v7.14A2,2,0,0,1,11,16ZM2,6a1,1,0,0,0-1,.93v7.14A1,1,0,0,0,2,15h9a1,1,0,0,0,1-.93V6.93A1,1,0,0,0,11,6h-.75V6ZM3.25,5h6.5V4.07A3.17,3.17,0,0,0,6.5,1,3.17,3.17,0,0,0,3.25,4.07ZM6.5,12.43a1.93,1.93,0,1,1,2-1.93A2,2,0,0,1,6.5,12.43Zm0-2.86a.93.93,0,1,0,1,.93A1,1,0,0,0,6.5,9.57Z"/></svg>