<svg id="Layer_1" data-name="Layer 1" xmlns="http://www.w3.org/2000/svg" viewBox="0 0 14.68 18"><path d="M9.84,15v1.56A1.33,1.33,0,0,1,8.64,18H7a1.34,1.34,0,0,1-1.2-1.44V15Z"/><path d="M9.84,14h-4a4.34,4.34,0,0,1-2-3.71A4.15,4.15,0,0,1,7.84,6a4.15,4.15,0,0,1,4,4.29A4.31,4.31,0,0,1,9.84,14Z"/><path d="M2.19,4.91a.5.5,0,0,1-.37-.16L.13,2.9a.5.5,0,1,1,.74-.68L2.56,4.07a.5.5,0,0,1-.37.84Z"/><path d="M13.12,4.64a.51.51,0,0,1-.26-.07.5.5,0,0,1-.16-.69l1.06-1.73A.5.5,0,0,1,14.45,2a.51.51,0,0,1,.16.69L13.55,4.4A.49.49,0,0,1,13.12,4.64Z"/><path d="M7.84,4a.5.5,0,0,1-.5-.5V.5a.5.5,0,0,1,.5-.5.5.5,0,0,1,.5.5v3A.5.5,0,0,1,7.84,4Z"/></svg>