<svg id="Layer_1" data-name="Layer 1" xmlns="http://www.w3.org/2000/svg" viewBox="0 0 18 18"><defs><style>.cls-1{fill:none;}</style></defs><polygon class="cls-1" points="14.44 4.64 13.69 3.33 11.5 4.64 14.44 4.64"/><path class="cls-1" d="M13.19,2.46l-.54-.94A1,1,0,0,0,12,1a1,1,0,0,0-.78.1l-6,3.5H9.54Z"/><path class="cls-1" d="M10.82,11.32A2.82,2.82,0,0,1,13.64,8.5h2.59V6.68a1.05,1.05,0,0,0-1-1H2.05a1,1,0,0,0-1,1V16a1,1,0,0,0,1,1.05H15.18A1,1,0,0,0,16.23,16V14.14H13.64A2.82,2.82,0,0,1,10.82,11.32Z"/><polygon class="cls-1" points="15.3 5.14 15.3 5.15 15.31 5.13 15.3 5.14"/><path class="cls-1" d="M16.63,9.5h-3a1.82,1.82,0,0,0,0,3.64h3a.81.81,0,0,0,.37-.66V10.16A.79.79,0,0,0,16.63,9.5Zm-2.71,2.63a.9.9,0,1,1,.9-.89A.89.89,0,0,1,13.92,12.13Z"/><path class="cls-1" d="M13.92,11.13a.1.1,0,0,0-.1.11c0,.12.21.12.21,0A.11.11,0,0,0,13.92,11.13Z"/><path d="M17.23,8.7v-2a2.06,2.06,0,0,0-1.61-2L13.52,1a2,2,0,0,0-1.24-1,2,2,0,0,0-1.54.21L3.25,4.64H2.05a2.05,2.05,0,0,0-2,2V16A2.05,2.05,0,0,0,2.05,18H15.18A2.05,2.05,0,0,0,17.23,16v-2A1.8,1.8,0,0,0,18,12.48V10.16A1.8,1.8,0,0,0,17.23,8.7ZM15.3,5.14h0v0ZM13.69,3.33l.75,1.31H11.5ZM11.24,1.14A1,1,0,0,1,12,1a1,1,0,0,1,.63.48l.54.94L9.54,4.64H5.23Zm5,14.81A1,1,0,0,1,15.18,17H2.05A1,1,0,0,1,1,16V6.68a1,1,0,0,1,1-1H15.26a1.05,1.05,0,0,1,1,1V8.5H13.64a2.82,2.82,0,0,0,0,5.64h2.59ZM17,12.48a.81.81,0,0,1-.37.66h-3a1.82,1.82,0,0,1,0-3.64h3a.79.79,0,0,1,.37.66Z"/><path d="M13.92,10.34a.9.9,0,1,0,.9.9A.89.89,0,0,0,13.92,10.34Zm-.1.9a.1.1,0,0,1,.1-.11.11.11,0,0,1,.11.11C14,11.36,13.82,11.36,13.82,11.24Z"/></svg>