<svg id="Layer_1" data-name="Layer 1" xmlns="http://www.w3.org/2000/svg" viewBox="0 0 869.42 849.91"><defs><style>.cls-1,.cls-2{fill:#7abed1;fill-rule:evenodd;}.cls-1{opacity:0.1;}.cls-1,.cls-3{isolation:isolate;}.cls-2{fill-opacity:0.15;}.cls-3{fill:none;stroke:#b3becb;stroke-width:3px;opacity:0.2;}</style></defs><path class="cls-1" d="M559.8,840.58c-106.9,27.23-225.37-6.86-308.22-79.7C178,696.21,186.82,587.44,163.65,492.29,140.19,396,78.06,300.93,117.41,209.93c42.83-99,141.79-175.86,249.13-186.77C466.69,13,538.08,105.38,623.61,158.47c85.18,52.87,200.92,75.15,234.33,169.67,35.13,99.38-16.7,205-69.71,296.07C733.4,718.45,665.46,813.67,559.8,840.58Z"/><path class="cls-2" d="M7,459.11c-33.73-108.35,62.56-187,132.65-276,62.23-79,190.74,6.59,287-22.27C524,131.64,565.84,53,661.22,88.56c103.8,38.72,187.93,136.27,205,245.94,15.91,102.32-74.87,180.55-124.58,271.22-49.5,90.3-90,149.78-185,189.12-99.89,41.36-242.49-16.29-335.72-77.69C121.36,665.85,40.3,566.2,7,459.11Z"/><path class="cls-3" d="M817.81,533.93C805.93,644.71,755.75,758.24,659,813.5c-93.83,53.6-208.2,20.37-311.66-10.85-93-28-180.72-72.86-234.3-153.88-54.25-82-57.37-224-46.85-321.76,12.14-112.86,83.7-153.95,173.39-223.53,94.56-73.36,165.95-128.9,278.51-88.23C621,52.43,663.74,164.43,718.46,259.12,769.13,346.8,828.61,433.25,817.81,533.93Z"/></svg>