<svg id="Layer_1" data-name="Layer 1" xmlns="http://www.w3.org/2000/svg" xmlns:xlink="http://www.w3.org/1999/xlink"
    viewBox="0 0 300 162">
    <defs>
        <style>
            .cls-1,
            .cls-4,
            .cls-6 {
                fill: #7abed1;
            }

            .cls-2 {
                fill: none;
            }

            .cls-3 {
                clip-path: url(#clip-path);
            }

            .cls-4,
            .cls-6 {
                
            }

            .cls-5 {
                mask: url(#mask);
            }

            .cls-6 {
                fill-rule: evenodd;
            }

            .cls-7 {
                fill: #d0ae8f;
            }

            .cls-8 {
                fill: #e8c6a7;
            }

            .cls-9 {
                fill: url(#linear-gradient);
            }

            .cls-10 {
                fill: url(#linear-gradient-2);
            }

            .cls-11 {
                fill: url(#linear-gradient-3);
            }

            .cls-12 {
                fill: url(#linear-gradient-4);
            }

            .cls-13 {
                fill: #fff;
            }

            .cls-14 {
                fill: #3b3b40;
            }
        </style>
        <clipPath id="clip-path">
            <rect class="cls-2" width="300" height="162.2" />
        </clipPath>
        <mask id="mask" x="-110.83" y="0" width="410.83" height="393.76" maskUnits="userSpaceOnUse">
            <g id="mask0">
                <path class="cls-1"
                    d="M0,15A15,15,0,0,1,15,0H285a15,15,0,0,1,15,15V133.05a15,15,0,0,1-15,15H66.33a10,10,0,0,0-3.54.65L30.41,161a2,2,0,0,1-2.71-1.87v-6a5,5,0,0,0-5-5H15a15,15,0,0,1-15-15Z" />
            </g>
        </mask>
        <linearGradient id="linear-gradient" x1="-553.67" y1="40297.08" x2="-487.22" y2="36121.19"
            gradientTransform="matrix(1, 0, 0, -1, 0, 164)" gradientUnits="userSpaceOnUse">
            <stop offset="0" stop-color="#fffac0" />
            <stop offset="0.54" stop-color="#ffc880" />
            <stop offset="1" stop-color="#ef6262" />
        </linearGradient>
        <linearGradient id="linear-gradient-2" x1="-331.83" y1="41023.76" x2="-286.1" y2="36553.17"
            xlink:href="#linear-gradient" />
        <linearGradient id="linear-gradient-3" x1="-498.66" y1="36951.52" x2="-432.21" y2="32775.52"
            xlink:href="#linear-gradient" />
        <linearGradient id="linear-gradient-4" x1="-612.18" y1="33303.09" x2="-529.6" y2="29386.89"
            xlink:href="#linear-gradient" />
    </defs>
    <g class="cls-3">
        <path class="cls-4"
            d="M0,92A15,15,0,0,1,15,77H251.5a15,15,0,0,1,15,15v41.08a15,15,0,0,1-15,15H48.57a10,10,0,0,0-6.43,2.33l-10.53,8.84a2,2,0,0,1-3.28-1.54v-4.63a5,5,0,0,0-5-5H15a15,15,0,0,1-15-15Z" />
        <g class="cls-5">
            <path class="cls-6"
                d="M-108.33,223.49c-12.15-39,22.54-67.37,47.78-99.42,22.42-28.44,68.71,2.38,103.37-8C77.9,105.53,93,77.2,127.34,90,164.73,104,195,139.1,201.17,178.6c5.73,36.86-27,65-44.87,97.7s-32.41,53.95-66.64,68.12c-36,14.9-87.34-5.87-120.92-28C-67.12,298-96.32,262.06-108.33,223.49Z" />
            <path class="cls-6"
                d="M273.31,320.74c-5.59,40.5-49,51.4-85.52,69.67-32.38,16.22-61.17-31.36-97-36.69C54.6,348.33,28.9,367.56,3.25,341.35c-27.91-28.52-40.39-73.21-29.16-111.57,10.49-35.8,52.07-47.4,82.16-69.35s52.28-35.05,89.28-33.32c38.9,1.81,76.56,42.45,97.55,76.74C267.68,235.82,278.84,280.73,273.31,320.74Z" />
            <path class="cls-7" d="M90.83,90.31,71.9,91.89l-1.13,26.75L70,115.56,63.79,126.8l6.43,4.77L91.71,123Z" />
            <path class="cls-8"
                d="M66.87,129.08a53.81,53.81,0,0,0,5-37.2,54,54,0,0,0,4.18-11.67C79,68.72,76,67.92,72.87,67L58.61,92l-13,21.33Z" />
            <path class="cls-9"
                d="M76.22,94.85a4.71,4.71,0,0,1,4-5.34l11.14-1.64a4.69,4.69,0,0,1,5.33,4h0a4.66,4.66,0,0,1-.88,3.48,4.72,4.72,0,0,1-3.08,1.85L81.55,98.81a4.71,4.71,0,0,1-5.33-4Z" />
            <path class="cls-10"
                d="M76.32,104.33a4.71,4.71,0,0,1,4-5.33l12.42-1.84a4.71,4.71,0,0,1,5.33,4h0a4.7,4.7,0,0,1-4,5.34l-12.42,1.83a4.69,4.69,0,0,1-5.33-4Z" />
            <path class="cls-11"
                d="M78.28,113.56a4.71,4.71,0,0,1,4-5.34l11.14-1.65a4.71,4.71,0,0,1,5.34,4h0a4.78,4.78,0,0,1-.88,3.49,4.72,4.72,0,0,1-3.08,1.85l-11.14,1.65a4.71,4.71,0,0,1-5.34-4Z" />
            <path class="cls-12"
                d="M79.53,122.91a4.73,4.73,0,0,1,4-5.34l10-1.47a4.69,4.69,0,0,1,5.34,4h0a4.71,4.71,0,0,1-4,5.33l-10,1.48a4.71,4.71,0,0,1-5.34-4Z" />
            <path class="cls-13"
                d="M70.24,131.64A183.34,183.34,0,0,0,54.72,154.9c-1.33,2.43-2.55,4.89-3.58,7.3H1.39c8.24-10.9,25-31.76,44.28-48.82l9,6.72Z" />
            <path class="cls-8"
                d="M76.22,94.85a4.71,4.71,0,0,1,4-5.34l11.14-1.64a4.69,4.69,0,0,1,5.33,4h0a4.66,4.66,0,0,1-.88,3.48,4.72,4.72,0,0,1-3.08,1.85L81.55,98.81a4.71,4.71,0,0,1-5.33-4Z" />
            <path class="cls-8"
                d="M76.32,104.33a4.71,4.71,0,0,1,4-5.33l12.42-1.84a4.71,4.71,0,0,1,5.33,4h0a4.7,4.7,0,0,1-4,5.34l-12.42,1.83a4.69,4.69,0,0,1-5.33-4Z" />
            <path class="cls-8"
                d="M78.28,113.56a4.71,4.71,0,0,1,4-5.34l11.14-1.65a4.71,4.71,0,0,1,5.34,4h0a4.78,4.78,0,0,1-.88,3.49,4.72,4.72,0,0,1-3.08,1.85l-11.14,1.65a4.71,4.71,0,0,1-5.34-4Z" />
            <path class="cls-8"
                d="M79.53,122.91a4.73,4.73,0,0,1,4-5.34l10-1.47a4.69,4.69,0,0,1,5.34,4h0a4.71,4.71,0,0,1-4,5.33l-10,1.48a4.71,4.71,0,0,1-5.34-4Z" />
            <path class="cls-14" d="M35,118.25,67.15,140.3S55.24,154.11,51.1,162.15H0S20.29,130.65,35,118.25Z" />
        </g>
    </g>
</svg>