<svg id="Layer_1" data-name="Layer 1" xmlns="http://www.w3.org/2000/svg" xmlns:xlink="http://www.w3.org/1999/xlink" viewBox="0 0 1680 755.52"><defs><style>.cls-1{fill:none;}.cls-2{clip-path:url(#clip-path);}.cls-3,.cls-4{fill:#7abed1;fill-rule:evenodd;}.cls-3{opacity:0.1;isolation:isolate;}.cls-4{fill-opacity:0.1;}</style><clipPath id="clip-path"><rect class="cls-1" width="1680" height="755.52"/></clipPath></defs><g class="cls-2"><path class="cls-3" d="M1338.57,1533.62c-221.1,74.9-512.71,55-752.21-37.36-212.61-82-271.73-258.74-393-404.32C70.67,944.57-138.25,810.61-115.6,653.37c24.65-171.11,191.85-323.12,425.76-372C528.41,235.71,745.5,402.6,976.7,462.55c230.26,59.71,518,21.67,661.79,163.23,151.22,148.83,111,333.09,57.73,494.48C1641.07,1287.22,1557.09,1459.6,1338.57,1533.62Z"/><path class="cls-4" d="M-178.75,1049.34c-160.15-158.59,3.62-320.68,98.88-488.91,84.56-149.34,447.24-63.68,648.5-146.8C772.4,329.47,810,188.55,1058.08,207.87c270,21,538.77,142.91,661.22,310.08,114.25,156-37.06,315.21-83.76,478.21-46.5,162.33-95.39,272.32-285.94,371.58-200.33,104.37-574.57,68.44-837.15,7.36C242.84,1332.49-20.46,1206.08-178.75,1049.34Z"/></g></svg>