<svg width="503" height="360" viewBox="0 0 503 360" fill="none" xmlns="http://www.w3.org/2000/svg">
<path opacity="0.4" fill-rule="evenodd" clip-rule="evenodd" d="M332.909 423.239C288.421 454.801 227.906 461.147 177.03 443.757C131.867 428.32 116.928 378.267 89.6471 340.09C62.0277 301.441 16.8228 270.402 19.0665 222.709C21.5083 170.807 53.677 118.592 101.214 94.2189C145.566 71.4788 194.576 99.6704 243.237 107.772C291.699 115.84 348.899 104.728 380.786 140.763C414.31 178.647 408.867 235.107 400.355 285.326C391.55 337.275 376.878 392.047 332.909 423.239Z" fill="#7ABED1" fill-opacity="0.15"/>
<path opacity="0.2" fill-rule="evenodd" clip-rule="evenodd" d="M407.772 219.903C422.47 273.176 420.117 334.646 385.828 377.655C352.572 419.368 294.117 424.73 241.03 429.047C193.31 432.927 144.962 428.126 105.673 400.436C65.9038 372.407 38.6522 307.448 25.6964 260.432C10.7391 206.153 36.0642 174.242 64.5132 125.903C94.5075 74.9381 117.129 36.3892 176.106 34.793C230.004 33.3342 269.978 77.273 312.276 111.07C351.434 142.36 394.414 171.489 407.772 219.903Z" stroke="#D0D3D5" stroke-width="3"/>
<path fill-rule="evenodd" clip-rule="evenodd" d="M18.2189 354.073C-17.0833 310.728 13.1275 257.597 29.3553 204.47C43.7611 157.308 118.737 173.274 157.971 142.865C197.692 112.079 202.75 68.7107 253.317 67.8281C308.348 66.8676 364.98 96.2526 392.806 143.19C418.767 186.982 391.028 238.922 384.535 289.169C378.069 339.21 370.169 373.583 333.398 408.554C294.74 445.321 218.326 444.613 164.06 433.339C108.708 427.803 53.1084 396.911 18.2189 354.073Z" fill="#7ABED1" fill-opacity="0.15"/>
<path opacity="0.2" fill-rule="evenodd" clip-rule="evenodd" d="M287.634 54.6044C341.685 66.1132 395.153 96.5329 417.518 146.785C439.209 195.524 417.026 249.871 396.39 298.973C377.84 343.111 351.296 383.805 308.614 405.91C265.41 428.285 195.202 422.531 147.506 412.359C92.4424 400.616 75.7943 363.433 46.0075 315.907C14.6029 265.799 -9.18157 227.957 16.5839 174.882C40.1306 126.377 97.5482 111.153 147.036 89.1927C192.852 68.8621 238.513 44.1452 287.634 54.6044Z" stroke="#B3BECB" stroke-width="3"/>
<path d="M390.942 178.574C390.971 178.163 390.875 177.754 390.667 177.398C390.459 177.043 390.15 176.758 389.778 176.581C389.407 176.404 388.99 176.342 388.583 176.404C388.177 176.467 387.798 176.65 387.496 176.93C382.465 181.61 372.617 189.129 362.509 187.735C361.996 187.664 361.51 187.613 361.031 187.565C361.191 186.828 361.524 186.139 362.002 185.555C362.481 184.972 363.091 184.51 363.783 184.21C368.58 181.965 367.3 174.018 367.3 174.018C367.3 174.018 364.208 178.384 358.988 179.125C354.491 179.767 349.688 184.381 348.954 190.14C342.982 209.531 335.836 235.637 300.738 236.362C281.519 236.758 270.815 216.414 265.064 197.926C261.685 187.064 246.667 182.606 239.158 191.15L232.86 198.315L242.293 235.146C242.293 235.146 257.122 271.822 305.966 263.056C354.809 254.289 359.047 200.485 359.047 200.485C359.047 200.485 389.081 205.582 390.942 178.574Z" fill="#E8C6A7"/>
<path d="M259.449 96.2738C259.449 96.2738 272.712 59.2954 227.864 63.8909C227.864 63.8909 207.148 57.7726 203.558 77.6035C203.558 77.6035 188.799 84.8757 196.608 103.412C196.608 103.412 158.047 82.6619 135.928 115.964C113.809 149.266 127.576 170.848 143.978 178.08C143.978 178.08 129.32 183.266 133.882 199.715C138.444 216.165 170.109 231.334 192.013 214.783C192.013 214.783 246.628 229.106 250.452 189.733C250.452 189.733 278.381 176.315 255.323 140.464C232.265 104.613 259.449 96.2738 259.449 96.2738Z" fill="#2D3133"/>
<path d="M250.755 184.761C242.329 181.038 217.44 172.981 190.377 192.315C188.122 193.922 186.351 196.116 185.257 198.66C184.163 201.203 183.787 203.997 184.171 206.739C187.666 231.561 195.945 304.552 177.02 333.319C177.02 333.319 199.896 365.93 231.836 345.978C231.836 345.978 251.963 290.967 272.089 268.224C286.003 252.533 261.449 201.386 255.169 188.988C254.228 187.113 252.669 185.62 250.755 184.761Z" fill="#E56A59"/>
<path d="M232.562 134.109C232.562 134.109 215.006 169.082 212 185.096C216.384 187.483 221.327 188.652 226.316 188.48C231.305 188.307 236.156 186.8 240.364 184.116C240.364 184.116 246.402 147.701 249.253 141.408L232.562 134.109Z" fill="#E8C6A7"/>
<path d="M247 150L230.8 137L224.5 151C233.5 146 247 150 247 150Z" fill="#D0AE8F"/>
<path d="M256.834 86.3844C256.834 86.3844 284.749 138.041 262.772 149.279C240.794 160.516 220.909 123.785 220.909 123.785C220.909 123.785 216.294 96.8433 225.639 89.0746C234.984 81.3059 256.834 86.3844 256.834 86.3844Z" fill="#E8C6A7"/>
<path d="M242.575 73.0622C242.575 73.0622 257.676 78.7042 258.971 86.0234C260.266 93.3426 235.195 96.8446 228.366 96.3079L219.316 124.048C219.316 124.048 206.488 95.2815 214.841 80.6498C223.193 66.0181 242.575 73.0622 242.575 73.0622Z" fill="#2D3133"/>
<path d="M227.912 121.117C227.912 121.117 216.648 104.191 210.154 113.489C203.66 122.787 219.828 132.407 226.369 128.248L227.912 121.117Z" fill="#E8C6A7"/>
<path d="M186.297 196.663C186.297 196.663 140.598 225.846 124.423 271.546C108.248 317.246 178.348 331.126 178.348 331.126C178.348 331.126 189.296 321.606 200.218 326.866C211.14 332.126 203.452 308.263 190.108 306.646C176.764 305.029 181.615 316.354 163.823 305.432C146.522 294.798 138.37 267.615 190.168 234.487C193.187 232.581 195.68 229.949 197.421 226.833C209.416 205.049 204.076 189.123 186.297 196.663Z" fill="#E8C6A7"/>
<path d="M408.974 163.343C422.753 140.425 415.337 110.688 392.41 96.9235C369.483 83.1595 339.727 90.5805 325.948 113.499C312.17 136.417 319.586 166.154 342.513 179.918C365.44 193.682 395.196 186.261 408.974 163.343Z" fill="#A3BC90" fill-opacity="0.3"/>
<path opacity="0.7" d="M325.686 129.536C325.62 129.552 325.55 129.553 325.483 129.538C325.37 129.51 325.271 129.439 325.209 129.339C325.147 129.239 325.126 129.118 325.151 129.003C328.737 112.716 340.895 100.12 356.882 96.1333C359.423 95.4999 362.017 95.0991 364.632 94.9359C364.748 94.9286 364.864 94.9688 364.952 95.0474C365.04 95.126 365.094 95.2367 365.102 95.3551C365.11 95.4735 365.071 95.5899 364.994 95.6787C364.917 95.7676 364.808 95.8215 364.692 95.8287C362.125 95.9867 359.578 96.3786 357.084 96.9998C349.437 98.8836 342.477 102.896 336.984 108.586C331.492 114.276 327.687 121.417 325.996 129.206C325.979 129.285 325.941 129.357 325.887 129.415C325.832 129.473 325.763 129.515 325.686 129.536Z" fill="white"/>
<path d="M378.16 177.655C399.439 172.348 412.387 150.797 407.08 129.518C401.773 108.239 380.221 95.2913 358.943 100.598C337.664 105.905 324.716 127.457 330.023 148.736C335.33 170.014 356.882 182.962 378.16 177.655Z" fill="white"/>
<path d="M372.94 157.616L340.117 129.186L347.739 122.835L366.79 139.335L378.357 87.9383L388.415 88.8306L372.94 157.616Z" fill="#A3BC90"/>
</svg>
