<svg width="602" height="362" viewBox="0 0 602 362" fill="none" xmlns="http://www.w3.org/2000/svg">
<path opacity="0.2" fill-rule="evenodd" clip-rule="evenodd" d="M469.852 283.475C490.321 357.661 487.044 443.265 439.294 503.158C392.981 561.247 311.578 568.714 237.649 574.726C171.195 580.13 103.866 573.444 49.1525 534.882C-6.22963 495.85 -44.1799 405.388 -62.222 339.915C-83.0514 264.327 -47.7839 219.887 -8.16613 152.57C33.6036 81.5977 65.1058 27.915 147.237 25.692C222.295 23.6605 277.963 84.8493 336.865 131.915C391.397 175.488 451.251 216.054 469.852 283.475Z" stroke="#D0D3D5" stroke-width="3"/>
<path fill-rule="evenodd" clip-rule="evenodd" d="M-72.6395 470.317C-121.801 409.955 -79.7297 335.966 -57.1311 261.981C-37.0697 196.304 67.3409 218.538 121.978 176.19C177.292 133.318 184.336 72.9244 254.756 71.6953C331.391 70.3577 410.256 111.279 449.006 176.643C485.159 237.627 446.531 309.959 437.489 379.933C428.484 449.619 417.483 497.486 366.276 546.187C312.441 597.387 206.028 596.402 130.457 580.702C53.3745 572.992 -24.0528 529.973 -72.6395 470.317Z" fill="#7ABED1" fill-opacity="0.15"/>
<path opacity="0.4" fill-rule="evenodd" clip-rule="evenodd" d="M365.598 566.644C303.643 610.596 219.371 619.434 148.522 595.217C85.6282 573.719 64.8249 504.015 26.8332 450.851C-11.6294 397.028 -74.5813 353.804 -71.4566 287.388C-68.0562 215.109 -23.2583 142.396 42.9417 108.454C104.705 76.7859 172.956 116.045 240.721 127.327C308.208 138.563 387.865 123.089 432.27 173.27C478.955 226.028 471.375 304.653 459.522 374.587C447.261 446.93 426.828 523.206 365.598 566.644Z" fill="#7ABED1" fill-opacity="0.15"/>
<path opacity="0.2" fill-rule="evenodd" clip-rule="evenodd" d="M302.544 53.2791C377.815 69.3061 452.274 111.668 483.419 181.649C513.626 249.522 482.734 325.206 453.996 393.584C428.164 455.05 391.199 511.72 331.76 542.504C271.595 573.663 173.824 565.649 107.403 551.484C30.722 535.132 7.53795 483.351 -33.9427 417.167C-77.6765 347.387 -110.798 294.688 -74.9178 220.776C-42.1269 153.229 37.8323 132.028 106.749 101.446C170.552 73.1342 234.138 38.7136 302.544 53.2791Z" stroke="#B3BECB" stroke-width="3"/>
<path d="M392.594 135.412C386.443 134.23 380.692 123.782 378.695 119.776C378.203 118.796 378.043 117.678 378.241 116.596L380.688 103.407C380.688 103.407 386.334 104.385 385.912 112.05C385.879 112.847 386.014 113.642 386.307 114.381L388.468 120.131L394.859 115.101L391.355 105.036C391.355 105.036 386.666 106.346 384.242 105.562C379.249 103.947 385.79 100.024 387.873 99.5853C389.957 99.1469 394.468 97.4901 396.534 101.053C398.599 104.616 399.834 106.716 399.834 106.716C399.834 106.716 402.103 98.75 400.555 80.9268C400.483 80.1284 402.462 80.1423 403.016 80.7192C404.677 82.4359 407.319 87.6417 407.46 103.568C407.46 103.568 407.736 85.0388 410.864 83.1282C413.442 81.5591 414.74 90.6276 412.925 106.014C412.925 106.014 416.293 92.6905 418.698 92.6674C422.784 92.6305 418.753 128.24 408.54 138.855L392.594 135.412Z" fill="#E8C6A7"/>
<path d="M412.056 128.584C411.873 130.39 411.671 132.139 411.451 133.832C410.824 139.208 409.918 144.545 408.738 149.821C408.683 150.047 408.646 150.254 408.591 150.461C405.457 163.628 404.889 170.099 394.183 168.369L383.184 155.502L383.074 155.37L382.268 154.43L384.504 147.658L384.797 146.774L386.447 141.846L386.649 141.206L389.472 132.741L390.608 129.299L412.056 128.584Z" fill="#E8C6A7"/>
<path d="M288.79 139.67L256.947 139.884V93.6602H287.827L287.845 96.4869L287.994 111.136L288.216 134.657L288.79 139.67Z" fill="#E8C6A7"/>
<path d="M287.764 113.057C282.092 118.675 267.297 112.331 261.057 106.142L287.617 98.7949L287.764 113.057Z" fill="#D0AE8F"/>
<path d="M293.927 81.7448C293.935 85.3928 293.668 89.0358 293.129 92.6397C291.638 102.417 287.698 110.835 278.611 111.096C257.137 111.748 251.014 98.8601 246.968 88.319C242.921 77.7779 249.488 52.375 249.488 52.375L277.28 49.4883L292.543 62.6181C293.492 68.9444 293.955 75.3406 293.927 81.7448Z" fill="#E8C6A7"/>
<path d="M247.267 82.3595C247.267 82.3595 253.508 82.0653 254.575 65.681C265.734 69.4783 273.888 66.0166 280.338 58.4589C285.861 65.8649 301.296 68.1819 306.507 53.0205C310.277 42.0471 299.881 25.741 284.74 35.6111C269.902 27.989 247.393 28.5085 240.898 47.2143C240.898 47.2143 218.381 57.7877 242.222 81.0217C242.72 81.5044 247.267 82.3595 247.267 82.3595Z" fill="#2D3133"/>
<path d="M333.989 312.449L316.824 575.41H276.467L286.558 320.246L292.729 317.345L333.989 312.449Z" fill="#2D3133"/>
<path d="M228.185 275.54L199.432 575.411H244.092L286.606 326.336L334.937 311.649L337.075 258.406L229.41 255.955L228.185 275.54Z" fill="#2D3133"/>
<path opacity="0.6" d="M256.416 217.983C276.876 225.372 324.871 216.926 334.837 206.632L327.757 192.377L248.812 202.938L256.416 217.983Z" fill="#25292A"/>
<path d="M324.743 259.522C323.968 259.854 323.174 260.205 322.362 260.519C312.655 264.552 302.59 267.618 292.307 269.673C285.66 271.021 278.925 271.866 272.156 272.201C261.541 272.81 250.895 271.928 240.514 269.581L253.954 141.385L255.595 125.752C255.595 125.752 273.184 147.9 292.578 123.445L324.743 259.522Z" fill="white"/>
<path opacity="0.3" d="M272.377 272.202C261.688 272.813 250.967 271.928 240.514 269.571L254.048 140.858L258.88 133.719C270.815 163.368 283.041 228.915 272.377 272.202Z" fill="#C9C9C9"/>
<path d="M257.001 121.393C270.621 178.668 276.225 237.605 256.156 303.052C241.276 308.661 225.077 308.597 207.738 303.662L212.027 184.677L111.056 253.426L104.924 215.942C143.752 179.182 210.864 123.646 257.001 121.393Z" fill="#E56A59"/>
<path opacity="0.3" d="M322.694 260.184C313.131 264.204 303.216 267.259 293.087 269.307C287.205 234.4 285.907 177.056 290.688 151.18L322.694 260.184Z" fill="#C9C9C9"/>
<path opacity="0.6" d="M408.975 149.616C408.917 149.845 408.879 150.054 408.822 150.263C405.56 163.572 404.968 170.113 393.828 168.364L382.382 155.358L382.268 155.225L383.756 147.43L384.061 146.536L385.778 141.555L385.987 140.908L408.975 149.616Z" fill="#D0AE8F"/>
<path d="M405.896 160.9C405.896 160.9 379.168 218.305 363.312 219.683C347.941 221.019 340.66 205.906 340.66 205.906L351.533 289.8C338.758 295.862 324.805 298.82 308.64 295.918C294.27 248.615 288.839 187.453 287.77 119.338C299.403 120.073 322.444 121.083 330.694 126.456C345.49 136.1 363.765 170.544 363.765 170.544L385.057 141.152L405.896 160.9Z" fill="#E56A59"/>
<path d="M250.478 79.3235C250.195 78.2977 245.521 76.8855 244.486 76.604C242.896 76.1651 241.158 75.9504 239.601 76.6469C233.945 79.1946 234.702 87.2623 237.633 91.5037C239.284 93.9358 241.729 95.723 244.553 96.5609C245.578 96.8567 255.31 96.9712 254.884 95.4111C254.879 95.4063 250.487 79.3568 250.478 79.3235Z" fill="#E8C6A7"/>
<path d="M336.791 167.615C337.559 171.861 338.211 176.121 338.839 180.385C339.467 184.65 340.003 188.932 340.587 193.192L342.084 206.025C342.523 210.307 342.948 214.594 343.233 218.894L342.48 218.975C341.693 214.729 341.031 210.469 340.408 206.205L338.689 193.398C338.206 189.121 337.641 184.852 337.216 180.565C336.791 176.279 336.352 172.019 336.043 167.696L336.791 167.615Z" fill="#D65241"/>
<path d="M239.078 125.053C239.078 129.186 238.958 133.312 238.821 137.438C238.683 141.563 238.473 145.689 238.305 149.815L237.558 162.18C237.253 166.298 236.944 170.416 236.502 174.53L235.832 174.503C235.832 170.369 235.935 166.24 236.06 162.114L236.605 149.741C236.863 145.619 237.06 141.497 237.374 137.375C237.687 133.253 237.988 129.139 238.408 125.025L239.078 125.053Z" fill="#D65241"/>
<path d="M222.921 274.738C245.863 243.996 239.528 200.492 208.772 177.57C178.016 154.647 134.484 160.986 111.542 191.728C88.6002 222.469 94.9349 265.973 125.691 288.896C156.448 311.818 199.979 305.48 222.921 274.738Z" fill="#A3BC90" fill-opacity="0.3"/>
<path opacity="0.7" d="M108.877 214.582C108.779 214.596 108.68 214.586 108.586 214.555C108.428 214.5 108.298 214.384 108.223 214.232C108.149 214.081 108.137 213.905 108.189 213.745C115.635 191.01 134.788 174.771 158.177 171.365C161.894 170.825 165.653 170.623 169.409 170.764C169.577 170.77 169.735 170.844 169.85 170.969C169.965 171.094 170.026 171.26 170.02 171.43C170.015 171.6 169.943 171.76 169.82 171.876C169.698 171.992 169.535 172.053 169.367 172.047C165.68 171.906 161.99 172.101 158.341 172.631C147.158 174.227 136.649 178.959 127.997 186.295C119.344 193.631 112.892 203.28 109.365 214.156C109.33 214.265 109.266 214.363 109.18 214.438C109.093 214.513 108.989 214.563 108.877 214.582Z" fill="white"/>
<path d="M176.89 290.761C208.02 286.228 229.581 257.318 225.048 226.188C220.515 195.059 191.604 173.498 160.475 178.031C129.345 182.564 107.784 211.474 112.317 242.604C116.85 273.733 145.76 295.294 176.89 290.761Z" fill="white"/>
<path d="M172.322 261.408L129.537 216.138L141.324 208.162L166.156 234.436L190.013 162.731L204.242 165.442L172.322 261.408Z" fill="#A3BC90"/>
<path d="M273.385 95.7148C276.755 100.857 281.227 101.417 284.684 96.0018L273.385 95.7148Z" fill="white"/>
<path d="M112.216 219.794C111.881 218.72 111.325 217.722 110.582 216.859C109.838 215.996 108.922 215.286 107.888 214.772C106.854 214.257 105.723 213.948 104.562 213.864C103.401 213.779 102.235 213.92 101.132 214.279C93.8706 216.693 87.5458 220.789 86.5705 227.76C85.6781 234.106 88.9698 254.38 103.692 256.982L102.487 246.568C102.487 246.568 111.499 244.539 113.303 240.781C114.561 238.146 114.649 227.149 112.216 219.794Z" fill="#F9B384"/>
</svg>
