<svg width="490" height="354" viewBox="0 0 490 354" fill="none" xmlns="http://www.w3.org/2000/svg">
<path fill-rule="evenodd" clip-rule="evenodd" d="M63.1768 300.734C32.9605 253.584 68.497 203.561 90.2231 152.063C109.51 106.348 181.846 130.27 223.857 103.96C266.389 77.3248 276.037 34.4207 326.074 38.8851C380.527 43.7434 433.307 79.1665 455.754 129.124C476.697 175.734 443.73 224.825 431.927 274.468C420.173 323.907 408.684 357.501 368.617 388.64C326.492 421.378 251.099 412.588 198.712 395.555C144.639 384.156 93.04 347.333 63.1768 300.734Z" fill="#7ABED1" fill-opacity="0.15"/>
<path opacity="0.2" fill-rule="evenodd" clip-rule="evenodd" d="M464.788 257.497C479.96 312.766 477.317 376.561 441.41 421.231C406.584 464.557 345.579 470.186 290.178 474.724C240.378 478.803 189.948 473.874 149.041 445.181C107.634 416.137 79.4003 348.754 66.027 299.977C50.5877 243.664 77.1083 210.519 106.939 160.323C138.389 107.401 162.109 67.371 223.648 65.6496C279.887 64.0765 321.459 109.631 365.486 144.658C406.247 177.087 451 207.269 464.788 257.497Z" stroke="#B3BECB" stroke-width="3"/>
</svg>
