<svg width="435" height="235" viewBox="0 0 435 235" fill="none" xmlns="http://www.w3.org/2000/svg">
<path fill-rule="evenodd" clip-rule="evenodd" d="M64.1768 200.732C33.9605 153.582 69.497 103.56 91.2231 52.0614C110.51 6.34557 182.846 30.2677 224.857 3.95832C267.389 -22.6772 277.037 -65.5812 327.074 -61.1169C381.527 -56.2585 434.307 -20.8355 456.754 29.1219C477.697 75.7316 444.73 124.823 432.927 174.466C421.173 223.905 409.684 257.499 369.617 288.638C327.492 321.376 252.099 312.586 199.712 295.553C145.639 284.154 94.04 247.331 64.1768 200.732Z" fill="#7ABED1" fill-opacity="0.15"/>
<path opacity="0.2" fill-rule="evenodd" clip-rule="evenodd" d="M465.788 157.497C480.96 212.766 478.317 276.561 442.41 321.231C407.584 364.557 346.579 370.186 291.178 374.724C241.378 378.803 190.948 373.874 150.041 345.181C108.634 316.137 80.4003 248.754 67.027 199.977C51.5877 143.664 78.1083 110.519 107.939 60.3234C139.389 7.40084 163.109 -32.629 224.648 -34.3504C280.887 -35.9235 322.459 9.63103 366.486 44.6584C407.247 77.0866 452 107.269 465.788 157.497Z" stroke="#B3BECB" stroke-width="3"/>
</svg>
