<svg width="43" height="49" viewBox="0 0 43 49" fill="none" xmlns="http://www.w3.org/2000/svg">
<path d="M28.0211 46.9696C27.9808 46.9643 27.942 46.9509 27.907 46.9303C27.872 46.9097 27.8415 46.8823 27.8173 46.8497C27.1043 45.8885 21.9212 38.3663 28.8189 31.4904C35.3675 24.9631 38.3358 23.6229 38.7307 19.7871C38.7767 19.3394 39.3819 19.2319 39.5809 19.6356C41.0689 22.6532 43.3872 29.6945 35.7153 34.3162C27.2524 39.4143 27.9458 45.0028 28.3552 46.591C28.3678 46.6393 28.3683 46.6901 28.3567 46.7387C28.345 46.7873 28.3216 46.8323 28.2885 46.8696C28.2553 46.907 28.2134 46.9357 28.1666 46.953C28.1198 46.9704 28.0694 46.9759 28.0199 46.9691L28.0211 46.9696Z" fill="#D4EAF0"/>
<path d="M29.0705 47.112C28.9768 47.0995 28.8897 47.0569 28.8221 46.9908C28.7546 46.9246 28.7102 46.8384 28.6957 46.7449C28.4937 45.437 27.9974 40.5491 31.5965 39.253C35.5583 37.8261 38.7568 41.5179 41.669 38.6284C41.8218 38.4755 42.08 38.6089 42.0424 38.8217C41.7832 40.3311 40.6288 43.8273 35.4921 44.5306C29.9939 45.2836 29.3752 45.9146 29.4863 46.6975C29.4938 46.7539 29.4882 46.8113 29.4699 46.8652C29.4516 46.9191 29.4211 46.968 29.3807 47.0081C29.3404 47.0483 29.2913 47.0785 29.2374 47.0965C29.1834 47.1146 29.126 47.1198 29.0697 47.112H29.0705Z" fill="#D9E9EE"/>
<path opacity="0.47" d="M38.54 23.6991C38.4732 23.9775 38.3853 24.2505 38.277 24.5156C38.1717 24.7801 38.0527 25.039 37.9205 25.2911C37.6604 25.798 37.3482 26.2775 37.0065 26.7349C36.3184 27.6462 35.4859 28.4468 34.5683 29.1257C34.1087 29.4609 33.6311 29.7706 33.1377 30.0536C32.6664 30.3282 32.2128 30.6322 31.7796 30.9637C30.9115 31.629 30.1225 32.3916 29.428 33.2366C28.0426 34.9226 27.0591 36.9565 26.7356 39.1237C26.5724 40.2096 26.5662 41.3132 26.717 42.4008C26.8641 43.492 27.1754 44.5604 27.5849 45.5906C27.5949 45.6164 27.5945 45.645 27.5838 45.6706C27.5732 45.6961 27.5531 45.7165 27.5278 45.7276C27.5025 45.7387 27.4738 45.7396 27.4479 45.7301C27.4219 45.7205 27.4006 45.7014 27.3885 45.6765C26.9092 44.6584 26.551 43.5761 26.3529 42.4586C26.1472 41.3366 26.1147 40.1897 26.2565 39.0578C26.3942 37.9242 26.7138 36.8138 27.1732 35.7685C27.6326 34.7232 28.2446 33.7458 28.9569 32.8548C29.6693 31.9637 30.4952 31.1642 31.3985 30.4667C31.8512 30.1176 32.3254 29.7973 32.8182 29.5077C33.3017 29.2302 33.7608 28.9472 34.2054 28.627C35.0929 27.9927 35.913 27.2605 36.6186 26.4248C36.9749 26.0087 37.3011 25.5678 37.5947 25.1053C37.8844 24.6423 38.155 24.1541 38.35 23.6486L38.3526 23.642C38.3609 23.618 38.3782 23.5982 38.4008 23.5867C38.4234 23.5753 38.4496 23.573 38.4738 23.5805C38.4981 23.588 38.5185 23.6047 38.5307 23.6269C38.5429 23.6491 38.546 23.6753 38.5393 23.6997L38.54 23.6991Z" fill="white"/>
<path opacity="0.47" d="M28.8413 46.2267C28.8583 46.1793 28.8529 46.1353 28.8514 46.0908L28.8473 45.956L28.8441 45.6866C28.8441 45.5069 28.8481 45.3273 28.8561 45.148C28.8721 44.789 28.9026 44.4305 28.9507 44.0739C29.0485 43.3617 29.2097 42.6515 29.4971 41.9828C29.7812 41.3185 30.2115 40.6837 30.8359 40.2691C31.148 40.0649 31.4959 39.9216 31.8613 39.8468C32.2246 39.7702 32.5981 39.7589 32.9632 39.791C34.3944 39.9571 35.7973 40.2316 37.2038 40.4546C37.9044 40.5591 38.6149 40.6523 39.3026 40.5582C39.4732 40.5339 39.6414 40.4954 39.8056 40.4432C39.9686 40.3887 40.1259 40.3185 40.2752 40.2334C40.5743 40.0626 40.8373 39.8288 41.0731 39.5696C41.0887 39.5534 41.11 39.5439 41.1325 39.543C41.155 39.5422 41.177 39.55 41.1938 39.565C41.2106 39.5799 41.221 39.6008 41.2228 39.6233C41.2246 39.6457 41.2177 39.668 41.2035 39.6855C40.9658 39.9598 40.6932 40.2134 40.3752 40.4045C40.216 40.4999 40.0478 40.5795 39.8732 40.6423C39.6981 40.7024 39.5183 40.7479 39.3357 40.7782C38.603 40.8855 37.8769 40.7941 37.1683 40.697C36.4575 40.5951 35.7559 40.4639 35.0517 40.35C34.3475 40.236 33.6394 40.1251 32.9403 40.043C32.5952 40.0091 32.2462 40.0177 31.9099 40.0857C31.5729 40.1513 31.2514 40.2802 30.9624 40.4656C30.3813 40.8359 29.9598 41.425 29.6734 42.0623C29.3837 42.7032 29.2116 43.3971 29.1026 44.0972C29.0488 44.448 29.0121 44.8016 28.9897 45.1563C28.9784 45.3337 28.9712 45.5113 28.9682 45.6891L28.9663 45.9556L28.968 46.0886C28.9692 46.1328 28.968 46.178 28.9889 46.2199C28.995 46.2319 28.9981 46.2451 28.9979 46.2585C28.9976 46.272 28.9941 46.2851 28.9875 46.2968C28.9809 46.3085 28.9715 46.3184 28.9602 46.3256C28.9489 46.3327 28.9359 46.337 28.9226 46.3379C28.9092 46.3389 28.8958 46.3364 28.8835 46.3309C28.8713 46.3254 28.8607 46.3169 28.8525 46.3062C28.8444 46.2956 28.839 46.283 28.8369 46.2698C28.8348 46.2565 28.8361 46.243 28.8405 46.2303L28.8413 46.2267Z" fill="white"/>
<path d="M21.3612 1.53966C19.2051 1.52268 17.0298 1.86477 15.1055 2.66362C10.6261 4.52323 6.8245 9.44386 8.3125 14.4693C8.79582 16.102 8.54185 17.9033 10.1675 18.6128C11.0471 18.9967 13.4425 19.2253 14.3531 18.9226C16.7738 18.1185 18.365 15.9178 17.0484 13.4771C16.6267 12.6958 16.0808 11.9824 15.7171 11.1717C15.3535 10.3609 15.1871 9.4002 15.5582 8.59338C16.2869 7.00979 18.7072 6.50633 20.2767 6.55372C22.1292 6.60977 23.8078 7.52667 24.8048 9.09938C26.0472 11.0596 26.3619 13.4435 26.1799 15.7189C25.9854 18.1535 24.9595 20.0126 23.4219 21.8804C22.0978 23.4883 20.6403 25.0318 19.7604 26.9199C18.9527 28.6525 18.6889 30.5739 18.6524 32.4702C18.6452 32.8378 16.8189 36.3015 16.8262 37.3598C16.8274 37.5092 18.8974 38.0052 19.0476 38.0061L22.8485 38.0487C22.9288 38.0497 23.0063 38.0188 23.0638 37.9627C23.1214 37.9066 23.1543 37.83 23.1554 37.7496C23.2133 32.6013 24.7958 27.6929 28.8023 24.2353C30.2602 22.9772 31.8302 21.9526 32.9638 20.3646C34.5794 18.1012 35.3764 15.8738 35.1464 13.0805C34.9364 10.5293 34.0968 7.97662 32.4348 5.99743C30.6482 3.87012 28.0336 2.54183 25.3163 1.96856C24.0154 1.69471 22.6905 1.55104 21.3612 1.53966Z" fill="#D65241"/>
<path d="M25.3419 43.8203C25.3419 46.1877 24.0304 48.2822 21.6643 48.2822C21.1531 48.2822 19.4147 48.2869 18.9602 48.1227C17.3106 47.5265 17.3047 46.2585 17.3047 44.4028C17.3047 42.0353 18.1038 39.707 20.4698 39.707C22.8358 39.707 25.3419 41.4527 25.3419 43.8203Z" fill="#D65241"/>
<path d="M19.3125 0.998648C17.1565 0.981662 14.9811 1.32376 13.0569 2.1226C8.57743 3.98289 4.77588 8.90352 6.26354 13.9296C6.74686 15.5623 7.86425 17.6176 9.48992 18.3271C10.3695 18.711 11.3935 18.6855 12.3041 18.383C14.7248 17.5789 16.316 15.378 14.9995 12.9375C14.5778 12.1561 14.0318 11.4427 13.6682 10.632C13.3045 9.82127 13.1382 8.86055 13.5093 8.05372C14.2376 6.46996 16.6582 5.96667 18.227 6.01406C20.0795 6.07011 21.7582 6.98701 22.7552 8.55973C23.9975 10.5197 24.3123 12.9039 24.1303 15.1791C23.9357 17.6139 22.9098 19.473 21.3723 21.3407C20.0481 22.9486 18.5907 24.4921 17.7108 26.3803C16.903 28.1128 16.6392 30.0343 16.6027 31.9306C16.5956 32.2981 16.7194 36.1364 16.7272 37.1945C16.7277 37.2664 16.7565 37.3352 16.8073 37.3861C16.8581 37.4369 16.9269 37.4657 16.9988 37.4662L20.7997 37.5089C20.88 37.5099 20.9575 37.479 21.015 37.4229C21.0726 37.3668 21.1055 37.2901 21.1066 37.2098C21.1645 32.0614 22.747 27.1531 26.7535 23.6955C28.2114 22.4373 29.7814 21.4128 30.9149 19.8247C32.5306 17.5616 33.3276 15.3347 33.0985 12.5409C32.8885 9.9896 32.0488 7.43696 30.3868 5.45777C28.5997 3.33013 25.9853 2.00081 23.2677 1.42822C21.9668 1.15414 20.6419 1.01024 19.3125 0.998648Z" fill="#E56A59"/>
<path d="M19.5381 48.1493C21.9042 48.1493 23.8223 46.2301 23.8223 43.8627C23.8223 41.4953 21.9042 39.5762 19.5381 39.5762C17.172 39.5762 15.2539 41.4953 15.2539 43.8627C15.2539 46.2301 17.172 48.1493 19.5381 48.1493Z" fill="#E56A59"/>
<g opacity="0.3">
<path opacity="0.3" d="M7.15629 12.7478C7.17086 12.7254 7.17816 12.6991 7.17717 12.6724C7.17463 12.6023 7.17055 12.5309 7.16495 12.4601C7.16145 12.4265 7.14499 12.3955 7.11906 12.3739C7.09313 12.3522 7.05978 12.3416 7.0261 12.3441C6.99242 12.3467 6.96107 12.3623 6.93872 12.3876C6.91637 12.413 6.90477 12.446 6.9064 12.4798C6.91166 12.5477 6.91557 12.6157 6.91795 12.6816C6.91917 12.7089 6.92901 12.7352 6.94606 12.7566C6.96311 12.778 6.9865 12.7935 7.01288 12.8008C7.03925 12.8081 7.06726 12.8069 7.0929 12.7973C7.11854 12.7878 7.14049 12.7703 7.15561 12.7475L7.15629 12.7478Z" fill="#91B3FA"/>
</g>
<g opacity="0.3">
<path opacity="0.3" d="M10.5693 7.15662C10.5787 7.14211 10.5832 7.12492 10.582 7.10765C10.5808 7.09037 10.5741 7.07394 10.5628 7.06082C10.5187 7.00987 10.4722 6.95891 10.4248 6.90931C10.4176 6.90131 10.4089 6.89485 10.3991 6.8903C10.3893 6.88576 10.3788 6.88323 10.368 6.88286C10.3573 6.88249 10.3466 6.88429 10.3365 6.88816C10.3265 6.89203 10.3173 6.89788 10.3096 6.90537C10.3018 6.91285 10.2957 6.92182 10.2915 6.93174C10.2873 6.94166 10.2851 6.95231 10.2852 6.96308C10.2852 6.97385 10.2874 6.9845 10.2916 6.99441C10.2958 7.00432 10.302 7.01327 10.3097 7.02074C10.3549 7.06728 10.3992 7.11586 10.4413 7.16512C10.4481 7.17312 10.4565 7.17969 10.4659 7.18446C10.4753 7.18923 10.4855 7.1921 10.496 7.1929C10.5065 7.1937 10.5171 7.19243 10.5271 7.18915C10.5371 7.18587 10.5463 7.18065 10.5543 7.17378C10.5601 7.16881 10.5651 7.16303 10.5693 7.15662Z" fill="#91B3FA"/>
</g>
<g opacity="0.3">
<path opacity="0.3" d="M11.3872 9.29945C11.396 9.28603 11.4005 9.27029 11.4001 9.25427C11.3989 9.18632 11.3956 9.11685 11.3903 9.05044C11.3886 9.02926 11.3787 9.00961 11.3625 8.9958C11.3464 8.98199 11.3255 8.97516 11.3043 8.9768C11.2831 8.97845 11.2635 8.98844 11.2497 9.00457C11.2359 9.0207 11.2291 9.04166 11.2307 9.06284C11.2356 9.12687 11.2389 9.19261 11.24 9.258C11.2403 9.27518 11.2461 9.29182 11.2565 9.30546C11.2669 9.31911 11.2815 9.32902 11.298 9.33375C11.3145 9.33847 11.3321 9.33775 11.3482 9.3317C11.3642 9.32565 11.3779 9.31458 11.3872 9.30013V9.29945Z" fill="#91B3FA"/>
</g>
<path d="M26.7877 15.5664L24.459 17.9497L27.2523 17.2032L26.7877 15.5664Z" fill="#7ABED1"/>
<path d="M40.6464 16.555L27.4154 17.1974C27.3349 17.2014 27.2545 17.1889 27.1789 17.1608C27.1034 17.1327 27.0343 17.0896 26.976 17.034C26.9176 16.9784 26.8711 16.9115 26.8393 16.8375C26.8075 16.7634 26.7911 16.6836 26.791 16.6029V11.1559C26.791 10.8712 26.9018 10.5976 27.0999 10.3931C27.298 10.1887 27.5679 10.0695 27.8524 10.0607L39.7775 9.69141C40.204 9.69141 40.613 9.86091 40.9146 10.1626C41.2161 10.4644 41.3856 10.8736 41.3856 11.3003V15.7795C41.3855 15.979 41.3087 16.1709 41.1711 16.3153C41.0335 16.4597 40.8456 16.5455 40.6464 16.555Z" fill="#7ABED1"/>
<path d="M39.5575 10.8888L28.9774 11.285C28.8735 11.2889 28.7916 11.3578 28.795 11.4378L28.7991 11.5309C28.8025 11.6107 28.8881 11.6721 28.9909 11.6683L39.5717 11.2817C39.6756 11.278 39.7576 11.209 39.7542 11.1289L39.7498 11.0269C39.7462 10.9463 39.6603 10.8849 39.5575 10.8888Z" fill="white"/>
<path d="M38.6102 13.5705L28.0298 13.9646C27.9259 13.9685 27.8442 14.0398 27.8478 14.1234L27.8518 14.2197C27.8554 14.3024 27.9411 14.3661 28.044 14.3624L38.6248 13.9781C38.7289 13.9744 38.8115 13.9032 38.8071 13.8195L38.8025 13.7132C38.799 13.6303 38.7131 13.5666 38.6102 13.5705Z" fill="white"/>
<path d="M39.8462 14.6916L28.0515 15.1371C27.9355 15.1416 27.8442 15.2139 27.8478 15.2983L27.852 15.3957C27.8556 15.4792 27.9508 15.5431 28.0654 15.5389L39.8608 15.1033C39.9766 15.0991 40.0683 15.0267 40.0646 14.9423L40.06 14.835C40.0564 14.7512 39.9607 14.6874 39.8462 14.6916Z" fill="white"/>
<path d="M33.754 12.4688L27.9873 12.6369C27.9308 12.6386 27.8883 12.7164 27.8929 12.8102L27.8983 12.9184C27.9029 13.0113 27.9518 13.0849 28.0078 13.0833L33.7751 12.9264C33.8318 12.9248 33.8742 12.8471 33.8697 12.7531L33.8637 12.6342C33.8591 12.5408 33.8101 12.4671 33.754 12.4688Z" fill="white"/>
<path d="M40.108 12.2696L34.6574 12.4258C34.6039 12.4274 34.564 12.5051 34.5687 12.5989L34.574 12.7071C34.5788 12.8 34.6249 12.8737 34.6781 12.8722L40.1294 12.7272C40.1829 12.7258 40.2228 12.648 40.2182 12.5541L40.2122 12.4352C40.2075 12.3417 40.161 12.268 40.108 12.2696Z" fill="white"/>
<path d="M6.69734 46.5957C6.69734 46.5957 6.58818 47.2135 6.5347 47.825C6.52991 47.8817 6.53665 47.9388 6.55451 47.9928C6.57238 48.0468 6.60099 48.0967 6.63864 48.1394C6.67629 48.182 6.72218 48.2166 6.77355 48.2411C6.82493 48.2655 6.88071 48.2793 6.93755 48.2815C7.75157 48.3155 9.49251 48.3814 10.1172 48.3536C10.1391 48.3525 10.1603 48.3462 10.1792 48.3353C10.1981 48.3244 10.2141 48.3091 10.2259 48.2907C10.2377 48.2723 10.245 48.2514 10.2471 48.2297C10.2491 48.2079 10.246 48.186 10.238 48.1657C10.2088 48.0925 10.1526 48.0333 10.0809 48.0004L7.2051 46.6779L6.69734 46.5957Z" fill="#2D3133"/>
<path d="M6.60742 46.2313L6.69519 46.9702C6.69519 46.9702 7.19888 47.205 7.543 46.9407L7.33436 46.1172L6.60742 46.2313Z" fill="#E8C6A7"/>
<path d="M6.67425 32.3428C6.63639 32.5358 6.47053 41.9724 7.47927 46.2014C7.48745 46.2348 7.48339 46.27 7.46781 46.3006C7.45223 46.3313 7.42618 46.3553 7.39439 46.3684C7.13208 46.4699 6.85451 46.5263 6.57341 46.5353C6.51885 46.5369 6.46531 46.5204 6.42115 46.4883C6.37698 46.4562 6.34468 46.4104 6.32928 46.358C6.04068 45.3767 4.66016 40.4607 4.48003 35.7646C4.27886 30.5172 4.48003 35.5861 4.48003 35.5861L4.59887 32.3418L6.67425 32.3428Z" fill="#2D3133"/>
<path d="M3.38809 46.916C3.38809 46.916 3.21442 47.228 3.04635 48.0568C3.03906 48.092 3.03924 48.1284 3.04689 48.1635C3.05454 48.1987 3.06948 48.2319 3.09075 48.2609C3.11202 48.2899 3.13914 48.3141 3.17036 48.332C3.20157 48.3498 3.23619 48.3609 3.27197 48.3646C3.5407 48.3911 3.95442 48.425 4.2858 48.4227C4.32186 48.4225 4.3575 48.4148 4.39037 48.4C4.42324 48.3851 4.4526 48.3635 4.47654 48.3365C4.50049 48.3095 4.51846 48.2778 4.5293 48.2434C4.54014 48.2089 4.54359 48.1726 4.53943 48.1368C4.50276 47.8343 4.38834 47.3385 4.03506 46.9512L3.38809 46.916Z" fill="#2D3133"/>
<path d="M3.23633 45.9673L3.44123 47.0848C3.44123 47.0848 3.64359 47.2355 4.04407 47.1263L3.94628 45.9238L3.23633 45.9673Z" fill="#E8C6A7"/>
<path d="M2.6846 32.6315C1.86005 37.6104 2.86353 44.9373 3.20187 46.3714C3.2118 46.4144 3.23424 46.4534 3.26636 46.4837C3.29848 46.5139 3.33884 46.5339 3.38233 46.5412C3.53342 46.5664 3.78213 46.5868 4.02744 46.5156C4.06864 46.5035 4.10502 46.4788 4.13145 46.4449C4.15789 46.4111 4.17305 46.3698 4.17479 46.3269C4.22012 45.1674 4.13846 38.0498 4.90665 35.237C4.94564 35.0946 5.03268 34.97 5.15298 34.8845L6.6442 33.8239L6.75862 32.1094L2.6846 32.6315Z" fill="#2D3133"/>
<path d="M7.93884 23.193C5.46791 23.152 2.74131 23.842 2.74131 23.842C2.00487 28.1422 2.61263 33.1022 2.61263 33.1022C4.52554 33.6041 6.68359 32.7953 6.68359 32.7953C7.00139 30.9978 8.48497 25.9396 8.48497 25.9396C9.69234 25.7896 10.6868 25.4411 11.5068 24.9802C10.8821 24.2558 10.5875 23.3338 10.4595 22.7891C9.58505 23.0598 8.70091 23.2056 7.93884 23.193Z" fill="#7ABED1"/>
<path d="M15.2341 19.5546C14.9914 19.2612 14.6843 19.4 14.6843 19.4C14.3206 20.9369 12.414 22.1829 10.4551 22.7921C10.5831 23.3371 10.8776 24.2591 11.5024 24.9832C14.7532 23.1549 15.2341 19.5546 15.2341 19.5546Z" fill="#E8C6A7"/>
<path d="M15.1758 19.6291C15.2013 19.7099 14.9071 19.8329 14.7345 19.5025C14.7283 19.3442 14.6326 18.6658 14.7268 18.5367C15.2305 17.8496 16.207 16.9883 16.207 16.9883C16.372 17.1513 16.236 17.311 16.236 17.311L15.7624 17.8048C15.8614 17.984 15.9831 18.1352 16.0389 18.3519C16.0804 18.5173 16.0567 18.6924 15.9727 18.8408C15.8895 18.9908 15.7761 19.1856 15.6688 19.3381C15.4653 19.627 15.1758 19.6291 15.1758 19.6291Z" fill="#E8C6A7"/>
<path d="M15.5558 18.125L15.1241 18.4912L14.9883 18.8557L15.3731 19.2831C15.3731 19.2831 15.5025 18.5597 15.5988 18.4031C15.695 18.2465 15.6454 18.1707 15.5558 18.125Z" fill="#E8C6A7"/>
<path d="M3.69004 26.2399L2.74224 23.8457C2.74224 23.8457 0.433433 25.4149 0.0546875 27.4042C0.490814 27.4365 1.2843 27.55 2.06114 27.9423C2.23175 27.003 3.69004 26.2399 3.69004 26.2399Z" fill="#7ABED1"/>
<path d="M5.70494 28.4906C5.70494 28.4906 3.11365 29.956 2.23919 28.7048C2.05771 28.4449 2.01425 28.1868 2.05907 27.9405C1.28222 27.5481 0.48874 27.4346 0.0526134 27.4023C-0.0618083 28.0021 -0.00137178 28.6401 0.350891 29.2847C1.88251 32.0874 6.04787 29.1298 6.04787 29.1298L5.70494 28.4906Z" fill="#E8C6A7"/>
<path d="M5.39424 30.3469L6.80855 25.4052C6.81631 25.3778 6.83202 25.3533 6.85368 25.3349C6.87535 25.3164 6.902 25.3048 6.93027 25.3014C7.18661 25.2716 7.929 25.1876 8.78631 25.1146C9.81899 25.0271 11.0182 24.9563 11.7348 25.0166C11.7584 25.0184 11.7812 25.0259 11.8012 25.0385C11.8212 25.0511 11.8378 25.0685 11.8495 25.089C11.8612 25.1096 11.8677 25.1327 11.8685 25.1563C11.8692 25.18 11.8641 25.2034 11.8536 25.2247C11.4462 26.0495 9.7701 29.4049 8.93061 30.504C8.91699 30.522 8.89934 30.5366 8.87909 30.5465C8.85884 30.5565 8.83654 30.5615 8.81398 30.5613L5.53175 30.5314C5.50949 30.5312 5.48759 30.5258 5.46776 30.5157C5.44792 30.5056 5.43067 30.4911 5.41737 30.4732C5.40406 30.4554 5.39505 30.4347 5.39104 30.4128C5.38703 30.3909 5.38812 30.3683 5.39424 30.3469Z" fill="white"/>
<path d="M8.93131 24.6816L9.95669 24.5108C9.9692 24.5087 9.98202 24.5099 9.99393 24.5142C10.0058 24.5186 10.0164 24.5259 10.0247 24.5355C10.0329 24.5452 10.0385 24.5568 10.041 24.5692C10.0434 24.5816 10.0427 24.5945 10.0387 24.6066L9.93683 24.9142C9.93253 24.9273 9.92461 24.939 9.91398 24.9478C9.90335 24.9566 9.89044 24.9623 9.87673 24.9641L8.89006 25.0961C8.87824 25.0977 8.86621 25.0964 8.85501 25.0923C8.84381 25.0882 8.83377 25.0814 8.82576 25.0726C8.81774 25.0637 8.81199 25.0531 8.809 25.0415C8.806 25.03 8.80586 25.0179 8.80858 25.0062L8.87139 24.7375C8.87477 24.7233 8.88226 24.7105 8.89292 24.7005C8.90358 24.6906 8.91694 24.684 8.93131 24.6816Z" fill="#BDD0FB"/>
<path d="M8.16585 25.5534L8.25073 25.1132C8.25488 25.0917 8.26584 25.0721 8.28199 25.0573C8.29813 25.0425 8.3186 25.0333 8.34037 25.0311L10.4115 24.8208C10.4277 24.8192 10.444 24.8215 10.4591 24.8274C10.4742 24.8334 10.4877 24.8429 10.4984 24.8551C10.5091 24.8674 10.5167 24.882 10.5206 24.8978C10.5245 24.9135 10.5246 24.93 10.5208 24.9458L10.3891 25.4943C10.384 25.5157 10.372 25.5349 10.3551 25.5489C10.3382 25.563 10.3172 25.5712 10.2952 25.5723L8.27144 25.6742C8.25601 25.675 8.2406 25.6724 8.22636 25.6663C8.21212 25.6603 8.19943 25.6512 8.18926 25.6395C8.17908 25.6279 8.17169 25.6141 8.16763 25.5992C8.16358 25.5843 8.16297 25.5686 8.16585 25.5534Z" fill="#BDD0FB"/>
<path d="M5.73418 29.1517C5.73418 29.1517 5.53708 28.3411 5.61653 28.0536C5.69598 27.766 5.85013 27.3964 6.3635 27.4784C6.87687 27.5605 7.48276 27.777 7.48276 27.777C7.48276 27.777 7.4522 28.1507 7.06208 28.0306L7.304 28.2175C7.304 28.2175 7.27004 28.5173 6.94002 28.3571L7.16496 28.6054C7.16496 28.6054 7.02337 28.8517 6.78095 28.6937C6.53852 28.5358 6.42207 29.2494 5.73418 29.1517Z" fill="#E8C6A7"/>
<path d="M5.43563 21.1895L4.64911 23.4644C4.64276 23.4826 4.64302 23.5025 4.64985 23.5206C4.65668 23.5386 4.66963 23.5537 4.68646 23.5632C4.90087 23.6821 5.67296 24.0244 6.60344 23.4341C6.65148 23.4041 6.69232 23.3638 6.72304 23.3161C6.75376 23.2685 6.77361 23.2146 6.78119 23.1584L7.03584 21.1895H5.43563Z" fill="#E8C6A7"/>
<path d="M7.1481 19.0801C7.1481 19.0801 8.01136 20.7061 7.90067 21.3631C7.78998 22.0202 6.72012 21.9728 5.78573 21.4392L5.13281 19.6834L7.1481 19.0801Z" fill="#E8C6A7"/>
<path d="M5.82715 20.5788C5.83596 20.5747 5.8438 20.5689 5.85015 20.5616C5.8565 20.5542 5.86121 20.5457 5.86398 20.5364C5.86675 20.5271 5.8675 20.5173 5.86618 20.5077C5.86486 20.4981 5.86151 20.4889 5.85635 20.4808C5.78726 20.3751 5.65756 20.1594 5.61614 19.9712C5.61614 19.9712 5.46097 19.8718 6.01118 19.74C6.56139 19.6082 7.38203 19.4037 7.55452 18.935C7.72258 18.4781 7.28085 17.3292 6.57599 18.2447C6.56963 18.2527 6.56155 18.2592 6.55235 18.2636C6.54315 18.2681 6.53307 18.2704 6.52285 18.2704C6.51264 18.2704 6.50256 18.2681 6.49336 18.2636C6.48416 18.2592 6.47608 18.2527 6.46972 18.2447C6.35428 18.0942 6.0504 17.7819 5.6287 17.9713C5.234 18.1484 5.18952 18.4379 5.19495 18.5838C5.19533 18.5938 5.19345 18.6037 5.18945 18.6129C5.18545 18.6221 5.17943 18.6303 5.17185 18.6368C5.16426 18.6433 5.1553 18.648 5.14563 18.6506C5.13596 18.6532 5.12584 18.6536 5.11601 18.6517C4.91653 18.6137 4.43695 18.5811 4.21405 19.0725C4.02985 19.4774 4.14953 19.7065 4.25852 19.8186C4.26663 19.8268 4.27246 19.837 4.27547 19.8482C4.27847 19.8593 4.27854 19.871 4.27567 19.8822C4.2728 19.8934 4.26708 19.9036 4.25908 19.9119C4.25108 19.9202 4.24106 19.9263 4.23 19.9296C4.09877 19.9698 3.92952 20.0811 3.9465 20.3882C3.96992 20.8128 4.44476 20.7758 4.58006 20.7564C4.59091 20.7549 4.60199 20.7559 4.61234 20.7596C4.62268 20.7632 4.632 20.7693 4.63948 20.7773C4.75543 20.9057 5.27779 21.4508 5.84328 21.5165C5.85456 21.5176 5.86592 21.5159 5.87634 21.5114C5.88676 21.507 5.8959 21.5 5.90294 21.4911C5.90998 21.4822 5.91468 21.4717 5.91663 21.4606C5.91857 21.4494 5.91769 21.4379 5.91407 21.4272L5.66961 20.716C5.66424 20.7 5.66498 20.6827 5.6717 20.6672C5.67841 20.6518 5.69061 20.6394 5.70594 20.6324L5.82715 20.5788Z" fill="#2D3133"/>
<path d="M5.92169 20.6816C5.92169 20.6816 5.30697 20.2597 5.26215 20.615C5.21733 20.9703 5.81576 21.1298 6.11217 20.9973L5.92169 20.6816Z" fill="#E8C6A7"/>
</svg>
