<svg id="Layer_1" data-name="Layer 1" xmlns="http://www.w3.org/2000/svg" xmlns:xlink="http://www.w3.org/1999/xlink" viewBox="0 0 391 367"><defs><style>.cls-1,.cls-16{fill:#fff;}.cls-2,.cls-5,.cls-8{fill:none;}.cls-3{clip-path:url(#clip-path);}.cls-4{mask:url(#mask);}.cls-5{stroke:#d0d3d5;}.cls-5,.cls-8{stroke-width:3px;opacity:0.2;}.cls-16,.cls-17,.cls-5,.cls-7,.cls-8{isolation:isolate;}.cls-6,.cls-7{fill:#7abed1;fill-opacity:0.15;fill-rule:evenodd;}.cls-7{opacity:0.4;}.cls-8{stroke:#b3becb;}.cls-9{fill:#e8c6a7;}.cls-10{fill:#2d3133;}.cls-11{fill:#e56a59;}.cls-12{fill:#d0ae8f;}.cls-13{fill:#c6e8f1;}.cls-14{fill:#eee;}.cls-15,.cls-17{fill:#f1f1f1;}.cls-16,.cls-17{opacity:0.78;}.cls-18{fill:url(#linear-gradient);}</style><clipPath id="clip-path"><rect class="cls-2" width="391" height="367"/></clipPath><mask id="mask" x="-125.83" y="0" width="516.83" height="485.36" maskUnits="userSpaceOnUse"><g id="mask0"><path class="cls-1" d="M381,0H5A10,10,0,0,0-5,10V364A10,10,0,0,0,5,374H381a10,10,0,0,0,10-10V10A10,10,0,0,0,381,0Z"/></g></mask><linearGradient id="linear-gradient" x1="305.17" y1="262.44" x2="310.75" y2="262.44" gradientTransform="matrix(1, 0, 0, -1, 0, 406)" gradientUnits="userSpaceOnUse"><stop offset="0" stop-color="#e1473d"/><stop offset="1" stop-color="#e9605a"/></linearGradient></defs><g class="cls-3"><g class="cls-4"><path class="cls-5" d="M352.88,227.85C370.21,286.64,367.44,354.48,327,402c-39.21,46-108.14,51.95-170.74,56.71C100,462.94,43,457.64-3.36,427.09c-46.89-30.94-79-102.62-94.3-154.51-17.64-59.9,12.22-95.12,45.77-148.46,35.37-56.25,62-98.79,131.59-100.55C143.26,22,190.39,70.45,240.27,107.75,286.45,142.28,337.13,174.43,352.88,227.85Z"/><path class="cls-6" d="M-106.48,375.92c-41.63-47.83-6-106.47,13.13-165.1,17-52,105.4-34.42,151.67-68,46.83-34,52.8-81.84,112.43-82.81C235.64,59,302.42,91.4,335.23,143.2c30.62,48.32-2.09,105.64-9.75,161.1-7.63,55.22-16.94,93.15-60.3,131.75-45.59,40.57-135.69,39.79-199.69,27.35C.22,457.29-65.34,423.2-106.48,375.92Z"/><path class="cls-7" d="M264.6,452.25c-52.46,34.83-123.82,41.84-183.81,22.65-53.26-17-70.87-72.28-103-114.41-32.57-42.65-85.88-76.91-83.23-129.54,2.88-57.28,40.81-114.9,96.87-141.8,52.3-25.09,110.09,6,167.47,15,57.15,8.9,124.6-3.36,162.2,36.41,39.53,41.81,33.11,104.11,23.07,159.53C333.75,357.38,316.45,417.83,264.6,452.25Z"/><path class="cls-8" d="M211.21,45.43C275,58.14,338,91.71,364.37,147.16c25.58,53.79-.58,113.77-24.91,168-21.88,48.71-53.17,93.62-103.51,118C185,457.82,102.22,451.47,46,440.24-19,427.29-38.59,386.25-73.71,333.8c-37-55.29-65.08-97.06-34.7-155.63,27.77-53.53,95.48-70.33,153.83-94.56C99.45,61.17,153.29,33.89,211.21,45.43Z"/><path class="cls-9" d="M338.56,180.18a2.4,2.4,0,0,0-.33-1.38,2.34,2.34,0,0,0-1-1,2.38,2.38,0,0,0-1.39-.21,2.41,2.41,0,0,0-1.28.62c-5.88,5.47-17.4,14.26-29.22,12.63-.6-.08-1.17-.14-1.73-.2a5.6,5.6,0,0,1,1.14-2.35,5.55,5.55,0,0,1,2.08-1.57c5.61-2.63,4.11-11.92,4.11-11.92s-3.61,5.11-9.72,6c-5.26.75-10.88,6.15-11.73,12.89-7,22.67-15.35,53.21-56.4,54.06-24.18.5-36.84-27.09-43.16-49.83-3-11-18-15.42-25.51-6.87l-10.72,12.2,11,43.08S182,289.24,239.17,279s62.08-73.19,62.08-73.19S336.38,211.77,338.56,180.18Z"/><path class="cls-10" d="M184.76,83.92S200.27,40.67,147.82,46c0,0-24.23-7.15-28.43,16,0,0-17.26,8.51-8.13,30.19,0,0-45.1-24.27-71,14.68s-9.77,64.19,9.41,72.65c0,0-17.14,6.06-11.8,25.3s42.37,37,68,17.63c0,0,63.88,16.75,68.35-29.3,0,0,32.66-15.69,5.69-57.63S184.76,83.92,184.76,83.92Z"/><path class="cls-11" d="M174.6,187.41c-9.86-4.35-39-13.77-70.62,8.84a17.7,17.7,0,0,0-7.26,16.87c4.08,29,10.3,131.93-11.83,165.57,0,0,26.75,38.14,64.11,14.81,0,0,27-81.86,50.55-108.46,16.27-18.36-12.45-78.18-19.79-92.68A10.69,10.69,0,0,0,174.6,187.41Z"/><path class="cls-9" d="M153.32,128.17s-20.53,40.9-24,59.63a32.66,32.66,0,0,0,33.18-1.14s7.06-42.59,10.39-49.95Z"/><path class="cls-12" d="M170.2,146.76l-18.94-15.21-7.37,16.38C154.41,142.08,170.2,146.76,170.2,146.76Z"/><path class="cls-9" d="M181.71,72.35s32.65,60.42,6.94,73.56-49-29.81-49-29.81-5.4-31.52,5.53-40.6S181.71,72.35,181.71,72.35Z"/><path class="cls-10" d="M165,56.77s17.67,6.6,19.18,15.16-27.81,12.66-35.8,12L137.82,116.4s-15-33.64-5.23-50.76S165,56.77,165,56.77Z"/><path class="cls-9" d="M147.88,113s-13.18-19.79-20.77-8.92,11.31,22.13,19,17.27Z"/><path class="cls-9" d="M99.2,201.34s-53.45,34.13-72.37,87.58S89.9,358.61,89.9,358.61s12.81-11.14,25.59-5,3.78-21.76-11.83-23.65-9.93,11.36-30.74-1.42c-20.24-12.44-29.77-44.23,30.81-83a24.84,24.84,0,0,0,8.48-8.95C126.24,211.14,120,192.51,99.2,201.34Z"/></g><path class="cls-13" d="M347.44,144.55a39.24,39.24,0,0,1-39.24,39.23c-21.66,0-40.2-18.33-40.2-40s18.54-38.46,40.2-38.46A39.23,39.23,0,0,1,347.44,144.55Z"/><path class="cls-1" d="M271.08,135.14H271a.41.41,0,0,1-.15-.07.29.29,0,0,1-.1-.12.47.47,0,0,1-.06-.15.44.44,0,0,1,0-.16,35,35,0,0,1,1.6-4.69.42.42,0,0,1,.09-.14.34.34,0,0,1,.14-.09.4.4,0,0,1,.15,0,.41.41,0,0,1,.16,0,.42.42,0,0,1,.14.09.49.49,0,0,1,.11.3.45.45,0,0,1,0,.16,35.39,35.39,0,0,0-1.58,4.58.4.4,0,0,1-.14.22A.44.44,0,0,1,271.08,135.14Z"/><path class="cls-1" d="M277.08,122.88a.43.43,0,0,1-.22-.06.46.46,0,0,1-.15-.16.57.57,0,0,1,0-.22.49.49,0,0,1,.08-.21,39.49,39.49,0,0,1,31.43-15.45A37.55,37.55,0,0,1,323.39,110a.41.41,0,0,1,.21.54.38.38,0,0,1-.22.21.44.44,0,0,1-.32,0,36.61,36.61,0,0,0-14.88-3.12,38.66,38.66,0,0,0-30.78,15.12.33.33,0,0,1-.14.12A.39.39,0,0,1,277.08,122.88Z"/><path class="cls-1" d="M342.1,144.55a34,34,0,0,1-34,34c-18.76,0-34.8-15.87-34.8-34.63s16-33.29,34.8-33.29A34,34,0,0,1,342.1,144.55Z"/><path class="cls-14" d="M342.09,144.55a34,34,0,0,0-34-34,35.6,35.6,0,0,0-26,11.15l26.16,21.76L313.71,178A34,34,0,0,0,342.09,144.55Z"/><path class="cls-15" d="M282,142.79a2.61,2.61,0,0,1-5.2.2,2.58,2.58,0,0,1,1.26-2.61,2.6,2.6,0,0,1,2.47-.1,2.7,2.7,0,0,1,.81.61,2.63,2.63,0,0,1,.52.88A2.71,2.71,0,0,1,282,142.79Z"/><path class="cls-1" d="M338.28,147a2.62,2.62,0,1,0-3.45,1.33A2.61,2.61,0,0,0,338.28,147Z"/><path class="cls-15" d="M304.33,174a2.62,2.62,0,1,0-3.69-.15A2.63,2.63,0,0,0,304.33,174Z"/><path class="cls-1" d="M313.2,113.88a2.58,2.58,0,0,1,1.35.69,2.63,2.63,0,0,1,.74,1.33,2.61,2.61,0,0,1-2.52,3.16,2.61,2.61,0,0,1-2.61-3.08,2.6,2.6,0,0,1,3-2.1Z"/><path class="cls-16" d="M321.62,171c.27.67.2,1.3-.15,1.4s-.84-.36-1.11-1-.2-1.29.15-1.4S321.36,170.36,321.62,171Z"/><path class="cls-16" d="M298.9,118.24c.27.67.2,1.29-.15,1.4s-.85-.36-1.11-1-.2-1.3.15-1.4S298.63,117.56,298.9,118.24Z"/><path class="cls-16" d="M333.48,161c.58.44.85,1,.61,1.28s-.91.13-1.48-.3-.85-1-.61-1.28S332.91,160.56,333.48,161Z"/><path class="cls-15" d="M286.65,127.67c.58.44.85,1,.6,1.28s-.9.13-1.48-.3-.84-1-.6-1.28S286.08,127.24,286.65,127.67Z"/><path class="cls-1" d="M335,131.1c.65-.31,1.28-.29,1.41.05s-.3.87-.95,1.18-1.28.29-1.41-.05S334.33,131.41,335,131.1Z"/><path class="cls-17" d="M283.82,157.31c.66-.31,1.29-.29,1.41.05s-.3.87-1,1.18-1.28.28-1.41,0S283.17,157.62,283.82,157.31Z"/><path class="cls-1" d="M324.17,119.93c.39-.6.94-.91,1.23-.68s.2.89-.2,1.5-.95.91-1.23.68S323.77,120.54,324.17,119.93Z"/><path class="cls-17" d="M294.06,168.89c.4-.6.95-.9,1.23-.68s.2.9-.2,1.5-.94.91-1.23.68S293.67,169.5,294.06,168.89Z"/><path class="cls-11" d="M307.08,142.53,296,121.86a.64.64,0,0,1-.08-.3.75.75,0,0,1,.09-.29.58.58,0,0,1,.22-.22.61.61,0,0,1,.3-.08h2.7a.56.56,0,0,0,.33-.1.51.51,0,0,0,.22-.26.57.57,0,0,0,0-.34.6.6,0,0,0-.15-.31l-13.83-14.77a.57.57,0,0,0-.34-.18.62.62,0,0,0-.38.06.61.61,0,0,0-.26.29.55.55,0,0,0,0,.38l4.77,19.43a.66.66,0,0,0,.16.28.67.67,0,0,0,.27.16.58.58,0,0,0,.32,0,.71.71,0,0,0,.28-.16l2.18-2.37a.7.7,0,0,1,.23-.15.63.63,0,0,1,.27,0,.62.62,0,0,1,.26.09.61.61,0,0,1,.2.19l12.31,20a.58.58,0,0,0,.36.27.59.59,0,0,0,.45-.06.67.67,0,0,0,.28-.36A.64.64,0,0,0,307.08,142.53Z"/><path class="cls-1" d="M289.93,122.77a.24.24,0,0,1-.18-.07.26.26,0,0,1-.09-.16c-.06-.3-2-7.87-3.7-14.87a.53.53,0,0,1,0-.35.56.56,0,0,1,.23-.25.52.52,0,0,1,.64.13l2.85,3.23a.25.25,0,0,1,.06.2.25.25,0,0,1-.09.19.26.26,0,0,1-.19.07.27.27,0,0,1-.19-.1l-2.78-3.16c1.67,6.69,3.65,14.64,3.68,14.83a.41.41,0,0,1,0,.11.2.2,0,0,1-.05.09.19.19,0,0,1-.08.07l-.1,0Z"/><path class="cls-11" d="M308.18,144.69,328.7,144a.64.64,0,0,1,.3.08.63.63,0,0,1,.22.21.75.75,0,0,1,.09.29.6.6,0,0,1-.07.3L328,147.3a.66.66,0,0,0-.06.34.61.61,0,0,0,.13.32.63.63,0,0,0,.63.2l19.48-5.48a.66.66,0,0,0,.32-.22.63.63,0,0,0,.12-.37.59.59,0,0,0-.13-.37.65.65,0,0,0-.33-.21l-19.44-4.69a.58.58,0,0,0-.32,0,.8.8,0,0,0-.27.18.62.62,0,0,0-.14.28.69.69,0,0,0,0,.32l1.09,3a.63.63,0,0,1,0,.27.58.58,0,0,1-.09.26.61.61,0,0,1-.2.19.5.5,0,0,1-.26.08l-20.45,2.06a.6.6,0,0,0-.55.63.61.61,0,0,0,.19.41A.63.63,0,0,0,308.18,144.69Z"/><path class="cls-1" d="M341.66,143.73h-.1a.31.31,0,0,1-.1-.05.27.27,0,0,1-.07-.08.38.38,0,0,1,0-.1.41.41,0,0,1,0-.11.2.2,0,0,1,.05-.09.27.27,0,0,1,.08-.07.17.17,0,0,1,.1,0l4.08-1c-6.7-1.59-14.68-3.48-14.86-3.55a.26.26,0,0,1-.15-.14.23.23,0,0,1,0-.2.25.25,0,0,1,.14-.16.27.27,0,0,1,.2,0c.25.07,5.82,1.4,14.91,3.56a.53.53,0,0,1,.29.18.52.52,0,0,1,0,.64.61.61,0,0,1-.29.19l-4.18,1Z"/><path class="cls-18" d="M309,146.14a2.79,2.79,0,1,0-3.65-1.51A2.79,2.79,0,0,0,309,146.14Z"/></g></svg>