<svg id="Layer_1" data-name="Layer 1" xmlns="http://www.w3.org/2000/svg" viewBox="0 0 401 321"><defs><style>.cls-1{fill:#c7e1f4;opacity:0.1;}.cls-1,.cls-2{fill-rule:evenodd;}.cls-1,.cls-3{isolation:isolate;}.cls-2{fill:#7abed1;fill-opacity:0.15;}.cls-3{fill:none;stroke:#b3becb;stroke-width:3px;opacity:0.2;}</style></defs><path class="cls-1" d="M450.66,518.91c-50.21,36.16-119,42.69-177.24,21.68-51.66-18.65-69.4-77.23-101-122.13-32-45.46-84-82.3-82.1-137.88,2-60.48,37.89-120.9,91.68-148.63,50.18-25.88,106.41,7.7,162,17.84,55.31,10.11,120.3-2,157.14,40.45,38.73,44.66,33.36,110.41,24.4,168.84C516.19,419.52,500.28,483.18,450.66,518.91Z"/><path class="cls-2" d="M83.79,433.31C43.94,383.68,78,322.85,96.36,262c16.27-54,100.91-35.72,145.2-70.54,44.84-35.25,50.55-84.9,107.64-85.91,62.12-1.1,126.06,32.55,157.47,86.29,29.31,50.13-2,109.6-9.34,167.13-7.3,57.29-16.22,96.65-57.73,136.69C396,537.78,309.7,537,248.43,524.07,186,517.73,123.18,482.36,83.79,433.31Z"/><path class="cls-3" d="M536.88,308c16.54,60.26,13.66,129.82-25.49,178.52-38,47.24-104.48,53.38-164.89,58.33-54.3,4.44-109.28-.93-153.88-32.22-45.15-31.66-75.94-105.13-90.52-158.32C85.27,292.88,114.18,256.74,146.71,202,181,144.3,206.86,100.66,274,98.78c61.32-1.71,106.65,48,154.65,86.15C473.05,220.28,521.85,253.19,536.88,308Z"/></svg>