<svg width="423" height="607" viewBox="0 0 423 607" fill="none" xmlns="http://www.w3.org/2000/svg">
<mask id="mask0" mask-type="alpha" maskUnits="userSpaceOnUse" x="0" y="0" width="423" height="607">
<path d="M0 15C0 6.71571 6.71573 0 15 0H408C416.284 0 423 6.71573 423 15V592C423 600.284 416.284 607 408 607H381.575H360.862H15C6.7157 607 0 600.284 0 592V15Z" fill="#7ABED1"/>
</mask>
<g mask="url(#mask0)">
<path d="M366.5 353L366.123 353.032C311.44 357.827 298.287 429.003 301 438.5C306 456 283.167 378.167 278 360.5L366.123 353.032C366.249 353.021 366.374 353.01 366.5 353Z" fill="url(#paint0_linear)"/>
<path d="M346.189 62.2978C346.189 62.2978 362.835 75.1198 345.618 92.8725C345.618 92.8725 361.098 97.6749 365.924 93.8749C365.424 94.8553 364.801 95.7679 364.07 96.5909C364.07 96.5909 379.771 97.4535 386.357 92.6743C392.943 87.8952 390.32 7.43116 346.539 15.579C346.539 15.579 309.623 12.0821 312.246 54.9076C314.869 97.7332 300.904 97.4768 300.904 97.4768C300.904 97.4768 304.751 99.47 306.628 99.505C306.628 99.505 309.378 98.5142 309.95 97.0105C309.704 98.1028 309.27 99.1441 308.667 100.088C308.667 100.088 323.704 101.801 331.339 96.2645C338.974 90.7277 348.171 71.1683 346.189 62.2978Z" fill="#2D3133"/>
<path d="M252.005 509.289C255.083 513.555 258.731 515.805 258.626 519.243C258.44 525.398 246.131 531.576 246.504 541.216C246.877 550.855 236.969 554.632 229.637 559.166C222.305 563.701 220.976 562.395 222.981 551.695C223.226 550.389 223.494 548.851 223.762 547.137C225.732 534.84 228.833 525.596 229.59 518.276C231.28 502.05 228.215 453 228.215 453L244.009 461.474L247.832 493.996C247.529 501.374 249.593 505.943 252.005 509.289Z" fill="#E8C4A7"/>
<path d="M310.006 468.289C313.084 472.555 316.732 474.805 316.627 478.243C316.441 484.398 295.995 485.909 296.368 495.549C296.741 505.189 288.501 511 279.501 513.5C272.169 518.034 272.497 517.201 274.502 506.5C274.746 505.194 276.233 501.713 276.501 500C283.5 487.5 286.833 484.596 287.591 477.276C289.281 461.05 286.216 412 286.216 412L302.01 420.474L305.833 452.996C305.53 460.374 307.594 464.943 310.006 468.289Z" fill="#E8C4A7"/>
<path d="M311.5 280C311.5 280 255.752 288.095 237.626 335.77C233.628 346.26 227.368 441.843 218.066 477.104C218.066 477.104 238.197 495.264 252.499 496.5C252.499 496.5 292.632 392.059 280.078 365.144C274.25 352.777 390.915 365.136 402 328.5C413.085 291.864 336.328 257.142 311.5 280Z" fill="#D65241"/>
<path d="M204.926 182.849C204.926 182.849 197.605 168.15 192.873 169.712C184.714 172.416 171.414 164.793 170.283 167.054C169.152 169.316 171.553 178.594 174.945 181.531C178.337 184.469 201.312 191.661 201.312 191.661L204.926 182.849Z" fill="#E8C4A7"/>
<path d="M390.39 288.21C390.39 288.21 256.342 267.019 226.035 295.845C209.914 311.173 282.72 463.697 282.72 463.697C287.928 462.631 293.048 461.174 298.037 459.338C305.38 456.727 310.661 449.476 310.661 449.476C310.661 449.476 303.131 396.708 301.254 377.137C298.62 349.558 279.958 336.677 288.537 337.505C297.116 338.333 360.865 375.248 399.68 337.983C423.39 315.218 411.267 282.207 411.267 282.207L390.39 288.21Z" fill="#E56A59"/>
<path d="M329.952 114.076C329.824 114.076 341.748 120.323 350.712 117.876C359.14 115.544 364.7 104.634 364.537 104.611C360.97 103.911 359.874 99.0038 360.014 77.9058L358.394 78.2321L331.246 83.6057C331.246 83.6057 331.864 92.1499 331.887 100.193C331.91 106.953 331.491 113.364 329.952 114.076Z" fill="#E8C4A7"/>
<path d="M331.246 83.6055C331.246 83.6055 331.864 92.1497 331.887 100.193C347.041 99.7613 355.107 85.9135 358.394 78.2319L331.246 83.6055Z" fill="#D0AE8F"/>
<path d="M326.151 91.2288C326.151 91.2288 362.088 91.8116 362.123 69.4313C362.158 47.051 366.785 32.0376 343.857 30.7204C320.929 29.4033 316.442 37.9241 314.611 45.3958C312.781 52.8676 316.826 90.4944 326.151 91.2288Z" fill="#E8C4A7"/>
<path d="M424.626 296.265C422.692 301.65 416.747 303.037 408.774 302.093C393.62 300.309 370.168 293.712 353.348 288.105C340.348 283.772 326.784 281.365 313.086 280.96C305.696 280.96 320.348 268.919 318.518 236.666C317.761 223.354 309.45 203.585 305.172 182.953C300.206 159.011 331.69 107.664 331.69 107.664C331.69 107.664 334.418 122.526 364.538 104.645C365.599 104.016 377.453 121.57 388.876 143.216C401.465 167.1 413.53 195.938 409.974 210.823C403.214 239.102 430.268 280.633 424.626 296.265Z" fill="white"/>
<path d="M331.691 107.63L313.122 183.804C313.122 183.804 310.791 187.919 307.189 193.782C298.691 207.525 282.072 235.134 272.001 237.5C267.035 238.665 256.463 234.539 244.76 228.629C222.706 217.404 196.502 199.92 196.502 199.92C194.812 189.778 203.636 181.514 203.636 181.514C203.636 181.514 256.603 201.423 261.918 201.796C273.388 202.612 285.927 143.018 296.593 124.578C304.333 111.266 331.691 107.63 331.691 107.63Z" fill="white"/>
<path d="M334.354 76.7789C334.354 76.7789 329.109 80.8587 326.194 80.2758C323.279 79.693 320.948 78.5274 320.365 75.6133C320.365 75.6133 322.882 77.5079 326.42 77.6495C330.275 77.8037 330.858 77.3617 334.354 76.7789Z" fill="white"/>
<path d="M424.625 296.265C422.69 301.65 416.746 303.038 408.773 302.093C398 300 351.976 294.459 352.501 282.5C353.258 264.852 362.089 249.768 356.447 227.982C351.925 210.497 393.899 177.964 400.59 170.866C413.179 194.738 413.529 195.869 409.915 210.731C403.213 239.102 430.267 280.634 424.625 296.265Z" fill="black" fill-opacity="0.03"/>
<path d="M258.627 519.267C258.441 525.421 246.132 531.599 246.505 541.239C246.878 550.879 236.13 557.908 228.81 562.395C221.49 566.883 221 562.325 223.04 551.648C223.285 550.343 223.553 548.804 223.821 547.09C226.292 546.1 235.478 541.833 239.08 532.438C243.299 521.54 252.03 509.242 252.03 509.242C255.084 513.555 258.732 515.77 258.627 519.267Z" fill="#2D3133"/>
<path d="M318.692 485.88C316.424 491.605 302.747 493.23 299.821 502.422C296.894 511.614 284.398 514.571 275.988 516.302C267.578 518.034 268.667 513.581 274.215 504.234C274.889 503.089 275.665 501.733 276.499 500.213C279.16 500.121 289.249 499.232 295.83 491.621C303.504 482.806 315.895 474.21 315.895 474.21C317.301 479.304 319.979 482.627 318.692 485.88Z" fill="#2D3133"/>
<g clip-path="url(#clip0)">
<path d="M179.936 249.367C179.212 246.81 177.819 244.492 175.901 242.653C173.982 240.815 171.607 239.522 169.022 238.91L100.85 222.693C98.6938 222.18 96.4509 222.154 94.2837 222.616C92.1166 223.078 90.0795 224.017 88.3202 225.364L32.6911 267.977C30.5808 269.591 28.9398 271.74 27.9378 274.201C26.9359 276.662 26.6093 279.347 26.992 281.977C40.3313 373.01 104.855 393.465 125.482 397.703C127.505 398.119 129.591 398.112 131.611 397.681C133.63 397.251 135.538 396.407 137.215 395.202C154.317 382.915 204.889 337.934 179.936 249.367Z" fill="#D4D7E4"/>
<path d="M165.715 256.064C165.541 255.415 165.194 254.825 164.713 254.357C164.231 253.888 163.631 253.559 162.978 253.403L99.2467 238.239C98.7094 238.111 98.1503 238.104 97.6102 238.219C97.07 238.334 96.5622 238.568 96.1238 238.904L44.1218 278.745C43.5879 279.154 43.1747 279.7 42.9261 280.326C42.6775 280.951 42.6027 281.632 42.7097 282.296C48.1403 316.158 61.8289 342.459 83.4305 360.5C99.895 374.25 116.926 379.873 126.68 382.116C127.211 382.238 127.761 382.242 128.294 382.129C128.826 382.015 129.327 381.787 129.761 381.459C137.754 375.439 151.01 363.358 160.435 344.083C172.794 318.794 174.568 289.196 165.715 256.064Z" fill="white"/>
<path d="M65.5779 270.741C67.0355 269.342 68.7577 268.249 70.6434 267.524C72.5291 266.8 74.5405 266.459 76.5596 266.522C78.5787 266.585 80.5649 267.051 82.4019 267.892C84.2388 268.732 85.8895 269.931 87.2573 271.418L114.338 300.895C114.949 301.56 115.733 302.042 116.603 302.287C117.472 302.532 118.392 302.531 119.26 302.283C120.129 302.036 120.911 301.551 121.52 300.885C122.129 300.218 122.541 299.395 122.709 298.508L144.771 182.534C144.998 181.306 145.644 180.195 146.599 179.391C147.555 178.586 148.759 178.138 150.008 178.123C151.256 178.108 152.472 178.526 153.446 179.307C154.421 180.088 155.094 181.183 155.352 182.405C162.514 214.56 168.541 277.489 129.52 340.688C129.52 340.688 98.6891 336.447 64.0677 291.975C61.6531 288.874 60.4715 284.989 60.7503 281.068C61.0291 277.148 62.7488 273.469 65.5779 270.741Z" fill="#A3BC90"/>
</g>
<path d="M227.5 294.5C227.267 294.525 238.5 286.5 248.499 284C285.444 274.763 370.499 307.5 343.5 306C316.501 304.5 264.5 290.5 227.5 294.5Z" fill="#D65241"/>
<path d="M200.499 268.001L362.814 294.59C363.849 294.677 364.853 294.974 365.763 295.462C366.673 295.951 367.469 296.62 368.101 297.429C368.732 298.237 369.186 299.168 369.434 300.161C369.682 301.154 369.718 302.188 369.541 303.199L369.421 303.896C369.264 304.794 368.928 305.655 368.433 306.428C367.938 307.201 367.294 307.871 366.537 308.4C365.78 308.928 364.926 309.305 364.023 309.508C363.121 309.712 362.188 309.737 361.278 309.584L198 279.501L200.499 268.001Z" fill="#2D3133"/>
<path fill-rule="evenodd" clip-rule="evenodd" d="M126.774 214.878C97.895 224.803 82.5239 255.345 91.9861 282.877C101.448 310.409 132.347 325.048 161.226 315.123C190.105 305.198 205.476 274.656 196.014 247.124C190.017 229.675 177.254 217.632 160 213.5L159 203C179.34 207.871 198.284 222.961 205.471 243.874C216.831 276.929 198.273 312.965 164.476 324.58C130.679 336.195 93.8893 319.182 82.529 286.127C71.1688 253.072 89.7266 217.036 123.524 205.421C129.178 203.478 135.31 201.901 141 201.5L139 212C134.172 212.34 131.599 213.22 126.774 214.878Z" fill="#2D3133"/>
<path d="M329.228 281.728C329.228 281.728 321.617 275.807 314.436 277.217C307.256 278.628 303.736 283.558 304.015 285.808C304.295 288.058 308.095 294.41 313.597 294.97C319.099 295.529 335 290.5 335 290.5L329.228 281.728Z" fill="#E8C4A7"/>
<path d="M361.538 106.428C361.538 106.428 390.83 108.235 400.972 122.386C415.239 142.295 440.032 223.563 433.271 242.167C433.271 242.167 408 257 379 273C358.5 284.31 328.162 293.296 328.162 293.296C328.162 293.296 325.994 283.202 329.001 278.318C332.009 273.434 396.81 213.982 399.072 211.779C401.333 209.576 370.945 167.834 370.945 161.073C370.945 154.313 361.538 106.428 361.538 106.428Z" fill="white"/>
<path d="M201.254 177.171C201.254 177.171 196.766 168.277 191.614 165.142C186.462 162.006 183.361 161.004 185.121 163.37C186.881 165.736 191.614 172.357 191.614 172.357L201.254 178.978V177.171Z" fill="#E8C4A7"/>
<path d="M323.926 25.0675C323.926 25.0675 337.167 58.4164 354.652 63.2771C372.137 68.1378 377.44 61.0158 377.44 61.0158C368.935 53.2292 363.398 42.7313 361.774 31.3153C361.774 31.3153 332.843 10.6835 323.926 25.0675Z" fill="#2D3133"/>
<path d="M328.612 32.3409C328.612 32.3409 318.261 35.1967 316.116 41.6078C313.971 48.0188 313.05 62.0647 314.204 62.9972C314.204 62.9972 303.364 40.174 313.039 28.9256C316.71 24.6361 330.185 18.0968 334.02 16.9895C338.275 15.7772 328.612 32.3409 328.612 32.3409Z" fill="#2D3133"/>
<path d="M325.137 29.7067C325.137 29.7067 332.469 60.9691 353.835 71.3433C353.835 71.3433 332.643 51.8188 331.21 31.2453C329.776 10.6718 325.137 29.7067 325.137 29.7067Z" fill="#2D3133"/>
</g>
<defs>
<linearGradient id="paint0_linear" x1="308" y1="356.5" x2="326.5" y2="377.5" gradientUnits="userSpaceOnUse">
<stop stop-color="#DFDBDB"/>
<stop offset="1" stop-color="white" stop-opacity="0"/>
</linearGradient>
<clipPath id="clip0">
<rect width="174" height="187" fill="white" transform="translate(14 168)"/>
</clipPath>
</defs>
</svg>
