<svg width="145" height="74" viewBox="0 0 145 74" fill="none" xmlns="http://www.w3.org/2000/svg">
<g filter="url(#filter0_d)">
<path d="M71.8791 28.9435C71.8791 44.9263 58.9224 57.883 42.9396 57.883C26.9567 57.883 14 44.9263 14 28.9435C14 12.9606 26.9567 0.00390625 42.9396 0.00390625C58.9224 0.00390625 71.8791 12.9606 71.8791 28.9435Z" fill="#E56A59"/>
<path d="M71.8791 28.9435C71.8791 44.9263 58.9224 57.883 42.9396 57.883C26.9567 57.883 14 44.9263 14 28.9435C14 12.9606 26.9567 0.00390625 42.9396 0.00390625C58.9224 0.00390625 71.8791 12.9606 71.8791 28.9435Z" fill="url(#paint0_radial)"/>
</g>
<path d="M78.8635 38.2288C78.7322 38.2288 78.6205 38.1828 78.5285 38.0909C78.4366 38.012 78.3906 37.9004 78.3906 37.7559V24.7122C78.3906 24.5677 78.4366 24.456 78.5285 24.3772C78.6205 24.2853 78.7322 24.2393 78.8635 24.2393H80.4398C80.5843 24.2393 80.7025 24.2853 80.7945 24.3772C80.8864 24.4692 80.9324 24.5808 80.9324 24.7122V25.5003C81.6286 24.5283 82.6729 24.0422 84.0652 24.0422C85.3919 24.0422 86.41 24.4626 87.1193 25.3033C87.8286 26.1308 88.2096 27.2473 88.2621 28.6529C88.2752 28.8105 88.2818 29.0469 88.2818 29.3622C88.2818 29.6775 88.2752 29.9139 88.2621 30.0715C88.2227 31.4508 87.8418 32.5673 87.1193 33.4211C86.41 34.2618 85.3919 34.6821 84.0652 34.6821C82.7517 34.6821 81.7468 34.2158 81.0506 33.2832V37.7559C81.0506 37.9004 81.0046 38.012 80.9127 38.0909C80.8339 38.1828 80.7222 38.2288 80.5777 38.2288H78.8635ZM83.3165 32.5542C84.722 32.5542 85.4708 31.6872 85.5627 29.9533C85.5758 29.8219 85.5824 29.6249 85.5824 29.3622C85.5824 29.0995 85.5758 28.9024 85.5627 28.7711C85.4708 27.0372 84.722 26.1702 83.3165 26.1702C82.5678 26.1702 82.0095 26.4132 81.6417 26.8993C81.2739 27.3853 81.0769 27.9764 81.0506 28.6726C81.0375 28.8302 81.0309 29.0798 81.0309 29.4213C81.0309 29.7628 81.0375 30.019 81.0506 30.1897C81.0769 30.8465 81.2805 31.4048 81.6614 31.8645C82.0423 32.3243 82.594 32.5542 83.3165 32.5542Z" fill="#272D32"/>
<path d="M90.9469 34.4851C90.8155 34.4851 90.7038 34.4391 90.6119 34.3472C90.5199 34.2552 90.474 34.1436 90.474 34.0122V24.7319C90.474 24.5874 90.5199 24.4692 90.6119 24.3772C90.7038 24.2853 90.8155 24.2393 90.9469 24.2393H92.5625C92.707 24.2393 92.8253 24.2853 92.9172 24.3772C93.0092 24.4692 93.0551 24.5874 93.0551 24.7319V25.5397C93.7119 24.6728 94.6577 24.2393 95.8924 24.2393H96.72C96.8645 24.2393 96.9761 24.2853 97.055 24.3772C97.1469 24.456 97.1929 24.5677 97.1929 24.7122V26.1505C97.1929 26.2819 97.1469 26.3935 97.055 26.4855C96.9761 26.5774 96.8645 26.6234 96.72 26.6234H95.1634C94.546 26.6234 94.06 26.8007 93.7054 27.1554C93.3507 27.5101 93.1734 27.9961 93.1734 28.6135V34.0122C93.1734 34.1436 93.1274 34.2552 93.0354 34.3472C92.9435 34.4391 92.8318 34.4851 92.7005 34.4851H90.9469Z" fill="#272D32"/>
<path d="M101.55 34.6821C100.88 34.6821 100.263 34.5508 99.6978 34.2881C99.1461 34.0122 98.7061 33.6444 98.3777 33.1847C98.0624 32.7249 97.9048 32.2192 97.9048 31.6675C97.9048 30.7743 98.2661 30.0518 98.9885 29.5001C99.711 28.9484 100.703 28.5741 101.964 28.377L104.663 27.9829V27.5692C104.663 27.0043 104.519 26.5774 104.23 26.2884C103.941 25.9995 103.481 25.855 102.85 25.855C102.417 25.855 102.069 25.9338 101.806 26.0914C101.543 26.249 101.327 26.4132 101.156 26.584C100.998 26.7416 100.893 26.8467 100.841 26.8993C100.788 27.0569 100.69 27.1357 100.545 27.1357H99.0082C98.89 27.1357 98.7849 27.0963 98.693 27.0175C98.6141 26.9387 98.5747 26.8336 98.5747 26.7022C98.5879 26.3738 98.7455 26.006 99.0476 25.5988C99.3629 25.1785 99.8423 24.8172 100.486 24.5151C101.13 24.1999 101.924 24.0422 102.87 24.0422C104.42 24.0422 105.55 24.3903 106.259 25.0865C106.968 25.7827 107.323 26.6956 107.323 27.8253V34.0122C107.323 34.1436 107.277 34.2552 107.185 34.3472C107.106 34.4391 106.995 34.4851 106.85 34.4851H105.215C105.083 34.4851 104.972 34.4391 104.88 34.3472C104.788 34.2552 104.742 34.1436 104.742 34.0122V33.2438C104.453 33.6641 104.046 34.0122 103.52 34.2881C102.995 34.5508 102.338 34.6821 101.55 34.6821ZM102.22 32.7906C102.942 32.7906 103.533 32.5542 103.993 32.0813C104.453 31.6084 104.683 30.9253 104.683 30.0321V29.638L102.712 29.9533C101.202 30.1897 100.447 30.6955 100.447 31.4705C100.447 31.8908 100.617 32.2192 100.959 32.4557C101.314 32.679 101.734 32.7906 102.22 32.7906Z" fill="#272D32"/>
<path d="M114.284 34.6821C112.839 34.6821 111.683 34.2815 110.816 33.4802C109.962 32.679 109.509 31.569 109.456 30.1503L109.437 29.3622L109.456 28.5741C109.509 27.1554 109.962 26.0454 110.816 25.2442C111.683 24.4429 112.839 24.0422 114.284 24.0422C115.321 24.0422 116.195 24.2261 116.904 24.5939C117.627 24.9617 118.159 25.4149 118.5 25.9535C118.855 26.4789 119.045 26.9846 119.072 27.4707C119.085 27.602 119.039 27.7137 118.934 27.8056C118.842 27.8976 118.73 27.9435 118.599 27.9435H116.845C116.701 27.9435 116.596 27.9173 116.53 27.8647C116.464 27.799 116.399 27.6874 116.333 27.5298C116.136 27.0306 115.873 26.6694 115.545 26.4461C115.229 26.2228 114.822 26.1111 114.323 26.1111C113.653 26.1111 113.128 26.3213 112.747 26.7416C112.379 27.162 112.182 27.8056 112.156 28.6726L112.136 29.4016L112.156 30.0518C112.235 31.7595 112.957 32.6133 114.323 32.6133C114.835 32.6133 115.249 32.5082 115.564 32.298C115.88 32.0747 116.136 31.7069 116.333 31.1946C116.385 31.0501 116.445 30.945 116.51 30.8794C116.589 30.8137 116.701 30.7808 116.845 30.7808H118.599C118.73 30.7808 118.842 30.8268 118.934 30.9188C119.039 31.0107 119.085 31.1224 119.072 31.2537C119.045 31.7135 118.861 32.2126 118.52 32.7512C118.178 33.2766 117.653 33.7298 116.944 34.1107C116.234 34.4917 115.348 34.6821 114.284 34.6821Z" fill="#272D32"/>
<path d="M125.776 34.4851C124.581 34.4851 123.681 34.1764 123.077 33.559C122.472 32.9285 122.17 32.009 122.17 30.8006V26.3476H120.614C120.482 26.3476 120.371 26.3016 120.279 26.2096C120.187 26.1177 120.141 26.006 120.141 25.8747V24.7122C120.141 24.5808 120.187 24.4692 120.279 24.3772C120.371 24.2853 120.482 24.2393 120.614 24.2393H122.17V20.9685C122.17 20.824 122.216 20.7123 122.308 20.6335C122.4 20.5416 122.512 20.4956 122.643 20.4956H124.279C124.423 20.4956 124.535 20.5416 124.614 20.6335C124.706 20.7123 124.751 20.824 124.751 20.9685V24.2393H127.214C127.346 24.2393 127.457 24.2853 127.549 24.3772C127.641 24.4692 127.687 24.5808 127.687 24.7122V25.8747C127.687 26.006 127.641 26.1177 127.549 26.2096C127.457 26.3016 127.346 26.3476 127.214 26.3476H124.751V30.5838C124.751 31.1486 124.85 31.5756 125.047 31.8645C125.244 32.1535 125.566 32.298 126.013 32.298H127.392C127.536 32.298 127.648 32.344 127.727 32.4359C127.819 32.5148 127.865 32.6264 127.865 32.7709V34.0122C127.865 34.1436 127.819 34.2552 127.727 34.3472C127.648 34.4391 127.536 34.4851 127.392 34.4851H125.776Z" fill="#272D32"/>
<path d="M130.006 22.5645C129.874 22.5645 129.763 22.5185 129.671 22.4266C129.579 22.3346 129.533 22.2229 129.533 22.0916V20.6532C129.533 20.5087 129.579 20.3905 129.671 20.2986C129.763 20.2066 129.874 20.1606 130.006 20.1606H131.818C131.963 20.1606 132.081 20.2066 132.173 20.2986C132.265 20.3905 132.311 20.5087 132.311 20.6532V22.0916C132.311 22.2229 132.258 22.3346 132.153 22.4266C132.061 22.5185 131.95 22.5645 131.818 22.5645H130.006ZM130.085 34.4851C129.953 34.4851 129.842 34.4391 129.75 34.3472C129.658 34.2552 129.612 34.1436 129.612 34.0122V24.7122C129.612 24.5677 129.658 24.456 129.75 24.3772C129.842 24.2853 129.953 24.2393 130.085 24.2393H131.759C131.891 24.2393 132.002 24.2853 132.094 24.3772C132.186 24.4692 132.232 24.5808 132.232 24.7122V34.0122C132.232 34.1436 132.186 34.2552 132.094 34.3472C132.002 34.4391 131.891 34.4851 131.759 34.4851H130.085Z" fill="#272D32"/>
<path d="M139.259 34.6821C137.815 34.6821 136.659 34.2815 135.792 33.4802C134.938 32.679 134.485 31.569 134.432 30.1503L134.412 29.3622L134.432 28.5741C134.485 27.1554 134.938 26.0454 135.792 25.2442C136.659 24.4429 137.815 24.0422 139.259 24.0422C140.297 24.0422 141.171 24.2261 141.88 24.5939C142.602 24.9617 143.134 25.4149 143.476 25.9535C143.831 26.4789 144.021 26.9846 144.047 27.4707C144.061 27.602 144.015 27.7137 143.909 27.8056C143.818 27.8976 143.706 27.9435 143.575 27.9435H141.821C141.676 27.9435 141.571 27.9173 141.506 27.8647C141.44 27.799 141.374 27.6874 141.309 27.5298C141.112 27.0306 140.849 26.6694 140.52 26.4461C140.205 26.2228 139.798 26.1111 139.299 26.1111C138.629 26.1111 138.104 26.3213 137.723 26.7416C137.355 27.162 137.158 27.8056 137.131 28.6726L137.112 29.4016L137.131 30.0518C137.21 31.7595 137.933 32.6133 139.299 32.6133C139.811 32.6133 140.225 32.5082 140.54 32.298C140.855 32.0747 141.112 31.7069 141.309 31.1946C141.361 31.0501 141.42 30.945 141.486 30.8794C141.565 30.8137 141.676 30.7808 141.821 30.7808H143.575C143.706 30.7808 143.818 30.8268 143.909 30.9188C144.015 31.0107 144.061 31.1224 144.047 31.2537C144.021 31.7135 143.837 32.2126 143.496 32.7512C143.154 33.2766 142.629 33.7298 141.919 34.1107C141.21 34.4917 140.323 34.6821 139.259 34.6821Z" fill="#272D32"/>
<path d="M29.2502 34.2872C29.1189 34.2872 29.0072 34.2412 28.9153 34.1492C28.8233 34.0573 28.7773 33.9456 28.7773 33.8143V20.9676C28.7773 20.8231 28.8233 20.7114 28.9153 20.6326C29.0072 20.5407 29.1189 20.4947 29.2502 20.4947H31.1024C31.2469 20.4947 31.3585 20.5407 31.4373 20.6326C31.5293 20.7114 31.5752 20.8231 31.5752 20.9676V31.9227H37.8213C37.9658 31.9227 38.084 31.9687 38.1759 32.0607C38.2679 32.1526 38.3139 32.2643 38.3139 32.3956V33.8143C38.3139 33.9456 38.2679 34.0573 38.1759 34.1492C38.084 34.2412 37.9658 34.2872 37.8213 34.2872H29.2502Z" fill="white"/>
<path d="M40.3838 22.3665C40.2524 22.3665 40.1408 22.3205 40.0488 22.2286C39.9569 22.1366 39.9109 22.025 39.9109 21.8936V20.4553C39.9109 20.3108 39.9569 20.1926 40.0488 20.1006C40.1408 20.0087 40.2524 19.9627 40.3838 19.9627H42.1965C42.341 19.9627 42.4592 20.0087 42.5512 20.1006C42.6431 20.1926 42.6891 20.3108 42.6891 20.4553V21.8936C42.6891 22.025 42.6366 22.1366 42.5315 22.2286C42.4395 22.3205 42.3279 22.3665 42.1965 22.3665H40.3838ZM40.4626 34.2872C40.3313 34.2872 40.2196 34.2412 40.1277 34.1492C40.0357 34.0573 39.9897 33.9456 39.9897 33.8143V24.5142C39.9897 24.3697 40.0357 24.2581 40.1277 24.1792C40.2196 24.0873 40.3313 24.0413 40.4626 24.0413H42.1374C42.2688 24.0413 42.3804 24.0873 42.4724 24.1792C42.5643 24.2712 42.6103 24.3828 42.6103 24.5142V33.8143C42.6103 33.9456 42.5643 34.0573 42.4724 34.1492C42.3804 34.2412 42.2688 34.2872 42.1374 34.2872H40.4626Z" fill="white"/>
<path d="M46.7805 34.2872C46.6492 34.2872 46.5375 34.2412 46.4456 34.1492C46.3536 34.0573 46.3076 33.9456 46.3076 33.8143V26.1496H44.7117C44.5803 26.1496 44.4686 26.1036 44.3767 26.0117C44.2847 25.9197 44.2388 25.8081 44.2388 25.6767V24.5142C44.2388 24.3828 44.2847 24.2712 44.3767 24.1792C44.4686 24.0873 44.5803 24.0413 44.7117 24.0413H46.3076V23.2532C46.3076 22.0578 46.6295 21.1712 47.2731 20.5932C47.9168 20.0021 48.8888 19.7065 50.1892 19.7065H51.5488C51.6801 19.7065 51.7918 19.7525 51.8837 19.8445C51.9757 19.9364 52.0217 20.0481 52.0217 20.1794V21.3419C52.0217 21.4733 51.9757 21.5849 51.8837 21.6769C51.7918 21.7688 51.6801 21.8148 51.5488 21.8148H50.2878C49.7755 21.8148 49.4142 21.9396 49.2041 22.1892C48.9939 22.4388 48.8888 22.8263 48.8888 23.3517V24.0413H51.3517C51.4831 24.0413 51.5948 24.0873 51.6867 24.1792C51.7787 24.2712 51.8246 24.3828 51.8246 24.5142V25.6767C51.8246 25.8081 51.7787 25.9197 51.6867 26.0117C51.5948 26.1036 51.4831 26.1496 51.3517 26.1496H48.8888V33.8143C48.8888 33.9456 48.8428 34.0573 48.7509 34.1492C48.6721 34.2412 48.5604 34.2872 48.4159 34.2872H46.7805Z" fill="white"/>
<path d="M57.6613 34.4842C56.1901 34.4842 55.0211 34.0639 54.1541 33.2232C53.3003 32.3825 52.8471 31.1871 52.7946 29.6371L52.7749 29.1445C52.7749 27.5026 53.2018 26.2087 54.0556 25.2629C54.9225 24.3172 56.1179 23.8443 57.6416 23.8443C59.2048 23.8443 60.4067 24.3172 61.2474 25.2629C62.1012 26.2087 62.5281 27.4697 62.5281 29.046V29.4598C62.5281 29.5911 62.4821 29.7028 62.3902 29.7948C62.2982 29.8867 62.18 29.9327 62.0355 29.9327H55.4939V30.0903C55.5202 30.8259 55.7173 31.4367 56.0851 31.9227C56.466 32.3956 56.9848 32.6321 57.6416 32.6321C58.3904 32.6321 59.0012 32.3299 59.4741 31.7257C59.5923 31.5812 59.6842 31.4958 59.7499 31.4696C59.8156 31.4301 59.9272 31.4104 60.0849 31.4104H61.8188C61.937 31.4104 62.0355 31.4433 62.1143 31.509C62.2063 31.5746 62.2523 31.6666 62.2523 31.7848C62.2523 32.1001 62.0618 32.4744 61.6809 32.9079C61.3131 33.3283 60.7811 33.6961 60.0849 34.0113C59.3887 34.3266 58.5808 34.4842 57.6613 34.4842ZM59.809 28.2579V28.2185C59.809 27.4435 59.612 26.8261 59.2179 26.3663C58.837 25.8935 58.3116 25.657 57.6416 25.657C56.9717 25.657 56.4463 25.8935 56.0654 26.3663C55.6844 26.8261 55.4939 27.4435 55.4939 28.2185V28.2579H59.809Z" fill="white"/>
<defs>
<filter id="filter0_d" x="0" y="0.00390625" width="73.8791" height="73.8791" filterUnits="userSpaceOnUse" color-interpolation-filters="sRGB">
<feFlood flood-opacity="0" result="BackgroundImageFix"/>
<feColorMatrix in="SourceAlpha" type="matrix" values="0 0 0 0 0 0 0 0 0 0 0 0 0 0 0 0 0 0 127 0" result="hardAlpha"/>
<feOffset dx="-6" dy="8"/>
<feGaussianBlur stdDeviation="4"/>
<feColorMatrix type="matrix" values="0 0 0 0 0 0 0 0 0 0 0 0 0 0 0 0 0 0 0.1 0"/>
<feBlend mode="normal" in2="BackgroundImageFix" result="effect1_dropShadow"/>
<feBlend mode="normal" in="SourceGraphic" in2="effect1_dropShadow" result="shape"/>
</filter>
<radialGradient id="paint0_radial" cx="0" cy="0" r="1" gradientUnits="userSpaceOnUse" gradientTransform="translate(48.2885 14.383) rotate(110.376) scale(41.297)">
<stop stop-color="#FEC8C1"/>
<stop offset="1" stop-color="#E56A59" stop-opacity="0"/>
</radialGradient>
</defs>
</svg>
