<svg width="232" height="295" viewBox="0 0 232 295" fill="none" xmlns="http://www.w3.org/2000/svg">
<path d="M129.056 11.0207C129.98 9.35147 140.581 -8.3313 169.01 4.84939C169.01 4.84939 154.441 -0.466519 149.007 4.37148C149.007 4.37148 162.143 1.64253 168.546 7.90041C174.949 14.1583 172.671 29.784 170.475 34.1856C168.279 38.5872 156.903 50.6113 151.459 49.368C149.398 48.897 147.348 47.7057 145.599 46.4105C145.887 49.2673 146.008 52.1385 145.963 55.0094C145.54 83.5387 122.729 100.086 114.538 92.8407C109.288 88.1932 102.348 97.6579 102.348 97.6579L67.6198 20.2777C67.6198 20.2777 111.851 -13.5052 129.056 11.0207Z" fill="#2D3133"/>
<path d="M48.1104 171.774C55.383 176.824 64.5153 180.99 75.9714 183.632C118.914 193.554 135.375 157.26 141.553 132.343C135.697 128.994 130.187 128.253 127.008 127.876C123.891 127.509 120.639 127.266 117.938 127.131C113.11 123.422 105.924 108.305 104.328 84.8496L102.305 85.3933L68.4598 94.6572C68.4598 94.6572 70.0113 105.414 70.7697 115.585C71.3585 123.55 71.4624 131.145 69.942 133.008C67.3031 133.579 65.717 133.953 65.717 133.953C65.717 133.953 65.717 133.953 65.6997 133.985C58.6438 145.991 52.7538 158.645 48.1104 171.774V171.774Z" fill="#E8C6A7"/>
<path d="M68.4731 94.6467C68.4731 94.6467 70.0281 105.382 70.7831 115.571C89.9584 113.652 98.8552 95.3982 102.318 85.3828L68.4731 94.6467Z" fill="#D0AE8F"/>
<path d="M58.0049 98.3541C58.0049 98.3541 102.271 109.249 108.622 81.5787C114.973 53.9082 124.965 36.6791 96.9721 28.5615C68.9795 20.444 61.0386 29.7355 56.6785 38.4419C52.3184 47.1482 46.6527 94.8252 58.0049 98.3541Z" fill="#E8C6A7"/>
<path d="M61.5122 23.3705C70.2808 16.6139 75.053 19.6268 77.3906 22.7921C104.725 14.9897 115.866 38.3035 115.866 38.3035C114.304 58.8399 126.023 73.4855 126.023 73.4855C126.023 73.4855 116.784 76.6404 99.2119 67.5739C93.844 64.8034 89.6778 59.5879 86.471 53.6868C91.1358 68.0761 99.3331 79.5494 99.3331 79.5494C79.3889 64.1454 77.5153 31.0863 77.3733 27.6024C74.1041 29.4171 67.5484 33.4898 64.7364 38.3035C60.9096 44.8454 56.6014 59.1239 52.4838 57.6659C52.4838 57.6659 48.3592 33.5036 61.5122 23.3705Z" fill="#2D3133"/>
<path d="M48.1134 137.487C54.2951 134.197 62.2465 131.759 70.8974 129.962C70.8974 129.962 75.3579 141.445 88.9507 141.196C101.861 140.96 114.637 126.679 115.88 125.266C130.678 124.791 141.552 125.266 141.552 125.266C141.552 125.266 172.72 174.026 168.856 185.316C166.404 192.51 164.366 199.839 162.754 207.266C155.505 240.529 157.798 269.498 159.637 283.067C160.35 288.31 162.496 294.5 162.496 294.5H62.9961C62.9961 294.5 54.7142 264.584 48.6849 239.888C48.5013 239.144 48.3386 238.406 48.1481 237.675C44.0616 246.098 32.4636 258.762 27.2169 259.756C26.9018 259.815 25.4299 259.85 23.3105 259.867C15.4526 259.93 0.249451 260.037 0.249451 260.037C-2.68382 236.737 35.3483 143.028 48.1134 137.487Z" fill="#E56A59"/>
<path d="M159.647 283.04C157.801 269.471 155.508 240.502 162.764 207.239C162.733 206.851 162.719 206.646 162.719 206.646C162.719 206.646 135.845 232.298 131.221 259.12C128.056 277.429 147.387 282.205 159.647 283.04Z" fill="#D65241"/>
<path d="M83.5255 294.5C84.0796 292.73 92.9902 283.269 97.8144 282.157C102.639 281.046 118.569 284.71 118.569 284.71C138.456 281.965 174.216 259.091 193.498 253.5C193.498 253.5 184.829 242.256 180.996 235L151.448 196.492L115.881 125.245C115.881 125.245 146.042 122.866 153.675 127.416C181.144 143.786 208.92 208.881 223 240.5C223 240.5 243.499 270 218.998 276.5C203.496 280.613 152.168 295.352 122.51 294.59C120.275 294.557 118.044 294.779 115.826 294.5H83.5255Z" fill="#E8C6A7"/>
<path d="M151.449 196.492L193.497 253.5C190.003 254.823 177.376 260.193 174.997 261C174.997 261 177.002 274.51 190.997 283.5C205.494 281.5 208.406 280.099 221.001 276.5C243.498 270.071 224.003 242 224.003 242C212.503 215.5 181.159 143.797 153.689 127.416C146.07 122.866 115.896 125.245 115.896 125.245L151.449 196.492Z" fill="#E56A59"/>
<path d="M0.258843 260.01C2.37828 260.01 26.925 259.789 27.2263 259.73C32.4729 258.736 44.071 246.071 48.1575 237.649C48.3341 238.38 46.8553 229.684 45.4839 226.148C43.5479 221.284 41.232 216.581 38.5577 212.081C24.4696 209.958 0.220749 246.622 0.258843 260.01Z" fill="#D65241"/>
<path d="M1.09551 237.889C6.17455 200.11 13.8356 162.724 24.0249 125.992H24.1046C24.8769 123.01 30.9685 99.7482 33.5174 97.2028C36.2394 94.4808 50.5906 88.777 53.0633 88.1641C53.1594 88.7064 53.11 89.2646 52.9202 89.7817C52.7304 90.2987 52.407 90.7563 51.9828 91.1077C51.2583 91.693 50.5009 92.2364 49.7144 92.7354L53.1152 94.5432C52.6688 94.8892 52.1571 95.1415 51.6108 95.2849C51.0645 95.4283 50.4949 95.4599 49.9361 95.3778C48.8574 95.1869 47.7929 94.9231 46.75 94.5882C46.0574 95.0176 45.3647 95.4332 44.7206 95.8037C43.6505 96.815 42.383 98.0894 42.2722 98.55C42.144 99.0903 41.68 101.469 41.3925 102.976C41.8766 102.572 42.3051 102.107 42.667 101.591C44.028 99.4885 46.8747 99.7032 46.8747 99.7032C46.8747 99.7032 42.9787 104.586 42.6081 107.772C42.0471 112.621 39.3527 115.138 39.3527 115.138C38.3623 116.309 36.9666 117.355 35.7892 119.8C34.9234 121.59 34.5875 125.019 34.3485 126.996C33.7667 134.13 31.765 160.426 32.3122 179.792C33.0464 205.852 35.5156 229.211 32.5858 243.704C31.8308 247.458 30.7122 250.63 29.1226 253.054C22.7332 262.855 0.281656 259.981 0.281656 259.981C0.281656 259.981 -0.701862 251.531 1.09551 237.889Z" fill="#E8C6A7"/>
<path d="M0.260322 260.01C0.260322 260.01 22.7118 262.87 29.1013 253.083C30.7047 250.628 31.8233 247.47 32.5645 243.733C27.7507 244.938 14.5735 246.978 1.08108 237.922C-0.702431 251.532 0.260322 260.01 0.260322 260.01Z" fill="#E56A59"/>
</svg>
