<svg width="89" height="61" viewBox="0 0 89 61" fill="none" xmlns="http://www.w3.org/2000/svg">
<path opacity="0.1" fill-rule="evenodd" clip-rule="evenodd" d="M114.386 114.286C102.11 126.099 83.6033 130.562 66.9213 127.104C52.1124 124.034 44.9922 108.76 34.6205 97.7529C24.1203 86.6095 8.5272 78.5922 6.86742 63.3713C5.06114 46.807 12.4845 28.9405 26.0638 19.2844C38.7331 10.2754 55.3687 17.2355 70.9029 17.8363C86.3733 18.4345 103.613 12.5946 115.311 22.7358C127.61 33.3975 128.708 51.5292 128.544 67.8051C128.373 84.6416 126.518 102.611 114.386 114.286Z" fill="#7ABED1"/>
<path fill-rule="evenodd" clip-rule="evenodd" d="M11.0508 105.256C-1.74661 93.2824 5.17835 75.3721 7.80076 58.0783C10.1287 42.7262 33.9123 44.4093 44.628 33.1928C55.4765 21.8372 55.0974 8.08061 70.6183 5.57985C87.509 2.85839 106.247 9.53652 116.904 22.9599C126.847 35.4838 120.63 52.9137 120.874 68.8804C121.118 84.7814 120.221 95.8559 110.467 108.388C100.212 121.563 76.6672 124.705 59.4655 123.575C42.186 124.283 23.6986 117.089 11.0508 105.256Z" fill="#7ABED1" fill-opacity="0.15"/>
</svg>
