<svg id="Layer_1" data-name="Layer 1" xmlns="http://www.w3.org/2000/svg" viewBox="0 0 9.5 9.49"><defs><style>.cls-1{opacity:0.3;isolation:isolate;}</style></defs><g class="cls-1"><path d="M.56,9.49A.56.56,0,0,1,0,8.78L.74,6.19a.62.62,0,0,1,.14-.25l.18.18L.88,5.94,6.36.48l.16.16L6.36.48a1.62,1.62,0,0,1,2.3,0L9,.83A1.63,1.63,0,0,1,9,3.14L8.85,3,9,3.14,3.55,8.6l-.18-.17h0l.19.17a.72.72,0,0,1-.24.14l-2.6.72Zm.59-2.92L.5,8.91l.14.32L.57,9l2.35-.65Zm.26-.45,2,2L8.49,3,6.53,1ZM6.91.67,8.83,2.59a1.14,1.14,0,0,0-.16-1.4L8.31.83A1.14,1.14,0,0,0,6.91.67Z"/></g></svg>