<svg id="Layer_1" data-name="Layer 1" xmlns="http://www.w3.org/2000/svg" xmlns:xlink="http://www.w3.org/1999/xlink" viewBox="0 0 261 166"><defs><style>.cls-1{fill:none;}.cls-2{clip-path:url(#clip-path);}.cls-3,.cls-4{fill:#7abed1;fill-rule:evenodd;}.cls-3{opacity:0.1;isolation:isolate;}.cls-4{fill-opacity:0.15;}</style><clipPath id="clip-path"><rect class="cls-1" width="261" height="166"/></clipPath></defs><g class="cls-2"><path class="cls-3" d="M217.14,319.34c-37.36,9.52-78.76-2.4-107.71-27.85-25.71-22.6-22.64-60.61-30.73-93.86C70.5,164,48.78,130.75,62.54,99c15-34.61,49.55-61.46,87.06-65.27,35-3.56,60,28.73,89.84,47.29s70.21,26.26,81.89,59.29C333.6,175,315.49,211.89,297,243.73,277.8,276.66,254.06,309.94,217.14,319.34Z"/><path class="cls-4" d="M23.94,186C12.15,148.17,45.8,120.67,70.29,89.58,92,62,137,91.89,170.57,81.8c34-10.21,48.68-37.7,82-25.26,36.28,13.53,65.67,47.62,71.63,85.94,5.56,35.76-26.16,63.1-43.53,94.79S249.23,289.61,216,303.36c-34.91,14.45-84.75-5.69-117.32-27.15C63.92,258.28,35.59,223.46,23.94,186Z"/></g></svg>