<svg id="Layer_1" data-name="Layer 1" xmlns="http://www.w3.org/2000/svg" xmlns:xlink="http://www.w3.org/1999/xlink" viewBox="0 0 266.5 99.33"><defs><style>.cls-1,.cls-4,.cls-6{fill:#7abed1;}.cls-2{fill:none;}.cls-3{clip-path:url(#clip-path);}.cls-4,.cls-6{fill-opacity:0.15;}.cls-5{mask:url(#mask);}.cls-6{fill-rule:evenodd;}.cls-7{fill:#d0ae8f;}.cls-8{fill:#e8c6a7;}.cls-9{fill:url(#linear-gradient);}.cls-10{fill:url(#linear-gradient-2);}.cls-11{fill:url(#linear-gradient-3);}.cls-12{fill:url(#linear-gradient-4);}.cls-13{fill:#fff;}.cls-14{fill:#3b3b40;}</style><clipPath id="clip-path"><rect class="cls-2" y="4.33" width="266.5" height="95"/></clipPath><mask id="mask" x="-110.83" y="-62.67" width="410.83" height="393.76" maskUnits="userSpaceOnUse"><g id="mask0"><path class="cls-1" d="M0-47.67a15,15,0,0,1,15-15H285a15,15,0,0,1,15,15V70.38a15,15,0,0,1-15,15H66.33a10,10,0,0,0-3.54.65L30.41,98.3a2,2,0,0,1-2.71-1.87V90.38a5,5,0,0,0-5-5H15a15,15,0,0,1-15-15Z"/></g></mask><linearGradient id="linear-gradient" x1="-553.67" y1="40234.41" x2="-487.22" y2="36058.52" gradientTransform="matrix(1, 0, 0, -1, 0, 38.66)" gradientUnits="userSpaceOnUse"><stop offset="0" stop-color="#fffac0"/><stop offset="0.54" stop-color="#ffc880"/><stop offset="1" stop-color="#ef6262"/></linearGradient><linearGradient id="linear-gradient-2" x1="-331.83" y1="40961.09" x2="-286.1" y2="36490.5" xlink:href="#linear-gradient"/><linearGradient id="linear-gradient-3" x1="-498.66" y1="36888.84" x2="-432.21" y2="32712.84" xlink:href="#linear-gradient"/><linearGradient id="linear-gradient-4" x1="-612.18" y1="33240.42" x2="-529.6" y2="29324.22" xlink:href="#linear-gradient"/></defs><g class="cls-3"><path class="cls-4" d="M0,29.33a15,15,0,0,1,15-15H251.5a15,15,0,0,1,15,15V70.41a15,15,0,0,1-15,15H48.57a10,10,0,0,0-6.43,2.33L31.61,96.58A2,2,0,0,1,28.33,95V90.41a5,5,0,0,0-5-5H15a15,15,0,0,1-15-15Z"/><g class="cls-5"><path class="cls-6" d="M-108.33,160.82c-12.15-39,22.54-67.37,47.78-99.42,22.42-28.45,68.71,2.38,103.37-8C77.9,42.86,93,14.53,127.34,27.34c37.39,14,67.69,49.09,73.83,88.59,5.73,36.86-27,65-44.87,97.7s-32.41,53.95-66.64,68.12c-36,14.9-87.34-5.87-120.92-28C-67.12,235.29-96.32,199.39-108.33,160.82Z"/><path class="cls-6" d="M273.31,258.07c-5.59,40.5-49,51.4-85.52,69.67-32.38,16.22-61.17-31.36-97-36.69C54.6,285.66,28.9,304.89,3.25,278.68c-27.91-28.52-40.39-73.21-29.16-111.57,10.49-35.8,52.07-47.4,82.16-69.35s52.28-35.05,89.28-33.32c38.9,1.81,76.56,42.45,97.55,76.74C267.68,173.15,278.84,218.06,273.31,258.07Z"/><path class="cls-7" d="M90.83,27.64,71.9,29.21,70.77,56,70,52.89,63.79,64.13l6.43,4.77,21.49-8.55Z"/><path class="cls-8" d="M66.87,66.41a53.81,53.81,0,0,0,5-37.2,54,54,0,0,0,4.18-11.67C79,6.05,76,5.25,72.87,4.33l-14.26,25-13,21.33Z"/><path class="cls-9" d="M76.22,32.18a4.71,4.71,0,0,1,4-5.34l11.14-1.65a4.71,4.71,0,0,1,5.33,4h0a4.71,4.71,0,0,1-4,5.34L81.55,36.14a4.71,4.71,0,0,1-5.33-4Z"/><path class="cls-10" d="M76.32,41.66a4.71,4.71,0,0,1,4-5.33l12.42-1.84a4.71,4.71,0,0,1,5.33,4h0a4.71,4.71,0,0,1-4,5.34L81.65,45.62a4.71,4.71,0,0,1-5.33-4Z"/><path class="cls-11" d="M78.28,50.89a4.71,4.71,0,0,1,4-5.34L93.38,43.9a4.71,4.71,0,0,1,5.34,4h0a4.78,4.78,0,0,1-.88,3.49,4.72,4.72,0,0,1-3.08,1.85L83.62,54.85a4.71,4.71,0,0,1-5.34-4Z"/><path class="cls-12" d="M79.53,60.24a4.71,4.71,0,0,1,4-5.34l10-1.47a4.7,4.7,0,0,1,5.34,4h0a4.71,4.71,0,0,1-4,5.34l-10,1.48a4.71,4.71,0,0,1-5.34-4Z"/><path class="cls-13" d="M70.24,69A183.34,183.34,0,0,0,54.72,92.23c-1.33,2.43-2.55,4.89-3.58,7.3H1.39c8.24-10.9,25-31.76,44.28-48.82l9,6.72Z"/><path class="cls-8" d="M76.22,32.18a4.71,4.71,0,0,1,4-5.34l11.14-1.65a4.71,4.71,0,0,1,5.33,4h0a4.71,4.71,0,0,1-4,5.34L81.55,36.14a4.71,4.71,0,0,1-5.33-4Z"/><path class="cls-8" d="M76.32,41.66a4.71,4.71,0,0,1,4-5.33l12.42-1.84a4.71,4.71,0,0,1,5.33,4h0a4.71,4.71,0,0,1-4,5.34L81.65,45.62a4.71,4.71,0,0,1-5.33-4Z"/><path class="cls-8" d="M78.28,50.89a4.71,4.71,0,0,1,4-5.34L93.38,43.9a4.71,4.71,0,0,1,5.34,4h0a4.78,4.78,0,0,1-.88,3.49,4.72,4.72,0,0,1-3.08,1.85L83.62,54.85a4.71,4.71,0,0,1-5.34-4Z"/><path class="cls-8" d="M79.53,60.24a4.71,4.71,0,0,1,4-5.34l10-1.47a4.7,4.7,0,0,1,5.34,4h0a4.71,4.71,0,0,1-4,5.34l-10,1.48a4.71,4.71,0,0,1-5.34-4Z"/><path class="cls-14" d="M35,55.58l32.16,22S55.24,91.44,51.1,99.48H0S20.29,68,35,55.58Z"/></g></g></svg>