<svg id="Layer_1" data-name="Layer 1" xmlns="http://www.w3.org/2000/svg" viewBox="0 0 50 15"><defs><style>.cls-1{fill:#004b95;}.cls-2{fill:#faa61a;}</style></defs><path class="cls-1" d="M21.31,15H17L19.69,0H24Z"/><path class="cls-1" d="M37,.62A11.94,11.94,0,0,0,33.11,0c-4.28,0-7.29,2-7.31,4.8,0,2.09,2.16,3.25,3.8,3.94s2.25,1.18,2.25,1.81c0,1-1.36,1.42-2.61,1.42a9.74,9.74,0,0,1-4.06-.77L24.61,11,24,14.23a15.17,15.17,0,0,0,4.83.77c4.55,0,7.51-1.95,7.55-5,0-1.65-1.14-2.92-3.64-3.95-1.52-.67-2.45-1.12-2.45-1.8S31.08,3,32.79,3A8.45,8.45,0,0,1,36,3.6l.39.15Z"/><path class="cls-1" d="M42,9.69l1.55-4.2.52-1.44.27,1.3s.74,3.59.9,4.34ZM46.85,0h-3a1.92,1.92,0,0,0-2,1.24L36,15h4.09s.68-1.85.82-2.25h5L46.39,15H50Z"/><path class="cls-1" d="M14.5,0,10.34,10.24,9.88,8.16A11.82,11.82,0,0,0,4,1.87L7.82,15h4.49L19,0Z"/><path class="cls-2" d="M6,0h-6L0,.33A13.12,13.12,0,0,1,9,9L7.7,1.39A1.56,1.56,0,0,0,6,0Z"/></svg>