<svg id="Layer_1" data-name="Layer 1" xmlns="http://www.w3.org/2000/svg" xmlns:xlink="http://www.w3.org/1999/xlink" viewBox="0 0 1681 881.82"><defs><style>.cls-1{fill:none;}.cls-2{clip-path:url(#clip-path);}.cls-3,.cls-4{fill:#fff;fill-rule:evenodd;}.cls-3{fill-opacity:0.5;}</style><clipPath id="clip-path"><rect class="cls-1" x="0.5" y="0.5" width="1680" height="880.82"/></clipPath></defs><g class="cls-2"><path class="cls-3" d="M1465.48,1488.35c-210.53,100.85-502.43,116-751.27,53C493.31,1485.4,413.45,1317,275.65,1187c-139.5-131.61-363-239.59-359.3-398.41,4-172.83,151.77-343.77,378.14-420.34C505.7,296.82,741.21,436.5,977.93,468.33c235.75,31.7,516.82-40.52,676.58,82.8,168,129.65,150.15,317.38,116.54,484C1736.29,1207.49,1673.56,1388.69,1465.48,1488.35Z"/><path class="cls-4" d="M-206.8,1171.53C-354,1000.86-178,852.12-69.85,691.89c96-142.24,450.86-28.37,658-95.44C797.91,528.54,846.49,391,1092.27,429.74c267.47,42.15,525.88,184.76,634.84,361,101.65,164.45-61.69,311.33-121,470.17-59.1,158.18-116.48,264-314.23,348-207.9,88.31-578.17,23.12-835.15-58.38C191.27,1486.9-61.31,1340.21-206.8,1171.53Z"/></g></svg>