<svg id="Layer_1" data-name="Layer 1" xmlns="http://www.w3.org/2000/svg" xmlns:xlink="http://www.w3.org/1999/xlink" viewBox="0 0 1450 807"><defs><style>.cls-1,.cls-5{fill:none;}.cls-2{clip-path:url(#clip-path);}.cls-3,.cls-4{fill:#7abed1;fill-rule:evenodd;}.cls-3{opacity:0.1;}.cls-3,.cls-5{isolation:isolate;}.cls-4{fill-opacity:0.15;}.cls-5{stroke:#b3becb;stroke-width:5px;opacity:0.2;}.cls-6{fill:#e56a59;}.cls-7{fill:url(#radial-gradient);}</style><clipPath id="clip-path"><rect class="cls-1" x="-0.5" y="0.5" width="1450" height="807"/></clipPath><radialGradient id="radial-gradient" cx="426.03" cy="784.22" r="1" gradientTransform="matrix(-10.3, 21.97, 21.97, 10.3, -12148.65, -16668.33)" gradientUnits="userSpaceOnUse"><stop offset="0" stop-color="#fec8c1"/><stop offset="1" stop-color="#e56a59" stop-opacity="0"/></radialGradient></defs><g class="cls-2"><path class="cls-3" d="M-116.31,1692.18c156,133.2,381.58,173.61,579.6,120.14,175.79-47.47,250.45-236.13,367.24-375.83,118.23-141.42,299.91-248.92,309-433,9.88-200.37-92.1-409.79-262.2-516.14C718.61,388.1,523.65,483.63,337.39,502c-185.51,18.24-396.87-39.63-530.22,90.6C-333,729.48-333.27,948.17-319.67,1143.66-305.59,1345.89-270.46,1560.53-116.31,1692.18Z"/><path class="cls-4" d="M1167.68,1433.05c134.42-192.84-6.48-408.43-89.22-628C1005,610.2,697.72,698.75,525.8,581.55,351.76,462.91,318.28,281.39,107.69,292c-229.19,11.5-456.33,151.48-558.62,357.35-95.43,192.08,34.85,403.36,76.26,613.5,41.24,209.27,84,352,246.94,489.18,171.34,144.17,489,119.58,711.49,56.68C812.42,1769.67,1034.83,1623.63,1167.68,1433.05Z"/><path class="cls-5" d="M-273.92,675.78c-109.24,109.58-188,262.92-163.17,415.65,24.08,148.13,159.85,242.6,283.91,327,111.52,75.9,236.51,131.49,370.79,118.6,135.93-13.06,292-133.7,388.35-230.44C717.22,1195,699.08,1081.8,695.89,924.19c-3.38-166.17-5.77-291.77-148-377.78-130-78.59-288.28-27-438.33-3.37C-29.34,564.91-174.64,576.19-273.92,675.78Z"/><circle class="cls-6" cx="687.35" cy="772.35" r="17"/><circle class="cls-7" cx="687.35" cy="772.35" r="17"/></g></svg>