<svg id="Layer_1" data-name="Layer 1" xmlns="http://www.w3.org/2000/svg" viewBox="0 0 878.24 568.11"><defs><style>.cls-1{fill:#ddd;fill-opacity:0.34;}.cls-2{fill:#b3becb;fill-rule:evenodd;opacity:0.2;isolation:isolate;}.cls-3{fill:#4d4d51;}.cls-4{fill:#2e2e34;}.cls-5{fill:#2d3133;}.cls-6{fill:#e8c6a7;}.cls-7{fill:#e56a59;}.cls-8{fill:#d65241;}.cls-9{fill:#3b3b40;}.cls-10{fill:#b2bcc8;}.cls-11{fill:#c2cad4;}</style></defs><path class="cls-1" d="M636.83,409.72c0,8.28-80.14,15-179,15s-179-6.72-179-15,80.14-15,179-15S636.83,401.44,636.83,409.72Z"/><path class="cls-2" d="M658.44,348c34-42.27,36.73-103.08,22.11-156.34-6.49-23.65-20.3-42.71-37.59-59.87-13.59-13.49-29.13-25.64-44.85-37.92-4.37-3.42-8.75-6.84-13.11-10.31-7.69-6.12-15.2-12.47-22.68-18.79C548.58,53.18,535,41.65,520.55,31.88c-22-15-45.1-25.24-71.43-24.5-29.06.81-49,10.61-65.45,26.41C367,49.79,353.81,72,338.4,97.88c-3.29,5.53-6.51,10.83-9.64,16C304,154.49,286,184,298.91,231.17c6.46,23.58,16.51,51.63,29.92,77.25S358.91,357,378.4,370.68c38.85,27.25,87,32.09,135.17,28.15,27.06-2.22,55.08-4.68,80.55-11.77S642.11,368.36,658.44,348Zm29.19-158.28c15,54.49,12.55,118.06-23.47,162.88-17.62,21.92-41.76,34.16-68.07,41.49s-55,9.81-81.92,12c-48.89,4-99.08-.76-140-29.45C353.3,362.05,336,338,322.33,311.83s-23.93-54.75-30.5-78.72C278,182.77,297.77,150.45,322.5,110q4.71-7.69,9.59-15.85l.29-.48c15.14-25.48,28.78-48.43,46.21-65.15C396.34,11.46,418,.91,448.92,0,477.41-.76,502,10.41,524.68,25.8c14.68,10,28.88,22,42.84,33.78,7.4,6.26,14.74,12.46,22.05,18.28,4.24,3.37,8.54,6.73,12.86,10.11,15.77,12.32,31.78,24.82,45.7,38.65C666,144.31,680.68,164.44,687.63,189.76Z"/><path class="cls-2" d="M292.84,346.84c32.53,43.11,90.62,60.63,145.75,59.48,24.39-.5,46.16-9.18,67-21.72,16.37-9.86,31.92-21.93,47.67-34.16q6.57-5.12,13.22-10.21c7.84-6,15.85-11.72,23.82-17.42,14.62-10.47,29.09-20.84,42.07-32.39,19.86-17.66,35.37-37.43,41.07-63,6.29-28.24,1.69-49.82-9.54-69.54-11.39-20-29.6-38.18-51-59.47-4.57-4.54-8.92-9-13.12-13.25-33.38-34-57.46-58.49-106.08-57.5-24.42.5-54,3.38-82.12,10.1S357.25,55,339.32,70.49c-35.79,30.88-52.23,76.22-60.19,123.87-4.47,26.78-8.93,54.51-8.28,80.88S277.22,326.15,292.84,346.84Zm145.92,67.87C382.18,415.89,320.93,398,286.14,351.9c-17-22.56-23-49.09-23.68-76.45s4-55.8,8.4-82.47c8.09-48.44,25-96.08,63-128.84,19.4-16.74,47.09-27.65,75.8-34.53s59-9.82,83.9-10.33c52.42-1.07,79.09,26.16,112.28,60,4.21,4.3,8.52,8.7,13,13.17l.43.43c21,20.89,39.93,39.77,51.92,60.83,12.23,21.48,17.19,45.18,10.43,75.52-6.23,28-23.16,49.18-43.67,67.43-13.28,11.82-28.43,22.67-43.31,33.34-7.87,5.64-15.67,11.23-23.07,16.87-4.3,3.28-8.61,6.63-12.93,10-15.81,12.28-31.88,24.76-48.72,34.9C488.35,404.76,465.13,414.16,438.76,414.71Z"/><path d="M178.69,303a9.07,9.07,0,0,1-11.89-7.62l-13.36-61.08L16,264.32a10.9,10.9,0,0,1-7.76-1,10.93,10.93,0,0,1-4.13-6.65l-3.71-17Q-1,233.37,2.3,226l88-207.25a13.16,13.16,0,0,1,5.25-6.48,21.09,21.09,0,0,1,8.87-4.16L135,1.42a8.72,8.72,0,0,1,7.44,1.49,8.68,8.68,0,0,1,4.45,6.14L186.1,188.47l38.17-8.34a10,10,0,0,1,7.86,1.39,8.66,8.66,0,0,1,4.45,6.14l3.81,17.39a10.08,10.08,0,0,1-1.4,7.86,9.4,9.4,0,0,1-6.23,4l-38.6,8.43,13.36,61.08a10,10,0,0,1-1.4,7.86,9.37,9.37,0,0,1-6.23,4ZM146,198.13,114.18,52.64,43.76,220.48Z"/><path d="M706.89,556.18a9.08,9.08,0,0,1-3.9-13.57l30.28-54.7L610.19,419.78a9.09,9.09,0,0,1-3.9-13.58L614.7,391q3.16-5.7,10.49-9.09l202.91-97.6a13.17,13.17,0,0,1,8.22-1.4,21,21,0,0,1,9.41,2.72l27.35,15.14a10.4,10.4,0,0,1,3.9,13.58L788,475,822.22,494a10.06,10.06,0,0,1,5,6.23,8.7,8.7,0,0,1-.71,7.55l-8.62,15.58a10,10,0,0,1-6.23,5,9.39,9.39,0,0,1-7.34-1.08l-34.57-19.14-30.28,54.7a10,10,0,0,1-6.23,5,9.35,9.35,0,0,1-7.34-1.09Zm44.64-100.35,72.12-130.3L660,405.15Z"/><path class="cls-3" d="M591.83,414.72l-54.77-4.21s-1.31-8.17,1.55-14.41c2.74-6-1-10.28-4.78-17.38,3.48,3.52,15.46,3,23.38,1.95,1,1.55,10.73,15.77,14,18C574.77,401.23,590.73,404.55,591.83,414.72Z"/><path class="cls-3" d="M526.83,410.72H473.12s-1.28-8.2,1.52-14.46c2.69-6,7.38-12.41,3.69-19.54,3.42,3.53,14.2,3.14,22,2.1.95,1.54-3.59,11.67,6.3,20C509.89,401.68,525.75,400.51,526.83,410.72Z"/><path class="cls-4" d="M517.86,216.69s-18-7.26-42.68,17.95C427.84,273.2,367.05,371.3,361.34,378.19c-11.46,13.79-2.6,33,44.2,32.52,27.36-.26,44.1-12.9,51.6-24.26,2-3,9.34-16.82,18.33-35.3-.27,18.56-.38,32-.38,32-1.4,13.15,28,9.56,28,9.56C552.91,225.07,517.86,216.69,517.86,216.69Z"/><path class="cls-5" d="M493.71,156.57c-2.76-5.52-7.93-9.38-11.81-11.67a7.57,7.57,0,0,1,3.76.56c-2.09-1.9-8.8-3.07-8.8-3.07-23.92-34-60.81,10.05-67.53,21.54s-15.14,24.25-37.87,23.35c-44.73-1.76-47.57,43.24-38.42,66.27.13.33,22,39.17,22,39.17,5.17-9.46,51.59-49.62,82.5-49.33,10.37-4.19,21.34-16.53,22.19-17.51-8.12,10.17-14,15-17.94,17.28C471.22,238.61,501,171.22,493.71,156.57Z"/><path class="cls-6" d="M440.21,242.58c.09.12-4,15-16.27,8.48-8.06-4.29-21-22.6-16-28.81,2.37-2.95,12.8-8.54,23.66-27.53l1.31,1.11,21.92,18.71s-5,7.36-9.18,14.58C442.14,235.18,439.18,241.13,440.21,242.58Z"/><path class="cls-5" d="M431.83,190.83s.41-15.62,5-26.11c3.28-7.49,23.23-30,45.67-9.74A40.88,40.88,0,0,1,493,169.71c3,7.28,5.45,20.42-17.68,36.22l-7.14,5.79Z"/><path class="cls-7" d="M401.83,213.53s8.22,1.59,11.7-3.12,11-14.7,12.81-9,18.46,22.38,22.33,22.82,6.56,1.53,4.38,3.56-1.27,10.14-3.46,10.88S406.86,213.1,401.83,213.53Z"/><path class="cls-6" d="M452.93,225.2s-32.15-20.81-18.9-40.65,18-35.9,39.12-23.45,20,22.66,17.15,30.36S461.64,230.1,452.93,225.2Z"/><path class="cls-7" d="M454.83,240.89s-54.14-39.77-73.09-24.8c-27.94,22.09-22.36,96.67-28.85,106.37s-43.07,79.3,16.42,86.39,73.19-30.32,75.9-58.33S454.83,240.89,454.83,240.89Z"/><path class="cls-8" d="M382.82,240.76S367,326.53,398.35,350,445.47,238.1,382.82,240.76Z"/><path class="cls-8" d="M413.83,226.54s.6-9.68,9.58-6,25.61,9.26,32,7-10.37,28.32-25.7,18.08S413.83,226.54,413.83,226.54Z"/><path class="cls-5" d="M487.81,170.27S463.54,187,447.88,181.68s-19.05-12.46-19.05-12.46,15.7-1.22,27.33-13.5C456.2,155.71,488.66,155.42,487.81,170.27Z"/><path class="cls-6" d="M528.83,282.72s12.09,5.24,9.68,19.06-7.22,9.2-7.22,9.2Z"/><path class="cls-5" d="M484.1,170.79s2.89,9.45,1.18,15.49-7.68,16.79-4.56,18.44c0,0,16.36-11.28,15-25C494.36,165.16,484.1,170.79,484.1,170.79Z"/><path class="cls-9" d="M346.35,378.31c7.22-8.63,102.5-174.8,142.13-172.57C548.13,209.1,443.89,375,436.57,386c-7.53,11.32-18.37,24.45-45.84,24.71C343.74,411.17,334.86,392.05,346.35,378.31Z"/><path class="cls-9" d="M505,216.72s2.35,2.21,55.85,168.35c0,0-22.32,16.34-27.29,4.1,0,0-72.1-109.29-55.12-128.54S505,216.72,505,216.72Z"/><path class="cls-6" d="M379,221.81s-14.18,22.12,29.92,42.41,49.28,25.24,57.88,27.06c13.39,2.82,64.85,2.42,64.85,2.42s1.35-8.24-3.38-11c-7.6-4.45-51.43-11.7-57.34-14.09S402.05,197.84,379,221.81Z"/><path class="cls-7" d="M391.69,212.72s22.62.92,69.8,44.49c0,0,7.21,8.79,10.8,9.37s13.34,3.15,13.54,5.63-12,33.61-27.5,34.5S370.08,254,375.17,236C372,216.51,391.69,212.72,391.69,212.72Z"/><path class="cls-10" d="M564.8,267.67s-32.4,9.81-36.44,5.74c0,0,0-5.42-3.82-5-1,.1-2.81.23-3.06,1.38l4.23,9a59.57,59.57,0,0,1,7.77,3.39c1.68,1,25.13,0,25.13,0Z"/><path class="cls-10" d="M658.22,304.85c.95-5.5-15.69-33.49-32.3-14.93-3.79,3.38-7.61,9-11.26,17.79,0,0,.84,25.68,43.38,23.17,0,0,4.27-.13,6.31,2.92s9.44,17.53,8.43,18.54-3.6.16-4.06,2.63,1.45,5.35,1.45,5.35l13.06-6.07s-9.14-36-10.71-38.5S657.09,311.37,658.22,304.85Z"/><path class="cls-10" d="M551.19,208.58S564.83,219.84,563,226l-14.74-3.63S546.26,218.1,551.19,208.58Z"/><path class="cls-11" d="M661.49,252.14c-5.2-3.8-13.39-10.37-9.43-16.45,3.37-5.18-1.33-10.52-4.77-10.74-7.24-.43-11.29,6.24-12.25,11.38-1.84,9.77,10.45,18,10.45,18,13.17,11.12,3,24.79-2.26,30.46a83.81,83.81,0,0,0-17-7.83c-3.24-1.09-6.12-1.86-8.53-2.52-25.7-7.16-23.92-15-31.55-20-1.51-1-6.66-3.24-8.13-4s-3.77-4.94-5.63-8.67a7,7,0,0,0,.55-4.8,4.09,4.09,0,0,1,.76,1.62c1.33-2.73-1-6.51-1-6.51a5.2,5.2,0,0,1,1.5,1.52c-1.81-6.74-8-10-8-10.06-2.11-6.18-11.67-14.09-11.67-14.09a26.76,26.76,0,0,0-3.27,9.92c-3.8.53-7.68,2.42-9.93,8.36-.69,1.82-4,4.56-5.83,5.15-1,.32-1,6.21-.76,6.91,2.44,7.8,6.45,10.33,12.4,12.14,1.36,1.38,2.84,3.4,2.5,5.38,0,0,.72-.77.69-1.11.11.41.71,3-.08,4.58a4,4,0,0,0,.76-.6c-.44,1.91-1.94,9.65,1.42,16.74-8.78,4.16-17.42,7.52-19.28,5.64,0,0,.18-4.6-3.82-5a7.6,7.6,0,0,0-3.8.8L530,288.5a34.86,34.86,0,0,1,8.18,2.78c1,.59,15.95.42,27.08.2,16.17,20.76,39.67,26.19,47.19,27.44,4.12,6.72,12.64,14,29.75,19.14,0,0,4,1.36,4.91,4.91s2.84,19.71,1.56,20.31-6.51.74-7.78,2.91,3.67,6,3.67,6l13.21-6.14s3.86-34.4,3.23-37.26-13-9.4-9.66-15.14c1.41-2.46.55-12-3.53-19.15C653.23,289.28,677.74,264,661.49,252.14Z"/><path class="cls-4" d="M535.11,233a1.5,1.5,0,0,1,.51-.49,1.36,1.36,0,0,1,.68-.18,3.06,3.06,0,0,1-1.35,3.78S534.67,233.67,535.11,233Z"/><path class="cls-4" d="M542.05,236.43A47.22,47.22,0,0,1,562.51,240,49.43,49.43,0,0,0,542,236.1Z"/><path class="cls-4" d="M541.52,237.45c.13,0,12.48,2,22.6,9.87a58.6,58.6,0,0,0-22.56-10.26Z"/><path class="cls-4" d="M540.9,238.67a46.82,46.82,0,0,1,16.85,12.11A49.28,49.28,0,0,0,541,238.35Z"/><path class="cls-10" d="M554.44,209.39s5.71,11,7.78,12.51a7,7,0,0,0,3.85,1.57C564,217.3,554.44,209.39,554.44,209.39Z"/></svg>