<svg id="Layer_1" data-name="Layer 1" xmlns="http://www.w3.org/2000/svg" xmlns:xlink="http://www.w3.org/1999/xlink" viewBox="0 0 510 510"><defs><style>.cls-1,.cls-5{fill:none;}.cls-2{clip-path:url(#clip-path);}.cls-3,.cls-4{fill:#7abed1;fill-rule:evenodd;}.cls-3{opacity:0.1;}.cls-3,.cls-5{isolation:isolate;}.cls-4{fill-opacity:0.15;}.cls-5{stroke:#b3becb;stroke-width:3px;opacity:0.2;}</style><clipPath id="clip-path"><rect class="cls-1" width="510" height="510"/></clipPath></defs><g class="cls-2"><path class="cls-3" d="M152,1001.31c-106.91,27.22-225.37-6.87-308.22-79.71-73.55-64.66-64.77-173.44-87.94-268.59-23.46-96.33-85.59-191.35-46.23-282.35,42.83-99,141.78-175.87,249.13-186.78C58.93,173.7,130.31,266.11,215.84,319.19,301,372.06,416.76,394.34,450.17,488.87c35.13,99.37-16.7,205-69.71,296.06C325.64,879.17,257.69,974.4,152,1001.31Z"/><path class="cls-4" d="M-400.81,619.84c-33.74-108.35,62.55-187,132.65-276,62.23-79,190.74,6.59,287-22.27,97.41-29.22,139.29-107.88,234.67-72.3,103.8,38.73,187.92,136.27,205,245.94,15.91,102.32-74.86,180.56-124.57,271.23-49.51,90.29-90,149.77-185,189.11C49,996.92-93.64,939.28-186.86,877.88-286.41,826.58-367.47,726.92-400.81,619.84Z"/><path class="cls-5" d="M410.05,694.65C398.17,805.43,348,919,251.24,974.22,157.4,1027.82,43,994.59-60.42,963.38c-93-28.06-180.72-72.86-234.31-153.88-54.24-82-57.37-224-46.85-321.77,12.14-112.86,83.71-154,173.39-223.53,94.56-73.36,166-128.9,278.51-88.22C213.18,213.15,256,325.15,310.7,419.85,361.36,507.52,420.85,594,410.05,694.65Z"/></g></svg>