<svg id="Layer_1" data-name="Layer 1" xmlns="http://www.w3.org/2000/svg" xmlns:xlink="http://www.w3.org/1999/xlink" viewBox="0 0 181 141"><defs><style>.cls-1{fill:none;}.cls-2{clip-path:url(#clip-path);}.cls-3,.cls-4{fill:#7abed1;fill-rule:evenodd;}.cls-3{opacity:0.1;isolation:isolate;}.cls-4{fill-opacity:0.15;}</style><clipPath id="clip-path"><rect class="cls-1" width="181" height="141"/></clipPath></defs><g class="cls-2"><path class="cls-3" d="M190.47,416.37C141.76,428.78,87.78,413.24,50,380.05,16.51,350.59,20.52,301,10,257.67-.73,213.78-29,170.48-11.11,129,8.41,83.89,53.5,48.88,102.41,43.91c45.63-4.64,78.16,37.47,117.13,61.66,38.81,24.09,91.55,34.24,106.77,77.31,16,45.28-7.61,93.39-31.76,134.9C269.57,360.72,238.61,404.11,190.47,416.37Z"/><path class="cls-4" d="M20.21,287.18c-31.64-20.66-23.6-61.28-24.48-99-.77-33.48,50.37-38.76,69-66.58C83.5,93.45,77.57,64.37,109.6,53.27c34.86-12.07,77.15-4.87,104.79,19.67,25.79,22.9,19.07,62.24,25.54,96.06s8.67,57.54-7.38,87.79c-16.88,31.81-65.72,47.26-102.67,51.26C93.44,316,51.49,307.61,20.21,287.18Z"/></g></svg>