<svg width="379" height="348" viewBox="0 0 379 348" fill="none" xmlns="http://www.w3.org/2000/svg">
<g clip-path="url(#clip0)">
<path d="M163.024 30.9426C163.024 30.9426 155.971 4.44863 193.446 0.0329768C230.922 -4.38268 241.329 60.0903 211.634 68.8067C181.939 77.5231 163.024 30.9426 163.024 30.9426Z" fill="#2D3133"/>
<path d="M114.691 303.955L192.461 300.666L210.085 332.462L114.691 325.234V303.955Z" fill="#E8C6A7"/>
<path d="M214.118 348.301C214.118 348.301 171.319 307.548 150.253 280.556C144.649 273.358 140.846 264.926 139.159 255.962C137.473 246.997 137.952 237.76 140.557 229.018C150.176 196.62 167.27 163.056 168.829 157.836C171.215 149.826 219.201 150.176 219.201 150.176C219.201 150.176 313.626 211.459 350.725 315.268L309.058 328.225C309.058 328.225 284.402 286.859 260.048 260.562C260.048 260.562 302.18 316.247 303.679 339.043L214.118 348.301Z" fill="#E56A59"/>
<path d="M163.023 113.08C163.527 114.722 176.046 156.263 177.031 157.127C178.016 157.992 204.493 159.415 216.974 150.895L191.536 94.6133L163.023 113.08Z" fill="#E8C6A7"/>
<path d="M128.578 66.4553C128.578 66.4553 119.66 87.0508 130.138 118.365C140.616 149.68 157.732 152.394 168.576 144.629C179.421 136.865 193.478 123.055 195.224 94.6893C196.969 66.324 140.862 40.4046 128.578 66.4553Z" fill="#E8C6A7"/>
<path d="M176.518 31.6752C167.185 26.4294 156.379 24.4154 145.783 25.9464C138.415 27.006 131.376 29.6939 125.177 33.8147C119.116 37.8003 114.048 43.1195 110.359 49.3652C109.161 51.8769 108.291 54.5325 107.771 57.2663C106.765 62.3862 106.915 67.6663 108.211 72.7207C109.507 77.7751 111.916 82.476 115.262 86.4797C120.334 92.5533 125.45 97.5708 125.45 97.5708L126.331 91.1908C126.331 83.2076 132.613 74.5788 140.399 72.1056C144.172 70.8927 148.203 70.7228 152.064 71.6138C155.926 72.5048 159.475 74.4235 162.335 77.1669C169.995 84.4278 174.209 94.162 174.209 94.162L176.769 93.3795C176.769 93.3795 176.567 80.9807 184.43 83.8697C192.293 86.7588 195.483 103.168 195.483 103.168C195.483 103.168 212.16 110.829 213.714 88.5152C215.268 66.2016 205.441 47.5267 176.518 31.6752Z" fill="#2D3133"/>
<path d="M180.59 93.3827C180.59 93.3827 170.741 71.6546 184.536 70.8722C198.33 70.0897 192.743 91.8178 189.974 99.7463L180.59 93.3827Z" fill="#E8C6A7"/>
<path d="M132.582 364.377L164.728 329.391L201.865 339.393C201.865 339.393 245.157 346.101 269.938 339.393L294.719 332.685L350.717 315.252L359.521 340.104C360.603 343.176 360.655 346.517 359.667 349.62C358.68 352.724 356.707 355.421 354.049 357.302C349.206 360.744 343.527 364.525 339.905 366.111C332.534 369.334 170.03 367.129 170.03 367.129L132.582 364.377Z" fill="#E8C6A7"/>
<path d="M173.935 364.591L112.29 228.105C111.984 227.43 111.443 226.888 110.768 226.581C110.093 226.274 109.329 226.223 108.619 226.436L53.7652 242.944C53.3646 243.063 52.9928 243.263 52.6729 243.532C52.353 243.801 52.0917 244.133 51.9055 244.507C51.7192 244.881 51.6118 245.29 51.5901 245.707C51.5683 246.124 51.6326 246.542 51.779 246.933L98.5182 373.023C98.7516 373.651 99.1846 374.186 99.7509 374.545C100.317 374.903 100.986 375.066 101.654 375.009L171.423 368.897C171.91 368.855 172.38 368.696 172.793 368.435C173.206 368.174 173.55 367.818 173.797 367.396C174.044 366.974 174.187 366.499 174.212 366.011C174.238 365.523 174.147 365.036 173.946 364.591H173.935Z" fill="#7ABED1"/>
<path d="M95.9339 232.91L94.2267 229.042C93.955 228.426 93.46 227.937 92.8417 227.672C92.2234 227.407 91.5275 227.386 90.8945 227.614L82.7635 230.536C82.5934 230.599 82.4071 230.605 82.2332 230.553C82.0593 230.5 81.9074 230.392 81.8005 230.246L80.356 228.292C79.8151 227.559 79.0421 227.031 78.1628 226.794C77.2835 226.556 76.3498 226.624 75.5135 226.984L68.0392 230.267C67.3296 230.586 66.7304 231.108 66.3174 231.768C65.9045 232.427 65.6963 233.194 65.7192 233.972V236.319C65.696 236.509 65.6164 236.688 65.4905 236.832C65.3647 236.977 65.1985 237.08 65.0134 237.129L62.5292 237.835C62.1726 237.945 61.8426 238.128 61.5601 238.371C61.2776 238.615 61.0486 238.915 60.8877 239.252C60.7281 239.586 60.6403 239.95 60.6299 240.321C60.6196 240.691 60.6869 241.06 60.8275 241.402L62.6113 245.676C62.8773 246.31 63.3788 246.816 64.0103 247.089C64.6418 247.361 65.3544 247.378 65.9983 247.137L94.4511 236.434C94.7893 236.306 95.098 236.111 95.3584 235.86C95.6187 235.609 95.8253 235.308 95.9656 234.975C96.1058 234.642 96.1768 234.283 96.1742 233.922C96.1716 233.56 96.0954 233.203 95.9503 232.872L95.9339 232.91Z" fill="white"/>
<path d="M62.7911 295.774C62.7911 295.774 74.5389 279.819 74.9876 284.634C75.4362 289.449 74.9876 299.84 74.9876 299.84C74.9876 299.84 77.2474 301.799 80.5578 309.027C83.8681 316.255 85.6574 327.587 82.0515 328.621C78.4457 329.655 61.4396 307.369 62.7911 295.774Z" fill="#E8C6A7"/>
<path d="M185.01 295.443C184.838 295.218 184.616 295.035 184.362 294.91C184.107 294.785 183.828 294.72 183.544 294.721C182.932 294.719 182.335 294.914 181.842 295.278C181.349 295.641 180.987 296.154 180.808 296.74L170.133 331.556L175.719 333.198L185.322 297.03C185.395 296.759 185.404 296.475 185.35 296.2C185.296 295.925 185.18 295.666 185.01 295.443Z" fill="url(#paint0_linear)"/>
<path d="M119.096 84.6254C119.028 84.6245 118.962 84.6088 118.902 84.5795C118.841 84.5502 118.788 84.5079 118.745 84.4558C118.559 84.2314 100.24 61.5294 118.789 44.5124C118.832 44.4673 118.884 44.4315 118.941 44.4071C118.998 44.3828 119.06 44.3706 119.122 44.3711C119.185 44.3716 119.246 44.385 119.303 44.4103C119.36 44.4355 119.411 44.4723 119.453 44.5181C119.495 44.564 119.527 44.618 119.548 44.6768C119.568 44.7356 119.576 44.798 119.571 44.8601C119.566 44.9222 119.549 44.9826 119.52 45.0376C119.491 45.0926 119.451 45.1411 119.402 45.18C101.493 61.6388 119.265 83.6843 119.446 83.9031C119.521 83.9965 119.557 84.1158 119.546 84.2355C119.535 84.3552 119.477 84.4657 119.386 84.5433C119.301 84.6017 119.199 84.6306 119.096 84.6254Z" fill="white"/>
</g>
<defs>
<linearGradient id="paint0_linear" x1="5247.31" y1="22385.9" x2="5672.53" y2="22385.9" gradientUnits="userSpaceOnUse">
<stop stop-color="#09005D"/>
<stop offset="1" stop-color="#1A0F91"/>
</linearGradient>
<clipPath id="clip0">
<rect width="379" height="348" fill="white" transform="matrix(-1 0 0 1 379 0)"/>
</clipPath>
</defs>
</svg>
