<svg width="248" height="271" viewBox="0 0 248 271" fill="none" xmlns="http://www.w3.org/2000/svg">
<g clip-path="url(#clip0)">
<path d="M150.176 288.697C150.176 310.789 141.617 341.918 141.617 341.918C135.086 373.595 78.4624 589.49 73.0072 591.552C63.9131 594.986 40.7176 587.776 41.0784 584.541C58.7378 425.838 64.9519 294.131 65.9596 289.04C68.8769 286.796 139.222 264.074 150.176 288.697Z" fill="#2D3133"/>
<path d="M85.1445 17.5254C85.1445 17.5254 100.614 0.611798 105.398 0.0259925C110.181 -0.559813 129.868 8.91279 130.994 12.6395C132.12 16.3662 109.335 8.90033 108.073 12.6395C106.81 16.3787 105.398 18.9089 98.9287 19.1893C92.4596 19.4698 86.8302 23.1342 86.8302 23.1342L85.1445 17.5254Z" fill="#E8C6A7"/>
<path d="M115.348 90.2526V94.2348C115.348 94.2348 114.459 106.699 127.018 108.512C139.576 110.326 149.093 103.658 148.789 94.0416C147.657 86.6007 146.412 81.4904 146.3 75.3457C146.271 72.8456 146.418 70.3465 146.742 67.8673L122.408 67.2441L115.236 68.6713L115.348 90.2526Z" fill="#E8C6A7"/>
<path d="M115.256 68.7083L115.324 84.7432C142.886 82.6804 146.426 70.6153 146.762 67.8732L122.428 67.25L115.256 68.7083Z" fill="#D0AE8F"/>
<path d="M109.858 79.1724C109.858 79.1724 147.851 86.8626 152.268 63.0877C156.684 39.3127 164.559 24.2874 140.487 18.3732C116.414 12.4591 110.007 20.6479 106.605 28.226C103.202 35.8041 100.092 76.5674 109.858 79.1724Z" fill="#E8C6A7"/>
<path d="M87.0848 268.786C128.45 457.453 133.737 588.979 133.737 588.979C133.737 588.979 146.14 592.612 170.854 589.527C170.854 589.527 176.514 505.944 179.394 443.332C180.24 424.978 188.874 316.604 176.974 264.062C172.191 242.892 82.4071 247.373 87.0848 268.786Z" fill="#2D3133"/>
<path d="M64.834 289.987C64.834 289.987 77.1128 301.205 109.545 300.98C129.936 300.849 157.504 296.101 169.839 293.539C186.428 290.093 183.785 284.079 182.441 271.771C180.718 255.998 180.021 227.406 188.885 178.915C190.183 171.76 191.707 164.168 193.457 156.137C200.922 121.923 158.002 102.099 152.441 94.0288C120.904 123.007 112.102 96.1227 112.102 96.1227C111.791 96.1227 97.1733 98.2478 83.7934 90.2397C71.017 82.5931 72.0993 131.533 72.0806 147.331C72.0806 164.301 68.5413 206.148 68.0561 224.607C67.4154 248.532 64.834 289.987 64.834 289.987Z" fill="#E56A59"/>
<path d="M12.5606 62.9686C12.851 64.427 13.227 65.867 13.6865 67.2811C23.0169 96.9765 61.9809 130.966 67.181 142.065C70.2227 148.577 71.4792 167.766 71.3735 167.167L99.9247 102.623C99.9247 102.623 58.7898 71.6934 57.0606 67.2811C54.4481 60.6316 94.6561 24.0998 94.6561 24.0998C94.6561 24.0998 96.659 20.9339 94.202 15.132C92.2799 10.6013 89.0765 9.29883 89.0765 9.29883C89.0765 9.29883 9.72414 48.3546 12.5606 62.9686Z" fill="#E56A59"/>
<path d="M181.795 235.626C184.712 215.684 184.842 211.128 192.021 162.662C189.315 163.211 184.364 166.669 175.363 166.401C163.059 166.09 157.778 206.305 181.795 235.626Z" fill="#D65241"/>
<path d="M192.127 245.273C192.127 245.273 172.409 233.326 166.294 234.841C160.18 236.355 146.924 242.132 147.745 245.659C148.567 249.187 163.974 251.598 166.655 251.181C169.336 250.763 173.659 251.256 175.413 252.776C177.167 254.297 191.144 254.858 192.83 250.757C194.516 246.657 192.127 245.273 192.127 245.273Z" fill="#E8C6A7"/>
<path d="M152.439 94.042C152.439 94.042 182.589 99.9437 194.321 109.666C206.307 119.599 250.303 178.342 247.504 198.702C244.68 219.355 195.782 251.325 195.782 251.325C195.782 251.325 186.185 254.515 185.83 239.203C185.83 239.203 211.632 200.989 210.276 196.564C209.417 193.785 171.393 163.229 171.393 163.229L152.439 94.042Z" fill="#E56A59"/>
<path d="M87.2098 257.406C87.4075 262.55 89.5071 267.437 93.1004 271.117L98.7609 276.912C99.0963 277.257 99.4994 277.529 99.9449 277.71C100.39 277.891 100.868 277.977 101.349 277.964C101.829 277.95 102.302 277.837 102.736 277.631C103.171 277.426 103.558 277.132 103.874 276.769L111.73 267.782C113.829 265.375 114.925 262.251 114.791 259.058C114.473 251.928 113.901 238.199 113.547 224.962C113.267 214.231 113.136 203.817 113.416 197.498C114.305 177.331 121.652 113.248 121.652 113.248H116.812C116.812 113.248 103.532 137.553 95.4828 171.205C93.4102 179.874 91.8524 188.658 90.8176 197.511C90.8176 197.511 86.3576 234.105 87.2098 257.406Z" fill="#2D3133"/>
<path d="M128.399 108.256L114.957 105.028C114.957 105.028 113.203 105.178 113.253 107.372C113.303 109.565 117.035 115.978 118.69 116.489C120.344 117 131.578 112.694 128.399 108.256Z" fill="#2D3133"/>
<path d="M157.996 94.6278C158.101 92.5276 147.994 89.1748 147.994 89.1748C147.994 89.1748 140.392 106.238 121.682 106.506C121.682 106.506 127.012 116.907 133.301 119.593C133.289 119.599 157.374 107.092 157.996 94.6278Z" fill="#D65241"/>
<path d="M121.67 106.506C121.67 106.506 115.381 96.622 115.35 90.2529C115.35 90.2529 108.084 92.3033 102.523 96.5472C102.523 96.5472 103.295 108.812 108.084 114.975C108.084 114.975 114.267 109.422 121.67 106.506Z" fill="#D65241"/>
<path d="M168.346 48.361C162.561 67.8421 149.194 70.5531 149.194 70.5531C149.194 70.5531 150.332 68.2846 150.954 62.3767C150.986 61.4004 150.838 60.4266 150.519 59.5038C149.777 57.0146 149.836 54.3546 150.687 51.9007C151.253 50.2243 151.246 48.6165 149.853 47.8188C147.632 46.5724 144.927 48.8782 143.241 50.7541C142.699 51.3641 141.992 51.8028 141.205 52.0164C140.419 52.23 139.587 52.2093 138.812 51.9568C132.256 49.7757 138.227 34.8501 131.068 35.1617C107.431 36.1962 105.291 32.5068 101.447 28.5558C98.6725 25.6953 99.8295 15.9423 103.661 14.8828C109.193 13.4254 114.532 11.3146 119.567 8.59475C137.437 -1.28293 153.113 8.59475 153.057 8.63214C168.607 14.7893 172.302 35.0495 168.346 48.361Z" fill="#2D3133"/>
</g>
<defs>
<clipPath id="clip0">
<rect width="248" height="271" fill="white"/>
</clipPath>
</defs>
</svg>
