<svg width="57" height="57" viewBox="0 0 57 57" fill="none" xmlns="http://www.w3.org/2000/svg">
<path d="M0.568535 22.8743C2.07163 15.4113 6.38866 8.98136 12.7265 4.769C18.7816 0.744334 26.0597 -0.806217 33.2334 0.397553C33.281 0.404677 33.3284 0.411802 33.3759 0.418927C48.8582 3.10924 59.2637 17.8927 56.5734 33.3694C56.3596 34.6089 56.0581 35.8459 55.6853 37.0331C54.1157 42.1311 54.5027 47.5947 56.7729 52.4196C57.1694 53.2554 57.0388 54.2479 56.4428 54.9579C55.8467 55.6679 54.9017 55.96 53.9994 55.7202L43.3564 52.8138C38.8495 55.5729 33.7607 57 28.565 57C26.6773 57 24.7752 56.8124 22.8803 56.4301C15.4169 54.9271 8.9866 50.6103 4.77401 44.2729C0.561413 37.9354 -0.932224 30.3372 0.568535 22.8743Z" fill="#7ABED1"/>
</svg>
