<svg id="Layer_1" data-name="Layer 1" xmlns="http://www.w3.org/2000/svg" viewBox="0 0 131 101"><defs><style>.cls-1,.cls-7{fill:#7abed1;}.cls-1{fill-opacity:0.15;}.cls-2{fill:#e56a59;}.cls-3{fill:#e8c6a7;}.cls-4{fill:#d65241;}.cls-5{fill:#d0ae8f;}.cls-6{fill:#2d3133;}.cls-8{fill:#c69d7b;}.cls-9{fill:#fff;}</style></defs><path class="cls-1" d="M127.68,77.51a28.75,28.75,0,0,1-9.43,10.54c-21,15-66.34,18-93.5,0A50.6,50.6,0,0,1,13,77.43C4.15,66.38-1,49.55.18,33.66c.53-6.57,1.28-14.84,7.3-22C19.6-2.86,42,.42,43.14.61c15.69,2.54,16,11.87,38.65,26.2,25.23,16,39.6,13.71,45.79,28C130.43,61.32,131.13,70.34,127.68,77.51Z"/><path class="cls-2" d="M46.82,82.62l5.25-23.55A19.71,19.71,0,0,1,62.84,45.56l15.52-7.41L94.3,44.76a21,21,0,0,1,12.5,15.06l4.8,22.76Z"/><path class="cls-3" d="M68.54,75.09s4.15-5.43,6.14-5.08,5.71,6.84,5.71,6.84H96.86l.46-4.16s10.54,1.91,14.31,10H70.39Z"/><path class="cls-4" d="M97.31,73.19a.49.49,0,0,1-.34-.12.52.52,0,0,1-.16-.32l-1.42-14a.5.5,0,0,1,.12-.35.51.51,0,0,1,.33-.17.56.56,0,0,1,.36.1.51.51,0,0,1,.19.32l1.43,14a.54.54,0,0,1-.11.37.52.52,0,0,1-.34.18Z"/><path class="cls-3" d="M71,35.8V46.72s-.79,6.75,3.56,6.14,9-12.56,9-12.56L82.8,29.68Z"/><path class="cls-5" d="M83.35,37.9,71,45.79v-10l11.78-6.12Z"/><path class="cls-3" d="M83.45,28.14C86.68,19.8,84.57,11.21,78.72,9S65.5,11.63,62.27,20,61.14,36.9,67,39.16,80.21,36.49,83.45,28.14Z"/><path class="cls-6" d="M84.89,22.07a23.85,23.85,0,0,1-9.35-11s-15.46,12.09-19.1,4.67,5.38-13.22,6.42-8.19c0,0,8.32-13.46,22-4.51S84.89,22.07,84.89,22.07Z"/><path class="cls-3" d="M87.12,25.69c-.87,2.45-2.75,4-4.18,3.51s-1.89-2.92-1-5.37,2.76-4,4.2-3.49S88,23.25,87.12,25.69Z"/><path class="cls-7" d="M33.48,62.65H18.71v20H33.48Z"/><path class="cls-7" d="M13.11,72.7a3.11,3.11,0,0,0,.24,1.21,3.23,3.23,0,0,0,.69,1,3.09,3.09,0,0,0,2.24.92,3,3,0,0,0,1.35-.3,3.09,3.09,0,0,0,1.08-.85V79a6.52,6.52,0,0,1-2.43.46,6.7,6.7,0,1,1,0-13.4,6.51,6.51,0,0,1,2.43.45v4.27a3.09,3.09,0,0,0-1.08-.85,3.18,3.18,0,0,0-4.52,2.8Z"/><path class="cls-3" d="M126,82.62H10.52V88H126Z"/><path class="cls-8" d="M118.22,88.05c-21,15-66.34,18-93.5,0Z"/><path class="cls-9" d="M72.63,80a1.91,1.91,0,0,1,.06,1,2.07,2.07,0,0,1-.39.87,1.94,1.94,0,0,1-.74.59,2.06,2.06,0,0,1-.94.19H36.38A3.62,3.62,0,0,1,33,80L26.8,54.63a2,2,0,0,1,.34-1.84,2.17,2.17,0,0,1,.76-.59,2.1,2.1,0,0,1,1-.17H63.09a3.65,3.65,0,0,1,2.09.76,3.61,3.61,0,0,1,1.25,1.84Z"/><path class="cls-1" d="M53.07,67.68a3,3,0,0,1,0,1.39,2.93,2.93,0,0,1-.61,1.25,3,3,0,0,1-1.1.85,3.08,3.08,0,0,1-1.37.27,4.73,4.73,0,0,1-2.88-1.11,4.67,4.67,0,0,1-1.58-2.65,3,3,0,0,1,.6-2.64,3.16,3.16,0,0,1,1.1-.85,3.07,3.07,0,0,1,1.37-.26,4.73,4.73,0,0,1,4.46,3.75Z"/></svg>