<svg id="Layer_1" data-name="Layer 1" xmlns="http://www.w3.org/2000/svg" xmlns:xlink="http://www.w3.org/1999/xlink" viewBox="0 0 613 281"><defs><style>.cls-1{fill:none;}.cls-2{clip-path:url(#clip-path);}.cls-3,.cls-4{fill:#7abed1;fill-opacity:0.15;fill-rule:evenodd;}.cls-4{opacity:0.4;isolation:isolate;}</style><clipPath id="clip-path"><rect class="cls-1" width="613" height="281"/></clipPath></defs><g class="cls-2"><path class="cls-3" d="M17.28,557.76C-48.49,477,7.79,378,38,279.05c26.84-87.87,166.53-58.12,239.62-114.77,74-57.36,83.42-138.15,177.63-139.8,102.52-1.79,208,53,259.87,140.4,48.37,81.59-3.31,178.35-15.41,272-12,93.22-26.76,157.26-95.27,222.41-72,68.5-214.38,67.18-315.48,46.18C185.86,695.12,82.28,637.57,17.28,557.76Z"/><path class="cls-4" d="M603.56,686.63c-82.89,58.8-195.63,70.62-290.41,38.23-84.14-28.76-112-122-162.8-193.14C98.9,459.72,14.68,401.89,18.86,313c4.55-96.7,64.48-194,153-239.38,82.63-42.37,173.94,10.15,264.59,25.25,90.29,15,196.85-5.67,256.26,61.46,62.46,70.58,52.32,175.77,36.46,269.32C712.8,526.48,685.47,628.52,603.56,686.63Z"/></g></svg>