<svg id="Layer_1" data-name="Layer 1" xmlns="http://www.w3.org/2000/svg" xmlns:xlink="http://www.w3.org/1999/xlink" viewBox="0 0 1681 829.61"><defs><style>.cls-1{fill:none;}.cls-2{clip-path:url(#clip-path);}.cls-3,.cls-4{fill:#7abed1;fill-rule:evenodd;}.cls-3{opacity:0.1;isolation:isolate;}.cls-4{fill-opacity:0.12;}</style><clipPath id="clip-path"><rect class="cls-1" x="0.5" y="0.5" width="1680" height="828.61"/></clipPath></defs><g class="cls-2"><path class="cls-3" d="M1481,1294c-210.53,100.84-502.43,116-751.27,53C508.81,1291,429,1122.63,291.15,992.63,151.65,861-71.81,753-68.15,594.22c4-172.83,151.77-343.77,378.14-420.34C521.2,102.44,756.71,242.12,993.43,274c235.75,31.7,516.82-40.52,676.58,82.8,168,129.64,150.15,317.38,116.54,484C1751.79,1013.1,1689.06,1194.3,1481,1294Z"/><path class="cls-4" d="M-162.74,902.89C-322.9,744.3-159.12,582.21-63.87,414c84.56-149.34,447.24-63.67,648.51-146.8C788.4,183,826,42.1,1074.09,61.42c270,21,538.76,142.92,661.22,310.08,114.25,156-37.06,315.21-83.76,478.21C1605,1012,1556.15,1122,1365.61,1221.29c-200.33,104.36-574.58,68.43-837.16,7.36C258.85,1186-4.46,1059.63-162.74,902.89Z"/></g></svg>