<svg width="65" height="17" viewBox="0 0 65 17" fill="none" xmlns="http://www.w3.org/2000/svg">
<path fill-rule="evenodd" clip-rule="evenodd" d="M34.9381 4.13959C35.0943 4.30939 36.5003 8.35465 36.6473 8.85407C36.7937 9.38914 37.0005 9.90245 37.263 10.3823C37.75 10.5021 37.796 9.97276 37.943 9.55325C38.7425 7.2859 39.9555 3.97977 40.5619 1.75238C40.9847 0.673647 41.0214 0.383987 40.2587 0.383987C39.496 0.383987 39.5787 0.923355 39.2754 1.62254C39.009 2.95098 37.9797 5.75769 37.603 7.04618C37.603 7.21598 37.603 7.21598 37.41 7.21598C36.7759 5.29823 36.0408 2.95098 35.324 1.0532C35.131 0.683636 34.791 0.603729 34.5613 1.43276C34.1753 2.75121 33.6424 4.31938 33.2288 5.59788C33.2288 5.59788 32.7326 7.21598 32.6959 7.29589C32.4331 6.83661 32.2406 6.33398 32.1261 5.80763C31.5564 4.27942 31.0602 2.63135 30.5731 1.10314C30.4537 0.813484 30.4537 0.643683 30.1872 0.473881C29.92 0.36629 29.6312 0.338692 29.3509 0.393975C28.5974 0.523823 29.0844 1.18305 29.2407 1.67248C30.1596 4.35933 31.1796 7.58555 32.1996 10.1426C32.2235 10.2059 32.2623 10.2613 32.3122 10.3032C32.362 10.345 32.4211 10.3719 32.4836 10.381C32.546 10.3901 32.6095 10.3812 32.6678 10.3551C32.726 10.329 32.7769 10.2867 32.8153 10.2325C32.9623 9.92281 34.8278 4.13959 34.9381 4.13959Z" fill="black" fill-opacity="0.35"/>
<path fill-rule="evenodd" clip-rule="evenodd" d="M0.167099 0.553472C0.129114 0.719864 0.142017 0.895176 0.203857 1.05289C0.360076 1.75207 -0.0993921 9.72273 0.0200697 10.0424C0.392032 10.2242 0.809065 10.2663 1.2055 10.1622C1.38928 9.95246 1.31577 9.7527 1.31577 9.42308C1.31577 8.01473 1.42604 6.65632 1.42604 5.20802C1.47199 4.66865 1.50875 4.29908 1.50875 3.96947C1.50875 3.63986 1.50875 3.67981 1.58226 3.5999C1.65578 3.52 2.85958 5.79733 2.97904 6.04704C3.20878 6.53646 3.65906 7.28559 3.96231 7.86491C4.42177 8.77384 4.65151 8.15457 4.76178 7.94481C5.02827 7.57525 7.08669 3.64984 7.23372 3.56994C7.37156 3.72975 7.37156 7.65515 7.37156 7.94481C7.37156 10.0923 7.14183 10.3021 8.39158 10.2122C8.77753 10.2122 8.81429 9.88254 8.77753 9.51298C8.77753 8.8138 8.77753 8.02472 8.77753 7.32554C8.67645 5.54762 8.60294 3.52 8.60294 1.75207C8.60294 1.54231 8.67645 0.753238 8.67645 0.633378C8.56395 0.495584 8.41156 0.403648 8.24446 0.372773C8.07737 0.341897 7.90558 0.373931 7.75751 0.463577C7.49102 0.633378 7.41751 1.00295 7.22453 1.25265C6.45262 2.74091 5.41423 4.42893 4.68827 5.83728C4.42177 6.3367 4.42177 6.1669 4.19204 5.83728C3.69582 5.04821 3.05256 3.6898 2.60228 2.90072L1.68334 1.25265C1.55561 0.96625 1.39168 0.700656 1.19631 0.463577C0.939006 0.263811 0.433591 0.423624 0.167099 0.553472Z" fill="black" fill-opacity="0.35"/>
<path fill-rule="evenodd" clip-rule="evenodd" d="M48.6572 5.17834C48.9825 4.88988 49.3683 4.69334 49.7804 4.6062C50.1924 4.51907 50.6179 4.54405 51.0189 4.67892C52.2319 5.25824 52.3881 7.20596 51.8551 8.15485C51.6281 8.52465 51.3011 8.80877 50.9193 8.968C50.5374 9.12722 50.1195 9.15371 49.7232 9.04381C49.3393 8.96145 48.9759 8.79121 48.6572 8.54439V5.17834ZM48.6572 3.76999C48.5999 2.68215 48.5999 1.59165 48.6572 0.503812C48.6572 0.0543384 48.5102 -0.025568 48.1242 0.134245C47.2053 0.553753 47.2053 0.383952 47.334 1.29289C47.4075 1.75235 47.334 7.07611 47.334 7.82524C47.334 9.3035 47.141 9.64311 49.1167 10.2624C49.6793 10.3906 50.2599 10.3939 50.8236 10.272C51.3874 10.1502 51.9227 9.90567 52.3973 9.55321C54.3363 7.82524 53.8033 2.95095 50.2654 3.32051C49.957 3.33865 49.65 3.37869 49.3464 3.44037C49.227 3.48033 48.7767 3.76999 48.7216 3.76999H48.6572Z" fill="black" fill-opacity="0.35"/>
<path fill-rule="evenodd" clip-rule="evenodd" d="M21.8615 10.1326C22.0052 9.61175 22.0459 9.06371 21.981 8.52451C21.9433 7.95925 21.9433 7.39177 21.981 6.8265C22.0912 6.8265 22.2107 7.03626 22.4404 7.28596C22.6702 7.53567 24.5632 9.68316 24.8664 9.92288C24.9722 10.0299 25.0998 10.1083 25.2387 10.1517C25.3776 10.1951 25.524 10.2022 25.6659 10.1726C25.9324 10.1726 26.3551 10.1726 26.5021 9.97282C26.5021 9.68316 25.9691 9.2237 25.7394 8.97399C25.5097 8.72428 25.2156 8.40466 24.9491 8.06505C24.3646 7.50593 23.818 6.90174 23.3134 6.25717C23.3134 6.16728 25.3994 4.25951 25.7854 3.89993C25.9324 3.73013 26.0886 3.69018 26.0518 3.44047C25.5789 3.28188 25.0729 3.28188 24.5999 3.44047C24.4161 3.53036 23.1572 4.76891 22.8172 5.09853C22.7069 5.21839 22.0545 5.96751 21.981 5.92756C21.8707 5.548 21.981 0.38405 21.9074 0.0943892C21.8339 -0.195271 20.5382 0.26419 20.575 0.763605C20.647 1.1145 20.684 1.47283 20.6853 1.83235V8.97399C20.6853 9.2237 20.6117 9.97282 20.768 10.0927C21.1255 10.192 21.4986 10.2056 21.8615 10.1326Z" fill="black" fill-opacity="0.35"/>
<path fill-rule="evenodd" clip-rule="evenodd" d="M11.9635 6.74622C12.3862 6.62636 13.8013 6.99593 13.8656 7.40545C13.9024 7.84737 13.9024 8.29198 13.8656 8.73389C13.5992 9.10346 11.7705 9.8426 11.164 8.52414C11.0822 8.33684 11.0398 8.13214 11.0398 7.92484C11.0398 7.71754 11.0822 7.51284 11.164 7.32554C11.2522 7.17326 11.369 7.04294 11.5068 6.94311C11.6446 6.84327 11.8002 6.77618 11.9635 6.74622ZM13.9024 6.24681C13.5453 5.98968 13.1459 5.80993 12.7262 5.71743C12.2031 5.65447 11.6738 5.69508 11.164 5.83729C10.7347 5.97091 10.3563 6.25072 10.0842 6.63556C9.81218 7.0204 9.66093 7.48997 9.6527 7.97521C9.64447 8.46044 9.7797 8.93575 10.0385 9.33122C10.2973 9.7267 10.666 10.0215 11.0905 10.1722C11.8173 10.4416 12.6058 10.4416 13.3327 10.1722C13.4889 10.0923 13.7921 9.88255 13.9024 9.8426C14.0127 9.80264 14.0586 10.1323 14.2057 10.2122C14.3527 10.2921 15.0419 10.2122 15.2349 10.0124C15.4278 9.81263 15.4646 9.8426 15.3451 9.55294C15.1673 9.17074 15.1031 8.73796 15.1613 8.31439V5.33787C15.2094 4.91642 15.1147 4.49035 14.8949 4.13928C14.1689 2.57111 9.79476 3.19039 10.144 4.51883C10.4932 5.84728 11.0629 4.05937 12.9927 4.30908C14.0311 4.42894 13.9208 5.50767 13.9208 6.24681H13.9024Z" fill="black" fill-opacity="0.35"/>
<path fill-rule="evenodd" clip-rule="evenodd" d="M58.8865 6.04745H55.7346C55.7768 5.63733 55.949 5.25596 56.2216 4.96872C56.5192 4.68508 56.893 4.51342 57.2876 4.47929C57.4931 4.46084 57.6999 4.48759 57.8957 4.55796C58.0915 4.62832 58.2722 4.74084 58.4271 4.88881C58.583 5.02824 58.706 5.20611 58.7859 5.40764C58.8658 5.60916 58.9003 5.82852 58.8865 6.04745ZM55.6519 7.1162C55.8816 6.99634 59.3276 7.1162 59.9525 7.1162C60.5774 7.1162 60.2925 4.88881 59.153 3.97988C58.6875 3.60264 58.1333 3.37621 57.5544 3.32671C56.9756 3.27722 56.3956 3.40668 55.8816 3.70016C55.3675 3.99364 54.9403 4.43916 54.6492 4.98529C54.3582 5.53142 54.2152 6.15588 54.2367 6.78659C54.2149 7.39916 54.346 8.00673 54.6162 8.54485C54.8864 9.08296 55.2856 9.53154 55.7713 9.84301C56.7914 10.5921 59.5298 10.5522 59.8698 9.39354C60.2925 7.90528 59.3001 8.73431 58.9509 8.89412C58.6572 9.02497 58.3477 9.10907 58.0319 9.14383C56.0011 9.39354 55.5048 7.44582 55.6519 7.1162Z" fill="black" fill-opacity="0.35"/>
<path fill-rule="evenodd" clip-rule="evenodd" d="M41.8591 6.04711C41.8913 5.6205 42.0698 5.22259 42.3591 4.93218C42.6484 4.64177 43.0275 4.48001 43.4213 4.47895C44.2116 4.38905 45.1305 5.13817 44.9743 6.04711H41.8591ZM41.7029 7.04594C41.8959 7.04594 45.4705 7.04594 45.9668 7.04594C46.463 7.04594 46.3803 6.71633 46.3435 6.30681C46.3167 5.75221 46.1577 5.2147 45.8823 4.74693C45.6069 4.27917 45.2244 3.89719 44.7723 3.6384C44.3202 3.37962 43.8141 3.25291 43.3034 3.27069C42.7927 3.28846 42.295 3.45012 41.8591 3.73981C41.3689 4.05457 40.9681 4.51011 40.7006 5.05636C40.4331 5.60262 40.3093 6.21845 40.3429 6.83619C40.3039 7.44598 40.4302 8.05483 40.7062 8.5874C40.9822 9.11998 41.3958 9.55292 41.8959 9.83267C43.1916 10.7017 45.737 10.3321 45.9668 9.34325C45.9668 9.05359 46.1505 8.34442 45.737 8.51422C45.2375 8.82116 44.6938 9.03392 44.1289 9.14348C43.8277 9.18721 43.5216 9.16559 43.2282 9.07987C42.9349 8.99414 42.66 8.84602 42.4197 8.64407C42.0888 8.35441 41.5559 7.48542 41.7029 7.04594Z" fill="black" fill-opacity="0.35"/>
<path fill-rule="evenodd" clip-rule="evenodd" d="M62.3424 10.1723C62.5721 9.92258 62.5354 9.80272 62.5354 9.43315V8.43432C62.5354 7.11587 62.3056 4.92843 63.7116 4.59882C64.0148 4.51891 64.0884 4.79858 64.4743 4.71867C64.7019 4.49672 64.8729 4.21458 64.9705 3.89963C64.9705 3.27037 64.0516 3.15051 63.2154 3.56003C62.9489 3.68988 62.7283 4.13935 62.5354 4.17931C62.5354 3.80974 62.6089 3.64993 62.3791 3.32031C62.0846 3.35101 61.7995 3.44977 61.5429 3.60997C61.1661 3.80974 61.0926 3.80974 61.1661 4.30915C61.2397 4.80857 61.1661 8.23456 61.1661 9.0536C61.2029 10.3021 61.2029 10.2622 62.3424 10.1723Z" fill="black" fill-opacity="0.35"/>
<path fill-rule="evenodd" clip-rule="evenodd" d="M17.5339 10.1326V10.0527C17.6406 9.0382 17.6683 8.01576 17.6166 6.99624C17.6166 6.20716 17.8004 4.92866 18.5999 4.67895C19.2431 4.42925 19.2799 5.08847 19.7026 4.67895C20.6859 3.56026 19.3626 3.11079 18.5631 3.48036C17.7637 3.84993 17.8739 4.13959 17.6442 4.21949C17.6257 4.05697 17.6257 3.89259 17.6442 3.73007C17.6442 3.52031 17.5615 3.52031 17.488 3.40045C17.1933 3.39785 16.9038 3.4843 16.6517 3.65016C16.275 3.80997 16.1555 3.84993 16.275 4.34934C16.3558 5.1151 16.3804 5.88664 16.3485 6.65664V8.93397C16.4312 10.1725 16.275 10.2624 17.5339 10.1326Z" fill="black" fill-opacity="0.35"/>
<path fill-rule="evenodd" clip-rule="evenodd" d="M34.674 11.4617C33.157 11.6651 31.6654 12.0504 30.2264 12.6104C29.7761 12.8201 29.3074 12.94 28.8572 13.1497C27.9382 13.5193 27.0744 13.8489 26.1647 14.2285C25.8614 14.3483 23.6927 15.0475 23.316 15.1374C21.4781 15.6268 18.7213 16.2062 16.9661 15.3372C16.1299 14.8877 16.0472 16.2861 17.9494 16.7855C19.0618 16.9972 20.2033 16.9427 21.2943 16.6257C22.2132 16.4159 23.316 16.0464 24.189 15.7567C25.0619 15.467 26.0912 15.1374 27.0377 14.8478C27.2674 14.7579 27.4512 14.678 27.7177 14.5981L29.1236 14.1386C29.3901 14.0587 29.5831 13.9388 29.8128 13.8489L31.2648 13.4794C31.5313 13.3995 31.7242 13.3195 31.954 13.2297C33.8779 12.7835 35.8403 12.5625 37.8076 12.5704C38.2946 12.5704 39.0206 12.7003 39.5168 12.7802C40.4357 12.9 40.2336 12.3707 39.6271 12.0311C38.0501 11.3743 36.3424 11.178 34.674 11.4617Z" fill="#F9CC46"/>
</svg>
