<svg id="Layer_1" data-name="Layer 1" xmlns="http://www.w3.org/2000/svg" viewBox="0 0 1680.5 732.36">
    <defs>
        <clipPath id="clip-path">
            <path class="cls-1" d="M0 0h1680.5v732.36H0z" />
        </clipPath>
        <clipPath id="clip-path-2">
            <path class="cls-1" d="M0 0h1680v828.61H0z" />
        </clipPath>
        <style>
            .cls-1 {
                fill: none
            }
        </style>
    </defs>
    <g clip-path="url(#clip-path)">
        <g clip-path="url(#clip-path-2)" fill="#7abed1" fill-rule="evenodd">
            <path
                d="M1480.5 1293.5c-210.53 100.84-502.43 116-751.27 53-220.92-56-300.73-224.37-438.58-354.37C151.15 860.5-72.31 752.5-68.65 593.72c4-172.83 151.77-343.77 378.14-420.34 211.21-71.44 446.72 68.24 683.44 100.12 235.75 31.7 516.82-40.52 676.58 82.8 168 129.64 150.15 317.38 116.54 484-34.76 172.3-97.49 353.5-305.55 453.2z"
                style="isolation:isolate" opacity=".1" />
            <path
                d="M-163.24 902.39C-323.4 743.8-159.62 581.71-64.37 413.5c84.56-149.34 447.24-63.67 648.51-146.8C787.9 182.5 825.5 41.6 1073.59 60.92c270 21 538.76 142.92 661.22 310.08 114.25 156-37.06 315.21-83.76 478.21-46.55 162.29-95.4 272.29-285.94 371.58-200.33 104.36-574.58 68.43-837.16 7.36C258.35 1185.5-5 1059.13-163.24 902.39z"
                fill-opacity=".12" />
        </g>
    </g>
</svg>