<svg id="Layer_1" data-name="Layer 1" xmlns="http://www.w3.org/2000/svg" viewBox="0 0 32.89 25.74"><defs><style>.cls-1{fill:#ff5f00;}.cls-2{fill:#eb001b;}.cls-3{fill:#f79e1b;}</style></defs><path d="M6,25.68V24a1,1,0,0,0-1.07-1.08,1.12,1.12,0,0,0-1,.49,1,1,0,0,0-.9-.49.91.91,0,0,0-.79.4V23H1.67v2.73h.59V24.17c0-.48.25-.71.65-.71s.59.26.59.71v1.51h.59V24.17a.63.63,0,0,1,.65-.71c.4,0,.6.26.6.71v1.51ZM14.76,23h-1v-.83h-.59V23h-.53v.54h.53v1.25c0,.63.26,1,.93,1a1.63,1.63,0,0,0,.74-.2L14.71,25a1,1,0,0,1-.51.14c-.28,0-.4-.17-.4-.46V23.49h1Zm5-.06a.81.81,0,0,0-.71.4V23h-.59v2.73h.59V24.14c0-.45.2-.71.57-.71a1.68,1.68,0,0,1,.37.06l.16-.57A1.71,1.71,0,0,0,19.79,22.89Zm-7.59.29a2,2,0,0,0-1.11-.29c-.67,0-1.12.34-1.12.88s.33.72.93.8l.28,0c.31.06.48.14.48.29s-.23.34-.62.34a1.58,1.58,0,0,1-.91-.29l-.28.46a2,2,0,0,0,1.16.34c.79,0,1.24-.37,1.24-.88s-.36-.74-.93-.83L11,24c-.26,0-.45-.08-.45-.25s.19-.32.5-.32a2.12,2.12,0,0,1,.85.23ZM28,22.89a.8.8,0,0,0-.71.4V23h-.59v2.73h.59V24.14c0-.45.2-.71.57-.71a1.51,1.51,0,0,1,.36.06l.17-.57A1.71,1.71,0,0,0,28,22.89Zm-7.57,1.43a1.36,1.36,0,0,0,1.44,1.42,1.42,1.42,0,0,0,1-.31l-.28-.49a1.15,1.15,0,0,1-.71.26.8.8,0,0,1-.81-.88.83.83,0,0,1,.81-.89,1.15,1.15,0,0,1,.71.26l.28-.48a1.48,1.48,0,0,0-2.4,1.11Zm5.48,0V23h-.59v.34a1,1,0,0,0-.85-.4,1.43,1.43,0,0,0,0,2.85,1,1,0,0,0,.85-.4v.34h.59Zm-2.17,0a.82.82,0,1,1,1.63,0,.82.82,0,1,1-1.63,0ZM16.6,22.89a1.43,1.43,0,0,0,0,2.85,1.7,1.7,0,0,0,1.1-.37l-.28-.43a1.37,1.37,0,0,1-.79.29.76.76,0,0,1-.82-.66h2v-.23A1.25,1.25,0,0,0,16.6,22.89Zm0,.51a.67.67,0,0,1,.68.66H15.87A.72.72,0,0,1,16.6,23.4Zm14.71.92V21.87h-.6v1.42a1,1,0,0,0-.84-.4,1.43,1.43,0,0,0,0,2.85.92.92,0,0,0,.84-.4v.34h.6Zm-2.18,0a.82.82,0,1,1,1.64,0,.82.82,0,1,1-1.64,0Zm-19.81,0V23h-.6v.34a1,1,0,0,0-.84-.4,1.43,1.43,0,0,0,0,2.85.93.93,0,0,0,.84-.4v.34h.6Zm-2.21,0a.82.82,0,1,1,1.64,0,.82.82,0,1,1-1.64,0Z"/><path class="cls-1" d="M20.89,2.19H12V18.31h8.89Z"/><path class="cls-2" d="M12.56,10.25a10.33,10.33,0,0,1,3.87-8.06A10.09,10.09,0,0,0,10.16,0a10.25,10.25,0,0,0,0,20.5,10.09,10.09,0,0,0,6.27-2.19A10.29,10.29,0,0,1,12.56,10.25Z"/><path class="cls-3" d="M32.89,10.25A10.2,10.2,0,0,1,22.73,20.5a10.07,10.07,0,0,1-6.27-2.19,10.33,10.33,0,0,0,0-16.12A10.07,10.07,0,0,1,22.73,0,10.22,10.22,0,0,1,32.89,10.25Z"/></svg>