<svg id="Layer_1" data-name="Layer 1" xmlns="http://www.w3.org/2000/svg" xmlns:xlink="http://www.w3.org/1999/xlink" viewBox="0 0 375 479"><defs><style>.cls-1,.cls-4,.cls-5{fill:#7abed1;}.cls-2{fill:url(#radial-gradient);}.cls-3,.cls-6{fill:none;}.cls-4{opacity:0.1;}.cls-4,.cls-6{isolation:isolate;}.cls-5{fill-opacity:0.15;fill-rule:evenodd;}.cls-6{stroke:#b3becb;stroke-width:3px;opacity:0.2;}</style><radialGradient id="radial-gradient" cx="-111.3" cy="646.51" r="1" gradientTransform="matrix(-5.47, 14.71, 14.71, 5.47, -9787.56, -1679.17)" gradientUnits="userSpaceOnUse"><stop offset="0" stop-color="#fff"/><stop offset="1" stop-color="#fff" stop-opacity="0"/></radialGradient></defs><circle class="cls-1" cx="332" cy="222" r="11"/><circle class="cls-2" cx="332" cy="222" r="11"/><path class="cls-3" d="M44.44,235.26c61-31.44,126.93-13.66,194.11,6.58,25.24-30.16,53.22-52.69,104.06-53.59A305,305,0,0,1,375,189.42V0H0V264A274.12,274.12,0,0,1,44.44,235.26Z"/><path class="cls-4" d="M238.55,241.84c-67.18-20.24-133.15-38-194.11-6.58A274.12,274.12,0,0,0,0,264V392.06c51.85-12,110.56-19.09,150.69-50.64S213.25,272.07,238.55,241.84Z"/><path class="cls-5" d="M342.61,188.25c-50.84.9-78.82,23.43-104.06,53.59S190.71,310,150.69,341.42,51.85,380.07,0,392.06V479H375V189.42A305,305,0,0,0,342.61,188.25Z"/><path class="cls-6" d="M378.45,259.61c-59-48.08-120.71-89.28-195.87-87.18C89.68,175,41.11,222.53-4.58,291.8"/></svg>