<svg id="Layer_1" data-name="Layer 1" xmlns="http://www.w3.org/2000/svg" xmlns:xlink="http://www.w3.org/1999/xlink" viewBox="0 0 375 424"><defs><style>.cls-1{fill:#e0eae3;}.cls-1,.cls-2,.cls-3{fill-rule:evenodd;}.cls-2,.cls-3,.cls-36{fill:#7abed1;}.cls-2,.cls-3{fill-opacity:0.15;}.cls-2{opacity:0.4;}.cls-2,.cls-25,.cls-34,.cls-38,.cls-5,.cls-6{isolation:isolate;}.cls-4{mask:url(#mask);}.cls-38,.cls-5,.cls-6{opacity:0.3;}.cls-5{fill:url(#linear-gradient);}.cls-6{fill:url(#linear-gradient-2);}.cls-7{fill:#587aa3;}.cls-8{fill:url(#linear-gradient-3);}.cls-9{opacity:0.73;}.cls-10,.cls-21,.cls-25{fill:#fff;}.cls-11{fill:#b3b7c4;}.cls-12{fill:#2d2d30;}.cls-13{fill:#eea886;}.cls-14{fill:#dbdff0;}.cls-15{fill:#3b3b40;}.cls-16{fill:#2d3133;}.cls-17{fill:#e55353;}.cls-18{fill:#a77860;}.cls-19{fill:#616161;}.cls-20{fill:#e0cec7;}.cls-21{fill-opacity:0.33;}.cls-22{fill:#e8c6a7;}.cls-23{fill:#e56a59;}.cls-24{fill:#d0ae8f;}.cls-25{opacity:0.8;}.cls-26{fill:#6e6e6e;}.cls-27{fill:#f4cece;}.cls-28{fill:#25354d;}.cls-29{fill:#2f4563;}.cls-30{fill:#323657;}.cls-31{fill:#556172;}.cls-32,.cls-38{fill:#c4c4c4;}.cls-33{fill:#eddad3;}.cls-34{fill:none;stroke:#b3becb;stroke-width:3px;opacity:0.2;}.cls-35{fill:url(#radial-gradient);}.cls-37{fill:url(#radial-gradient-2);}</style><mask id="mask" x="-53.6" y="91.78" width="434.12" height="304.91" maskUnits="userSpaceOnUse"><g id="mask0"><path class="cls-1" d="M64.64,309.34c-31.84-30.67-24.9-75.45-13.46-113.25C61.34,162.53,34.5,127,62.06,105.36c27.91-21.93,92.3,6.57,127.78,5.9,38.62-.74,113.42-39.25,132.9-5.9,18.17,31.12,2.55,103.76-2.05,139.5-2.91,22.52-7.86,46.49-19.4,61.52-6.71,8.72-19.76,8.77-29.25,17.92-27.16,26.18-59.17,30.11-96.72,26.36C136.49,346.77,95.31,336.3,64.64,309.34Z"/></g></mask><linearGradient id="linear-gradient" x1="163.46" y1="214.63" x2="163.46" y2="154.04" gradientTransform="matrix(1, 0, 0, -1, 0, 426)" gradientUnits="userSpaceOnUse"><stop offset="0" stop-color="#8cb696"/><stop offset="1" stop-color="#fff" stop-opacity="0"/></linearGradient><linearGradient id="linear-gradient-2" x1="163.46" y1="188.69" x2="163.46" y2="138.04" gradientTransform="matrix(1, 0, 0, -1, 0, 426)" gradientUnits="userSpaceOnUse"><stop offset="0" stop-color="#8cb696" stop-opacity="0.85"/><stop offset="1" stop-color="#fff" stop-opacity="0"/></linearGradient><linearGradient id="linear-gradient-3" x1="61.78" y1="206.2" x2="165.51" y2="206.2" gradientTransform="matrix(1, 0, 0, -1, 0, 426)" gradientUnits="userSpaceOnUse"><stop offset="0" stop-color="#e28672"/><stop offset="1" stop-color="#e2b8af"/></linearGradient><radialGradient id="radial-gradient" cx="-90.25" cy="635.67" r="1" gradientTransform="matrix(-0.77, 5.94, 5.23, 0.68, -3275.93, 198.52)" gradientUnits="userSpaceOnUse"><stop offset="0" stop-color="#f1c3bd"/><stop offset="1" stop-color="#e56a59" stop-opacity="0"/></radialGradient><radialGradient id="radial-gradient-2" cx="-104.37" cy="620.95" r="1" gradientTransform="matrix(-1.76, 11.88, 11.88, 1.76, -7243.55, 440.53)" gradientUnits="userSpaceOnUse"><stop offset="0" stop-color="#f5f8ff"/><stop offset="1" stop-color="#a6d0f6" stop-opacity="0"/></radialGradient></defs><path class="cls-2" d="M274.39,343.59c-31.15,22.44-73.86,26.49-110,13.45-32.06-11.57-43.07-47.91-62.7-75.78-19.87-28.21-52.09-51.07-50.94-85.55,1.26-37.53,23.52-75,56.89-92.22,31.14-16.06,66,4.77,100.49,11.07s74.64-1.26,97.5,25.1c24,27.71,20.7,68.5,15.14,104.76C315.05,281.92,305.18,321.42,274.39,343.59Z"/><path class="cls-3" d="M46.76,290.48c-24.73-30.8-3.57-68.54,7.8-106.28,10.09-33.51,62.61-22.17,90.09-43.77,27.83-21.87,31.37-52.68,66.79-53.31,38.55-.68,78.22,20.2,97.71,53.54,18.19,31.11-1.25,68-5.79,103.71-4.53,35.55-10.07,60-35.82,84.81-27.08,26.12-80.61,25.62-118.62,17.61C110.14,342.86,71.2,320.91,46.76,290.48Z"/><g class="cls-4"><path class="cls-5" d="M380.52,222.59v174.1H-53.6V228.41h14V246.1h17.89l7.08,8.26h7.18v-42.8H9.1v11h14v21.28H42V217.16H56.81V228.4h7.73l6.69-7.81h7.61V194.7h21.28v38.43h21.76v9.26h8.43v-14h32.14v15.46h12.29V222.59h18.75v31.77h1.1v-42.8h16.52v11h14v21.28H244V217.16h14.86V228.4h7.74l6.69-7.81h7.61V194.7h21.27v38.43h21.77v9.26h8.43v-14h16.92v15.46h27.5V222.59Z"/><path class="cls-6" d="M-53.6,335.16v-87h16.35V264h18.79l5.73,5.75H49.61l9.7-9.72H78.89V243.73H96v22h31.53l12.15-12.18h39v20.53H196l8.43-8.45h21.34l6,6.05h26.41V248.94H277v7.51h14.89V240.53h13.66v24.06h38.31l3.58,3.59h33.08v67Z"/><path class="cls-7" d="M74.47,321.45H144.1a9,9,0,0,0,9-9V127.59a9,9,0,0,0-9-9H74.47a9,9,0,0,0-9,9V312.46A9,9,0,0,0,74.47,321.45Z"/><path class="cls-8" d="M71.68,322.83h83.93a9.88,9.88,0,0,0,9.9-9.85V126.61a9.88,9.88,0,0,0-9.9-9.85H71.68a9.87,9.87,0,0,0-9.9,9.85V313A9.87,9.87,0,0,0,71.68,322.83Z"/><g class="cls-9"><path class="cls-10" d="M156.79,127.59V312.47a9,9,0,0,1-.68,3.44,9.13,9.13,0,0,1-2,2.91,8.81,8.81,0,0,1-2.91,1.95,9,9,0,0,1-3.43.68H78.56a9,9,0,0,1-9-9V127.59a9,9,0,0,1,9-9h69.26a9,9,0,0,1,9,9Z"/></g><path class="cls-11" d="M118.23,264.08a48.05,48.05,0,0,1,21.57,0l-5.68-28.91S119.91,250.11,118.23,264.08Z"/><path class="cls-12" d="M144.67,314.32s4.35,7.53,6.19,8.76c2.5,1.67.94,3.36-.25,3.36s-7.24.45-8.57-1.1-2-6.17-3.24-7.38-2.38-5.68.6-7.19C142.67,309.11,144.67,314.32,144.67,314.32Z"/><path class="cls-13" d="M142.86,310.44s5,9.52,5.94,10.84-1.72,1.31-3.35.68-5.86-6.94-6.32-8.15a6.57,6.57,0,0,1-.12-3Z"/><path class="cls-12" d="M137.51,315.49l1.2,9.15.64,0-.2-6.59Z"/><path class="cls-12" d="M106.6,307.06s1.07,8.56,2.3,10.42c1.67,2.51-.47,3.41-1.58,2.94s-7-2.52-7.59-4.45.6-6.38-.08-8,0-6.09,3.44-6.27C106.82,301.54,106.6,307.06,106.6,307.06Z"/><path class="cls-13" d="M106.74,302.82s.64,10.38.91,11.9-2,.52-3.18-.65-2.37-8.4-2.3-9.65a6.65,6.65,0,0,1,1.06-2.7Z"/><path class="cls-12" d="M99.47,305.39l-2.35,8.9.52.28,2.24-6.14Z"/><path class="cls-13" d="M148.52,227.83a23.69,23.69,0,0,1,0,3.37,45.35,45.35,0,0,0,1.61,6.52c.19.53.45.1.53-.31,0-.24-.17-2.06-.14-3.08,0-.85.18-1.21.39-1a17.67,17.67,0,0,1,1.6,4.8c.14,1.46,1.44,4.52,2,3.84s.5-6.91-.32-9a29.31,29.31,0,0,0-2.44-4.56Z"/><path class="cls-14" d="M148,229c-.23-.67-6-10-7.36-12.91s-2.6-5.67-3.25-6.83l-.2-.39c-.45-.86-1.43-2.79-2.42-4.58l-.21-.37-.17-.71c-.7-1.24-.3-2.07-.43-3.11a3,3,0,0,0-.31-1l0,0a24.22,24.22,0,0,1-1.71-4c-.69-2.82-4-15.36-4-15.36s5.35,1.9,6.19,3.82c1.26,2.92,2.75,7.33,3.16,8.69s4.18,12.64,5,14.93a31.9,31.9,0,0,0,2.44,5.68c.87,1.47,7.14,14.74,7.58,16C152.19,228.71,148.2,229.63,148,229Z"/><path class="cls-15" d="M125,241.19c.22,1.07,1.63,5.54,3.2,10.51,1.43,4.53,3,9.47,4,12.62.35,1.18.61,2.11.75,2.67.9,3.73-.11,9.59-.44,14.48S134,311.18,134,311.18c1.23.58,9.15-.45,9.15-.45-.9-1.74-1.18-33-.69-34.86a29.42,29.42,0,0,0,.33-9.29,7.81,7.81,0,0,1-.16-1.67c-.05-2.62.49-7,.82-11.69.41-6-1.9-20.83-2.22-22.15,0-.12-.08-.29-.14-.5-.61-2.09-2.56-8-2.56-8-4-1.19-6.94-1.4-9.16-.94a6.82,6.82,0,0,0-5.37,4.64C122,231.66,124.72,239.8,125,241.19Z"/><path class="cls-15" d="M102.17,301.59l6.36,5.18c.67-3.31,15.29-29.54,16.28-32.11a37.79,37.79,0,0,0,2-9.36c0-.33,0-.88.07-1.59.18-2.77.68-8,1.41-12,.13-.75.27-1.47.42-2.13.8-3.49.94-15.45,1-22.48,0-3.13,0-5.29,0-5.29l-.2-.15c-1.5-1.14-11.14-8.12-14.51-1.6a20.09,20.09,0,0,0-1.82,5.5c-1.07,5.91,0,12.56.85,18.63.75,5.18,2.17,12.51,2.59,18,.22,3,.14,5.41-.53,6.59-1.9,3.31-3.75,6.12-7.59,17.82C107.23,290.33,102.17,301.59,102.17,301.59Z"/><path class="cls-16" d="M131.85,161.68s2.1-13.5-9.17-13.25-11.11,6.92-10.92,13.55,4.52,6.12-.35,15.33,4.22,9.21,4.22,9.21l7.05-9.61Z"/><path class="cls-13" d="M124.18,149.51s7.5,1.2,7.8,12-2,13.14-8.58,10.89-8.64-13.59-8.79-15.35S114.07,148.2,124.18,149.51Z"/><path class="cls-17" d="M110.89,187.32c0,3.73,4.23,12.64,4.88,15.39s1.7,3.64.83,7.16-3.59,15.44-3.48,16.49,16.56,6.3,28.06,4.18c0,0-4.48-16.82-4.8-18.75s.39-9.14.56-11.18,2.21-6.42,2.14-8.46-1.09-3.88-2.5-6.1c-.44-.69-.91-1.39-1.37-2.07a38.4,38.4,0,0,0-3.74-4.93,11.6,11.6,0,0,0-1.51-1.21,7,7,0,0,0-1.55-.83l-6.51-1s-4.05,1.47-6.38,2C115.51,178,111,178.66,110.89,187.32Z"/><path class="cls-17" d="M129.71,177.8l4,6,3.75,5.51a32.45,32.45,0,0,1-.68-3.28c-.08-.46-.17-1-.26-1.55a4.7,4.7,0,0,0-.12-.51c-1.6-3.45-6.56-6.05-6.74-6.14Z"/><path class="cls-13" d="M118.72,167.86c.68,1.22,1.4,8.77,1.4,8.77s9.58,3.44,8.6,1.49a7,7,0,0,1-.59-3,14.09,14.09,0,0,1,.11-1.84c0-.2,0-.31,0-.31S118.05,166.65,118.72,167.86Z"/><path class="cls-16" d="M127.18,157.49s-3.92,6.39-7.49,8.9-1.76,4.53-1.76,4.53-9.32-19.62-.47-21,14.3-1.46,14.54,11.82C132,161.76,128,157.39,127.18,157.49Z"/><path class="cls-18" d="M122.82,172.29c1.49,2.17,5.4,2.76,5.4,2.76a15.77,15.77,0,0,1,.11-1.94A11,11,0,0,1,122.82,172.29Z"/><path class="cls-14" d="M136.21,184a7.57,7.57,0,0,1,.38,2.11L135.17,184s-2.53-3.52-3.4-4.45a14.2,14.2,0,0,0-2.06-1.73S134.7,180.13,136.21,184Z"/><path class="cls-13" d="M115.66,206.26a44.7,44.7,0,0,0,5.16,1.62c2.49.59-.08,3.88-.08,3.88l-6.38-.66C113.36,211,115.66,206.26,115.66,206.26Z"/><path class="cls-17" d="M117.54,189.28s-5.84-2.42-7.57-2.56c0,0,1.18-9.89,6.91-8.84S117.54,189.28,117.54,189.28Z"/><path class="cls-13" d="M128.32,177s4.41,6.54,2.91,7.11-9.56-.76-13-7C118.23,177.14,123.36,174.6,128.32,177Z"/><path class="cls-14" d="M120.26,176.43s4.65,7.74,5.27,22.46-4.6,61.76-4.27,67.49l-14-6.09s5.29-38.46,7-45.8-3.8-17-4.43-27.75c0,0,.4-7.39,4.66-8.6S120.26,176.43,120.26,176.43Z"/><path class="cls-13" d="M110.72,184.27s1.06-7,6.31-5.88c5,1.11.31,10.34-.06,11.43s-4.1,10-4.42,11.19c-1,3.69-.07,3.78,1.47,4.65,4.55,2.58,13.9,2.41,15,3.11a1.63,1.63,0,0,1-.8,3c-2.35.1-15.82-1.15-17.7-1.33s-5.45-.32-4.5-6.69C106.64,199.46,110.72,184.27,110.72,184.27Z"/><path class="cls-14" d="M128.33,176.88a40.94,40.94,0,0,1,5.3,18c.27,9.78,9.49,51.48,8.52,72.84l2.15-2.05a3.19,3.19,0,0,0,.79-1.16,3.26,3.26,0,0,0,.22-1.38c-.37-6.14-2-29.56-6.07-42.4-4.69-14.85-.75-24.7,0-27.35s-1.73-6.18-2.58-7.44S133.83,178.91,128.33,176.88Z"/><path class="cls-19" d="M117.8,194.32,113.64,221l16.77,2.72,4.8-26.55Z"/><path class="cls-20" d="M118.27,196.16l-3.71,23.32,15,2.38,4.3-23.23Z"/><path class="cls-19" d="M122.82,197.41l.27-1.71,6.16,1,0,1.75Z"/><path class="cls-13" d="M120.62,207.9s2.81.45,3.07.41,1.37-1.82,2.66-2.13a27.56,27.56,0,0,0,3.3-.81c.39-.24.5,1-.74,1.5s-1.54,1.17.77,1.63c1.29.25,6.08-.27,5.68.51-.24.46-4.85.8-4.85.8s5,0,5.15.27c.33.58-4.67.79-4.87.76,0,0,4.28.24,4.31.61s-4.28.27-4.24.34,3.4.23,3.37.52-3,.41-3.62.35-6.45-.72-7.43-.92-2.65-.3-2.65-.3Z"/><path class="cls-14" d="M109.85,184.82s-4.85,18.11-4.44,22.57,17.87,5.29,17.87,5.29V208s-9.14-2-10.86-4.07c-.89-1.08,5.08-14.85,5.08-14.85s5.34-8.61.28-10.8S110.54,182.2,109.85,184.82Z"/><path class="cls-21" d="M78.54,118.6h76.18a8.92,8.92,0,0,1,6.33,2.63,9,9,0,0,1,2.62,6.36V312.46a9,9,0,0,1-8.95,9H78.54a9,9,0,0,1-9-9V127.59a9,9,0,0,1,2.62-6.36,8.92,8.92,0,0,1,6.33-2.63Z"/><path class="cls-11" d="M139.81,264.08a49.94,49.94,0,0,0-11.75-1.2V251.65s-.05-3.65-.19-8.92a80.09,80.09,0,0,1,6.2-7.56Z"/><path class="cls-12" d="M144.67,314.32s4.35,7.53,6.19,8.76c2.5,1.67.94,3.36-.25,3.36s-7.24.45-8.57-1.1-2-6.17-3.24-7.38-2.38-5.68.6-7.19C142.67,309.11,144.67,314.32,144.67,314.32Z"/><path class="cls-22" d="M142.86,310.44s5,9.52,5.94,10.84-1.72,1.31-3.35.68-5.86-6.94-6.32-8.15a6.57,6.57,0,0,1-.12-3Z"/><path class="cls-12" d="M137.51,315.49l1.2,9.15.64,0-.2-6.59Z"/><path class="cls-22" d="M148.52,227.83a23.69,23.69,0,0,1,0,3.37,45.35,45.35,0,0,0,1.61,6.52c.19.53.45.1.53-.31,0-.24-.17-2.06-.14-3.08,0-.85.18-1.21.39-1a17.67,17.67,0,0,1,1.6,4.8c.14,1.46,1.44,4.52,2,3.84s.5-6.91-.32-9a29.31,29.31,0,0,0-2.44-4.56Z"/><path class="cls-14" d="M148,229c-.23-.67-6-10-7.36-12.91s-2.6-5.67-3.25-6.83l-.2-.39c-.45-.86-1.43-2.79-2.42-4.58l-.21-.37-.17-.71c-.7-1.24-.3-2.07-.43-3.11a3,3,0,0,0-.31-1l0,0a24.22,24.22,0,0,1-1.71-4c-.69-2.82-4-15.36-4-15.36s5.35,1.9,6.19,3.82c1.26,2.92,2.75,7.33,3.16,8.69s4.18,12.64,5,14.93a31.9,31.9,0,0,0,2.44,5.68c.87,1.47,7.14,14.74,7.58,16C152.19,228.71,148.2,229.63,148,229Z"/><path class="cls-15" d="M143.43,253.22c-.33,4.74-.85,9.07-.81,11.69a9.15,9.15,0,0,0,.15,1.66c.49,2.07.15,7.39-.32,9.3s-.21,33.12.68,34.87c0,0-7.75,1-8.95.44,0,0-1.81-24.81-1.5-29.7s1.31-10.75.44-14.49c-.14-.57-.4-1.5-.76-2.67-.46-1.58-1.07-3.61-1.74-5.8s-1.42-4.56-2.12-6.81c0,0-.1-10.29-.62-21.21-.12-2.51-.26-5-.43-7.5,0-.18,0-.37,0-.55a7.82,7.82,0,0,1,2.22-.82c2.18-.46,5.09-.25,9,.94,0,0,1.91,5.91,2.51,8,.06.21.1.38.13.5C141.58,232.39,143.83,247.24,143.43,253.22Z"/><path class="cls-15" d="M129.71,227.12c0,7-.16,18.95-1,22.44-.16.66-.3,1.37-.44,2.13,0,0-.11-10.26-.65-21.15-.14-2.51-.28-5-.46-7.48,0-.51-.06-1-.11-1.52s-.07-1-.12-1.51a29.18,29.18,0,0,1,2.54,1.66l.2.16S129.71,224,129.71,227.12Z"/><path class="cls-16" d="M131.85,161.64l-9,15.24c.49-1,.06-1.83-.72-4.93-.23-.92-.5-2-.77-3.41-.18-.92-.38-2-.57-3.13h0c-1.12-6.81,1.51-13.22,2.76-15.78.06-.1.1-.19.14-.27.3-.6.5-.92.5-.92C133.74,149.26,131.85,161.64,131.85,161.64Z"/><path class="cls-22" d="M123.31,172.44a7.84,7.84,0,0,1-1.15-.5c-.4-1.51-.87-3.59-1.36-6.48h0c-1.13-6.75,1.53-13.1,2.8-15.64l.51.06s7.57,1.18,7.87,11.85S129.94,174.66,123.31,172.44Z"/><path class="cls-23" d="M141.18,230.54a42.85,42.85,0,0,1-13.37-.06c-.42-8.68-1.09-17.78-2.18-22.41-1.77-7.52-2.69-19.64-2.8-26.4a32.43,32.43,0,0,1,.13-4.35,2.09,2.09,0,0,1,.13-.49,2,2,0,0,0,.21-.86l5.2.85a6.71,6.71,0,0,1,1.54.82h0a12.32,12.32,0,0,1,1.5,1.2,40.72,40.72,0,0,1,3.72,5c.46.68.91,1.38,1.34,2.08,1.41,2.22,2.44,4,2.49,6.12s-2,6.44-2.13,8.49-.87,9.29-.55,11.23S141.18,230.54,141.18,230.54Z"/><path class="cls-17" d="M129.71,177.8l4,6,3.75,5.51a32.45,32.45,0,0,1-.68-3.28c-.08-.46-.17-1-.26-1.55a4.7,4.7,0,0,0-.12-.51c-1.6-3.45-6.56-6.05-6.74-6.14Z"/><path class="cls-22" d="M122.81,177.43a2.72,2.72,0,0,1,.13-.49c.5-1,.06-1.83-.72-4.91-.23-.92-.5-2-.77-3.41,2.73,1.56,6.86,4.26,6.86,4.26s0,.12,0,.32a16.56,16.56,0,0,0-.1,1.86,7.48,7.48,0,0,0,.55,3.05C129.35,179.43,125.47,178.32,122.81,177.43Z"/><path class="cls-16" d="M132,161.64s-4-4.34-4.79-4.24a42.73,42.73,0,0,1-6.41,8h0c-1.17-7.06,1.74-13.69,2.94-16.05C128.82,149.43,131.82,151.92,132,161.64Z"/><path class="cls-24" d="M122.82,172.29c1.49,2.17,5.4,2.76,5.4,2.76a15.77,15.77,0,0,1,.11-1.94A11,11,0,0,1,122.82,172.29Z"/><path class="cls-14" d="M136.5,184a10.15,10.15,0,0,1,.5,2.52L135.17,184s-2.53-3.52-3.4-4.45c-.63-.64-3.77-2-3.77-3C128,176.5,135,179.5,136.5,184Z"/><path class="cls-22" d="M131.24,184.1c-1,.4-5-.1-8.41-2.42a30.06,30.06,0,0,1,.13-4.19,1.88,1.88,0,0,1,.12-.48,1.72,1.72,0,0,0,.2-1,10.14,10.14,0,0,1,5.14,1S132.69,183.53,131.24,184.1Z"/><path class="cls-14" d="M125.43,208.55a.43.43,0,0,0,0-.11l0-.15c-.08-.37-.16-.76-.24-1.15a166.13,166.13,0,0,1-2.32-25v-.16A66.78,66.78,0,0,1,125.53,199C125.62,201.42,125.57,204.71,125.43,208.55Z"/><path class="cls-13" d="M128.27,212.22a19.84,19.84,0,0,1-2.07-.08c-.19-1.54-.39-2.91-.62-4a11.64,11.64,0,0,1,3.45.67C130.06,209.57,130,212.11,128.27,212.22Z"/><path class="cls-14" d="M128.33,176.88a40.94,40.94,0,0,1,5.3,18c.27,9.78,9.49,51.48,8.52,72.84l2.15-2.05a3.19,3.19,0,0,0,.79-1.16,3.26,3.26,0,0,0,.22-1.38c-.37-6.14-2-29.56-6.07-42.4-4.69-14.85-.75-24.7,0-27.35s-1.73-6.18-2.58-7.44S133.83,178.91,128.33,176.88Z"/><path class="cls-19" d="M135.22,197.13l-4.78,26.57-3-.5c0-.51-.06-1-.1-1.54-.25-3.47-.56-6.75-.93-9.45,0-.11,0-.24,0-.36-.18-1.32-.39-2.5-.61-3.48a.52.52,0,0,0,0-.11l0-.15c-.09-.38-.17-.78-.26-1.18-.62-3-1.13-6.52-1.54-10.12-.05-.51-.11-1-.16-1.57Z"/><path class="cls-20" d="M133.84,198.69l-4.24,23.17-2.43-.38c-.25-3.42-.55-6.63-.92-9.28,0-.12,0-.24,0-.35-.18-1.3-.4-2.47-.61-3.42a.36.36,0,0,0,0-.11.8.8,0,0,1,0-.15c-.09-.38-.17-.76-.26-1.16-.63-2.92-1.14-6.4-1.54-9.93Z"/><path class="cls-19" d="M129.25,196.66l0,1.8-5.3-.93c0-.21-.05-.43-.07-.66l-.12-1.17Z"/><path class="cls-13" d="M135.11,211.45c0,.47-4.24.27-4.19.34s3.32.23,3.32.52-3,.41-3.57.35l-4.57-.54c0-.12,0-.23,0-.35-.19-1.32-.41-2.51-.64-3.48a1.13,1.13,0,0,0,0-.15c-.08-.37-.17-.75-.25-1.14a3.4,3.4,0,0,1,1.35-.83,29.83,29.83,0,0,0,3.25-.8c.38-.23.5,1-.72,1.49s-1.54,1.17.77,1.63c1.26.24,6-.28,5.59.52-.22.46-4.78.79-4.78.79s4.92,0,5.08.26c.32.57-4.37.78-4.79.78C131.2,210.86,135.08,211.09,135.11,211.45Z"/><path class="cls-25" d="M145.31,157.15l5.68-5.67h27.5a4,4,0,0,0,4-4V128.56a4,4,0,0,0-4-4H149.31a4,4,0,0,0-4,4Z"/></g><path class="cls-25" d="M201.58,200.18a4,4,0,0,1,4-4h19.8a4,4,0,0,1,4,4v20.4l-4.24-4.25H205.58a4,4,0,0,1-4-4Z"/><path class="cls-23" d="M214.36,211.08a2.59,2.59,0,0,1-.48,0,2.75,2.75,0,0,1-.41-.11,3.31,3.31,0,0,1-.63,0,3.93,3.93,0,0,1-1.74-.56,1.1,1.1,0,0,1-.36,0,1.41,1.41,0,0,1-.85-.34,2.44,2.44,0,0,1-.65-.81,4.43,4.43,0,0,1-.42-2.12,4.75,4.75,0,0,1,.73-2.36,4.46,4.46,0,0,1,1.16-1.26,2.73,2.73,0,0,1,1.16-.48l.34,0a3.68,3.68,0,0,1,1.19-.46,2.81,2.81,0,0,1,2.06.34,5,5,0,0,1,1.95,2.71c0,.08.05.15.08.22l.35.19h0a5.21,5.21,0,0,0,1.71.47,5.29,5.29,0,0,0,2.14-.17,2.38,2.38,0,0,0,1.51-1.24l.06,0a2.46,2.46,0,0,1-1.55,1.28,5.43,5.43,0,0,1-2.17.17,5.33,5.33,0,0,1-1.73-.48h0l-.3-.15a4,4,0,0,1,.11,1.91,3.34,3.34,0,0,1-.8,1.63,4.12,4.12,0,0,1-.37.35l0,.06a.5.5,0,0,1,.07.25c0,.12-.15.23-.42.32l-.06,0a1.94,1.94,0,0,1-.79.48A2.82,2.82,0,0,1,214.36,211.08Zm-.73-.17a2.77,2.77,0,0,0,1.57,0,2,2,0,0,0,.67-.38,7.09,7.09,0,0,1-1.37.17l-.07,0A3.06,3.06,0,0,1,213.63,210.91Zm-2.44-.56a4,4,0,0,0,1.65.51,2.57,2.57,0,0,0,.48,0,2.39,2.39,0,0,1-.49-.28,5.43,5.43,0,0,1-.68-.13,2.59,2.59,0,0,1-.64-.25A1.3,1.3,0,0,1,211.19,210.35Zm1.79.26a2.13,2.13,0,0,0,.5.25,3.37,3.37,0,0,0,.82-.19c-.26,0-.52,0-.78,0Zm-.13-.08c.21,0,.44.05.67.06s.65,0,1,0a2.86,2.86,0,0,0,.54-.3,1.26,1.26,0,0,1-.27,0,.84.84,0,0,1-.51-.37,4.87,4.87,0,0,1-.66,0,2.94,2.94,0,0,1-1.3-.48c-.06.09-.11.18-.17.26a2.34,2.34,0,0,0,.64.82Zm2.28-.22a3.64,3.64,0,0,1-.47.28,6,6,0,0,0,1.31-.19,1.24,1.24,0,0,0,.18-.22,1.75,1.75,0,0,0,.18-.29,2.12,2.12,0,0,1-.51.28A1.93,1.93,0,0,1,215.13,210.31Zm-3.55-.14a3.6,3.6,0,0,0,1.14.34h0a2.4,2.4,0,0,1-.64-.81,2.25,2.25,0,0,1-.21.24A1.61,1.61,0,0,1,211.58,210.17Zm4.8-.23a2,2,0,0,1-.28.41c.2-.07.32-.15.32-.24A.45.45,0,0,0,216.38,209.94Zm-4.29-6.86-.21,0a2.71,2.71,0,0,0-1.13.46,4.51,4.51,0,0,0-1.14,1.25,4.6,4.6,0,0,0-.72,2.33,4.18,4.18,0,0,0,.42,2.08,2.4,2.4,0,0,0,.62.79,1.44,1.44,0,0,0,.81.33,1.23,1.23,0,0,0,.27,0,3,3,0,0,1-.78-.73,3.14,3.14,0,0,1-.28-.46,1.47,1.47,0,0,1-.57-.54,2.3,2.3,0,0,1-.31-1.2,2.88,2.88,0,0,1,.06-.59,3,3,0,0,1,.65-1.81,3.85,3.85,0,0,1,1.51-1.31l.18-.07a3,3,0,0,1,.25-.25A3.27,3.27,0,0,1,212.09,203.08Zm-2,6.1a2.16,2.16,0,0,0,.22.36,2.88,2.88,0,0,0,.83.76,1.4,1.4,0,0,0,.34-.13,1.12,1.12,0,0,1-.2-.17,6.26,6.26,0,0,1-.49-.66,1.86,1.86,0,0,1-.33,0A1.6,1.6,0,0,1,210.06,209.18Zm4.26.7a.8.8,0,0,0,.44.32,2.09,2.09,0,0,0,.35,0,2.73,2.73,0,0,0,.52-.5,3.46,3.46,0,0,0,.22-.31,3.36,3.36,0,0,1-1.53.45Zm1.63-.49a2.41,2.41,0,0,1-.26.39,3.33,3.33,0,0,1-.46.46,1.84,1.84,0,0,0,.56-.14,2,2,0,0,0,.52-.28,3,3,0,0,0-.27-.35l-.09-.08Zm-5.1,0a4.44,4.44,0,0,0,.45.62,1.2,1.2,0,0,0,.21.17,1.42,1.42,0,0,0,.3-.25,2.85,2.85,0,0,0,.23-.26.42.42,0,0,1-.06-.14.88.88,0,0,1,0-.15l-.08,0-.18-.07A2.79,2.79,0,0,1,210.85,209.34Zm1.52,0a2.84,2.84,0,0,0,1.22.43,4,4,0,0,0,.6,0,2.17,2.17,0,0,1-.22-.55l0-.09-.27,0-.33-.1a3.47,3.47,0,0,1-.65.25,1.65,1.65,0,0,1-.32.06Zm1.65-.16s0,0,0,.06a2.57,2.57,0,0,0,.24.57,3.19,3.19,0,0,0,1.62-.5l-.3-.27-.3.08A3.88,3.88,0,0,1,214,209.19Zm2,.15.09.09a3.3,3.3,0,0,1,.28.35l0,0a3.47,3.47,0,0,0,.27-1,3.19,3.19,0,0,1-.66.61Zm.74-.71a2.92,2.92,0,0,1-.06.44,3,3,0,0,1-.18.6,2.23,2.23,0,0,0,.27-.26,3.29,3.29,0,0,0,.78-1.57,4.3,4.3,0,0,1-.65.55c-.05.08-.1.16-.16.24Zm-4.74.71s0,.08,0,.11a1,1,0,0,0,0,.1l.13-.19-.21,0Zm0-.07.2,0-.16-.15-.07,0,0,.11Zm.51-.33a3.58,3.58,0,0,1-.17.34,2.25,2.25,0,0,0,.36-.06,3.28,3.28,0,0,0,.57-.21,2.3,2.3,0,0,1-.44-.23l-.32.16Zm-1.69.33a3.33,3.33,0,0,0,.78-.07,1.69,1.69,0,0,1-.46-.43l-.19-.32a4.05,4.05,0,0,1-.47-.12h0A2.91,2.91,0,0,0,210.8,209.27Zm4.86-.24.27.24a2.05,2.05,0,0,0,.16-.41Zm-5.65.05a1.57,1.57,0,0,0,.43.15l.28,0-.18-.35a2.89,2.89,0,0,1-.19-.62,2.57,2.57,0,0,1-.59-.31A2.68,2.68,0,0,0,210,209.08Zm2.08,0a.8.8,0,0,0,.17.15c0-.08.09-.17.13-.27Zm-.31.1.12,0,0-.07Zm4.4-.39a2.86,2.86,0,0,1-.15.41,3.23,3.23,0,0,0,.65-.63v-.06l-.14.09a3.13,3.13,0,0,1-.36.19Zm-5.17-.36c.05.09.11.18.17.27a1.3,1.3,0,0,0,.5.44l.19,0a1.43,1.43,0,0,1,0-.22v0a2.28,2.28,0,0,1-.2-.38A3.18,3.18,0,0,1,211,208.46Zm3,.66a3.62,3.62,0,0,0,1.27-.06l.25-.06a7.84,7.84,0,0,0-1-.68l-.24.14-.41.26A4,4,0,0,0,214,209.12Zm-.58-.12.26.07.25,0c0-.11-.05-.23-.08-.35C213.71,208.84,213.57,208.93,213.42,209Zm-1.5,0s0,0,0,.08l0,0Zm0-.14.14.18a3.52,3.52,0,0,0,.39-.17,2.52,2.52,0,0,0,.13-.33l0-.05-.11-.13-.1,0a3.43,3.43,0,0,1-.44.09A2.56,2.56,0,0,0,211.9,208.88Zm-2.74-1.82c0,.11,0,.22,0,.33a2.13,2.13,0,0,0,.3,1.16,1.41,1.41,0,0,0,.47.47,2.62,2.62,0,0,1-.22-1.09A1.41,1.41,0,0,1,209.16,207.06Zm5.47,1.21a8.63,8.63,0,0,1,1,.71,4.71,4.71,0,0,0,.52-.21,2.55,2.55,0,0,0,.06-.78,1.38,1.38,0,0,1-.33.2,1,1,0,0,1-.83,0l-.13-.08Zm-1.75.47a1.91,1.91,0,0,0,.45.23c.18-.09.35-.18.51-.28,0-.18-.05-.37-.08-.56l-.38.29C213.24,208.52,213.07,208.63,212.88,208.74Zm-.27-.13a1.69,1.69,0,0,1-.08.24l.22-.12a1.49,1.49,0,0,1-.14-.12Zm-.91-.11a2.56,2.56,0,0,0,.11.24,2,2,0,0,1,0-.25Zm4.54-.57a2.76,2.76,0,0,1,0,.81l.3-.17a1.18,1.18,0,0,0,.19-.11,8.21,8.21,0,0,0,0-1.11,2.24,2.24,0,0,1-.45.58Zm-3.6.61a.93.93,0,0,0,.18.16l.52-.33.41-.32c0-.06,0-.12,0-.18l-.22-.09a3,3,0,0,1-.79.48A2.29,2.29,0,0,1,212.64,208.54Zm1.18-.46c0,.2.05.39.08.57l.4-.25a1.37,1.37,0,0,0,.2-.13l-.05,0L214,208A.69.69,0,0,1,213.82,208.08Zm2.94.41Zm-4.28-.14.09.12v0l.06-.2Zm-1.5,0a3.18,3.18,0,0,0,.62,0,3.14,3.14,0,0,1-.14-1.27l-.1-.09-.05-.07a3.09,3.09,0,0,0-.41.21.75.75,0,0,0-.18.13v0a2.49,2.49,0,0,0,.26,1Zm.55-1.17a3.06,3.06,0,0,0,.14,1.21h.13a2.8,2.8,0,0,1,0-.4,2.42,2.42,0,0,1,.1-.56A1.63,1.63,0,0,1,211.53,207.22Zm.47.27a2.44,2.44,0,0,0-.1.54h0a2.56,2.56,0,0,0,0,.39l.42-.08.08,0a1.88,1.88,0,0,1-.29-.81l-.08,0Zm4.75-.26a7.81,7.81,0,0,1,0,1.18l.09-.07a3.11,3.11,0,0,0,.46-1.69.6.6,0,0,0-.25-.56.1.1,0,0,0-.05,0,2.89,2.89,0,0,1-.26,1.18Zm-6.33,1,.06,0,.41.1a2.66,2.66,0,0,1-.24-1,.87.87,0,0,0-.23.47A1.15,1.15,0,0,0,210.42,208.24Zm1.73-.7a1.88,1.88,0,0,0,.28.75l.24-.08c.05-.21.09-.41.13-.6h-.08A2.22,2.22,0,0,1,212.15,207.54ZM217,206l.09.05a.7.7,0,0,1,.28.62,3.12,3.12,0,0,1-.39,1.59,4.08,4.08,0,0,0,.58-.52,4.06,4.06,0,0,0-.14-1.85c-.17-.08-.32-.15-.46-.2a2.36,2.36,0,0,1,0,.28Zm-3,1.94.47.26.09,0,.26-.15a1.72,1.72,0,0,1-.39-.51h-.08C214.25,207.7,214.13,207.81,214,207.92Zm1,.17.09.06a.87.87,0,0,0,.77,0,1.38,1.38,0,0,0,.35-.22,2.66,2.66,0,0,0-.12-.56,1.43,1.43,0,0,0-.08-.22,2.46,2.46,0,0,1-.92.92Zm-5.2-.19a2.2,2.2,0,0,0,.59.32,1.53,1.53,0,0,1,0-.37,1,1,0,0,1,.3-.55,2.85,2.85,0,0,1,.24-1.19,3,3,0,0,1-.06-.67h-.22a5,5,0,0,0-.78,1.79A3.05,3.05,0,0,0,209.76,207.9Zm3.11-.28c0,.17-.07.36-.12.55a3.2,3.2,0,0,0,.68-.42,2.33,2.33,0,0,0-.56-.13Zm1.64-.08a1.66,1.66,0,0,0,.39.51A.67.67,0,0,1,215,208a2.43,2.43,0,0,0,.9-.9v0a1.39,1.39,0,0,0-.36-.44,1.61,1.61,0,0,1-.39.53,1.9,1.9,0,0,1-.67.39Zm-.71.36a.38.38,0,0,1,0,.1l.07-.06-.08,0Zm0-.08.15.07.31-.29a.82.82,0,0,1-.27,0,.36.36,0,0,1-.19-.08l0,0c0,.1,0,.19,0,.27Zm2.22-.76c0,.09.08.18.11.27a3,3,0,0,1,.11.52,1.89,1.89,0,0,0,.42-.59l0,0c0-.28-.06-.56-.1-.86,0-.11,0-.21-.07-.32a4.83,4.83,0,0,1-.5,1Zm-6.81-.25v0a1.48,1.48,0,0,0,.49,1,4.48,4.48,0,0,1,.07-.64,5,5,0,0,1,.77-1.77,2.47,2.47,0,0,0-.38.05,1.12,1.12,0,0,0-.72.65A2.78,2.78,0,0,0,209.2,206.81Zm4.37.92.15.06a1.1,1.1,0,0,0,0-.18Zm-.69-.18a2.91,2.91,0,0,1,.62.15l.18-.16h0v-.09a1.52,1.52,0,0,1-.25-.4.74.74,0,0,1-.42.05l-.09,0C212.92,207.21,212.9,207.37,212.88,207.55Zm1-.06a.25.25,0,0,0,.15,0,1.3,1.3,0,0,0,.34,0l0-.06c-.06-.13-.12-.27-.17-.41a3.91,3.91,0,0,1-.37.44Zm-1.7,0a1.93,1.93,0,0,0,.58.08h.09c0-.18,0-.35.05-.49a3.06,3.06,0,0,1-.55-.26l-.08.14-.1.19c0,.11,0,.23,0,.34Zm2.33,0h0a1.77,1.77,0,0,0,.66-.38,1.86,1.86,0,0,0,.39-.52,1.63,1.63,0,0,0-.34-.19h-.05l-.11,0c0,.1,0,.2-.05.3a2.27,2.27,0,0,1-.5.75Zm-.72-.06,0,0a4.49,4.49,0,0,0,.41-.46l-.06-.19-.43.17c0,.14,0,.29.05.43Zm-1.73,0,0,0c0-.05,0-.1,0-.15S212,207.38,212,207.42Zm2.24-.43.09.22.08.2a2.08,2.08,0,0,0,.47-.7,2.38,2.38,0,0,0,0-.26l-.44.18c-.08.12-.16.25-.25.36Zm-2.73.14a1.88,1.88,0,0,0,.42.27c0-.1.07-.2.12-.3a2,2,0,0,1,.06-.42h0l-.56.22Zm2-.11a2,2,0,0,0,.17.3l0-.34Zm-2.58-.8a2.82,2.82,0,0,0-.2,1,.78.78,0,0,1,.15-.1l.39-.2A2.14,2.14,0,0,1,210.92,206.22Zm5.65-.24a2.41,2.41,0,0,1,.07.37c0,.25.07.5.1.74a2.86,2.86,0,0,0,.2-1.07,1.4,1.4,0,0,0-.37,0Zm-5.2,1,0,.05.06.06a.78.78,0,0,1,0-.16Zm1.56,0,.11,0a.78.78,0,0,0,.37-.05l-.21-.51a.42.42,0,0,1,0-.1l-.29.07a.88.88,0,0,1,.06.27A1.41,1.41,0,0,1,212.93,207Zm2.67-.45a1.77,1.77,0,0,1,.38.44,5.12,5.12,0,0,0,.48-1,3.75,3.75,0,0,0-.78.18,1,1,0,0,1-.08.38Zm-3.25.19a4.12,4.12,0,0,0,.52.24v-.26a.77.77,0,0,0-.07-.26l-.31.09A1.33,1.33,0,0,0,212.35,206.74Zm.88-.38,0,.08c.07.19.14.36.21.52l.16-.05c0-.2,0-.41-.08-.61A1.65,1.65,0,0,0,213.23,206.36Zm-1,.36a1.55,1.55,0,0,0,0,.21l0,0a.64.64,0,0,1,.08-.14l-.06,0Zm-1.23-.61a1.89,1.89,0,0,0,.37.81l.16-.08a6.22,6.22,0,0,1,.13-.65,1.75,1.75,0,0,1-.18-.29,1.45,1.45,0,0,1-.12-.35,1.77,1.77,0,0,0-.33.52Zm3.23.65c0,.06,0,.1.05.15l.16-.23Zm-.57-.47c0,.2.06.4.08.6l.41-.16c-.05-.16-.1-.32-.14-.48Zm-2,0c0,.19-.08.37-.1.55l.48-.19a1.85,1.85,0,0,1-.38-.36Zm.54.39.08,0a1,1,0,0,1,.08-.11l-.16,0Zm1.83-.4c0,.15.08.3.13.45l.28-.12h0l.18-.31A3.11,3.11,0,0,0,214,206.25Zm-2.35-.08a2.23,2.23,0,0,0,.44.43h0a3.05,3.05,0,0,1,.2-.53l.05-.09a2.71,2.71,0,0,0-.56-.31,1.59,1.59,0,0,0-.07.2c0,.11-.06.21-.08.31Zm.76-.15a.25.25,0,0,1,0,.07,3.8,3.8,0,0,0-.18.47l.22-.07a2.61,2.61,0,0,1,.23-.24,1,1,0,0,0-.23-.23Zm2.27.25a2.15,2.15,0,0,1-.14.26l.38-.16v-.05l-.24,0Zm.51.07a1.17,1.17,0,0,1,.31.17,1.18,1.18,0,0,0,.08-.31l-.39.14Zm-3.85-2.62-.06,0a3.86,3.86,0,0,0-1.48,1.28,3.21,3.21,0,0,0-.62,1.46,2.39,2.39,0,0,1,.15-.37,1.19,1.19,0,0,1,.77-.69,3.12,3.12,0,0,1,.44,0,3,3,0,0,1,.27-.35,2.54,2.54,0,0,1,.53-1.3Zm1.34,2.59a.93.93,0,0,0-.14.14l.19,0A.41.41,0,0,0,212.72,206.31Zm.05-.05a.75.75,0,0,1,.07.12l.29-.07-.09-.24-.1.07-.17.12Zm2.27,0,.09,0,.49-.18a1.13,1.13,0,0,0-.16-.56l-.44,0v0A3.33,3.33,0,0,1,215,206.27ZM213.1,206l.1.25c.12,0,.23,0,.35-.06l-.06-.38A1.76,1.76,0,0,0,213.1,206Zm1.65.17.22,0a3.85,3.85,0,0,0,0-.48,3.55,3.55,0,0,1-.21.44Zm-1.2-.38c0,.13,0,.26.06.39l.35,0c0-.13-.07-.26-.1-.39v0C213.75,205.77,213.65,205.79,213.55,205.83Zm-1.06.13a1.14,1.14,0,0,1,.24.25l.17-.13L213,206a2.71,2.71,0,0,0-.23-.45,2,2,0,0,0-.29.4Zm1.76.21a3,3,0,0,1,.43,0,4.8,4.8,0,0,0,.26-.57v0l-.65.06a2.38,2.38,0,0,0-.37.06.11.11,0,0,0,0,.05l.09.4h.23Zm-2.87-.65a2.06,2.06,0,0,0,.12.35,1.76,1.76,0,0,0,.14.23l.06-.26.07-.21Zm4.16,0a1.11,1.11,0,0,1,.14.54l.25-.07a2.66,2.66,0,0,1,.55-.11,2.5,2.5,0,0,0-.15-.38A5.57,5.57,0,0,0,215.54,205.56Zm-4.64-.11a2.55,2.55,0,0,0,0,.55,2.41,2.41,0,0,1,.33-.5A2.35,2.35,0,0,0,210.9,205.45Zm1.93.06a2.48,2.48,0,0,1,.24.46l.4-.19c0-.12,0-.24-.07-.36s-.05-.19-.08-.28A1.76,1.76,0,0,0,212.83,205.51Zm3.8.4a1.55,1.55,0,0,1,.31,0c0-.1,0-.21,0-.31a1.22,1.22,0,0,0-.26-.06,2,2,0,0,1-.09.33Zm-4.77-.31a2.39,2.39,0,0,1,.57.31,2.59,2.59,0,0,1,.31-.41.75.75,0,0,0-.6-.41A2.12,2.12,0,0,0,211.86,205.6Zm4.55,0a2,2,0,0,1,.1.26,1.05,1.05,0,0,0,.06-.24Zm.54,0a3.35,3.35,0,0,1,.45.19.75.75,0,0,1-.05-.16,5,5,0,0,0-1.92-2.67,2.79,2.79,0,0,0-2-.34,3.8,3.8,0,0,0-1.08.4,3,3,0,0,1,.8.12,2.63,2.63,0,0,1,1-.1,1.35,1.35,0,0,1,1,.45,1.26,1.26,0,0,1,1.13.35,1.51,1.51,0,0,1,.47,1.2l0,0A1.41,1.41,0,0,1,217,205.59Zm-3.56-.48c0,.1.05.19.07.29s.06.24.08.36l.3-.09a2,2,0,0,1,0-.72A2.6,2.6,0,0,0,213.39,205.11Zm.55-.17a2,2,0,0,0,0,.72l.39-.06.64-.06c0-.11-.05-.22-.08-.33s0-.15-.09-.23a1.6,1.6,0,0,0-.82,0Zm-2.54.52a2.22,2.22,0,0,1,.39.11,2.68,2.68,0,0,1,.26-.47A1.19,1.19,0,0,0,211.4,205.46Zm5.25,0,.23.05a1.72,1.72,0,0,0-.18-.42c0,.12,0,.24,0,.36Zm-1.49-.31c0,.11-.07.22-.11.33l.37,0A1.25,1.25,0,0,0,215.16,205.2Zm-.31-.18a.7.7,0,0,1,.06.17c0,.1.06.21.08.31,0-.12.08-.23.11-.34l-.06,0Zm1.53.46h.21v0a2.09,2.09,0,0,0,0-.43,1.19,1.19,0,0,0-.68-.47l-.26-.08A3.43,3.43,0,0,1,216.38,205.48Zm-1.2-.35a1.22,1.22,0,0,1,.32.36,7.87,7.87,0,0,1,.8,0,3.21,3.21,0,0,0-.74-1l-.25-.06A4.07,4.07,0,0,1,215.18,205.13Zm-3-.1a.82.82,0,0,1,.6.42,1.89,1.89,0,0,1,.51-.38,4.15,4.15,0,0,0-.24-.63l-.32.14A2,2,0,0,0,212.19,205Zm-1.29.35.4.05a1.8,1.8,0,0,1,.15-.92,5.3,5.3,0,0,0-.53.53.28.28,0,0,0,0,.09A2.18,2.18,0,0,0,210.9,205.38Zm.67-1,0,0a1.81,1.81,0,0,0-.18.94,1.12,1.12,0,0,1,.73-.37h0a2.09,2.09,0,0,1,.6-.51l.32-.14a2.11,2.11,0,0,0-.35-.5h0a2.8,2.8,0,0,0-.71.29,3.19,3.19,0,0,0-.38.26Zm-.9,1h.16a1.85,1.85,0,0,1,0-.23l-.18.23Zm4.15-.44a1.19,1.19,0,0,1,.25.13l.05,0a3.85,3.85,0,0,0,.12-.69,6.14,6.14,0,0,0-.86-.12,2.2,2.2,0,0,1,.44.65Zm-1.7-.51a4.73,4.73,0,0,1,.25.62,2.32,2.32,0,0,1,.51-.16c0-.11.07-.22.11-.33s.09-.19.14-.28h0a3.07,3.07,0,0,0-1,.15Zm2.47,0,.38.1a1.44,1.44,0,0,1,.66.43,1.43,1.43,0,0,0-.45-1.06,1.17,1.17,0,0,0-1-.33.81.81,0,0,1,.13.3,1.22,1.22,0,0,1,0,.32l.19.17.08.06Zm-4.08-.74a2.49,2.49,0,0,0-.58,1.25,4.22,4.22,0,0,1,.58-.54,2.29,2.29,0,0,1,.65-.77h-.11a1.32,1.32,0,0,0-.54.07Zm2.76,1.17a1.76,1.76,0,0,1,.46.06,2,2,0,0,0-.46-.62h-.06a2.85,2.85,0,0,0-.16.3,1.52,1.52,0,0,0-.09.28l.32,0Zm1-.5.13,0-.13-.11v.08Zm-2.58-.49a2.34,2.34,0,0,1,.35.5,3.3,3.3,0,0,1,1.09-.14h0a2,2,0,0,0-.59-.31A1.63,1.63,0,0,0,212.74,203.85Zm1.56.36a5,5,0,0,1,.95.12v-.12a3.7,3.7,0,0,0-.62-.41,1.85,1.85,0,0,0-.36.38l0,0Zm-2.05-.58a2.1,2.1,0,0,0-.6.65l.27-.18a2.84,2.84,0,0,1,.68-.29A1,1,0,0,0,212.25,203.63Zm.85.12a1.75,1.75,0,0,1,.51.07,2,2,0,0,1,.61.32,1.8,1.8,0,0,1,.35-.38,7,7,0,0,0-1.43-.56,2.07,2.07,0,0,0-.47.18,2.43,2.43,0,0,0-.35.2,1.1,1.1,0,0,1,.36.21,2,2,0,0,1,.42,0Zm1.59,0a5.42,5.42,0,0,1,.56.37,1,1,0,0,0,0-.25,1.09,1.09,0,0,0-.14-.31,1.08,1.08,0,0,0-.29.13l-.1.06Zm-1.41-.59.54.18a7.43,7.43,0,0,1,.81.37.57.57,0,0,1,.13-.08,1.11,1.11,0,0,1,.27-.12,1.29,1.29,0,0,0-.9-.41A2.75,2.75,0,0,0,213.28,203.16Zm-1.05-.09a5.09,5.09,0,0,0-.47.34l-.16.16a1.46,1.46,0,0,1,.46,0l.17,0a3.45,3.45,0,0,1,.78-.38,3.13,3.13,0,0,0-.78-.1Z"/><path class="cls-23" d="M219.55,206h1.18v-1.17h-1.18Zm.59-7a2.34,2.34,0,0,0-2.34,2.34H219a1.17,1.17,0,1,1,2.34,0c0,1.18-1.76,1-1.76,2.93h1.18c0-1.31,1.76-1.46,1.76-2.93A2.35,2.35,0,0,0,220.14,199Z"/><path class="cls-23" d="M216,211.08h.88v-.91H216Zm.44-5.47a1.79,1.79,0,0,0-1.75,1.82h.87a.88.88,0,1,1,1.76,0c0,.92-1.32.8-1.32,2.28h.88c0-1,1.32-1.14,1.32-2.28A1.8,1.8,0,0,0,216.43,205.61Z"/><path class="cls-23" d="M212.82,205.61h.58V205h-.58Zm.29-3.51a1.17,1.17,0,0,0-1.17,1.17h.58a.59.59,0,0,1,1.18,0c0,.58-.88.51-.88,1.46h.58c0-.66.88-.73.88-1.46A1.17,1.17,0,0,0,213.11,202.1Z"/><path class="cls-26" d="M276.47,290.15H179.18V320.4h97.29Z"/><path class="cls-27" d="M294,249.62l-3-1.42A7.93,7.93,0,0,0,280.38,252l-2.38,5-13.88,29.15H182.53v19.21h93.94l21.26-45a7.87,7.87,0,0,0,.76-3,8,8,0,0,0-4.52-7.6Z"/><path class="cls-26" d="M276.47,336.9V320.4h-4.63v16.5Z"/><path class="cls-26" d="M183.81,336.9V320.4h-4.63v16.5Z"/><path class="cls-22" d="M194.26,284.93a11,11,0,0,1-1.36-2.82,3.36,3.36,0,0,0-.79-1.64s-4.45-.65-6.16-2.24-5.33-5.91-7-4.61,1.24,6.75,3,8.39,4.11,4.54,6.25,4.32A58.92,58.92,0,0,0,194.26,284.93Z"/><path class="cls-28" d="M194.26,284.67l-2.15-4.2s10.28-1.88,13.28-3.69l2.2-1.34c1.59-1,2.9-1.83,3.37-2.22,1.48-1.26,7.43-5.47,9-7s3.5-.61,6-.59,11.59,2.54,14.3,2.91,12.51,2.18,12.51,2.18C251.08,275.41,194.26,284.67,194.26,284.67Z"/><path class="cls-29" d="M253.38,270.55s-5.53.79-6.95.9-9.69.77-13.66,1.16-11.77.15-13.32.83S209,277.15,206,278.1s-21.95,4.42-21.95,4.42a6.47,6.47,0,0,0,1.36,4.56s8.38-.75,12.81-.1a36.09,36.09,0,0,0,16.84-2.47c4.69-2.12,12.13-.18,16.28,1.28s20,2.62,22,2.19a19.72,19.72,0,0,0,8.8-5.47C265.06,279.39,253.38,270.55,253.38,270.55Z"/><path class="cls-22" d="M185.45,287.08a10.87,10.87,0,0,1-.64-3.06,2.84,2.84,0,0,0-.26-1.57s-4.27-1.92-5.55-3.87-3.74-7-5.71-6.19-.43,6.85.86,8.87,2.1,7.4,4.23,7.71S184.4,287,185.45,287.08Z"/><path class="cls-29" d="M265.81,267s7,15.86-3.86,19.69c-8.65,3.07-24.6.25-24.6.25l9.81-15.47Z"/><path class="cls-30" d="M247.82,207.16c2.67.59,1.08,7.27,2.86,16.62s7.42,10.79,7.42,10.79a16.64,16.64,0,0,1-2.23-8.47c.21-3.38,4.31-12.61.26-18.65-3.13-4.67-8.65-.43-8.65-.43Z"/><path class="cls-22" d="M251.83,226.61l-5.18,5.32a11.3,11.3,0,0,0-.77-3.16c-.18-.48-.37-.92-.51-1.26s-.34-.73-.34-.73l4.62-4.88Z"/><path class="cls-31" d="M245.67,231.41a12.75,12.75,0,0,1-1.6,4.92c-1.39,2.37-3.69,6.29-3.37,8.84a6.26,6.26,0,0,0,2.39,4.39c1,.92,3.67,7.55,4,10.09A49.31,49.31,0,0,1,247,271.4s18.14,2.1,20-1.07c0,0-2.25-10.19-3.31-12.75s-3.29-17.83-4.24-20.42-3.21-5.11-4.57-6.92c-1.23-1.6-3.47-4.6-3.47-4.6Z"/><path class="cls-22" d="M243.4,207.71a8.11,8.11,0,0,0-7.62,8.37,19.77,19.77,0,0,0,1,3c.56,1.29-.18,5.36.15,5.52a8.71,8.71,0,0,0,1.66.26s1.89,4.15,3.39,3.94a12.56,12.56,0,0,0,9.17-7.72C253.19,215.38,253.07,207.06,243.4,207.71Z"/><path class="cls-30" d="M235.78,216.08a21.55,21.55,0,0,0,8.07,2.28c3.9.09,7.09,6.33,7.09,6.33s4.72-10.59-.68-16S234.1,208.82,235.78,216.08Z"/><path class="cls-22" d="M244.76,218.32a1.19,1.19,0,0,1,2-1.08c1.33.87.1,4.59-.94,4.36S244.83,219.09,244.76,218.32Z"/><path class="cls-18" d="M249.07,224.55a23.73,23.73,0,0,1-3.19,4.23c-.18-.48-.36-.92-.51-1.26A16.59,16.59,0,0,0,249.07,224.55Z"/><path class="cls-32" d="M210.43,276.58l25.35-4.79-.41-2.2L210,274.37Z"/><path class="cls-32" d="M195.81,255.31l14.59,21.28,1.86-1.27L197.66,254Z"/><path class="cls-22" d="M215.27,273.39c-.13-.57,0-1.51,1.77-2.46s5.61-3.11,7-3.16,4,.16,4.55.15-.86,3.21-.86,3.21Z"/><path class="cls-22" d="M227.93,268.17s7.39-2.92,8.59-3.49,6.81-2.47,7.3-2.71,2.84-14.24,3.05-17.76.41-11,4.39-10.64,4.92,2.94,4.43,8.07-3.43,23.53-4.68,24.15-15.51,3.81-23,5.31C220.79,272.54,227.93,268.17,227.93,268.17Z"/><path class="cls-33" d="M246.46,245.31s5.74,1.07,9,1.4c0,0,4.11-11.71-1.49-13.58C247.38,230.91,245.9,240,246.46,245.31Z"/><path class="cls-34" d="M318.88,211.41c10.27,37.39,8.48,80.55-15.81,110.78-23.56,29.31-64.84,33.11-102.32,36.19-33.69,2.76-67.81-.58-95.48-20-28-19.65-47.12-65.24-56.17-98.24-10.44-38.1,7.5-60.52,27.68-94.48,21.28-35.8,37.33-62.88,79-64,38-1.06,66.17,29.76,96,53.45C279.28,157,309.55,177.43,318.88,211.41Z"/><ellipse class="cls-23" cx="115.22" cy="94.42" rx="2.82" ry="3.22"/><ellipse class="cls-35" cx="115.22" cy="94.42" rx="2.82" ry="3.22"/><circle class="cls-36" cx="319.31" cy="296.49" r="6.44"/><circle class="cls-37" cx="319.31" cy="296.49" r="6.44"/><rect class="cls-38" x="151.05" y="130.65" width="27.37" height="0.81"/><rect class="cls-38" x="151.05" y="133.87" width="27.37" height="0.81"/><rect class="cls-38" x="151.05" y="137.09" width="27.37" height="0.81"/><rect class="cls-38" x="151.05" y="140.31" width="27.37" height="0.81"/><rect class="cls-38" x="151.05" y="142.72" width="14.49" height="0.81"/><rect class="cls-38" x="151.05" y="145.94" width="14.49" height="0.81"/></svg>