<svg id="Layer_1" data-name="Layer 1" xmlns="http://www.w3.org/2000/svg" xmlns:xlink="http://www.w3.org/1999/xlink" viewBox="0 0 470 380"><defs><style>.cls-1,.cls-3{fill:none;}.cls-2{clip-path:url(#clip-path);}.cls-3{stroke:#d0d3d5;stroke-width:3px;opacity:0.2;}.cls-10,.cls-11,.cls-3,.cls-5{isolation:isolate;}.cls-17,.cls-4,.cls-5{fill:#7abed1;}.cls-4,.cls-5{fill-opacity:0.15;fill-rule:evenodd;}.cls-5{opacity:0.4;}.cls-6{fill:#c6e8f1;}.cls-10,.cls-7{fill:#fff;}.cls-8{fill:#eee;}.cls-11,.cls-9{fill:#f1f1f1;}.cls-10,.cls-11{opacity:0.78;}.cls-12{fill:#e56a59;}.cls-13{fill:url(#linear-gradient);}.cls-14{fill:#2d3133;}.cls-15{fill:#e8c6a7;}.cls-16{fill:#3b3b40;}</style><clipPath id="clip-path"><rect class="cls-1" width="470" height="380"/></clipPath><linearGradient id="linear-gradient" x1="199.21" y1="204.39" x2="216.82" y2="204.39" gradientTransform="matrix(1, 0, 0, -1, 0, 396)" gradientUnits="userSpaceOnUse"><stop offset="0" stop-color="#e1473d"/><stop offset="1" stop-color="#e9605a"/></linearGradient></defs><g class="cls-2"><path class="cls-3" d="M374.77,240.9c14.7,53.28,12.35,114.75-21.94,157.75-33.26,41.72-91.71,47.08-144.8,51.4-47.72,3.88-96.07-.92-135.36-28.61-39.77-28-67-93-80-140-15-54.28,10.36-86.19,38.81-134.53,30-51,52.62-89.51,111.6-91.11C197,54.33,237,98.27,279.28,132.07,318.43,163.36,361.41,192.49,374.77,240.9Z"/><path class="cls-4" d="M-14.78,375.07c-35.3-43.34-5.09-96.47,11.14-149.6,14.4-47.16,89.38-31.2,128.61-61.6,39.72-30.79,44.78-74.16,95.35-75,55-1,111.66,28.42,139.49,75.36,26,43.79-1.78,95.73-8.27,146-6.47,50-14.37,84.41-51.14,119.38-38.66,36.77-115.07,36.06-169.34,24.79C75.71,448.8,20.11,417.91-14.78,375.07Z"/><path class="cls-5" d="M299.91,444.24c-44.49,31.56-105,37.91-155.88,20.52-45.16-15.44-60.1-65.49-87.38-103.67C29,322.44-16.18,291.4-13.93,243.71c2.44-51.9,34.61-104.12,82.14-128.49,44.36-22.74,93.37,5.45,142,13.55,48.46,8.07,105.66-3,137.55,33,33.52,37.89,28.08,94.35,19.57,144.57C358.55,358.27,343.88,413.05,299.91,444.24Z"/><path class="cls-5" d="M287.91,457.24c-44.49,31.56-105,37.91-155.88,20.52-45.16-15.44-60.1-65.49-87.38-103.67C17,335.44-28.18,304.4-25.93,256.71c2.44-51.9,34.61-104.12,82.14-128.49,44.36-22.74,93.37,5.45,142,13.55,48.46,8.07,105.66-3,137.55,33,33.52,37.89,28.08,94.35,19.57,144.57C346.55,371.27,331.88,426.05,287.91,457.24Z"/><path class="cls-6" d="M332.5,194.7A123.72,123.72,0,0,1,208.77,318.41C140.45,318.41,82,260.61,82,192.28S140.45,71,208.77,71A123.72,123.72,0,0,1,332.5,194.7Z"/><path class="cls-7" d="M91.71,165.05a1.24,1.24,0,0,1-.33,0,1.57,1.57,0,0,1-.45-.22,1.33,1.33,0,0,1-.33-.38,1.2,1.2,0,0,1-.16-.47,1.46,1.46,0,0,1,0-.51,112.17,112.17,0,0,1,5.07-14.79,1.23,1.23,0,0,1,.28-.43,1.22,1.22,0,0,1,.42-.29,1.45,1.45,0,0,1,.5-.11,1.25,1.25,0,0,1,.5.11,1.24,1.24,0,0,1,.7.72,1.43,1.43,0,0,1,.09.5,1.46,1.46,0,0,1-.12.5,110.1,110.1,0,0,0-5,14.46,1.28,1.28,0,0,1-1.24,1Z"/><path class="cls-7" d="M110.62,126.39a1.37,1.37,0,0,1-.68-.19,1.38,1.38,0,0,1-.47-.52,1.3,1.3,0,0,1,.12-1.35c23-30.5,60.06-48.71,99.11-48.71a118.22,118.22,0,0,1,48,10,1.28,1.28,0,0,1,.66,1.69,1.31,1.31,0,0,1-.71.68,1.26,1.26,0,0,1-1,0,115.7,115.7,0,0,0-46.92-9.83c-38.25,0-74.53,17.84-97,47.69a1.18,1.18,0,0,1-.46.37A1.23,1.23,0,0,1,110.62,126.39Z"/><path class="cls-7" d="M315.65,194.7A107.09,107.09,0,0,1,208.57,301.79c-59.15,0-109.74-50.05-109.74-109.19s50.59-105,109.74-105A107.09,107.09,0,0,1,315.65,194.7Z"/><path class="cls-8" d="M315.65,194.7A107.09,107.09,0,0,0,208.57,87.61a112.29,112.29,0,0,0-81.88,35.17l82.49,68.63,17,108.93A107.1,107.1,0,0,0,315.65,194.7Z"/><path class="cls-9" d="M126.2,189.15a8.24,8.24,0,1,1-12.41-7.59,8.35,8.35,0,0,1,4.66-1.12,8.26,8.26,0,0,1,5.68,2.75,8.34,8.34,0,0,1,1.63,2.77A8.45,8.45,0,0,1,126.2,189.15Z"/><path class="cls-7" d="M303.61,202.39a8.25,8.25,0,1,0-10.88,4.17A8.24,8.24,0,0,0,303.61,202.39Z"/><path class="cls-9" d="M196.58,287.67a8.24,8.24,0,1,0-11.65-.48A8.24,8.24,0,0,0,196.58,287.67Z"/><path class="cls-7" d="M224.54,98a8.33,8.33,0,0,1,4.25,2.19,8.24,8.24,0,0,1-5.61,14.16,8.24,8.24,0,0,1-8.23-9.72A8.24,8.24,0,0,1,224.54,98Z"/><path class="cls-10" d="M251.09,278.21c.85,2.11.63,4.09-.46,4.42s-2.67-1.13-3.51-3.24-.63-4.09.47-4.42S250.25,276.1,251.09,278.21Z"/><path class="cls-10" d="M179.43,111.74c.85,2.11.63,4.09-.47,4.42s-2.66-1.14-3.5-3.24-.63-4.09.47-4.42S178.6,109.61,179.43,111.74Z"/><path class="cls-10" d="M288.5,246.56c1.82,1.37,2.67,3.17,1.9,4s-2.86.43-4.67-.94-2.66-3.18-1.9-4S286.69,245.19,288.5,246.56Z"/><path class="cls-9" d="M140.83,141.49c1.81,1.37,2.66,3.17,1.89,4s-2.85.43-4.67-.94-2.66-3.18-1.89-4S139,140.12,140.83,141.49Z"/><path class="cls-7" d="M293.21,152.3c2.05-1,4-.9,4.44.17s-.94,2.73-3,3.71-4,.9-4.44-.17S291.15,153.28,293.21,152.3Z"/><path class="cls-11" d="M131.9,235c2-1,4-.9,4.44.17s-.94,2.73-3,3.71-4,.9-4.44-.17S129.85,235.93,131.9,235Z"/><path class="cls-7" d="M259.13,117.09c1.24-1.9,3-2.87,3.88-2.16s.62,2.83-.63,4.73-3,2.86-3.89,2.16S257.88,119,259.13,117.09Z"/><path class="cls-11" d="M164.18,271.48c1.25-1.9,3-2.87,3.89-2.16s.61,2.83-.63,4.72-3,2.87-3.89,2.16S162.93,273.38,164.18,271.48Z"/><path class="cls-12" d="M205.23,188.35l-35-65.19a1.82,1.82,0,0,1-.23-.94,1.9,1.9,0,0,1,.27-.93,2,2,0,0,1,.69-.68,1.91,1.91,0,0,1,.94-.24h8.53a1.88,1.88,0,0,0,1.73-1.15,1.89,1.89,0,0,0-.35-2L138.18,70.6A1.92,1.92,0,0,0,137.1,70a2,2,0,0,0-1.21.21,1.9,1.9,0,0,0-.94,2.11l15,61.25a2,2,0,0,0,.49.89,1.85,1.85,0,0,0,.88.5,1.83,1.83,0,0,0,1,0,2,2,0,0,0,.86-.53l6.89-7.45a1.94,1.94,0,0,1,.72-.48,1.8,1.8,0,0,1,.86-.12,1.87,1.87,0,0,1,.82.28,1.78,1.78,0,0,1,.61.61l38.82,63a1.89,1.89,0,0,0,1.15.84,1.91,1.91,0,0,0,1.42-.2,1.92,1.92,0,0,0,.71-2.54Z"/><path class="cls-7" d="M151.15,126a.83.83,0,0,1-.84-.72c-.18-1-6.14-24.83-11.67-46.91a1.67,1.67,0,0,1,.09-1.08,1.62,1.62,0,0,1,.74-.79,1.65,1.65,0,0,1,1.07-.15,1.6,1.6,0,0,1,.94.55l9,10.21a.83.83,0,0,1,.21.62.85.85,0,0,1-.28.59.91.91,0,0,1-.63.21.92.92,0,0,1-.59-.29l-8.77-10c5.27,21.09,11.54,46.17,11.6,46.77a.74.74,0,0,1,0,.33.85.85,0,0,1-.15.3.75.75,0,0,1-.25.22.76.76,0,0,1-.32.11Z"/><path class="cls-12" d="M208.69,195.16l64.72-2.11a1.9,1.9,0,0,1,.93.24,1.88,1.88,0,0,1,.7.67,1.89,1.89,0,0,1,.07,1.86l-3.93,7.58a1.88,1.88,0,0,0,.22,2.06,1.9,1.9,0,0,0,2,.63L334.8,188.8a1.83,1.83,0,0,0,1-.69,2,2,0,0,0,.38-1.17,1.89,1.89,0,0,0-1.46-1.8l-61.29-14.82a1.89,1.89,0,0,0-1,0,1.85,1.85,0,0,0-.85.55,1.79,1.79,0,0,0-.45.9,1.89,1.89,0,0,0,.07,1l3.43,9.56a1.77,1.77,0,0,1,.1.85,1.84,1.84,0,0,1-.29.82,1.91,1.91,0,0,1-.63.6,1.84,1.84,0,0,1-.82.26l-64.48,6.48a1.93,1.93,0,0,0-1.28.64,1.84,1.84,0,0,0-.47,1.34,1.88,1.88,0,0,0,.59,1.29A1.94,1.94,0,0,0,208.69,195.16Z"/><path class="cls-7" d="M314.29,192.12a1,1,0,0,1-.34,0,.8.8,0,0,1-.29-.15.8.8,0,0,1-.32-.57.74.74,0,0,1,0-.33.85.85,0,0,1,.15-.3.92.92,0,0,1,.26-.22.81.81,0,0,1,.31-.1l12.89-3.2c-21.14-5-46.3-11-46.86-11.2a.81.81,0,0,1-.49-.43.84.84,0,0,1,0-.66.82.82,0,0,1,.44-.49.86.86,0,0,1,.65,0c.78.23,18.34,4.42,47,11.22a1.61,1.61,0,0,1,.9.58,1.65,1.65,0,0,1,0,2,1.55,1.55,0,0,1-.9.57l-13.2,3.28Z"/><path class="cls-13" d="M211.39,199.74A8.81,8.81,0,1,0,199.88,195,8.8,8.8,0,0,0,211.39,199.74Z"/><path class="cls-7" d="M255.56,183.85s-3.4.18-3.82,7.19c0,0,7.89,7.07,18.56,8.76.8.13-1.14-5.47-1.42-6.23C267.52,190,263.19,187.65,255.56,183.85Z"/><path class="cls-14" d="M217.22,175.62h7.18s22-24.35,36.52-26.81c0,0,10.06,12.85-.54,36.86a3.5,3.5,0,0,1-5,1.65,2.84,2.84,0,0,1-1.13-1.36l.85-20.5S236.27,181.9,233,185.08,213.1,186.32,217.22,175.62Z"/><path class="cls-7" d="M286.68,226.74A27,27,0,0,0,272,220.29l-2.34,1.44a26.25,26.25,0,0,0,4.22,4.53c2.51,1.45,6.38,3.43,9.59,3.85S287,228.64,286.68,226.74Z"/><path class="cls-14" d="M268.89,193.57c-1.86.61-2.67,3.23-7.38,1.49a41.84,41.84,0,0,1-9.68-5.09c0,.34-.07.69-.09,1.07,0,0,8.32,7.92,19,9.6a1,1,0,0,0,.54-.06,1.08,1.08,0,0,0,.66-.83,1,1,0,0,0-.06-.54A26.94,26.94,0,0,0,268.89,193.57Z"/><path class="cls-14" d="M288.94,229a24.21,24.21,0,0,0-2.26-2.27c.31,1.9-.15,3.79-3.27,3.37S275,226,271,223.5c3.14,2.68,10.75,8.27,16.78,8.1a1.57,1.57,0,0,0,.84-.26,1.55,1.55,0,0,0,.56-.68,1.5,1.5,0,0,0,.12-.86A1.47,1.47,0,0,0,288.94,229Z"/><path class="cls-14" d="M217.48,180.81l33.64.37s19.22,15.89,22.7,40.13c0,0,.57,1.78-2.89,2.09a66.82,66.82,0,0,1-19.19-21c-9.29-16.45-24.23-10.58-24.23-10.58-18.11,6.18-24.34-3-24.48-5.16Z"/><path class="cls-15" d="M218.28,153.71s3.62,18.15,21.36,25.33l6.32-.74,1.48,2.37-14.8.48a40.5,40.5,0,0,1-19.36-18.69C213.05,162,209.37,154.4,218.28,153.71Z"/><path class="cls-7" d="M220.22,180.52a97.14,97.14,0,0,1-5-22.08,48.44,48.44,0,0,1,4.9-3.71,1.36,1.36,0,0,0,.61-.78,1.33,1.33,0,0,0-.08-1c-1.38-2.87-9.76-14.13-10.38-14.29-3.41-.85-17.4-7.5-27.24,6-4.23,5.78.85,23.58,20,42l.64.12a9.72,9.72,0,0,0,6.31-.93Z"/><path class="cls-15" d="M204.35,160.9s11.44,13.54,26.07,15.52c0,0,3.78-3.44,6.59-2.21s6.67,6.66,6.67,6.66H224.9s-17.77-.63-26.64-11.4C199,165.71,201.11,163.45,204.35,160.9Z"/><path class="cls-15" d="M197.68,129.18l-2.51,8.35a1,1,0,0,0,0,.57,1,1,0,0,0,.35.45,9.3,9.3,0,0,0,8.68.87,1.31,1.31,0,0,0,.87-1.17l.6-7.27Z"/><path class="cls-15" d="M212.33,122.42s-1.23,8.66-4.56,11.32-9.8.66-12-5.86l4.35-11.16Z"/><path class="cls-16" d="M199.66,123.93a.58.58,0,0,0,.19,0,.49.49,0,0,0,.17-.06.58.58,0,0,0,.14-.13.67.67,0,0,0,.07-.18,11.37,11.37,0,0,1,1-3.46s-.32-1.13,2.87.57,8,4.24,10.79,2.73,5.54-8.82-1.73-7.46a.41.41,0,0,1-.19,0,.32.32,0,0,1-.17-.09.44.44,0,0,1-.14-.35c.08-1.21,0-4-2.85-4.89-2.64-.84-4.09.36-4.68,1.08a.44.44,0,0,1-.15.12.58.58,0,0,1-.19,0,.53.53,0,0,1-.18,0,.44.44,0,0,1-.15-.12,5,5,0,0,0-6.1-1.84c-2.6,1.15-3,2.75-3,3.75a.38.38,0,0,1,0,.21.39.39,0,0,1-.14.17.48.48,0,0,1-.21.07.52.52,0,0,1-.21,0,2.56,2.56,0,0,0-3.31,1c-1.7,2.13.73,4,1.46,4.45a.43.43,0,0,1,.14.16.46.46,0,0,1,.05.2c0,1.11.18,5.94,2.6,8.66a.42.42,0,0,0,.18.11.38.38,0,0,0,.21,0,.4.4,0,0,0,.2-.09.37.37,0,0,0,.13-.17l1.86-4.43a.49.49,0,0,1,.22-.23.47.47,0,0,1,.31,0Z"/><path class="cls-15" d="M199.7,124.83s-1.13-4.63-2.87-3.11.45,4.81,2.43,5.44Z"/><path class="cls-17" d="M242.74,181.93l8.43-28.13a2.87,2.87,0,0,1,2.55-2l11.39-.78a1.64,1.64,0,0,1,.78.14,1.62,1.62,0,0,1,.61.49,1.49,1.49,0,0,1,.31.73,1.59,1.59,0,0,1-.07.78L257.32,180a2.36,2.36,0,0,1-2,1.57l-11.21,1.25Z"/><path class="cls-7" d="M258.29,163.33c-.63,1.27-1.72,2-2.43,1.66s-.78-1.66-.15-2.93,1.72-2,2.43-1.67S258.92,162.06,258.29,163.33Z"/><path class="cls-17" d="M244.11,182.8h-.05l-23.89-1.21a1.12,1.12,0,0,1-.41-.1,1,1,0,0,1-.33-.25,1.13,1.13,0,0,1-.22-.36,1,1,0,0,1-.06-.41,1.17,1.17,0,0,1,.1-.41,1,1,0,0,1,.25-.33,1.13,1.13,0,0,1,.36-.22,1,1,0,0,1,.41-.06l23.9,1.21a1.08,1.08,0,0,1,.74.33,1.06,1.06,0,0,1,.3.77,1.12,1.12,0,0,1-.33.75,1.09,1.09,0,0,1-.77.29Z"/></g></svg>