<svg width="366" height="366" viewBox="0 0 366 366" fill="none" xmlns="http://www.w3.org/2000/svg">
<g clip-path="url(#clip0)">
<ellipse cx="189" cy="335" rx="131" ry="6" fill="black" fill-opacity="0.04"/>
<path d="M41.3687 1.92183C34.5926 27.398 1.30956 177.364 138.47 236.331C138.47 236.331 186.17 143.687 45.1572 0.977303C43.9227 -0.273776 41.8124 0.263337 41.3687 1.92183Z" fill="#A8D4E0" fill-opacity="0.5"/>
<path opacity="0.86" d="M52.1472 26.7083C53.0335 35.6165 54.2955 44.5024 55.7329 53.3477C57.1703 62.1931 58.8368 71.0043 60.7154 79.7697C64.4843 97.2913 69.0754 114.645 74.8028 131.621C80.5302 148.596 87.3704 165.205 95.9294 180.917C98.0572 184.847 100.312 188.705 102.694 192.491C103.865 194.393 105.109 196.248 106.338 198.113C107.609 199.947 108.865 201.794 110.198 203.584C115.43 210.813 121.307 217.55 127.757 223.714C127.845 223.793 127.916 223.889 127.966 223.995C128.017 224.102 128.045 224.218 128.05 224.336C128.055 224.454 128.036 224.572 127.995 224.682C127.953 224.793 127.89 224.894 127.808 224.979C127.727 225.065 127.629 225.133 127.521 225.181C127.413 225.228 127.296 225.252 127.178 225.254C127.06 225.255 126.943 225.232 126.834 225.187C126.725 225.142 126.626 225.076 126.543 224.992C120.046 218.725 114.131 211.882 108.87 204.545C107.533 202.732 106.277 200.862 105.003 199.006C103.772 197.119 102.527 195.244 101.356 193.322C98.9836 189.495 96.7315 185.599 94.5993 181.635C86.0665 165.784 79.2826 149.06 73.6076 132.018C67.9326 114.975 63.424 97.5481 59.7309 79.9754C57.8894 71.186 56.2666 62.3559 54.8623 53.4853C53.4655 44.6151 52.2441 35.7226 51.3971 26.7712C51.3917 26.6748 51.4238 26.5801 51.4866 26.507C51.5495 26.4338 51.6382 26.3878 51.7342 26.3786C51.8302 26.3695 51.926 26.3979 52.0015 26.4579C52.0771 26.5179 52.1265 26.6048 52.1393 26.7004L52.1472 26.7083Z" fill="white"/>
<path d="M0.147958 56.9872C-0.812936 80.3752 -0.853525 216.68 126.953 239.687C126.953 239.687 150.062 149.963 3.19166 55.4047C2.89878 55.2169 2.56156 55.1096 2.21403 55.0938C1.86651 55.078 1.52096 55.1542 1.21226 55.3147C0.903555 55.4752 0.642611 55.7144 0.45575 56.008C0.26889 56.3017 0.162722 56.6394 0.147958 56.9872Z" fill="#7ABED1" fill-opacity="0.5"/>
<path opacity="0.86" d="M14.0372 76.199C16.4879 83.4854 19.2331 90.6866 22.0831 97.8341C24.933 104.982 27.9741 112.06 31.1409 119.074C34.3076 126.088 37.6433 133.027 41.1321 139.883C44.6209 146.74 48.2485 153.53 52.1143 160.18C59.7988 173.501 68.2283 186.408 77.7037 198.501L78.5834 199.64L79.4998 200.755L81.3326 202.982L83.1588 205.209C83.7675 205.952 84.4182 206.65 85.0452 207.383C86.319 208.824 87.5614 210.281 88.8587 211.693L92.8096 215.874C98.177 221.353 103.84 226.53 109.874 231.242L109.883 231.25C110.057 231.397 110.168 231.606 110.192 231.833C110.215 232.06 110.15 232.287 110.01 232.467C109.869 232.647 109.665 232.765 109.439 232.797C109.213 232.829 108.984 232.772 108.799 232.639C102.714 227.834 97.0172 222.57 91.638 217.014L87.6779 212.776C86.3779 211.346 85.1343 209.865 83.8605 208.412C83.2321 207.679 82.5802 206.971 81.9727 206.214L80.14 203.964L78.315 201.714L77.3987 200.588L76.5203 199.435C67.0553 187.219 58.6652 174.215 51.0291 160.81C47.1894 154.118 43.6011 147.285 40.1306 140.398C36.6601 133.511 33.3598 126.53 30.2297 119.478C27.0996 112.427 24.1031 105.33 21.2727 98.1525C18.4424 90.9748 15.7509 83.7552 13.3277 76.423C13.2964 76.329 13.3038 76.2265 13.3481 76.1379C13.3924 76.0493 13.4701 75.982 13.564 75.9507C13.6579 75.9195 13.7604 75.9268 13.8489 75.9712C13.9374 76.0155 14.0047 76.0932 14.0359 76.1872L14.0372 76.199Z" fill="white"/>
<path d="M92.0312 1.32222C87.8195 1.69256 83.8987 3.62653 81.0399 6.74372C78.1812 9.86091 76.5916 13.9357 76.5836 18.1666C76.4317 71.7913 76.1804 256.76 79.6744 322.224C79.8513 325.565 81.2931 328.712 83.7065 331.026C86.1199 333.341 89.3237 334.648 92.6661 334.683C126.994 335.052 225.737 335.731 281.792 332.144C287.415 331.79 292.692 329.303 296.547 325.191C300.402 321.079 302.545 315.651 302.539 310.012C302.471 253.731 301.573 95.4479 293.869 23.0975C293.423 18.8974 291.521 14.9863 288.494 12.0429C285.466 9.09952 281.505 7.30972 277.297 6.98417C239.862 4.07066 140.441 -2.89084 92.0312 1.32222Z" fill="#333333"/>
<path d="M90.3691 32.2203C89.6949 78.091 87.7758 230.69 91.1258 287.008C91.6154 295.24 98.0052 301.739 105.895 302.014C138.382 303.148 221.688 305.339 269.157 300.112C277.704 299.172 284.237 291.757 284.465 282.781C285.652 235.968 288.859 93.8428 285.603 38.1521C285.08 29.2675 278.301 22.1789 269.798 21.6051C234.624 19.234 144.298 13.7633 103.933 17.1275C96.3518 17.7589 90.4856 24.2776 90.3691 32.2203Z" fill="white"/>
<path d="M168.86 9.30441C168.872 9.91398 169.118 10.4955 169.547 10.9289C169.975 11.3624 170.554 11.6146 171.163 11.6336C177.414 11.8236 195.023 12.3633 202.893 12.6463C203.255 12.6595 203.615 12.5897 203.947 12.4423C204.278 12.2948 204.571 12.0737 204.803 11.7956C205.036 11.5176 205.202 11.19 205.289 10.838C205.376 10.4859 205.381 10.1187 205.304 9.76423C205.277 9.71576 205.075 7.76906 203.088 7.63019C197.764 7.25946 181.701 6.26121 171.087 6.87431C168.907 6.99352 168.789 9.4734 168.86 9.30441Z" fill="white"/>
<path d="M189.28 156.191C215.837 156.191 237.367 134.647 237.367 108.071C237.367 81.4952 215.837 59.9512 189.28 59.9512C162.722 59.9512 141.193 81.4952 141.193 108.071C141.193 134.647 162.722 156.191 189.28 156.191Z" fill="#C6CADC" fill-opacity="0.5"/>
<path d="M204.003 89.8892C204.003 98.0376 197.402 106.834 189.261 106.834C181.119 106.834 174.518 98.0376 174.518 89.8892C174.518 81.7408 181.118 75.9609 189.261 75.9609C197.404 75.9609 204.003 81.7473 204.003 89.8892Z" fill="white"/>
<path d="M170.972 138.209H206.961C208.807 138.209 210.606 137.622 212.097 136.533C213.589 135.443 214.695 133.908 215.258 132.148L217.196 126.09C218.613 121.656 216.308 116.855 211.938 115.255C197.29 109.896 182.147 110.584 166.632 115.75C162.286 117.191 159.873 121.85 161.072 126.272L162.563 131.775C163.065 133.622 164.16 135.253 165.679 136.416C167.199 137.579 169.059 138.209 170.972 138.209Z" fill="white"/>
<path d="M308.703 160.229C308.703 160.229 231.872 92.9037 269.378 68.4074C306.885 43.9112 357.402 71.1585 351.112 105.789C344.822 140.42 281.284 114.965 308.703 160.229Z" fill="#D1E5EB"/>
<path d="M307.239 116.311L301.416 108.522C301.331 108.408 301.225 108.313 301.102 108.241C300.979 108.17 300.843 108.124 300.703 108.107C300.562 108.09 300.419 108.102 300.283 108.141C300.147 108.181 300.02 108.248 299.911 108.338C299.62 108.577 299.267 108.855 298.878 109.135C298.833 109.167 298.803 109.215 298.793 109.269C298.783 109.323 298.794 109.379 298.824 109.424L305.577 119.694C305.595 119.721 305.619 119.744 305.647 119.76C305.676 119.777 305.707 119.787 305.74 119.789C305.773 119.791 305.806 119.786 305.836 119.773C305.866 119.76 305.893 119.741 305.914 119.716C306.535 119.008 307.031 118.199 307.382 117.325C307.447 117.158 307.468 116.977 307.443 116.8C307.418 116.622 307.348 116.454 307.239 116.311Z" fill="white"/>
<path d="M289.072 92.531C289.075 92.5363 289.079 92.5404 289.085 92.5428C289.09 92.5452 289.097 92.5456 289.102 92.5441C289.822 92.3371 290.51 92.1511 291.066 92.0201C291.217 91.9826 291.357 91.912 291.477 91.8134C291.598 91.7149 291.694 91.5908 291.761 91.4502C291.827 91.3097 291.861 91.1561 291.861 91.0006C291.86 90.8452 291.825 90.6918 291.759 90.5515L287.012 80.5127C286.897 80.2692 286.694 80.079 286.443 79.9815C286.193 79.8839 285.915 79.8865 285.666 79.9887C285.189 80.1839 284.561 80.4603 283.854 80.8166C283.811 80.8386 283.778 80.8764 283.762 80.922C283.746 80.9677 283.749 81.0177 283.769 81.0616L289.072 92.531Z" fill="white"/>
<path d="M297.668 109.954C297.667 109.952 297.665 109.949 297.662 109.947C297.659 109.945 297.657 109.944 297.653 109.943C297.65 109.942 297.647 109.942 297.644 109.942C297.64 109.943 297.637 109.944 297.634 109.945C296.478 110.617 295.245 111.069 294.414 110.645C292.412 109.624 283.548 94.7464 285.765 93.7141C286.386 93.4357 287.022 93.1925 287.671 92.9857C287.695 92.9771 287.718 92.9635 287.737 92.9457C287.756 92.9278 287.772 92.9062 287.782 92.8822C287.793 92.8584 287.799 92.8324 287.799 92.8062C287.799 92.78 287.793 92.754 287.782 92.7302L282.67 81.6841C282.659 81.6603 282.643 81.6391 282.624 81.622C282.604 81.6048 282.581 81.592 282.556 81.5845C282.531 81.5769 282.505 81.5744 282.48 81.5774C282.454 81.5803 282.429 81.5885 282.407 81.6015C279.353 83.4028 275.806 86.4329 276.182 90.6722C276.836 97.9952 286.189 120.803 295.985 122.44C300.164 123.139 302.885 122.206 304.625 120.906C304.669 120.874 304.698 120.826 304.708 120.773C304.717 120.72 304.706 120.665 304.676 120.619L297.668 109.954Z" fill="white"/>
<path d="M304.209 89.2348C306.251 90.5537 307.687 92.6291 308.203 95.0061C308.718 97.383 308.271 99.8674 306.958 101.915C306.788 102.177 306.606 102.429 306.415 102.669C306.354 102.743 306.311 102.83 306.289 102.924C306.267 103.017 306.266 103.114 306.288 103.208C306.309 103.301 306.352 103.388 306.413 103.463C306.473 103.537 306.55 103.596 306.638 103.636L307.868 104.191C307.999 104.249 308.145 104.261 308.283 104.225C308.421 104.188 308.542 104.106 308.627 103.991C308.795 103.768 308.957 103.538 309.11 103.299C310.789 100.68 311.36 97.5017 310.7 94.4613C310.04 91.4209 308.201 88.7668 305.588 87.0811C305.18 86.8193 304.757 86.5835 304.32 86.375C304.244 86.3381 304.161 86.3171 304.077 86.3132C303.992 86.3093 303.907 86.3226 303.828 86.3524C303.749 86.3821 303.676 86.4277 303.615 86.4863C303.554 86.5449 303.505 86.6154 303.472 86.6934L302.956 87.9038C302.893 88.0511 302.89 88.2169 302.946 88.3668C303.002 88.5167 303.114 88.639 303.259 88.7082C303.586 88.8641 303.903 89.04 304.209 89.2348Z" fill="white"/>
<path d="M307.783 83.6715C311.3 85.9396 313.774 89.5109 314.663 93.6019C315.551 97.693 314.782 101.97 312.524 105.494C312.474 105.569 312.442 105.653 312.429 105.742C312.415 105.831 312.421 105.921 312.446 106.007C312.471 106.093 312.514 106.173 312.573 106.24C312.631 106.308 312.704 106.362 312.785 106.399L313.992 106.943L314.786 106.708C320.118 98.2155 317.624 86.9492 309.172 81.5126C308.445 81.0457 307.686 80.6311 306.9 80.272C306.824 80.2385 306.743 80.2205 306.66 80.2189C306.578 80.2173 306.495 80.2321 306.419 80.2626C306.342 80.2931 306.272 80.3386 306.213 80.3964C306.154 80.4543 306.107 80.5233 306.075 80.5995L305.56 81.8073C305.497 81.9553 305.493 82.1223 305.55 82.273C305.607 82.4237 305.721 82.5461 305.867 82.6143C306.529 82.9223 307.17 83.2755 307.783 83.6715Z" fill="white"/>
<path d="M311.359 78.107C321.473 84.6139 324.594 97.9592 318.58 108.251C318.535 108.326 318.506 108.411 318.496 108.498C318.486 108.586 318.494 108.674 318.52 108.758C318.546 108.842 318.59 108.92 318.648 108.986C318.706 109.052 318.778 109.105 318.858 109.142L320.056 109.681C320.196 109.745 320.356 109.754 320.503 109.708C320.65 109.661 320.775 109.562 320.853 109.429C327.465 97.9762 323.976 83.1808 312.736 75.9533C311.696 75.2856 310.608 74.6966 309.481 74.1913C309.405 74.1581 309.323 74.1402 309.241 74.1388C309.158 74.1373 309.076 74.1523 308.999 74.1829C308.922 74.2135 308.852 74.2591 308.793 74.317C308.734 74.3749 308.687 74.4439 308.654 74.5202L308.141 75.728C308.077 75.8789 308.075 76.049 308.136 76.2013C308.196 76.3536 308.315 76.4759 308.465 76.5415C309.467 76.9906 310.435 77.5139 311.359 78.107Z" fill="white"/>
<path d="M279.276 162.819C279.342 162.695 279.442 162.594 279.565 162.529C279.688 162.463 279.828 162.436 279.967 162.451C280.105 162.466 280.236 162.522 280.343 162.612C280.45 162.702 280.527 162.822 280.564 162.956C281.189 165.205 282.701 169.132 285.872 170.526C286.033 170.596 286.183 170.667 286.33 170.738C286.415 170.496 286.441 170.238 286.406 169.984C286.372 169.73 286.277 169.488 286.131 169.278C285.145 167.771 286.925 165.71 286.925 165.71C286.925 165.71 287.043 167.524 288.42 168.667C289.608 169.65 290.177 171.839 289.367 173.636C287.649 180.309 285.08 189.134 295.093 195.582C305.106 202.03 319.208 183.414 319.208 183.414L312.21 205.619C312.21 205.619 301.406 213.595 288.839 202.378C276.273 191.16 284.603 174.836 284.603 174.836C284.603 174.836 275.018 170.967 279.276 162.819Z" fill="#E8C6A7"/>
<path d="M320.492 152.499C320.492 152.499 316.837 137.12 331.12 142.195C331.12 142.195 337.85 141.331 338.681 149.319C338.681 149.319 343.292 153.234 340.494 159.882C340.494 159.882 353.169 154.624 359.719 169.219C366.268 183.814 361.515 191.213 356.158 192.829C356.158 192.829 360.766 195.924 359.038 202C357.31 208.075 346.939 211.664 340.187 203.61C340.187 203.61 322.474 205.182 321.88 189.57C321.88 189.57 313.153 182.289 321.106 170.019C329.059 157.749 320.492 152.499 320.492 152.499Z" fill="#333333"/>
<path d="M320.142 180.974C323.139 180.076 331.86 178.417 340.156 186.083C340.847 186.72 341.35 187.534 341.611 188.438C341.872 189.341 341.88 190.298 341.635 191.206C339.41 199.414 333.528 223.667 338.683 234.161C338.683 234.161 329.599 244.182 319.689 236.105C319.689 236.105 315.238 216.717 309.419 208.202C305.397 202.324 315.834 186.13 318.47 182.219C318.867 181.623 319.458 181.183 320.142 180.974Z" fill="#E56A59"/>
<path d="M328.413 164.672C328.413 164.672 332.843 177.211 333.177 182.742C333.177 182.742 328.281 184.97 323.666 181.211C323.666 181.211 323.183 168.686 322.488 166.443L328.413 164.672Z" fill="#E8C6A7"/>
<path d="M322.26 147.569C322.26 147.569 310.673 163.797 317.6 168.509C324.527 173.221 332.774 161.697 332.774 161.697C332.774 161.697 335.463 152.815 332.651 149.802C329.839 146.789 322.26 147.569 322.26 147.569Z" fill="#E8C6A7"/>
<path d="M327.623 143.693C327.623 143.693 322.3 144.955 321.555 147.361C320.81 149.766 329.103 152.006 331.427 152.116L333.299 161.84C333.299 161.84 338.835 152.692 336.643 147.408C334.45 142.123 327.623 143.693 327.623 143.693Z" fill="#333333"/>
<path d="M330.527 160.497C330.527 160.497 335.037 155.272 336.832 158.679C338.627 162.086 332.774 164.644 330.746 162.971L330.527 160.497Z" fill="#E8C6A7"/>
<path d="M308.12 276.818C308.154 277.699 306.61 284.679 305.764 288.407C305.424 289.904 305.657 291.474 306.419 292.807L335.531 341.84C335.889 342.434 336.152 343.079 336.312 343.753C336.846 346.053 337.953 351.693 337.375 356.823L335.869 359.953L342.383 358.474L343.799 340.969L341.956 339.844C340.363 338.873 339.122 337.418 338.412 335.692C335.779 329.293 329.248 313.005 327.557 305.067C325.642 296.044 315.631 288.717 315.631 288.717L317.389 284.555L308.12 276.818Z" fill="#E8C6A7"/>
<path d="M349.615 352.445C349.615 352.445 346.098 346.865 345.687 344.693C345.276 342.52 344.116 338.685 341.954 339.839C341.954 339.839 340.931 350.391 341.283 354.511C341.636 358.631 336.626 358.502 336.626 358.502C336.626 358.502 335.246 358.697 334.234 359.708C333.536 360.406 334.035 361.618 335.019 361.682C336.658 361.789 339.263 361.813 341.997 361.289C342.461 361.199 342.882 360.957 343.193 360.601C343.505 360.246 343.69 359.797 343.72 359.324L344.441 347.179L348.878 352.786L349.615 352.445Z" fill="#333333"/>
<path d="M325.512 284.628C325.512 284.628 326.539 328.488 326.678 334.716C326.816 340.944 325.696 354.75 319.455 358.877L322.174 360.888C322.174 360.888 325.567 358.006 328.883 352.447C332.607 346.207 333.734 345.068 333.734 345.068L332.498 342.534C331.956 341.427 331.797 340.171 332.046 338.963C333.393 332.432 337.891 310.708 339.115 306.03C340.563 300.507 340.667 293.133 335.627 286.96C330.587 280.787 325.512 284.628 325.512 284.628Z" fill="#E8C6A7"/>
<path d="M331.276 362.865C331.369 362.867 331.46 362.834 331.531 362.773C331.602 362.713 331.648 362.629 331.661 362.536C331.869 361.074 332.733 355.212 333.44 353.695C334.25 351.956 336.897 344.64 333.44 344.018C333.44 344.018 324.842 356.594 323.191 358.285C321.54 359.976 319.457 358.877 319.457 358.877C318.344 359.271 317.365 359.974 316.636 360.904C316.507 361.072 316.427 361.273 316.406 361.484C316.385 361.696 316.423 361.909 316.516 362.099C316.609 362.29 316.754 362.451 316.934 362.563C317.113 362.676 317.321 362.737 317.533 362.738L323.324 362.793C324.147 362.801 324.953 362.559 325.635 362.1C326.318 361.64 326.846 360.985 327.15 360.22C328.168 357.672 329.92 353.932 331.961 352.276L330.9 362.439C330.895 362.493 330.9 362.547 330.917 362.598C330.933 362.649 330.96 362.697 330.996 362.737C331.032 362.777 331.076 362.809 331.125 362.831C331.174 362.853 331.228 362.865 331.281 362.865H331.276Z" fill="#333333"/>
<path d="M318.32 231.374C318.32 231.374 319.629 235.537 317.62 242.393L305.183 285.859C305.089 286.188 305.123 286.54 305.279 286.844C305.435 287.148 305.702 287.382 306.024 287.496C309.744 288.833 321.975 292.606 338.672 291.458C339.08 291.432 339.47 291.274 339.781 291.008C340.093 290.741 340.31 290.381 340.4 289.982C341.499 285.026 345.253 268.12 346.029 264.646C348.973 251.414 352.262 237.135 337.797 228.502C331.126 231.354 324.909 233.044 318.32 231.374Z" fill="#333333"/>
<path d="M341.342 187.716C341.342 187.716 355.495 199.485 359.007 215.568C362.52 231.652 338.323 233.36 338.323 233.36C338.323 233.36 335.038 229.692 331.14 231.002C327.241 232.312 330.838 224.596 335.4 224.617C339.962 224.638 337.848 228.247 344.302 225.322C350.586 222.472 354.474 213.662 338.434 200.3C337.499 199.531 336.771 198.54 336.316 197.418C333.203 189.562 335.675 184.416 341.342 187.716Z" fill="#E8C6A7"/>
<path d="M273.545 233.681C273.579 232.433 271.913 231.967 271.301 233.055C265.38 243.573 248.991 270.666 230.992 282.769C201.683 302.476 176.249 339.886 185.854 364.837C185.854 364.837 269.844 369.679 273.545 233.681Z" fill="#7ABED1" fill-opacity="0.5"/>
<path opacity="0.43" d="M267.394 249.25C267.275 249.614 267.148 249.905 267.026 250.219L266.645 251.147L265.86 252.991C265.336 254.218 264.781 255.435 264.232 256.652C263.128 259.082 261.993 261.499 260.829 263.903C258.505 268.709 256.049 273.452 253.524 278.157C250.999 282.863 248.354 287.503 245.605 292.083C242.856 296.663 240.033 301.199 237.067 305.644C231.152 314.543 224.745 323.127 217.759 331.224C214.224 335.234 210.581 339.154 206.719 342.853C202.831 346.521 198.786 350.029 194.502 353.223C194.479 353.241 194.453 353.254 194.425 353.262C194.398 353.27 194.368 353.272 194.34 353.268C194.311 353.265 194.283 353.256 194.258 353.241C194.233 353.227 194.211 353.208 194.193 353.185C194.175 353.162 194.162 353.136 194.154 353.108C194.147 353.081 194.145 353.051 194.148 353.023C194.152 352.994 194.161 352.966 194.175 352.941C194.189 352.916 194.208 352.894 194.231 352.876C198.36 349.523 202.315 345.96 206.08 342.202C209.857 338.459 213.411 334.5 216.861 330.454C220.31 326.407 223.592 322.219 226.778 317.961C229.965 313.704 232.973 309.315 235.958 304.907C241.891 296.069 247.347 286.917 252.552 277.627C255.145 272.974 257.647 268.273 260.059 263.522C261.27 261.15 262.458 258.767 263.621 256.37L265.333 252.76L266.171 250.948L266.58 250.031C266.711 249.731 266.852 249.41 266.953 249.145L266.971 249.098C266.981 249.071 266.996 249.046 267.015 249.024C267.035 249.003 267.058 248.986 267.084 248.973C267.111 248.961 267.139 248.954 267.168 248.953C267.197 248.952 267.226 248.957 267.253 248.967C267.281 248.976 267.307 248.99 267.329 249.01C267.352 249.029 267.37 249.052 267.383 249.079C267.396 249.105 267.404 249.134 267.406 249.163C267.408 249.193 267.404 249.222 267.394 249.25Z" fill="white"/>
<path d="M214.064 254.094C213.826 253.197 212.541 253.216 212.335 254.12C210.326 262.861 204.349 285.615 194.066 298.027C177.327 318.24 167.072 350.252 179.16 366.003C179.16 366.003 240.02 351.771 214.064 254.094Z" fill="#7ABED1" fill-opacity="0.5"/>
<path opacity="0.43" d="M213.012 266.478C213.005 266.775 212.977 267.002 212.958 267.264L212.885 268.005L212.724 269.487C212.609 270.472 212.478 271.452 212.347 272.44C212.079 274.405 211.788 276.367 211.474 278.327C210.841 282.245 210.097 286.144 209.297 290.032C208.497 293.92 207.595 297.787 206.599 301.632C205.602 305.477 204.551 309.306 203.374 313.102C201.048 320.706 198.241 328.155 194.971 335.404C193.282 339.004 191.499 342.562 189.513 346.015C187.496 349.442 185.337 352.789 182.932 355.953C182.898 356 182.845 356.031 182.788 356.04C182.73 356.049 182.671 356.035 182.623 356C182.576 355.965 182.545 355.913 182.536 355.855C182.527 355.797 182.541 355.738 182.576 355.691C187.027 349.155 190.731 342.154 193.894 334.923C195.488 331.312 196.946 327.642 198.316 323.938C199.685 320.235 200.897 316.471 202.104 312.711C204.482 305.173 206.438 297.507 208.217 289.8C209.095 285.945 209.9 282.073 210.629 278.183C211.002 276.24 211.355 274.294 211.688 272.343L212.161 269.413L212.385 267.947L212.488 267.215C212.518 266.975 212.555 266.712 212.572 266.514V266.463C212.575 266.406 212.601 266.352 212.644 266.313C212.688 266.275 212.744 266.255 212.802 266.258C212.859 266.261 212.913 266.288 212.952 266.331C212.99 266.374 213.01 266.43 213.007 266.488L213.012 266.478Z" fill="white"/>
<rect x="132" y="188" width="116" height="8" fill="#C6CADC" fill-opacity="0.3"/>
<rect x="117" y="203" width="146" height="7" fill="#C6CADC" fill-opacity="0.3"/>
</g>
<defs>
<clipPath id="clip0">
<rect width="366" height="366" fill="white"/>
</clipPath>
</defs>
</svg>
