<svg id="Layer_1" data-name="Layer 1" xmlns="http://www.w3.org/2000/svg" xmlns:xlink="http://www.w3.org/1999/xlink" viewBox="0 0 22 22"><defs><style>.cls-1{fill:#f2f2f2;}.cls-2{fill:none;}.cls-3{clip-path:url(#clip-path);}.cls-4{mask:url(#mask);}.cls-5{opacity:0.9;}.cls-6{fill:#fff;}.cls-7{fill:#d6d5d5;}</style><clipPath id="clip-path"><rect class="cls-2" width="22" height="22"/></clipPath><mask id="mask" x="-7.95" y="0" width="38.44" height="47.05" maskUnits="userSpaceOnUse"><g id="mask0"><circle class="cls-1" cx="11" cy="11" r="11"/></g></mask></defs><g class="cls-3"><rect class="cls-1" width="22" height="22"/><g class="cls-4"><g class="cls-5"><path class="cls-6" d="M8.5,12.82A26.91,26.91,0,0,1,8,17.42L4.77,19.67,16.9,21.49l-2.89-4s-.88-4.26-.42-5.84S8.5,12.82,8.5,12.82Z"/><path class="cls-7" d="M7.4,12.57a28.4,28.4,0,0,0-1-3.79C6,7.9,5.67,4,10.18,3.76a5.19,5.19,0,0,0,2.68-.38s0,.58-.24.79a3,3,0,0,1,1.52.12,3,3,0,0,1,1.26.86c1.22,1.36-.81,6.11-.71,7.22Z"/><path class="cls-6" d="M11,15.81c-1.3,0-3.72-1.77-3.72-3.93V8.51A1.34,1.34,0,0,1,8.54,7.08h5a1.34,1.34,0,0,1,1.22,1.43v3.18A4.35,4.35,0,0,1,11,15.81Z"/><path class="cls-7" d="M7.32,10.31s0-2,1.61-2.33,5.19,1,5.7-.49S7.7,6,7.32,7A9.62,9.62,0,0,0,7.32,10.31Z"/><path class="cls-7" d="M20.12,46.12a56.76,56.76,0,0,1-9.21.93,44.92,44.92,0,0,1-5.66-.43c-1.84-.25-3.15-.5-3.15-.5s-1,.08-.4-4.74A67.22,67.22,0,0,0,1.9,31c0-.38,0-.82,0-1.32.19-4,1.39-11.12,2.3-11.5A16.58,16.58,0,0,1,8,17.43s1.4,2.08,3,2.31a5.7,5.7,0,0,0,3-2.25,33.48,33.48,0,0,1,4.65.9s.17.75.82,13.89C19.73,37.48,21.51,46.13,20.12,46.12Z"/><path class="cls-7" d="M-2.65,33.3c-.22.68.38,1.6,1,2.9,1.22,2.66,3.24,6.58,3.24,6.58A12.29,12.29,0,0,1,1,44.58,42.91,42.91,0,0,1-6,37.9c-2-2.45-2.12-4.92-1.76-6C-3.43,19.08,4.48,18.09,4.48,18.09L3.85,28.26S-2.2,31.89-2.65,33.3Z"/><path class="cls-6" d="M30.48,33.79c0,.8-.13,2.51-2.09,5a43.18,43.18,0,0,1-7,6.68,11.49,11.49,0,0,1-.62-1.79S22.82,39.7,24,37c.59-1.29,1-1.9.87-2.38-.43-1.55-4.08-3.71-5.61-4.87a8.57,8.57,0,0,1-.79-.68l.15-9.88A8,8,0,0,1,21.9,21C26.93,26,30.33,30.05,30.48,33.79Z"/></g></g></g></svg>