<svg width="561" height="362" viewBox="0 0 561 362" fill="none" xmlns="http://www.w3.org/2000/svg">
<path opacity="0.2" fill-rule="evenodd" clip-rule="evenodd" d="M441.273 256.528C459.853 323.871 456.878 401.578 413.533 455.947C371.492 508.678 297.598 515.456 230.489 520.913C170.164 525.819 109.046 519.749 59.3792 484.745C9.10566 449.313 -25.344 367.196 -41.7219 307.762C-60.6299 239.146 -28.6156 198.805 7.34778 137.698C45.2646 73.2725 73.861 24.5415 148.416 22.5236C216.551 20.6795 267.083 76.2241 320.553 118.948C370.055 158.502 424.387 195.326 441.273 256.528Z" stroke="#D0D3D5" stroke-width="3"/>
<path fill-rule="evenodd" clip-rule="evenodd" d="M-51.1753 426.14C-95.8019 371.346 -57.6115 304.182 -37.0973 237.022C-18.8866 177.403 75.893 197.586 125.49 159.145C175.702 120.227 182.097 65.4041 246.021 64.2884C315.586 63.0742 387.177 100.221 422.352 159.556C455.171 214.915 420.105 280.574 411.897 344.093C403.723 407.351 393.737 450.803 347.254 495.011C298.384 541.489 201.787 540.595 133.187 526.343C63.2149 519.345 -7.0703 480.293 -51.1753 426.14Z" fill="#7ABED1" fill-opacity="0.15"/>
<path opacity="0.4" fill-rule="evenodd" clip-rule="evenodd" d="M346.637 513.58C290.397 553.478 213.898 561.5 149.585 539.517C92.4925 520.002 73.6081 456.728 39.1209 408.468C4.20622 359.61 -52.9388 320.373 -50.1024 260.083C-47.0157 194.472 -6.35009 128.465 53.7435 97.6541C109.81 68.9076 171.765 104.546 233.279 114.787C294.541 124.986 366.85 110.94 407.159 156.492C449.538 204.383 442.657 275.756 431.897 339.239C420.767 404.909 402.219 474.149 346.637 513.58Z" fill="#7ABED1" fill-opacity="0.15"/>
<path opacity="0.2" fill-rule="evenodd" clip-rule="evenodd" d="M289.401 47.5682C357.728 62.1169 425.319 100.571 453.591 164.097C481.011 225.709 452.969 294.412 426.882 356.483C403.433 412.279 369.877 463.722 315.922 491.665C261.307 519.951 172.554 512.676 112.26 499.818C42.6518 484.974 21.6064 437.969 -16.048 377.89C-55.7477 314.547 -85.8144 266.709 -53.2434 199.615C-23.4772 138.298 49.1063 119.053 111.666 91.2924C169.583 65.5919 227.304 34.3463 289.401 47.5682Z" stroke="#B3BECB" stroke-width="3"/>
<path d="M355.587 96.3017C351.298 95.4937 347.288 88.3479 345.896 85.6083C345.552 84.9381 345.441 84.1735 345.579 83.4336L347.285 74.413C347.285 74.413 351.222 75.0821 350.928 80.3247C350.905 80.8694 350.999 81.4128 351.203 81.9186L352.71 85.8513L357.166 82.411L354.723 75.5271C354.723 75.5271 351.453 76.4235 349.763 75.887C346.282 74.7823 350.843 72.0994 352.295 71.7996C353.748 71.4997 356.894 70.3666 358.334 72.8033C359.774 75.2399 360.635 76.676 360.635 76.676C360.635 76.676 362.217 71.2283 361.138 59.0388C361.088 58.4927 362.467 58.5022 362.854 58.8967C364.012 60.0709 365.854 63.6311 365.952 74.5234C365.952 74.5234 366.145 61.851 368.326 60.5443C370.123 59.4712 371.029 65.6733 369.763 76.1963C369.763 76.1963 372.111 67.0841 373.788 67.0683C376.637 67.0431 373.826 91.3969 366.705 98.6563L355.587 96.3017Z" fill="#E8C6A7"/>
<path d="M368.88 91.9805C368.753 93.2139 368.613 94.4088 368.46 95.5652C368.025 99.2367 367.396 102.882 366.576 106.486C366.538 106.641 366.512 106.782 366.474 106.923C364.297 115.917 363.902 120.337 356.467 119.155L348.828 110.367L348.752 110.277L348.191 109.634L349.745 105.009L349.948 104.405L351.094 101.039L351.234 100.602L353.195 94.82L353.984 92.4687L368.88 91.9805Z" fill="#E8C6A7"/>
<path d="M283.463 99.838L261.439 99.9889V67.2871H282.797L282.81 69.287L282.912 79.6509L283.066 96.2911L283.463 99.838Z" fill="#E8C6A7"/>
<path d="M282.792 81.1421C278.824 85.0206 268.472 80.6409 264.105 76.3687L282.689 71.2969L282.792 81.1421Z" fill="#D0AE8F"/>
<path d="M287.463 59.6106C287.469 62.1389 287.281 64.6636 286.9 67.1612C285.849 73.9373 283.072 79.7713 276.666 79.952C261.526 80.4037 257.209 71.4721 254.356 64.1668C251.504 56.8615 256.133 39.2564 256.133 39.2564L275.727 37.2559L286.488 46.3552C287.157 50.7396 287.483 55.1723 287.463 59.6106Z" fill="#E8C6A7"/>
<path d="M254.651 59.9475C254.651 59.9475 259.035 59.7449 259.784 48.461C267.623 51.0762 273.35 48.6922 277.88 43.4872C281.76 48.5877 292.601 50.1834 296.262 39.7417C298.909 32.1843 291.607 20.9543 280.972 27.7518C270.55 22.5025 254.74 22.8603 250.178 35.743C250.178 35.743 234.361 43.0249 251.108 59.0262C251.457 59.3586 254.651 59.9475 254.651 59.9475Z" fill="#2D3133"/>
<path d="M314.824 218.783L302.875 400.979H274.781L281.806 224.185L286.102 222.175L314.824 218.783Z" fill="#2D3133"/>
<path d="M241.327 193.621L221.391 400.982H252.356L281.833 228.747L315.344 218.59L316.826 181.773L242.177 180.078L241.327 193.621Z" fill="#2D3133"/>
<path opacity="0.6" d="M245.665 194.459C262.49 200.536 301.959 193.59 310.155 185.125L304.332 173.402L239.412 182.087L245.665 194.459Z" fill="#25292A"/>
<path d="M308.82 182.54C308.279 182.769 307.725 183.011 307.159 183.227C300.391 186.011 293.373 188.126 286.203 189.544C281.568 190.475 276.872 191.058 272.153 191.289C264.751 191.709 257.328 191.1 250.09 189.481L259.461 101.02L260.606 90.2326C260.606 90.2326 272.87 105.515 286.392 88.6406L308.82 182.54Z" fill="white"/>
<path opacity="0.3" d="M271.975 191.291C264.633 191.712 257.27 191.102 250.09 189.48L259.386 100.898L262.705 95.9844C270.902 116.389 279.3 161.5 271.975 191.291Z" fill="#C9C9C9"/>
<path d="M261.645 86.6426C271.047 126.528 274.916 167.571 261.061 213.147C250.79 217.053 239.607 217.009 227.638 213.572L230.598 130.713L160.895 178.588L156.662 152.485C183.466 126.886 229.795 88.212 261.645 86.6426Z" fill="#E56A59"/>
<path opacity="0.3" d="M307.49 183.083C300.729 185.876 293.719 187.999 286.556 189.422C282.397 165.165 281.48 125.316 284.86 107.334L307.49 183.083Z" fill="#C9C9C9"/>
<path opacity="0.6" d="M366.885 106.526C366.846 106.679 366.82 106.82 366.782 106.961C364.581 115.929 364.182 120.336 356.665 119.157L348.942 110.395L348.865 110.305L349.869 105.052L350.075 104.45L351.233 101.094L351.375 100.658L366.885 106.526Z" fill="#D0AE8F"/>
<path d="M364.885 114.697C364.885 114.697 346.311 154.366 335.292 155.318C324.611 156.241 319.552 145.797 319.552 145.797L327.107 203.771C318.229 207.96 308.533 210.004 297.3 207.998C287.314 175.311 283.54 133.046 282.797 85.9766C290.881 86.4843 306.893 87.1825 312.626 90.8955C322.908 97.5599 335.607 121.361 335.607 121.361L350.404 101.051L364.885 114.697Z" fill="#E56A59"/>
<path d="M257.081 58.0741C256.888 57.3743 253.691 56.4109 252.983 56.2189C251.896 55.9194 250.707 55.773 249.642 56.2482C245.774 57.9862 246.292 63.49 248.296 66.3835C249.425 68.0427 251.098 69.2619 253.029 69.8336C253.73 70.0354 260.386 70.1135 260.094 69.0492C260.091 69.0459 257.087 58.0969 257.081 58.0741Z" fill="#E8C6A7"/>
<path d="M139.325 166.105C139.1 165.374 138.725 164.695 138.224 164.108C137.724 163.52 137.106 163.037 136.409 162.687C135.712 162.337 134.95 162.127 134.168 162.069C133.386 162.011 132.6 162.107 131.857 162.352C126.965 163.995 122.703 166.783 122.046 171.528C121.445 175.847 123.663 189.646 133.582 191.418L132.77 184.329C132.77 184.329 138.842 182.948 140.058 180.39C140.906 178.597 140.965 171.112 139.325 166.105Z" fill="#F9B384"/>
<path d="M316.643 118.68C317.141 121.659 317.565 124.648 317.973 127.64C318.381 130.633 318.729 133.637 319.109 136.626L320.081 145.631C320.367 148.636 320.643 151.644 320.828 154.662L320.338 154.718C319.827 151.739 319.397 148.75 318.993 145.758L317.876 136.772C317.562 133.77 317.195 130.775 316.919 127.767C316.643 124.759 316.357 121.77 316.156 118.737L316.643 118.68Z" fill="#D65241"/>
<path d="M231.404 118.034C231.404 121.433 231.305 124.826 231.192 128.219C231.079 131.612 230.906 135.005 230.768 138.397L230.154 148.566C229.903 151.953 229.649 155.339 229.285 158.722L228.734 158.7C228.734 155.3 228.819 151.904 228.922 148.512L229.37 138.336C229.582 134.947 229.744 131.557 230.002 128.168C230.26 124.778 230.507 121.395 230.853 118.012L231.404 118.034Z" fill="#D65241"/>
<path d="M272.781 69.2891C274.971 72.63 277.877 72.9937 280.122 69.4755L272.781 69.2891Z" fill="white"/>
<path d="M217.37 268.873L123.347 343.185L24.29 217.809L24.2855 217.809L-17.4497 164.985L76.5741 90.672L154.505 189.309L217.37 268.873Z" fill="#CBD5CE" fill-opacity="0.5"/>
<path d="M223.552 315.843L104.471 329.357L86.4814 170.587L86.4775 170.585L78.8979 103.691L197.978 90.1767L212.132 215.085L223.552 315.843Z" fill="#CBD5CE" fill-opacity="0.5"/>
<path d="M72.2592 106.824L-0.736979 164.516L125.806 324.687L198.811 266.994L72.2592 106.824ZM120.961 313.972L8.66047 171.796C7.2296 169.983 6.57655 167.677 6.84474 165.383C7.11295 163.089 8.28049 160.995 10.0909 159.562L64.9065 116.24C65.8107 115.525 66.847 114.995 67.9561 114.68C69.0653 114.366 70.2255 114.273 71.3706 114.407C72.5156 114.541 73.623 114.899 74.6296 115.461C75.6361 116.024 76.522 116.779 77.2367 117.683L189.483 259.756C190.897 261.55 191.542 263.832 191.276 266.102C191.009 268.371 189.854 270.442 188.063 271.86L133.013 315.373C131.229 316.785 128.957 317.431 126.697 317.168C124.437 316.906 122.374 315.756 120.961 313.972Z" fill="#CBD5CE" fill-opacity="0.7"/>
<path d="M185.796 101.623L93.3472 112.114L116.326 314.944L208.783 304.457L185.796 101.623ZM117.865 303.285L97.4891 123.256C97.2301 120.961 97.8923 118.658 99.3305 116.851C100.769 115.044 102.865 113.881 105.159 113.619L174.582 105.742C175.727 105.611 176.887 105.708 177.996 106.026C179.104 106.344 180.138 106.877 181.04 107.595C181.942 108.313 182.694 109.202 183.252 110.211C183.81 111.22 184.165 112.328 184.294 113.474L204.678 293.386C204.933 295.656 204.277 297.935 202.853 299.722C201.43 301.509 199.356 302.659 197.086 302.919L127.363 310.834C125.103 311.092 122.832 310.442 121.051 309.027C119.269 307.611 118.123 305.546 117.865 303.285Z" fill="#CBD5CE" fill-opacity="0.7"/>
<path d="M79.3947 231.3C76.3249 227.415 74.4759 222.707 74.0816 217.771C73.6872 212.834 74.7652 207.892 77.1792 203.569C79.5932 199.246 83.2348 195.735 87.6435 193.482C92.0522 191.229 97.03 190.334 101.947 190.91C106.865 191.486 111.501 193.508 115.27 196.719C119.038 199.931 121.77 204.188 123.12 208.952C124.47 213.716 124.377 218.774 122.852 223.485C121.328 228.197 118.441 232.35 114.557 235.42C111.978 237.459 109.022 238.97 105.859 239.866C102.696 240.762 99.3878 241.027 96.1227 240.644C92.8576 240.261 89.6998 239.239 86.8296 237.636C83.9594 236.033 81.433 233.88 79.3947 231.3Z" fill="#CBD5CE"/>
<path d="M121.049 214.375C121.263 209.428 122.939 204.655 125.865 200.66C128.791 196.666 132.836 193.628 137.488 191.932C142.14 190.236 147.191 189.957 152.001 191.131C156.811 192.306 161.164 194.88 164.511 198.529C167.857 202.177 170.046 206.737 170.802 211.63C171.557 216.524 170.844 221.532 168.753 226.021C166.663 230.509 163.288 234.278 159.056 236.849C154.824 239.42 149.925 240.679 144.978 240.465C141.694 240.324 138.469 239.537 135.489 238.149C132.509 236.761 129.831 234.8 127.609 232.377C125.387 229.954 123.664 227.118 122.539 224.029C121.413 220.94 120.907 217.66 121.049 214.375Z" fill="#CBD5CE"/>
<path d="M261.047 381.968L150.868 409.446C137.565 412.697 124.056 404.758 120.999 392.253L57.2367 131.601C56.5088 128.626 56.4105 125.528 56.9474 122.483C57.4844 119.439 58.6462 116.507 60.3664 113.856C62.0865 111.205 64.3314 108.886 66.9727 107.033C69.6141 105.179 72.6001 103.826 75.7603 103.052L186.224 76.0097C192.604 74.4493 199.305 75.3381 204.853 78.4806C210.4 81.6231 214.341 86.762 215.809 92.7673L279.579 353.418C281.035 359.426 279.903 365.804 276.429 371.156C272.955 376.507 267.424 380.395 261.047 381.968Z" fill="#3B3B40"/>
<path d="M188.306 85.0398L166.891 90.2891C165.489 90.6652 164.285 91.5491 163.543 92.7472C162.802 93.9453 162.584 95.3597 162.937 96.6804L163.847 100.331C164.025 100.984 164.064 101.668 163.962 102.343C163.86 103.018 163.619 103.672 163.252 104.265C162.885 104.859 162.401 105.382 161.826 105.803C161.25 106.224 160.596 106.536 159.901 106.72L118.14 116.936C116.721 117.25 115.245 117.022 114.035 116.301C112.825 115.581 111.98 114.426 111.685 113.091L110.775 109.44C110.48 108.105 109.634 106.951 108.424 106.23C107.214 105.509 105.738 105.281 104.32 105.595L96.7959 107.472L78.0575 112.062C73.5967 113.157 69.7262 115.873 67.2954 119.614C64.8646 123.355 64.0721 127.816 65.0919 132.017L127.325 386.434C128.355 390.64 131.117 394.238 135.004 396.438C138.89 398.639 143.584 399.261 148.053 398.168L258.284 371.184C260.502 370.645 262.598 369.699 264.453 368.402C266.308 367.104 267.885 365.479 269.094 363.621C270.303 361.762 271.12 359.706 271.498 357.571C271.876 355.435 271.808 353.262 271.298 351.175L209.057 96.7605C208.547 94.6758 207.606 92.7185 206.287 91.0007C204.968 89.283 203.297 87.8384 201.369 86.7497C199.442 85.661 197.296 84.9496 195.054 84.6562C192.813 84.3628 190.519 84.4931 188.306 85.0398Z" fill="#FAFAFA"/>
<path d="M199.529 225.456C213.308 202.538 205.891 172.801 182.964 159.037C160.037 145.273 130.282 152.694 116.503 175.612C102.724 198.53 110.141 228.267 133.068 242.031C155.995 255.795 185.751 248.374 199.529 225.456Z" fill="#A3BC90" fill-opacity="0.3"/>
<path opacity="0.7" d="M116.241 191.649C116.174 191.665 116.105 191.666 116.038 191.651C115.924 191.624 115.826 191.552 115.764 191.452C115.702 191.352 115.681 191.231 115.706 191.116C119.291 174.829 131.449 162.234 147.437 158.247C149.978 157.613 152.571 157.212 155.186 157.049C155.303 157.042 155.418 157.082 155.507 157.161C155.595 157.239 155.649 157.35 155.657 157.468C155.665 157.587 155.626 157.703 155.549 157.792C155.472 157.881 155.363 157.935 155.246 157.942C152.679 158.1 150.133 158.492 147.639 159.113C139.992 160.997 133.031 165.009 127.539 170.699C122.047 176.389 118.241 183.53 116.551 191.32C116.534 191.398 116.496 191.47 116.441 191.528C116.387 191.586 116.318 191.628 116.241 191.649Z" fill="white"/>
<path d="M168.715 239.771C189.994 234.464 202.942 212.912 197.635 191.633C192.328 170.354 170.776 157.407 149.497 162.713C128.219 168.02 115.271 189.572 120.578 210.851C125.884 232.13 147.436 245.077 168.715 239.771Z" fill="white"/>
<path d="M163.493 219.727L130.67 191.297L138.292 184.946L157.343 201.447L168.91 150.05L178.968 150.942L163.493 219.727Z" fill="#A3BC90"/>
<rect x="134.965" y="280.15" width="85.3551" height="9.40353" transform="rotate(-14.0037 134.965 280.15)" fill="#C8D7E0" fill-opacity="0.76"/>
<rect x="121.441" y="303.65" width="122.969" height="3.61674" transform="rotate(-14.0037 121.441 303.65)" fill="#C8D7E0" fill-opacity="0.76"/>
<rect x="125.643" y="320.494" width="122.969" height="3.61674" transform="rotate(-14.0037 125.643 320.494)" fill="#C8D7E0" fill-opacity="0.76"/>
<rect x="123.545" y="312.072" width="122.969" height="3.61674" transform="rotate(-14.0037 123.545 312.072)" fill="#C8D7E0" fill-opacity="0.76"/>
<rect x="127.738" y="328.916" width="122.969" height="3.61674" transform="rotate(-14.0037 127.738 328.916)" fill="#C8D7E0" fill-opacity="0.76"/>
</svg>
