<svg width="575" height="361" viewBox="0 0 575 361" fill="none" xmlns="http://www.w3.org/2000/svg">
<path opacity="0.2" fill-rule="evenodd" clip-rule="evenodd" d="M445.15 245.414C465.248 318.258 462.03 402.313 415.144 461.123C369.669 518.162 289.738 525.494 217.147 531.397C151.895 536.703 85.7834 530.138 32.0595 492.274C-22.3208 453.948 -59.5847 365.122 -77.3005 300.833C-97.7531 226.612 -63.1235 182.976 -24.2223 116.877C16.7919 47.1882 47.7243 -5.52352 128.37 -7.70625C202.07 -9.70102 256.731 50.381 314.568 96.5954C368.114 139.38 426.884 179.212 445.15 245.414Z" stroke="#D0D3D5" stroke-width="3"/>
<path fill-rule="evenodd" clip-rule="evenodd" d="M-87.5251 428.875C-135.797 369.605 -94.4871 296.954 -72.2972 224.307C-52.5988 159.818 49.9233 181.65 103.572 140.068C157.886 97.9712 164.803 38.67 233.949 37.4631C309.197 36.1498 386.636 76.3308 424.685 140.513C460.184 200.394 422.254 271.417 413.376 340.125C404.534 408.551 393.732 455.552 343.451 503.372C290.59 553.647 186.101 552.679 111.898 537.263C36.2096 529.693 -39.8172 487.451 -87.5251 428.875Z" fill="#7ABED1" fill-opacity="0.15"/>
<path opacity="0.4" fill-rule="evenodd" clip-rule="evenodd" d="M342.781 523.456C281.947 566.613 199.199 575.291 129.632 551.512C67.8752 530.403 47.4482 461.96 10.1437 409.758C-27.6232 356.909 -89.4364 314.466 -86.3683 249.251C-83.0294 178.28 -39.0418 106.882 25.9608 73.5533C86.6074 42.4585 153.623 81.0077 220.163 92.0855C286.429 103.118 364.645 87.9241 408.247 137.198C454.088 189.001 446.645 266.204 435.006 334.873C422.966 405.908 402.904 480.804 342.781 523.456Z" fill="#7ABED1" fill-opacity="0.15"/>
<path opacity="0.2" fill-rule="evenodd" clip-rule="evenodd" d="M280.873 19.3806C354.782 35.1178 427.894 76.7137 458.476 145.428C488.136 212.074 457.803 286.389 429.585 353.531C404.22 413.884 367.923 469.53 309.56 499.756C250.484 530.352 154.481 522.483 89.2614 508.575C13.9671 492.517 -8.79753 441.674 -49.5279 376.686C-92.4707 308.169 -124.994 256.423 -89.7618 183.848C-57.564 117.523 20.9488 96.7049 88.619 66.6766C151.268 38.8766 213.704 5.07862 280.873 19.3806Z" stroke="#B3BECB" stroke-width="3"/>
<path d="M218.527 257.908L116.823 338.291L9.67399 202.673L9.66919 202.673L-35.4754 145.533L66.2292 65.1503L150.527 171.845L218.527 257.908Z" fill="#CBD5CE" fill-opacity="0.5"/>
<path d="M225.212 308.716L96.4042 323.335L76.9445 151.595L76.9403 151.593L68.7415 79.234L197.55 64.6159L212.86 199.729L225.212 308.716Z" fill="#CBD5CE" fill-opacity="0.5"/>
<path d="M61.5592 82.6196L-17.4001 145.025L119.48 318.281L198.449 255.875L61.5592 82.6196ZM114.239 306.69L-7.23491 152.899C-8.78268 150.938 -9.48909 148.443 -9.19898 145.962C-8.90886 143.481 -7.64596 141.217 -5.68765 139.666L53.6058 92.8051C54.5839 92.0314 55.7049 91.458 56.9046 91.1177C58.1043 90.7775 59.3594 90.6769 60.5979 90.8219C61.8365 90.9669 63.0344 91.3546 64.1232 91.9628C65.2119 92.571 66.1702 93.3877 66.9433 94.3665L188.359 248.045C189.888 249.986 190.586 252.454 190.298 254.909C190.01 257.363 188.76 259.604 186.823 261.138L127.276 308.205C125.346 309.733 122.889 310.431 120.444 310.147C117.999 309.863 115.767 308.62 114.239 306.69Z" fill="#CBD5CE" fill-opacity="0.7"/>
<path d="M184.37 76.9886L84.3689 88.3369L109.225 307.736L209.235 296.392L184.37 76.9886ZM110.889 295.125L88.8491 100.389C88.5689 97.907 89.2852 95.4149 90.8409 93.4603C92.3965 91.5057 94.6641 90.2485 97.1458 89.9647L172.24 81.4442C173.479 81.303 174.733 81.4074 175.932 81.7514C177.131 82.0954 178.25 82.6722 179.225 83.449C180.201 84.2257 181.014 85.187 181.618 86.2782C182.222 87.3693 182.605 88.5687 182.745 89.808L204.795 284.417C205.07 286.873 204.36 289.338 202.82 291.271C201.281 293.204 199.037 294.447 196.582 294.728L121.164 303.29C118.718 303.57 116.262 302.866 114.335 301.335C112.409 299.804 111.169 297.57 110.889 295.125Z" fill="#CBD5CE" fill-opacity="0.7"/>
<path d="M69.2766 217.266C65.956 213.064 63.956 207.971 63.5294 202.631C63.1029 197.292 64.2689 191.946 66.8801 187.269C69.4913 182.593 73.4304 178.796 78.1993 176.358C82.9681 173.921 88.3526 172.953 93.6717 173.576C98.9908 174.199 104.006 176.386 108.082 179.86C112.159 183.334 115.114 187.939 116.574 193.092C118.034 198.246 117.933 203.717 116.284 208.813C114.635 213.909 111.513 218.402 107.311 221.723C104.521 223.928 101.324 225.562 97.903 226.532C94.4817 227.501 90.903 227.787 87.3711 227.373C83.8393 226.959 80.4235 225.854 77.3189 224.12C74.2142 222.385 71.4814 220.057 69.2766 217.266Z" fill="#CBD5CE"/>
<path d="M114.336 198.955C114.567 193.604 116.38 188.441 119.546 184.12C122.711 179.799 127.086 176.513 132.118 174.678C137.15 172.844 142.613 172.542 147.816 173.813C153.019 175.083 157.728 177.867 161.348 181.814C164.968 185.761 167.336 190.693 168.153 195.986C168.97 201.279 168.199 206.696 165.937 211.552C163.676 216.407 160.026 220.483 155.448 223.265C150.87 226.046 145.571 227.407 140.22 227.177C136.667 227.024 133.179 226.172 129.956 224.671C126.732 223.17 123.836 221.048 121.432 218.428C119.029 215.807 117.165 212.739 115.947 209.397C114.73 206.056 114.182 202.508 114.336 198.955Z" fill="#CBD5CE"/>
<path d="M281.159 404.534L161.98 434.256C147.59 437.773 132.977 429.186 129.67 415.659L60.6996 133.714C59.9121 130.496 59.8058 127.145 60.3866 123.852C60.9675 120.558 62.2242 117.387 64.0849 114.52C65.9455 111.652 68.3738 109.144 71.2309 107.139C74.088 105.134 77.318 103.671 80.7364 102.834L200.224 73.5817C207.125 71.8939 214.373 72.8553 220.374 76.2545C226.375 79.6537 230.638 85.2124 232.225 91.7083L301.205 373.651C302.78 380.15 301.555 387.05 297.798 392.838C294.04 398.627 288.057 402.832 281.159 404.534Z" fill="#3B3B40"/>
<path d="M202.479 83.3515L179.315 89.0297C177.798 89.4365 176.495 90.3927 175.693 91.6886C174.892 92.9846 174.656 94.5146 175.038 95.9431L176.022 99.8916C176.215 100.598 176.257 101.338 176.147 102.068C176.036 102.799 175.775 103.505 175.379 104.148C174.982 104.79 174.458 105.355 173.835 105.811C173.213 106.266 172.506 106.604 171.754 106.803L126.581 117.853C125.047 118.194 123.45 117.947 122.141 117.167C120.832 116.387 119.918 115.138 119.599 113.694L118.614 109.746C118.295 108.301 117.381 107.052 116.072 106.273C114.763 105.493 113.166 105.246 111.632 105.586L103.493 107.616L83.2244 112.581C78.3992 113.766 74.2125 116.704 71.5831 120.75C68.9537 124.797 68.0965 129.622 69.1996 134.167L136.517 409.366C137.631 413.916 140.618 417.808 144.823 420.188C149.027 422.569 154.104 423.242 158.938 422.06L278.174 392.871C280.573 392.288 282.84 391.265 284.847 389.861C286.853 388.457 288.559 386.7 289.867 384.69C291.174 382.68 292.058 380.456 292.467 378.146C292.876 375.835 292.803 373.484 292.251 371.227L224.925 96.0298C224.374 93.7748 223.356 91.6576 221.929 89.7995C220.502 87.9414 218.694 86.3788 216.609 85.2012C214.525 84.0236 212.203 83.254 209.779 82.9367C207.354 82.6193 204.873 82.7603 202.479 83.3515Z" fill="#FAFAFA"/>
<path d="M219.112 236.34C234.749 209.15 225.374 174.446 198.174 158.826C170.974 143.207 136.248 152.587 120.611 179.777C104.975 206.968 114.349 241.672 141.549 257.291C168.749 272.911 203.475 263.531 219.112 236.34Z" fill="#E56A59" fill-opacity="0.7"/>
<path opacity="0.7" d="M120.668 198.586C120.59 198.607 120.508 198.609 120.429 198.593C120.296 198.563 120.179 198.482 120.103 198.366C120.028 198.25 120.001 198.109 120.028 197.973C123.862 178.791 137.833 163.744 156.491 158.704C159.456 157.904 162.489 157.375 165.552 157.124C165.689 157.112 165.825 157.157 165.93 157.247C166.035 157.337 166.101 157.466 166.113 157.604C166.125 157.743 166.082 157.881 165.994 157.987C165.906 158.092 165.779 158.158 165.642 158.169C162.636 158.413 159.658 158.931 156.747 159.716C147.823 162.099 139.751 166.963 133.44 173.76C127.129 180.558 122.829 189.019 121.023 198.193C121.005 198.285 120.962 198.37 120.9 198.44C120.837 198.509 120.757 198.56 120.668 198.586Z" fill="white"/>
<path d="M183.3 253.826C208.133 247.118 222.827 221.549 216.119 196.716C209.411 171.883 183.842 157.19 159.009 163.897C134.176 170.605 119.483 196.174 126.19 221.007C132.898 245.84 158.467 260.534 183.3 253.826Z" fill="white"/>
<path d="M200.093 218.12L146.787 182.842L141.048 191.105L195.901 227.597L200.093 218.12Z" fill="#E56A59"/>
<path d="M167.575 230.661L196.63 146.07L187.865 141.866L157.762 229.138L167.575 230.661Z" fill="#E56A59"/>
<rect x="144.771" y="294.404" width="92.3277" height="10.1717" transform="rotate(-14.0037 144.771 294.404)" fill="#C8D7E0" fill-opacity="0.76"/>
<rect x="130.143" y="319.822" width="133.015" height="3.91219" transform="rotate(-14.0037 130.143 319.822)" fill="#C8D7E0" fill-opacity="0.76"/>
<rect x="134.686" y="338.045" width="133.015" height="3.91219" transform="rotate(-14.0037 134.686 338.045)" fill="#C8D7E0" fill-opacity="0.76"/>
<rect x="132.418" y="328.932" width="133.015" height="3.91219" transform="rotate(-14.0037 132.418 328.932)" fill="#C8D7E0" fill-opacity="0.76"/>
<rect x="136.953" y="347.15" width="133.015" height="3.91219" transform="rotate(-14.0037 136.953 347.15)" fill="#C8D7E0" fill-opacity="0.76"/>
<path d="M277.098 232.024C274.664 232.943 266.326 248.261 257.357 264.103L262.625 199.621C262.625 199.621 266.108 192.515 266.096 189.263C266.084 186.011 270.398 160.395 268.223 159.623C266.049 158.851 254.723 171.035 253.591 176.555C252.92 179.86 254.416 195.408 254.416 195.408C251.995 201.117 222.595 270.879 218.612 302.304C217.463 311.395 218.447 317.28 222.831 317.481C223.944 317.537 225.059 317.537 226.172 317.481C230.632 317.138 235.026 316.209 239.243 314.717C239.278 314.695 239.319 314.681 239.36 314.676C243.673 313.278 247.822 311.42 251.735 309.132L252.006 308.985C253.132 308.355 253.774 307.96 253.774 307.96V307.913C266.538 300 276.862 288.341 284.122 278.396C288.63 272.288 292.653 265.837 296.155 259.101C303.244 233.927 285.159 228.949 277.098 232.024Z" fill="#E8C6A7"/>
<path d="M300.84 175.794C300.84 175.794 320.469 179.282 313.804 201.717C313.804 201.717 328.907 198.948 331.294 193.634C331.301 194.676 331.179 195.715 330.928 196.727C330.928 196.727 344.482 190.559 347.917 183.66C351.353 176.761 313.78 110.363 280.604 136.439C280.604 136.439 248.076 149.718 269.101 184.526C290.127 219.333 278.294 225.236 278.294 225.236C278.294 225.236 282.419 225.236 283.981 224.417C283.981 224.417 285.86 222.373 285.678 220.882C285.678 220.882 286.232 223.127 285.955 224.064C285.955 224.064 299.331 218.897 303.303 210.896C307.275 202.895 306.397 182.34 300.84 175.794Z" fill="#2D3133"/>
<path d="M342.399 218.335C343.577 228.115 343.465 243.45 332.151 246.384C325.08 248.222 319.971 251.162 315.91 253.148C310.306 255.881 306.641 256.806 302.275 250.526C294.75 239.697 297.631 224.55 297.631 224.55L299.122 224.049C295.657 217.198 292.351 210.051 291.043 205.367L316.5 192.247L318.886 191.016C320.887 193.366 323.013 195.606 325.256 197.726C330.513 202.781 338.651 209.562 348.126 213.91L342.399 218.335Z" fill="#E8C6A7"/>
<path d="M320.45 249.787L315.883 253.151C310.279 255.884 306.614 256.809 302.247 250.529C294.722 239.7 297.604 224.553 297.604 224.553L299.095 224.053C295.63 217.201 292.324 210.054 291.016 205.37L316.472 192.25C317.904 193.811 320.698 196.716 324.551 200.245C327.015 211.957 329.319 232.684 320.45 249.787Z" fill="#D0AE8F"/>
<path d="M313.069 192.715C313.069 192.715 317.784 176.967 316.64 164.954C315.815 156.376 314.826 120.308 285.603 133.14C285.603 133.14 265.373 143.426 258.626 151.362C253.275 157.69 246.416 169.991 264.472 193.469L269.74 201.623L313.069 192.715Z" fill="#2D3133"/>
<path d="M300.906 212.668C297.499 215.169 293.89 217.382 290.116 219.285C280.517 223.173 257.977 187.971 256.091 179.682C254.206 171.392 254.418 160.752 277.759 150.737C294.194 143.667 300.446 150.094 306.557 162.243C309.12 167.333 311.66 173.437 314.925 179.994C321.808 193.815 310.435 205.699 300.906 212.668Z" fill="#E8C6A7"/>
<path d="M319.91 211.376C321.843 194.567 298.584 166.6 298.584 166.6C298.584 166.6 312.296 164.208 323.846 162.223C326.41 167.313 328.949 173.417 332.214 179.974C339.097 193.819 329.427 204.406 319.91 211.376Z" fill="#D0AE8F"/>
<path d="M264.767 159.181C264.767 159.181 260.395 168.607 261.438 175.123C262.481 181.639 267.478 193.64 263.883 194.931C263.883 194.931 247.743 180.944 250.996 166.852C254.455 151.905 264.767 159.181 264.767 159.181Z" fill="#2D3133"/>
<path d="M261.303 158.272C261.303 158.272 262.193 159.038 263.748 160.258C263.813 160.558 263.854 160.729 263.854 160.729C263.854 160.729 284.361 184.46 307.549 183.765C307.549 183.765 295.009 180.389 283.654 172.854C290.49 176.071 297.797 178.186 303.961 176.872C309.07 176.283 319.948 195.383 306.683 202.871C306.683 202.871 325.823 201.693 331.285 193.592C331.299 194.634 331.179 195.674 330.926 196.685C330.926 196.685 344.479 190.517 347.915 183.612C351.35 176.707 295.929 117.68 261.303 158.272Z" fill="#2D3133"/>
<path d="M284.133 278.379C276.873 288.323 266.549 299.983 253.785 307.895V307.942C253.785 307.942 253.155 308.337 252.018 308.967L251.747 309.115C247.833 311.402 243.684 313.261 239.372 314.659C239.33 314.663 239.29 314.677 239.254 314.7C235.032 316.193 230.631 317.122 226.166 317.463C230.007 316.702 233.695 315.308 237.079 313.339C243.561 309.692 249.454 304.254 254.546 298.463C265.948 285.442 273.179 270.672 273.585 270.572L284.133 278.379Z" fill="#D0AE8F"/>
<path d="M391.082 228.913C390.022 226.863 388.953 224.92 387.877 223.086C383.204 215.115 378.448 209.288 373.734 206.66C371.153 205.229 366.504 205.099 360.593 205.859C353.972 206.833 347.423 208.244 340.988 210.083C340.988 210.083 336.445 226.344 329.344 237.344C327.317 240.496 325.066 243.235 322.656 245.003C321.051 246.29 319.092 247.056 317.04 247.2C312.09 247.383 307.835 246.134 304.612 243.842C299.697 240.366 297.181 234.463 298.265 227.546V227.516L299.079 224.123V224.064C298.419 224.235 275.761 230.162 271.489 236.342C267.216 242.522 260.746 257.045 260.746 257.045C260.746 257.045 270.646 283.981 286.645 287.781C286.645 287.781 286.645 287.834 286.645 287.863C287.393 295.752 293.716 306.793 301.831 317.569C304.948 321.693 325.926 371.294 329.344 375.171C353.587 373.203 384.062 379.772 408.163 373.444C439.655 374.878 433.979 359.102 430.752 337.231C423.839 309.494 401.572 249.144 391.082 228.913Z" fill="#E56A59"/>
<path d="M364.35 207.236C360.985 208.585 347.85 235.067 335.54 257.314L310.708 177.189C310.708 177.189 310.59 162.737 308.351 159.32C306.112 155.903 297.921 148.544 294.845 149.399C291.769 150.253 295.87 157.058 296.554 161.099C297.237 165.141 297.579 167.073 297.237 167.256C296.895 167.438 294.715 160.345 293.702 160.687C292.688 161.028 294.403 169.742 295.086 171.456C295.735 173.071 300.755 176.04 301.445 179.186C301.922 199.966 305.493 323.588 323.112 317.885C323.249 317.834 323.379 317.769 323.501 317.69C324.591 317.154 325.67 316.612 326.725 316.052H326.766L326.813 316.023C364.621 295.992 379.506 261.19 384.35 246.285C385.782 241.854 386.33 239.185 386.33 239.185C394.256 209.315 373.543 203.536 364.35 207.236Z" fill="#E8C6A7"/>
<path opacity="0.6" d="M296.245 113.555C295.642 112.938 294.916 112.453 294.113 112.128C293.31 111.804 292.447 111.648 291.58 111.67C290.7 111.654 289.826 111.812 289.01 112.136C288.193 112.459 287.451 112.942 286.827 113.555C286.202 114.159 285.706 114.881 285.369 115.678C285.032 116.475 284.861 117.33 284.866 118.194C284.87 119.058 285.05 119.912 285.396 120.705C285.741 121.499 286.245 122.216 286.876 122.813C287.488 123.431 288.22 123.921 289.029 124.253C289.837 124.585 290.704 124.753 291.58 124.746C292.447 124.767 293.309 124.611 294.112 124.286C294.915 123.962 295.641 123.477 296.245 122.861C297.445 121.601 298.113 119.936 298.113 118.206C298.113 116.475 297.445 114.81 296.245 113.55V113.555ZM307.432 60.2582C303.387 56.8791 298.352 55.1895 292.328 55.1895C288.498 55.1818 284.722 56.0815 281.316 57.8133C277.946 59.4624 275.13 62.0401 273.209 65.2352C272.084 67.0044 271.473 69.0456 271.444 71.135C271.401 72.5508 271.929 73.9255 272.911 74.9571C273.379 75.4559 273.95 75.8498 274.585 76.1123C275.22 76.3748 275.905 76.4999 276.593 76.4792C278.333 76.4792 279.856 75.5885 281.16 73.8071L284.886 68.8301C286.688 67.052 289.083 66.1613 292.069 66.1581C294.371 66.0888 296.624 66.8246 298.43 68.2358C300.137 69.6178 300.997 71.5699 300.997 74.0873C300.997 76.9865 300.094 79.2285 298.289 80.8134C296.985 81.9795 294.747 83.0539 291.575 84.0364C289.218 84.7756 287.663 85.5246 286.871 86.2977C286.079 87.0708 285.707 88.2305 285.707 89.7477V98.9575C285.641 100.614 286.16 102.242 287.174 103.562C287.679 104.174 288.322 104.659 289.052 104.979C289.781 105.299 290.577 105.444 291.374 105.403C294.308 105.403 296.14 103.991 296.87 101.166C297.118 100.199 297.242 97.6802 297.242 93.6085C302.344 92.6421 306.37 90.4774 309.32 87.1143C312.27 83.7513 313.747 79.5297 313.75 74.4497C313.766 68.6127 311.66 63.8822 307.432 60.2582Z" fill="#D0D3D5"/>
<path opacity="0.6" d="M331.796 118.074C331.566 117.485 331.214 116.951 330.763 116.505C330.311 116.06 329.769 115.713 329.173 115.487C328.581 115.23 327.942 115.093 327.295 115.084C326.648 115.075 326.006 115.194 325.406 115.434C324.812 115.671 324.272 116.023 323.817 116.469C323.362 116.915 323.002 117.447 322.758 118.032C322.514 118.618 322.39 119.245 322.395 119.879C322.399 120.512 322.531 121.138 322.784 121.72C323.023 122.312 323.381 122.85 323.836 123.302C324.291 123.754 324.833 124.11 325.431 124.35C326.013 124.608 326.642 124.743 327.28 124.747C327.917 124.751 328.549 124.624 329.134 124.374C330.307 123.852 331.235 122.908 331.729 121.735C332.224 120.561 332.248 119.245 331.796 118.055V118.074ZM354.659 85.0003C352.885 81.5769 349.949 79.0222 345.852 77.3363C343.255 76.2618 340.435 75.8175 337.628 76.0404C334.868 76.2233 332.219 77.1849 329.995 78.811C328.728 79.7007 327.728 80.9141 327.104 82.3215C326.669 83.2689 326.628 84.3476 326.991 85.3243C327.168 85.7933 327.444 86.2196 327.801 86.5748C328.158 86.93 328.588 87.2059 329.061 87.3841C330.242 87.8709 331.53 87.692 332.926 86.8474L336.884 84.5071C338.616 83.8043 340.497 83.8704 342.525 84.7053C344.115 85.2971 345.44 86.4282 346.263 87.8967C347.03 89.315 347.053 90.8784 346.332 92.5869C345.507 94.5501 344.253 95.8202 342.569 96.3972C341.346 96.8324 339.518 96.9371 337.085 96.7115C335.27 96.5568 333.993 96.6244 333.244 96.9291C332.827 97.1317 332.454 97.4149 332.149 97.7621C331.844 98.1092 331.613 98.5132 331.468 98.9502L328.826 105.207C328.309 106.317 328.2 107.571 328.518 108.751C328.683 109.308 328.98 109.817 329.384 110.238C329.788 110.658 330.288 110.978 330.842 111.169C332.823 111.991 334.472 111.541 335.793 109.835C336.24 109.235 337.046 107.559 338.21 104.806C341.948 105.567 345.3 105.222 348.264 103.771C351.229 102.32 353.443 99.8673 354.904 96.4117C356.574 92.4403 356.492 88.6365 354.659 85.0003Z" fill="#D0D3D5"/>
<path opacity="0.6" d="M261.753 128.456C261.377 127.942 260.902 127.51 260.355 127.184C259.809 126.858 259.203 126.645 258.573 126.559C257.948 126.468 257.31 126.508 256.7 126.675C256.09 126.842 255.522 127.134 255.03 127.532C254.514 127.916 254.08 128.401 253.755 128.957C253.43 129.512 253.22 130.128 253.137 130.767C253.048 131.399 253.086 132.043 253.25 132.66C253.414 133.278 253.7 133.856 254.092 134.36C254.483 134.865 254.971 135.285 255.527 135.597C256.084 135.909 256.697 136.106 257.331 136.175C257.964 136.263 258.608 136.222 259.225 136.055C259.842 135.888 260.42 135.598 260.923 135.203C261.433 134.828 261.861 134.351 262.178 133.801C262.494 133.252 262.693 132.642 262.762 132.012C262.839 131.382 262.79 130.742 262.616 130.132C262.443 129.521 262.149 128.951 261.753 128.456ZM251.044 95.8326C248.41 92.4051 245.054 90.5746 240.977 90.3411C237.116 90.1725 233.445 91.4339 229.962 94.1254C227.755 95.8346 225.988 98.0476 224.807 100.58C223.601 103.05 223.133 105.817 223.458 108.547C223.609 110.087 224.174 111.556 225.094 112.799C225.706 113.646 226.627 114.217 227.657 114.389C228.152 114.47 228.66 114.445 229.145 114.315C229.631 114.185 230.083 113.953 230.472 113.635C231.472 112.857 231.928 111.651 231.928 110.026L231.836 105.444C232.074 103.591 233.055 102.005 234.778 100.668C236.068 99.5964 237.695 99.0174 239.37 99.0332C240.988 99.0786 242.36 99.8374 243.486 101.31C244.781 103.002 245.266 104.719 244.943 106.461C244.714 107.725 243.909 109.379 242.515 111.325C241.48 112.816 240.912 113.951 240.812 114.73C240.783 115.191 240.846 115.654 240.998 116.091C241.149 116.528 241.386 116.93 241.695 117.274L245.855 122.678C246.571 123.677 247.614 124.395 248.802 124.706C249.368 124.84 249.958 124.838 250.524 124.699C251.089 124.561 251.614 124.289 252.054 123.908C253.743 122.611 254.164 120.964 253.316 118.966C253.022 118.282 251.957 116.752 250.122 114.375C252.624 111.524 253.973 108.457 254.17 105.172C254.368 101.887 253.326 98.7738 251.044 95.8326Z" fill="#D0D3D5"/>
<path d="M384.369 246.283C379.525 261.189 364.646 295.984 326.832 316.015C347.339 304.527 365.771 247.167 365.771 247.167L384.369 246.283Z" fill="#D0AE8F"/>
<path d="M359.112 206.238C359.112 206.238 380.326 199.168 388.116 216.625C395.906 234.081 387.326 263.298 387.326 263.298C387.326 263.298 350.013 261.224 344.232 234.064L359.112 206.238Z" fill="#E56A59"/>
</svg>
