<svg id="Layer_1" data-name="Layer 1" xmlns="http://www.w3.org/2000/svg" viewBox="0 0 34.42 21.26"><defs><style>.cls-1{fill:#6e6e6e;fill-opacity:0.09;}</style></defs><path class="cls-1" d="M26.44,0a7.85,7.85,0,0,0-8.08,7.65c0,4.23,3.71,7.66,8.22,7.66h.16a10.78,10.78,0,0,1-6.48,2.13,2,2,0,0,0-2,1.92,1.83,1.83,0,0,0,1.86,1.91c8,0,14.34-6.1,14.34-13.61h0A7.75,7.75,0,0,0,26.44,0Z"/><path class="cls-1" d="M8.22,0A7.85,7.85,0,0,0,.14,7.65a8,8,0,0,0,8.21,7.66h.16A10.79,10.79,0,0,1,2,17.43a2,2,0,0,0-2,1.92,1.83,1.83,0,0,0,1.86,1.91c8,0,14.34-6.1,14.34-13.61h0A7.76,7.76,0,0,0,8.22,0Z"/></svg>