<svg id="Layer_1" data-name="Layer 1" xmlns="http://www.w3.org/2000/svg" xmlns:xlink="http://www.w3.org/1999/xlink" viewBox="0 0 1680 1073.27"><defs><style>.cls-1{fill:none;}.cls-2{clip-path:url(#clip-path);}.cls-3,.cls-4{fill:#7abed1;fill-rule:evenodd;}.cls-3{opacity:0.1;isolation:isolate;}.cls-4{fill-opacity:0.1;}</style><clipPath id="clip-path"><rect class="cls-1" width="1680" height="1073.27"/></clipPath></defs><g class="cls-2"><path class="cls-3" d="M451.13,182.75c392.26-36.34,580.48-205.28,877.15-141,263.36,57.06,379.09,164.43,503.46,287.5,125.91,124.6,254.22,216.18,182.83,362.16-77.69,158.88-341.33,262.36-667.41,327.05-304.22,60.36-551.43-24.1-845.45-59.38C208.9,924-186.37,943.24-342.07,825.76-505.76,702.25-403.85,530-290.29,377.62-172.82,220-180.29,241.25,451.13,182.75Z"/><path class="cls-4" d="M2068.76,265.12c163.75,133.22,36,361.13-98.2,515.27-119.17,136.83-528.39,78.24-773.82,161.86-248.47,84.66-397.24,135.83-682.64,130.66-310.59-5.63-605.7-101-724.46-243.63-110.8-133.11,87.29-282,164.41-429.12C30.85,253.62,230.27,277.7,465.52,180.25,712.84,77.79,1015.28-32.59,1311.69,9,1618.84,33.83,1906.92,133.45,2068.76,265.12Z"/></g></svg>