<svg id="Layer_1" data-name="Layer 1" xmlns="http://www.w3.org/2000/svg" viewBox="0 0 89.61 21.92"><defs><style>.cls-1{fill:#fff;}</style></defs><path class="cls-1" d="M63.7,21.09a10.73,10.73,0,0,1-2.7.38,10,10,0,0,1-8-3.55,17.87,17.87,0,0,1-2.73-5.71c-.66-2-1.37-3.93-2.72-5.23a5.67,5.67,0,0,0-7.78.44,12.72,12.72,0,0,0-2,4.38,23.08,23.08,0,0,1-1.53,3.92,12,12,0,0,1-7.94,5.94,8.86,8.86,0,0,1-3.66.13,9,9,0,0,1-3.39-1.37c-3-2.2-3.51-6-3.95-9.27-.38-2.88-.75-5.62-2.59-7-1.61-1.17-4-.87-5.63,0a17.29,17.29,0,0,0-5.22,4.7,2.74,2.74,0,0,0-.41.7,1.69,1.69,0,0,1,0,2.23,1.63,1.63,0,0,1-1,.56,1.64,1.64,0,0,1-1.16-.26,2.69,2.69,0,0,1-.81-.8A2.78,2.78,0,0,1,0,10.2,5,5,0,0,1,1.27,6.66,20.15,20.15,0,0,1,7.58,1.09a8.92,8.92,0,0,1,9.15.34c3,2.21,3.51,6,3.95,9.26.38,2.89.74,5.63,2.59,7a5.46,5.46,0,0,0,4.36.66,8.62,8.62,0,0,0,3.28-1.51,8.52,8.52,0,0,0,2.37-2.73,19.06,19.06,0,0,0,1.29-3.34A15.37,15.37,0,0,1,37.2,5.22,9.06,9.06,0,0,1,49.91,4.5c1.94,1.86,2.77,4.24,3.56,6.56a15.49,15.49,0,0,0,2.21,4.7,7.31,7.31,0,0,0,2.41,1.71A7.21,7.21,0,0,0,61,18a7,7,0,0,0,2.87-.67,6.89,6.89,0,0,0,2.36-1.78,15.69,15.69,0,0,0,2.11-4.89c.82-2.61,1.66-5.35,4-7.27C75.25,1,79.94.9,83.47,3.15a15.15,15.15,0,0,1,6.07,8.92,1.85,1.85,0,0,1,.06.66,1.79,1.79,0,0,1-.21.64,1.63,1.63,0,0,1-.43.51,1.67,1.67,0,0,1-1.88.13,1.69,1.69,0,0,1-.79-1,11.67,11.67,0,0,0-4.62-7c-2.3-1.46-5.38-1.45-7.16,0-1.53,1.27-2.2,3.4-2.9,5.65A18.71,18.71,0,0,1,69,17.64,9.53,9.53,0,0,1,63.7,21.09Z"/></svg>