<svg id="Layer_1" data-name="Layer 1" xmlns="http://www.w3.org/2000/svg" viewBox="0 0 150.52 20.94"><defs><style>.cls-1{fill:#fff;}</style></defs><path class="cls-1" d="M149.16,15.29a1.65,1.65,0,0,1-1.21-.17,1.63,1.63,0,0,1-.77-.94c-1.33-4-5.83-8.94-10.42-9.76a6.49,6.49,0,0,0-6.57,2.75A18.21,18.21,0,0,0,127.84,12c-1.2,3.05-2.44,6.21-5.66,7.78-2.33,1.15-5.26,1.08-8.48-.18-3.62-1.41-6.65-4.82-9.59-8.12-3.34-3.75-6.49-7.29-9.78-7.26-2,0-4,1.33-6.32,4-1,1.19-1.88,2.41-2.73,3.69a36.62,36.62,0,0,1-4.13,5.24c-4.56,4.51-10.51,4.66-14,2.49S62,13.87,60.5,10.72c-.29-.62-.58-1.24-.89-1.84-1.48-3-3.13-4.67-5-5.26s-4.16,0-6.66.72c-1.31.39-2,2-2.79,4.39a19.52,19.52,0,0,1-1.32,3.21C42.13,15,40,18,35.73,19.58c-4.68,1.75-10,.77-13.15-2.42A20.11,20.11,0,0,1,18.9,11.1a16.55,16.55,0,0,0-3-5A7.38,7.38,0,0,0,11.77,4,7.37,7.37,0,0,0,4,8.25a7.38,7.38,0,0,0-.49,4.63,1.7,1.7,0,0,1-1.24,2,1.63,1.63,0,0,1-.66,0A1.51,1.51,0,0,1,1,14.67a1.62,1.62,0,0,1-.48-.46,1.79,1.79,0,0,1-.26-.6A10.7,10.7,0,0,1,18.34,3.7a19.3,19.3,0,0,1,3.62,6,17.32,17.32,0,0,0,3,5.07c2.24,2.25,6.19,2.93,9.61,1.65,3.1-1.15,4.73-3.21,6.37-6.15A16.46,16.46,0,0,0,42,7.6C42.9,5.11,44,2,47,1.1,49.36.4,52.57-.55,55.61.4c2.81.87,5.1,3.14,7,7,.32.62.62,1.27.93,1.91,1.41,3,2.75,5.83,5.36,7.44,3.2,2,7.41.47,9.93-2A33.14,33.14,0,0,0,82.6,9.91,45.44,45.44,0,0,1,85.54,6C88.48,2.52,91.36.82,94.36.8,99.17.74,103,5,106.67,9.17c2.67,3,5.44,6.12,8.3,7.23,1.62.63,4,1.2,5.81.29,2-1,3-3.31,4-6a21.7,21.7,0,0,1,2.87-5.63,9.72,9.72,0,0,1,9.78-4c6,1.07,11.35,6.94,13,12a1.69,1.69,0,0,1-.1,1.27,1.65,1.65,0,0,1-1,.83Z"/></svg>