<svg width="662" height="383" viewBox="0 0 662 383" fill="none" xmlns="http://www.w3.org/2000/svg">
<path opacity="0.4" fill-rule="evenodd" clip-rule="evenodd" d="M613.654 592.833C556.08 650.133 467.197 671.225 385.906 653.643C313.742 638.036 276.886 563.028 224.959 508.767C172.389 453.833 95.6552 413.99 85.2394 339.462C73.9042 258.356 107.042 171.248 171.263 124.552C231.179 80.9845 312.794 115.698 388.082 119.257C463.061 122.801 545.599 94.9196 603.811 144.998C665.012 197.647 673.165 286.392 674.914 366.008C676.724 448.367 727.754 479.273 613.654 592.833Z" fill="#7ABED1" fill-opacity="0.25"/>
<path opacity="0.4" fill-rule="evenodd" clip-rule="evenodd" d="M151.71 229.866C174.506 155.723 238.299 96.3979 312.294 72.3169C377.981 50.9398 439.986 94.8874 505.519 114.723C571.864 134.804 651.579 131.1 691.741 187.167C735.448 248.183 745.304 335.158 712.566 403.768C682.022 467.78 600.489 477.993 537.36 510.71C474.489 543.293 418.773 605.172 349.871 591.734C277.433 577.607 233.088 508.833 197.859 444.5C161.416 377.95 106.532 376.805 151.71 229.866Z" fill="#7ABED1" fill-opacity="0.17"/>
</svg>
