<svg width="300" height="162" viewBox="0 0 300 162" fill="none" xmlns="http://www.w3.org/2000/svg">
<path d="M0 92C0 83.7157 6.71573 77 15 77H251.5C259.784 77 266.5 83.7157 266.5 92V133.077C266.5 141.362 259.784 148.077 251.5 148.077H48.5683C46.2185 148.077 43.9438 148.905 42.1432 150.415L31.6109 159.246C30.3093 160.337 28.3259 159.412 28.3259 157.713V153.077C28.3259 150.316 26.0873 148.077 23.3259 148.077H15C6.71572 148.077 0 141.362 0 133.077V92Z" fill="#7ABED1" fill-opacity="0.15"/>
<mask id="mask0" mask-type="alpha" maskUnits="userSpaceOnUse" x="0" y="0" width="300" height="162">
<path d="M0 15C0 6.7157 6.71573 0 15 0H285C293.284 0 300 6.71573 300 15V133.055C300 141.34 293.284 148.055 285 148.055H66.331C65.1204 148.055 63.9199 148.275 62.7878 148.704L30.4061 160.974C29.0976 161.469 27.6975 160.503 27.6975 159.103V153.055C27.6975 150.294 25.4589 148.055 22.6975 148.055H15C6.71574 148.055 0 141.34 0 133.055V15Z" fill="#7ABED1"/>
</mask>
<g mask="url(#mask0)">
<path fill-rule="evenodd" clip-rule="evenodd" d="M-108.327 223.489C-120.479 184.46 -85.7943 156.121 -60.5453 124.074C-38.1311 95.6256 8.15874 126.449 42.8157 116.054C77.9022 105.529 92.9882 77.1962 127.344 90.0129C164.733 103.961 195.034 139.099 201.174 178.602C206.904 215.458 174.207 243.638 156.302 276.298C138.47 308.823 123.888 330.247 89.6649 344.418C53.6853 359.317 2.31814 338.553 -31.2616 316.435C-67.1181 297.957 -96.3169 262.062 -108.327 223.489Z" fill="#7ABED1" fill-opacity="0.15"/>
<path fill-rule="evenodd" clip-rule="evenodd" d="M273.312 320.745C267.716 361.238 224.273 372.14 187.794 390.41C155.411 406.629 126.62 359.048 90.8316 353.722C54.5997 348.329 28.8984 367.559 3.25201 341.351C-24.6579 312.83 -37.1434 268.143 -25.9051 229.777C-15.4199 193.982 26.1552 182.379 56.2483 160.431C86.2177 138.574 108.525 125.383 145.526 127.108C184.426 128.921 222.09 169.556 243.079 203.852C267.676 235.823 278.842 280.726 273.312 320.745Z" fill="#7ABED1" fill-opacity="0.15"/>
<path d="M90.8252 90.3125L71.9041 91.8858L70.7718 118.645L69.9564 115.56L63.793 126.802L70.224 131.567L91.7141 123.019L90.8252 90.3125Z" fill="#D0AE8F"/>
<path d="M66.8694 129.079C66.8694 129.079 76.5894 113.327 71.904 91.8836C71.904 91.8836 74.2249 87.6345 76.0818 80.2066C78.9528 68.7226 75.967 67.9187 72.8663 67L58.6123 91.9961L45.6182 113.335L66.8694 129.079Z" fill="#E8C6A7"/>
<path d="M76.219 94.8478C76.0397 93.6158 76.3557 92.3629 77.0977 91.3632C77.8398 90.3636 78.9476 89.6985 80.1787 89.5135L91.3182 87.8655C92.5502 87.6862 93.8031 88.0021 94.8028 88.7442C95.8025 89.4863 96.4676 90.594 96.6526 91.8252V91.8252C96.8319 93.0572 96.516 94.3101 95.7739 95.3098C95.0318 96.3094 93.924 96.9745 92.6929 97.1595L81.5534 98.8075C80.3214 98.9868 79.0685 98.6709 78.0688 97.9288C77.0691 97.1868 76.404 96.079 76.219 94.8478V94.8478Z" fill="url(#paint0_linear)"/>
<path d="M76.3187 104.334C76.1393 103.103 76.4547 101.851 77.1958 100.851C77.9369 99.8515 79.0435 99.1859 80.2738 98.9998L92.6892 97.1624C93.9212 96.9831 95.1741 97.299 96.1738 98.0411C97.1735 98.7831 97.8386 99.8909 98.0236 101.122V101.122C98.203 102.353 97.8876 103.606 97.1465 104.605C96.4054 105.605 95.2988 106.27 94.0685 106.456L81.6519 108.294C80.4201 108.473 79.1675 108.157 78.1681 107.415C77.1687 106.673 76.5038 105.565 76.3187 104.334V104.334Z" fill="url(#paint1_linear)"/>
<path d="M78.2807 113.556C78.1011 112.324 78.4169 111.071 79.1589 110.071C79.901 109.071 81.009 108.406 82.2404 108.221L93.3799 106.573C94.6121 106.393 95.8653 106.709 96.8652 107.451C97.8652 108.193 98.5304 109.301 98.7154 110.532V110.532C98.895 111.765 98.5793 113.018 97.8372 114.018C97.0951 115.018 95.9871 115.683 94.7557 115.868L83.6162 117.516C82.384 117.695 81.1308 117.38 80.1309 116.638C79.131 115.896 78.4657 114.788 78.2807 113.556Z" fill="url(#paint2_linear)"/>
<path d="M79.5287 122.911C79.3491 121.678 79.665 120.425 80.4074 119.425C81.1497 118.425 82.258 117.76 83.4896 117.575L93.4933 116.096C94.7252 115.917 95.9779 116.232 96.9775 116.974C97.9772 117.716 98.6424 118.824 98.8277 120.055V120.055C99.0073 121.287 98.6915 122.54 97.9494 123.54C97.2073 124.54 96.0994 125.205 94.868 125.39L84.8677 126.87C83.6349 127.051 82.3809 126.736 81.3802 125.993C80.3795 125.251 79.7137 124.143 79.5287 122.911Z" fill="url(#paint3_linear)"/>
<path d="M70.2415 131.639C70.2415 131.639 61.2495 142.893 54.7174 154.901C53.3933 157.332 52.1714 159.794 51.1447 162.199H1.38672C9.62536 151.297 26.3427 130.444 45.6657 113.379L54.7174 120.104L70.2415 131.639Z" fill="white"/>
<path d="M76.219 94.8478C76.0397 93.6158 76.3557 92.3629 77.0977 91.3632C77.8398 90.3636 78.9476 89.6985 80.1787 89.5135L91.3182 87.8655C92.5502 87.6862 93.8031 88.0021 94.8028 88.7442C95.8025 89.4863 96.4676 90.594 96.6526 91.8252V91.8252C96.8319 93.0572 96.516 94.3101 95.7739 95.3098C95.0318 96.3094 93.924 96.9745 92.6929 97.1595L81.5534 98.8075C80.3214 98.9868 79.0685 98.6709 78.0688 97.9288C77.0691 97.1868 76.404 96.079 76.219 94.8478V94.8478Z" fill="#E8C6A7"/>
<path d="M76.3187 104.334C76.1393 103.103 76.4547 101.851 77.1958 100.851C77.9369 99.8515 79.0435 99.1859 80.2738 98.9998L92.6892 97.1624C93.9212 96.9831 95.1741 97.299 96.1738 98.0411C97.1735 98.7831 97.8386 99.8909 98.0236 101.122V101.122C98.203 102.353 97.8876 103.606 97.1465 104.605C96.4054 105.605 95.2988 106.27 94.0685 106.456L81.6519 108.294C80.4201 108.473 79.1675 108.157 78.1681 107.415C77.1687 106.673 76.5038 105.565 76.3187 104.334V104.334Z" fill="#E8C6A7"/>
<path d="M78.2807 113.556C78.1011 112.324 78.4169 111.071 79.1589 110.071C79.901 109.071 81.009 108.406 82.2404 108.221L93.3799 106.573C94.6121 106.393 95.8653 106.709 96.8652 107.451C97.8652 108.193 98.5304 109.301 98.7154 110.532V110.532C98.895 111.765 98.5793 113.018 97.8372 114.018C97.0951 115.018 95.9871 115.683 94.7557 115.868L83.6162 117.516C82.384 117.695 81.1308 117.38 80.1309 116.638C79.131 115.896 78.4657 114.788 78.2807 113.556Z" fill="#E8C6A7"/>
<path d="M79.5287 122.911C79.3491 121.678 79.665 120.425 80.4074 119.425C81.1497 118.425 82.258 117.76 83.4896 117.575L93.4933 116.096C94.7252 115.917 95.9779 116.232 96.9775 116.974C97.9772 117.716 98.6424 118.824 98.8277 120.055V120.055C99.0073 121.287 98.6915 122.54 97.9494 123.54C97.2073 124.54 96.0994 125.205 94.868 125.39L84.8677 126.87C83.6349 127.051 82.3809 126.736 81.3802 125.993C80.3795 125.251 79.7137 124.143 79.5287 122.911Z" fill="#E8C6A7"/>
<path d="M34.9908 118.25L67.1461 140.299C67.1461 140.299 55.2382 154.107 51.1039 162.146H0C0 162.146 20.2913 130.653 34.9908 118.25Z" fill="#3B3B40"/>
</g>
<defs>
<linearGradient id="paint0_linear" x1="8239.11" y1="-40273" x2="8305.56" y2="-36097.1" gradientUnits="userSpaceOnUse">
<stop stop-color="#FFFAC0"/>
<stop offset="0.54" stop-color="#FFC880"/>
<stop offset="1" stop-color="#EF6262"/>
</linearGradient>
<linearGradient id="paint1_linear" x1="8313.78" y1="-40948.2" x2="8359.51" y2="-36477.6" gradientUnits="userSpaceOnUse">
<stop stop-color="#FFFAC0"/>
<stop offset="0.54" stop-color="#FFC880"/>
<stop offset="1" stop-color="#EF6262"/>
</linearGradient>
<linearGradient id="paint2_linear" x1="8663.09" y1="-36933.3" x2="8729.54" y2="-32757.3" gradientUnits="userSpaceOnUse">
<stop stop-color="#FFFAC0"/>
<stop offset="0.54" stop-color="#FFC880"/>
<stop offset="1" stop-color="#EF6262"/>
</linearGradient>
<linearGradient id="paint3_linear" x1="8910.76" y1="-33339.9" x2="8993.34" y2="-29423.7" gradientUnits="userSpaceOnUse">
<stop stop-color="#FFFAC0"/>
<stop offset="0.54" stop-color="#FFC880"/>
<stop offset="1" stop-color="#EF6262"/>
</linearGradient>
</defs>
</svg>
