<svg width="1401" height="1124" viewBox="0 0 1401 1124" fill="none" xmlns="http://www.w3.org/2000/svg">
<path d="M1226.45 490.867C1207.44 556.841 1079.31 935.646 662.99 866.964C662.99 866.964 676.034 593.673 1218.57 483.297C1223.29 482.329 1227.69 486.558 1226.45 490.867Z" fill="#7ABED1" fill-opacity="0.15"/>
<path opacity="0.15" d="M1173.08 552.307C1165.65 561.79 1157.83 570.887 1149.86 579.886C1145.89 584.392 1141.79 588.799 1137.76 593.235C1133.73 597.672 1129.58 602.027 1125.37 606.314C1108.7 623.598 1091.4 640.256 1073.48 656.288C1037.63 688.263 999.546 717.842 959.015 743.717C948.967 750.319 938.568 756.392 928.266 762.562C917.746 768.387 907.347 774.431 896.579 779.783C885.966 785.458 874.991 790.395 864.131 795.563C858.623 797.977 853.075 800.305 847.544 802.679C844.767 803.831 842.03 805.093 839.224 806.176L830.795 809.396L822.361 812.611C819.549 813.683 816.749 814.795 813.88 815.705L796.757 821.466C795.328 821.933 793.911 822.44 792.471 822.878L788.132 824.128L779.45 826.623C773.66 828.271 767.927 830.045 762.016 831.324L744.444 835.518C738.55 836.769 732.61 837.783 726.699 838.929L717.815 840.6C714.842 841.067 711.852 841.43 708.867 841.85L690.955 844.299C690.316 844.386 689.668 844.215 689.154 843.825C688.64 843.434 688.303 842.856 688.216 842.216C688.129 841.577 688.299 840.929 688.69 840.415C689.08 839.901 689.659 839.564 690.298 839.477H690.419L708.176 837.137C711.132 836.734 714.099 836.383 717.048 835.939L725.858 834.326C731.728 833.22 737.622 832.24 743.464 831.03L760.916 826.957C766.763 825.713 772.484 823.984 778.234 822.348L786.876 819.917L791.192 818.701C792.62 818.275 794.032 817.773 795.455 817.318L812.48 811.701C815.361 810.819 818.12 809.725 820.915 808.676L829.309 805.519L837.703 802.362C840.497 801.302 843.223 800.057 845.982 798.905C851.49 796.572 857.015 794.296 862.5 791.911C873.326 786.829 884.261 781.972 894.845 776.355C905.584 771.083 915.966 765.12 926.463 759.376C936.747 753.258 947.123 747.277 957.16 740.767C997.651 715.198 1035.75 685.907 1071.65 654.191C1089.59 638.312 1106.92 621.785 1123.65 604.608C1127.87 600.351 1131.93 595.966 1136.07 591.622C1140.22 587.278 1144.23 582.842 1148.17 578.371C1156.15 569.447 1164.02 560.384 1171.43 551.022C1171.6 550.807 1171.85 550.669 1172.12 550.637C1172.39 550.605 1172.67 550.682 1172.88 550.852C1173.09 551.021 1173.23 551.269 1173.26 551.541C1173.3 551.813 1173.22 552.086 1173.05 552.301L1173.08 552.307Z" fill="white"/>
<path d="M997.6 75.858C1016.04 161.299 1100.08 661.427 579.324 793.391C579.324 793.391 427.367 472.748 983.911 71.1567C988.75 67.6423 996.413 70.2752 997.6 75.858Z" fill="#7ABED1" fill-opacity="0.31"/>
<path opacity="0.42" d="M926.956 179.88C921.845 206.958 915.784 233.818 909.274 260.574C902.764 287.329 895.666 313.935 888.032 340.392C872.747 393.293 855.365 445.617 835.16 496.882C814.955 548.147 791.886 598.357 764.502 646.28C750.773 670.196 735.972 693.524 719.615 715.797C703.375 738.187 685.35 759.227 665.718 778.711C665.494 778.967 665.219 779.174 664.912 779.319C664.604 779.464 664.27 779.544 663.93 779.554C663.59 779.563 663.252 779.503 662.936 779.376C662.621 779.249 662.335 779.059 662.096 778.816C661.858 778.574 661.672 778.285 661.55 777.967C661.429 777.65 661.374 777.31 661.389 776.971C661.405 776.631 661.49 776.298 661.64 775.993C661.79 775.688 662.001 775.417 662.261 775.197C681.789 755.977 699.732 735.21 715.917 713.101C732.244 691.075 747.063 667.932 760.855 644.189C788.337 596.64 811.486 546.649 831.905 495.632C852.323 444.615 869.866 392.417 885.353 339.654C893.088 313.267 900.273 286.726 906.906 260.032C913.526 233.345 919.702 206.526 924.91 179.551C924.962 179.279 925.12 179.039 925.349 178.884C925.578 178.728 925.86 178.67 926.132 178.722C926.404 178.774 926.644 178.931 926.8 179.161C926.955 179.39 927.013 179.671 926.961 179.943L926.956 179.88Z" fill="white"/>
<path d="M815.306 816.149C815.306 816.149 798.598 737.794 858.516 640.427C914.113 550.065 1053.25 338.531 1072.45 235.051C1073.29 230.442 1079.75 230.246 1080.87 234.774C1092.83 283.343 1113.21 407.333 1057.63 548.452C985.975 730.396 815.306 816.149 815.306 816.149Z" fill="#A8D4E0" fill-opacity="0.5"/>
<path opacity="0.45" d="M1064.56 328.886C1065.71 339.896 1065.43 351.01 1064.56 362.037C1064.46 363.42 1064.39 364.802 1064.27 366.179L1063.82 370.31L1062.92 378.566L1061.67 386.782C1061.22 389.513 1060.9 392.273 1060.29 394.975C1056.18 416.771 1050.23 438.18 1042.51 458.972C1040.78 464.25 1038.47 469.308 1036.42 474.447L1033.25 482.139C1032.67 483.412 1032.23 484.72 1031.62 485.964L1029.85 489.726L1022.76 504.775C1021.61 507.316 1020.25 509.718 1018.95 512.167L1015.02 519.495L1011.09 526.824L1009.09 530.477L1006.95 534.043L998.373 548.296C996.927 550.659 995.556 553.073 994.046 555.389L989.535 562.348L980.513 576.262L971.341 590.089C968.264 594.699 965.234 599.308 962.122 603.853C955.908 612.995 949.622 622.086 943.265 631.128C936.928 640.202 930.498 649.167 924.086 658.172L904.584 684.962C891.569 702.822 878.525 720.613 866.103 738.819C862.929 743.336 859.99 747.986 856.971 752.595C855.433 754.899 854.056 757.262 852.622 759.612C851.187 761.963 849.741 764.302 848.381 766.693C845.777 771.533 842.989 776.286 840.724 781.298L838.933 785.014C838.645 785.636 838.316 786.241 838.057 786.875L837.291 788.788L834.226 796.445V796.473C834.171 796.626 834.057 796.751 833.91 796.82C833.763 796.889 833.595 796.897 833.442 796.842C833.289 796.787 833.165 796.674 833.095 796.527C833.026 796.38 833.018 796.211 833.073 796.059C836.689 785.565 841.189 775.398 846.526 765.667C847.834 763.225 849.263 760.857 850.628 758.443C851.994 756.029 853.353 753.615 854.846 751.287C857.772 746.586 860.607 741.833 863.701 737.241L868.241 730.293C869.773 727.988 871.358 725.724 872.913 723.437L877.603 716.598L882.35 709.805C888.688 700.737 895.095 691.749 901.478 682.727C914.257 664.711 927.036 646.718 939.613 628.57C952.19 610.421 964.519 592.135 976.676 573.727L985.658 559.86L990.151 552.917C991.655 550.613 993.032 548.227 994.478 545.888L1003.05 531.796L1005.2 528.27L1007.18 524.652L1011.11 517.404C1021.86 498.207 1030.95 478.129 1038.99 457.67C1047.09 437.193 1053.44 416.062 1057.96 394.508C1058.62 391.835 1058.99 389.104 1059.53 386.408L1061.03 378.284L1062.19 370.109L1062.76 366.018C1062.93 364.653 1063.04 363.281 1063.19 361.91C1063.45 359.168 1063.76 356.431 1063.97 353.683L1064.46 345.433C1064.61 339.925 1064.81 334.4 1064.4 328.898C1064.4 328.888 1064.4 328.878 1064.4 328.869C1064.4 328.859 1064.41 328.851 1064.41 328.843C1064.42 328.836 1064.43 328.829 1064.43 328.825C1064.44 328.82 1064.45 328.818 1064.46 328.817C1064.47 328.813 1064.48 328.812 1064.5 328.814C1064.51 328.816 1064.52 328.82 1064.53 328.827C1064.54 328.834 1064.55 328.842 1064.55 328.853C1064.56 328.863 1064.56 328.874 1064.56 328.886Z" fill="white"/>
<path d="M13.9218 170.062C13.432 163.224 20.7432 163.149 27.7087 166.185C408.985 331.058 641.912 733.306 587.887 872.051C587.887 872.051 67.491 915.337 13.9218 170.062Z" fill="#A8D4E0" fill-opacity="0.5"/>
<path opacity="0.43" d="M57.8166 253.648L58.7154 255.498C59.3607 256.65 60.2422 258.378 61.5385 260.723C64.0504 265.332 67.9278 272.073 72.8481 280.629C77.7683 289.185 83.9041 299.497 91.1059 311.256C98.3076 323.015 106.587 336.203 115.655 350.572C124.873 364.877 134.846 380.358 145.804 396.53C156.653 412.76 168.504 429.653 180.834 447.087C193.278 464.457 206.241 482.346 219.913 500.235L230.18 513.711L240.717 527.141C247.694 536.157 255 545.001 262.201 553.937C269.403 562.873 276.939 571.567 284.21 580.393C291.654 589.105 299.103 597.747 306.558 606.32C314.181 614.743 321.572 623.223 329.177 631.387L340.527 643.538L346.145 649.547L351.848 655.412L363.141 666.975L368.718 672.668L374.375 678.193C381.946 685.469 389.044 692.844 396.47 699.596L407.29 709.719L412.579 714.662L417.926 719.41C425.041 725.649 431.788 731.797 438.5 737.477L457.921 753.644C464.172 758.696 470.245 763.352 475.874 767.799L484.089 774.183C486.809 776.169 489.432 778.089 491.959 779.944L505.821 790.05C509.998 793.109 513.962 795.575 517.275 797.88L525.779 803.641C530.388 806.764 532.859 808.423 532.859 808.423H532.888C532.982 808.482 533.062 808.56 533.122 808.652C533.183 808.745 533.223 808.849 533.24 808.958C533.257 809.067 533.25 809.179 533.221 809.286C533.191 809.392 533.138 809.491 533.067 809.575C532.903 809.751 532.682 809.864 532.443 809.895C532.204 809.925 531.962 809.871 531.759 809.742L524.523 805.133C519.839 802.074 512.798 797.764 504.156 791.922L490.024 782.024L482.004 776.401L473.621 770.104C467.86 765.725 461.655 761.18 455.305 756.179L435.596 740.156C428.78 734.522 421.93 728.42 414.699 722.233L409.266 717.526L403.891 712.611L392.892 702.569C378.074 688.938 362.979 674.119 347.769 658.489L342.008 652.618C340.126 650.624 338.238 648.62 336.345 646.603L324.897 634.452C317.234 626.288 309.779 617.808 302.099 609.379C294.586 600.833 287.073 592.191 279.56 583.453L268.522 570.23C264.84 565.805 261.13 561.398 257.575 556.893C250.385 547.928 243.091 539.032 236.137 529.964L225.622 516.465C222.196 511.937 218.782 507.424 215.379 502.926C201.742 484.956 188.819 466.986 176.409 449.541C164.177 432.003 152.551 414.973 141.841 398.599C131.044 382.3 121.203 366.704 112.164 352.295C94.24 323.39 80.1477 298.904 70.5262 281.666C65.7443 273.024 62.08 266.202 59.6603 261.501C58.4331 259.197 57.5228 257.29 56.9006 256.068L56.0421 254.196C55.9987 254.091 55.9778 253.978 55.9807 253.864C55.9837 253.75 56.0105 253.639 56.0594 253.536C56.1083 253.433 56.1781 253.342 56.2645 253.268C56.3508 253.194 56.4517 253.139 56.5606 253.107C56.7845 253.022 57.0312 253.02 57.2563 253.102C57.4814 253.183 57.6699 253.342 57.7878 253.55L57.8166 253.648Z" fill="white"/>
<path d="M1.70122 650.561C36.8456 701.999 249.947 993.438 476.467 849.403C476.467 849.403 370.591 622.653 3.75803 642.57C0.548942 642.737 -0.59181 647.202 1.70122 650.561Z" fill="#7ABED1" fill-opacity="0.5"/>
<path opacity="0.43" d="M52.9529 670.334C52.9529 670.334 58.3513 674.695 68.065 682.047C72.9276 685.717 78.8561 690.113 85.7236 695.114C92.5912 700.115 100.386 705.645 108.982 711.574C117.578 717.502 126.952 723.823 136.96 730.373C146.967 736.924 157.62 743.676 168.791 750.423C179.962 757.169 191.577 763.997 203.503 770.72C209.478 774.062 215.556 777.329 221.64 780.636C227.799 783.804 233.912 787.111 240.146 790.188C246.38 793.265 252.567 796.427 258.87 799.297L268.25 803.687C271.372 805.127 274.535 806.464 277.664 807.852C280.792 809.241 283.898 810.612 287.02 811.926L296.383 815.74C302.553 818.338 308.781 820.573 314.871 822.861C327.073 827.355 339.069 831.197 350.482 834.487C353.322 835.386 356.174 836.072 358.98 836.792L367.271 838.883C369.973 839.621 372.669 840.168 375.308 840.704L383.08 842.317L386.848 843.1C388.092 843.337 389.337 843.498 390.558 843.677L397.731 844.794C400.035 845.14 402.34 845.56 404.547 845.82L411.017 846.459L417.078 847.07L419.958 847.358L422.73 847.462L432.697 847.842C435.704 848.032 438.383 847.888 440.717 847.842L446.645 847.658L451.577 847.502H451.813C452.236 847.489 452.657 847.559 453.053 847.709C453.449 847.858 453.811 848.084 454.12 848.374C454.428 848.664 454.677 849.011 454.851 849.397C455.025 849.783 455.121 850.199 455.134 850.622C455.148 851.045 455.077 851.466 454.928 851.862C454.778 852.258 454.552 852.62 454.262 852.929C453.973 853.237 453.625 853.485 453.239 853.66C452.854 853.834 452.438 853.93 452.015 853.943L446.933 854.059L440.832 854.197C438.085 854.321 435.333 854.306 432.587 854.151L422.372 853.684L419.526 853.546L416.588 853.229L410.343 852.538L403.74 851.817C401.482 851.535 399.177 851.091 396.826 850.723L389.533 849.519C388.288 849.305 387.021 849.127 385.759 848.879L381.933 848.049L374.052 846.321C371.373 845.745 368.642 845.169 365.911 844.402L357.54 842.202C354.711 841.458 351.824 840.732 348.955 839.805C337.432 836.348 325.333 832.39 313.062 827.752C306.937 825.396 300.675 823.091 294.476 820.412L285.073 816.494C281.939 815.146 278.828 813.712 275.682 812.312C272.536 810.912 269.344 809.523 266.239 808.042L256.842 803.549C250.505 800.61 244.34 797.361 238.089 794.227C231.838 791.092 225.731 787.711 219.572 784.473C213.488 781.102 207.41 777.766 201.435 774.367C189.521 767.511 177.865 760.644 166.763 753.701C155.661 746.759 145.02 739.926 135.006 733.323C124.993 726.721 115.665 720.274 107.11 714.241C72.8527 690.159 51.2245 672.408 51.2245 672.408C51.0849 672.295 50.969 672.155 50.8835 671.996C50.798 671.838 50.7444 671.665 50.726 671.486C50.7075 671.307 50.7245 671.126 50.7759 670.953C50.8274 670.781 50.9122 670.621 51.0257 670.481C51.1392 670.341 51.2791 670.225 51.4374 670.14C51.5956 670.054 51.7692 670.001 51.9482 669.982C52.1271 669.964 52.3079 669.981 52.4803 670.032C52.6527 670.084 52.8133 670.169 52.9529 670.282V670.334Z" fill="white"/>
<path d="M760.039 1081.77C763.865 1081.77 767.578 1080.47 770.572 1078.09C773.565 1075.71 775.661 1072.38 776.517 1068.65C794.521 990.051 821.16 525.693 826.403 452.431C681.562 371.438 546.711 356.343 361.604 444.55C368.062 527.093 398.279 992.073 418.328 1069.53C419.236 1073.03 421.283 1076.14 424.147 1078.35C427.01 1080.57 430.529 1081.77 434.149 1081.77C434.149 1081.77 475.095 1123.57 597.094 1123.57C719.093 1123.57 760.039 1081.77 760.039 1081.77Z" fill="#E56A59"/>
<path d="M552.677 258.405L531.233 413.893C531.155 414.258 531.023 414.61 530.842 414.936C528.013 421.02 606.863 468.868 661.953 404.37L630.842 254.655L552.677 258.405Z" fill="#E8C6A7"/>
<path d="M528.842 232.105C528.842 232.105 535.462 176.582 513.759 168.303C492.056 160.024 465.646 172.912 480.268 208.713C498.463 253.232 528.842 232.105 528.842 232.105Z" fill="#E8C6A7"/>
<path d="M647.329 229.276C647.329 229.276 640.703 173.753 662.412 165.48C684.121 157.207 710.525 170.089 695.897 205.885C677.703 250.409 647.329 229.276 647.329 229.276Z" fill="#E8C6A7"/>
<path d="M493.002 132.341C557.253 75.1646 618.519 67.8534 675.488 132.341C671.841 248.818 665.809 360.71 591.291 352.892C514.083 367.042 504.507 244.929 493.002 132.341Z" fill="#E8C6A7"/>
<path d="M572.493 244.709C575.19 248.362 580.74 253.371 584.705 255.542C588.67 257.714 593.057 258.99 597.567 259.284C607.002 260.143 615.234 249.578 615.234 249.578C615.234 249.578 607.972 250.444 595.995 249.578C589.953 249.142 580.494 245.709 572.493 244.709Z" fill="white"/>
<path d="M658.847 142.947C658.732 137.416 658.749 131.868 659.066 126.285C659.13 125.173 659.233 123.981 659.919 123.111C660.933 121.814 677.595 121.63 684.163 121.918C685.062 154.36 660.61 326.355 654.711 341.571C651.934 348.738 644.116 352.396 636.885 354.989C624.746 359.344 611.714 360.929 598.86 361.004C577.462 361.131 553.829 357.916 535.952 345.229C512.681 328.694 501.516 198.746 497.644 182.004C493.156 162.53 493.11 142.411 492.597 122.535C492.517 121.904 492.63 121.263 492.92 120.697C493.412 120.117 494.102 119.742 494.856 119.642C507.727 116.479 513.868 117.586 513.223 129.794C512.484 142.61 512.592 155.461 513.546 168.263C515.316 191.51 518.671 214.609 523.588 237.399C527.494 255.478 531.89 270.469 551.041 277.187C561.532 280.863 571.286 275.995 581.219 272.993C599.361 267.514 613.592 281.969 631.919 277.487C666.291 269.064 658.029 214.613 659.573 188.157C660.484 172.901 659.164 157.979 658.847 142.947Z" fill="#2D3133"/>
<path d="M625.829 1.97782C646.83 7.10544 656.526 20.5698 663.278 39.4786C669.218 56.1578 687.568 68.0147 690.933 85.633C691.248 87.6255 691.333 89.6475 691.186 91.6594C690.426 110.176 685.633 127.432 681.156 145.211C679.577 151.491 679.018 154.049 670.935 152.494C665.479 151.445 662.869 148.881 661.141 143.454C658.836 136.091 659.654 127.898 653.985 121.843C646.328 113.674 634.5 109.353 623.392 111.018C619.267 111.64 615.286 113 611.207 113.898C588.035 119.014 562.742 109.18 540.584 117.672C527.442 122.702 516.588 134.766 513.143 148.472C512.526 150.915 506.344 181.399 498.244 166.154C487.487 145.909 482.688 118.121 480.055 95.531C477.802 76.3399 479.197 53.8648 494.568 42.1577C512.394 28.5781 538.723 36.9724 559.579 28.797C573.983 23.1278 584.422 10.0437 598.636 3.89635C607.243 0.157221 616.801 -0.228792 625.829 1.97782Z" fill="#2D3133"/>
<path d="M389.761 851.725C390.116 830.693 412.778 811.969 447.633 794.567C422.221 779.141 254.763 612.135 447.634 622.451C503.472 578.057 466.066 498.45 437.996 413.067C120.497 515.567 200.997 814.567 389.761 851.725Z" fill="#E56A59"/>
<g opacity="0.68">
<g style="mix-blend-mode:soft-light" opacity="0.68">
<path d="M324.558 97.3512H238.91C238.842 97.3497 238.778 97.3217 238.73 97.2732C238.683 97.2248 238.656 97.1597 238.656 97.0919C238.656 97.0241 238.683 96.959 238.73 96.9106C238.778 96.8621 238.842 96.8341 238.91 96.8326H324.558C324.627 96.8326 324.693 96.86 324.742 96.9086C324.79 96.9572 324.818 97.0232 324.818 97.0919C324.818 97.1607 324.79 97.2266 324.742 97.2752C324.693 97.3238 324.627 97.3512 324.558 97.3512Z" fill="white"/>
</g>
</g>
<path d="M1023.17 572.16C1002.43 568.245 983.038 533.625 976.304 520.352C974.644 517.105 974.105 513.401 974.773 509.816L983.023 466.113C983.023 466.113 1002.06 469.355 1000.64 494.754C1000.53 497.394 1000.98 500.026 1001.97 502.477L1009.26 521.53L1030.8 504.862L1018.99 471.511C1018.99 471.511 1003.18 475.854 995.006 473.255C978.171 467.902 1000.23 454.905 1007.25 453.452C1014.28 451.999 1029.49 446.51 1036.45 458.315C1043.42 470.12 1047.58 477.077 1047.58 477.077C1047.58 477.077 1055.23 450.684 1050.01 391.629C1049.77 388.983 1056.44 389.029 1058.31 390.94C1063.91 396.629 1072.82 413.878 1073.29 466.649C1073.29 466.649 1074.22 405.253 1084.77 398.923C1093.46 393.724 1097.84 423.771 1091.72 474.753C1091.72 474.753 1103.07 430.607 1111.19 430.53C1124.96 430.408 1111.37 548.397 1076.93 583.567L1023.17 572.16Z" fill="#E8C6A7"/>
<path d="M1085.49 551.567C1084.88 557.517 1084.21 563.282 1083.48 568.86C1081.4 586.572 1078.39 604.158 1074.47 621.545C1074.28 622.289 1074.16 622.97 1073.98 623.652C1063.56 667.039 1061.67 688.361 1026.09 682.659L989.54 640.263L989.175 639.829L986.494 636.73L993.927 614.417L994.901 611.504L1000.38 595.264L1001.05 593.157L1010.44 565.265L1014.21 553.923L1085.49 551.567Z" fill="#E8C6A7"/>
<path fill-rule="evenodd" clip-rule="evenodd" d="M924.807 857.427C977.935 852.817 1067.49 660.737 1067.49 660.737L997.668 594.661L926.325 693.006C926.325 693.006 910.494 532.067 826.494 453.067C794.112 429.012 726.975 401.344 675.994 393.567L778.994 644.567C778.994 644.567 873.303 861.898 924.807 857.427Z" fill="#E56A59"/>
<ellipse cx="1280" cy="776.666" rx="120.5" ry="12" fill="#C4C4C4" fill-opacity="0.2"/>
<path d="M1271.92 757.869C1271.92 757.869 1273.3 765.676 1273.97 773.425C1274.03 774.14 1273.95 774.86 1273.72 775.542C1273.49 776.224 1273.13 776.852 1272.66 777.391C1272.18 777.929 1271.6 778.365 1270.95 778.674C1270.31 778.982 1269.6 779.157 1268.88 779.186C1258.6 779.612 1236.62 780.448 1228.71 780.096C1228.43 780.084 1228.16 780.006 1227.92 779.868C1227.68 779.73 1227.48 779.537 1227.33 779.305C1227.18 779.072 1227.09 778.807 1227.06 778.532C1227.03 778.256 1227.07 777.979 1227.18 777.723C1227.55 776.797 1228.26 776.049 1229.16 775.631L1265.5 758.923L1271.92 757.869Z" fill="#2D3133"/>
<path d="M1273.05 753.294L1271.94 762.628C1271.94 762.628 1265.58 765.589 1261.23 762.253L1263.87 751.883L1273.05 753.294Z" fill="#E8C6A7"/>
<path d="M1272.21 577.84C1272.69 580.277 1274.78 699.457 1262.04 752.87C1261.94 753.291 1261.99 753.734 1262.18 754.121C1262.38 754.507 1262.7 754.812 1263.1 754.979C1266.42 756.258 1269.92 756.971 1273.47 757.088C1274.17 757.11 1274.85 756.902 1275.41 756.496C1275.97 756.091 1276.38 755.51 1276.57 754.847C1280.21 742.454 1297.67 680.369 1299.94 621.056C1302.48 554.8 1299.94 618.803 1299.94 618.803L1298.45 577.834L1272.21 577.84Z" fill="#2D3133"/>
<path d="M1313.73 761.948C1313.73 761.948 1315.92 765.889 1318.04 776.351C1318.13 776.799 1318.13 777.261 1318.03 777.707C1317.94 778.153 1317.74 778.574 1317.47 778.941C1317.2 779.308 1316.85 779.614 1316.46 779.838C1316.06 780.062 1315.62 780.199 1315.16 780.24C1311.77 780.575 1306.52 781.007 1302.35 780.978C1301.9 780.976 1301.45 780.878 1301.03 780.69C1300.62 780.503 1300.24 780.229 1299.94 779.888C1299.64 779.548 1299.41 779.147 1299.27 778.712C1299.14 778.277 1299.09 777.818 1299.14 777.365C1299.61 773.546 1301.06 767.277 1305.52 762.386L1313.73 761.948Z" fill="#2D3133"/>
<path d="M1315.65 749.941L1313.06 764.057C1313.06 764.057 1310.5 765.958 1305.45 764.581L1306.68 749.394L1315.65 749.941Z" fill="#E8C6A7"/>
<path d="M1322.64 581.498C1333.06 644.378 1320.38 736.912 1316.1 755.025C1315.98 755.571 1315.69 756.065 1315.28 756.447C1314.87 756.829 1314.35 757.08 1313.8 757.169C1311.09 757.653 1308.31 757.543 1305.65 756.846C1305.13 756.695 1304.67 756.383 1304.34 755.955C1304 755.526 1303.81 755.004 1303.79 754.461C1303.22 739.821 1304.25 649.926 1294.54 614.402C1294.05 612.604 1292.95 611.033 1291.43 609.954L1272.61 596.553L1271.17 574.902L1322.64 581.498Z" fill="#2D3133"/>
<path d="M1325.93 548.733C1327.02 527.618 1327.08 497.716 1321.9 470.16C1321.9 470.16 1283.81 461.345 1253.1 470.189C1246.32 472.142 1257.71 516.124 1265.77 547.345C1266.96 588.562 1267.55 627.779 1267.16 663.8C1267.18 664.685 1267.46 665.544 1267.99 666.259C1268.51 666.974 1269.24 667.509 1270.08 667.792C1280.54 671.716 1300.81 672.246 1324.15 669.889C1325.22 669.825 1326.22 669.373 1326.97 668.618C1327.73 667.863 1328.18 666.858 1328.24 665.793C1328.88 626.873 1328.11 587.853 1325.93 548.733Z" fill="#D4D7E4"/>
<path d="M1253.12 470.575C1253.12 470.575 1212.52 515.83 1238.58 515.83H1261.22L1253.12 470.575Z" fill="#D4D7E4"/>
<path d="M1309.95 500.782L1321.93 470.552C1321.93 470.552 1351.1 490.365 1355.89 515.49C1350.38 515.899 1340.33 517.328 1330.54 522.289C1328.38 510.426 1309.95 500.782 1309.95 500.782Z" fill="#D4D7E4"/>
<path d="M1284.46 529.231C1284.46 529.231 1317.2 547.742 1328.25 531.939C1330.55 528.655 1331.09 525.394 1330.55 522.289C1340.35 517.328 1350.4 515.899 1355.9 515.49C1357.53 523.61 1356.19 532.043 1352.13 539.262C1332.78 574.665 1280.15 537.309 1280.15 537.309L1284.46 529.231Z" fill="#E8C6A7"/>
<path d="M1288.4 552.645L1270.54 490.238C1270.44 489.892 1270.24 489.582 1269.97 489.348C1269.7 489.114 1269.36 488.967 1269 488.925C1265.76 488.55 1256.38 487.484 1245.55 486.568C1232.5 485.468 1217.32 484.575 1208.29 485.335C1207.99 485.359 1207.7 485.455 1207.45 485.615C1207.2 485.775 1206.99 485.995 1206.85 486.254C1206.7 486.513 1206.62 486.804 1206.61 487.102C1206.6 487.4 1206.66 487.695 1206.8 487.962C1211.95 498.379 1233.12 540.754 1243.73 554.639C1243.9 554.865 1244.13 555.048 1244.38 555.173C1244.64 555.298 1244.92 555.362 1245.21 555.359L1286.69 554.973C1286.97 554.965 1287.24 554.894 1287.49 554.764C1287.73 554.635 1287.95 554.451 1288.11 554.227C1288.28 554.002 1288.39 553.743 1288.44 553.469C1288.49 553.195 1288.47 552.914 1288.4 552.645Z" fill="#BEC3DA"/>
<path d="M1243.68 481.158L1230.72 479.021C1230.56 478.994 1230.4 479.008 1230.25 479.062C1230.1 479.117 1229.97 479.209 1229.86 479.33C1229.76 479.451 1229.69 479.597 1229.65 479.754C1229.62 479.911 1229.63 480.073 1229.68 480.225L1230.97 484.114C1231.02 484.28 1231.12 484.427 1231.26 484.538C1231.39 484.649 1231.56 484.72 1231.73 484.742L1244.2 486.407C1244.35 486.429 1244.5 486.413 1244.65 486.361C1244.79 486.309 1244.92 486.222 1245.02 486.108C1245.12 485.994 1245.2 485.856 1245.23 485.707C1245.27 485.558 1245.27 485.403 1245.23 485.255L1244.43 481.861C1244.39 481.683 1244.29 481.522 1244.16 481.397C1244.03 481.272 1243.86 481.189 1243.68 481.158Z" fill="white"/>
<path d="M1253.38 492.128L1252.32 486.568C1252.26 486.294 1252.12 486.044 1251.91 485.857C1251.71 485.67 1251.44 485.556 1251.16 485.531L1225 482.875C1224.79 482.855 1224.59 482.883 1224.4 482.959C1224.21 483.034 1224.04 483.154 1223.9 483.309C1223.77 483.464 1223.67 483.648 1223.62 483.847C1223.57 484.046 1223.57 484.254 1223.62 484.454L1225.28 491.367C1225.34 491.637 1225.5 491.879 1225.71 492.057C1225.92 492.234 1226.19 492.338 1226.47 492.353L1252.04 493.637C1252.23 493.649 1252.43 493.617 1252.61 493.542C1252.79 493.468 1252.95 493.354 1253.08 493.209C1253.21 493.063 1253.3 492.891 1253.35 492.703C1253.41 492.516 1253.42 492.319 1253.38 492.128Z" fill="white"/>
<path d="M1284.08 537.568C1284.08 537.568 1286.57 527.33 1285.56 523.7C1284.56 520.071 1282.61 515.398 1276.13 516.435C1269.64 517.472 1261.99 520.203 1261.99 520.203C1261.99 520.203 1262.38 524.933 1267.31 523.412L1264.25 525.774C1264.25 525.774 1264.69 529.565 1268.86 527.537L1266.02 530.677C1266.02 530.677 1267.8 533.788 1270.87 531.789C1273.93 529.79 1275.4 538.801 1284.08 537.568Z" fill="#E8C6A7"/>
<path d="M1223.83 525.146C1223.83 525.146 1213.9 521.603 1211.42 518.774C1208.93 515.946 1206.1 511.751 1210.52 506.9C1214.95 502.049 1221.43 497.152 1221.43 497.152C1221.43 497.152 1225.18 500.073 1221.2 503.357L1224.85 502.101C1224.85 502.101 1227.78 504.544 1223.8 506.912L1227.98 506.261C1227.98 506.261 1229.6 509.458 1226.25 510.927C1222.9 512.397 1229.62 518.561 1223.83 525.146Z" fill="#E8C6A7"/>
<path d="M1289.49 443.104L1299.43 471.836C1299.51 472.065 1299.51 472.316 1299.42 472.544C1299.34 472.771 1299.17 472.962 1298.96 473.081C1296.25 474.579 1286.49 478.906 1274.73 471.45C1274.13 471.074 1273.61 470.569 1273.23 469.971C1272.84 469.374 1272.59 468.699 1272.49 467.993L1269.29 443.104H1289.49Z" fill="#E8C6A7"/>
<path d="M1267.88 416.498C1267.88 416.498 1256.96 437.032 1258.36 445.305C1259.76 453.579 1273.29 453.008 1285.09 446.267L1293.34 424.092L1267.88 416.498Z" fill="#E8C6A7"/>
<path d="M1284.57 435.401C1284.45 435.352 1284.35 435.279 1284.27 435.186C1284.19 435.094 1284.13 434.985 1284.1 434.868C1284.06 434.75 1284.05 434.626 1284.07 434.504C1284.09 434.382 1284.13 434.266 1284.2 434.163C1285.07 432.826 1286.71 430.13 1287.23 427.722C1287.23 427.722 1289.19 426.466 1282.25 424.801C1275.3 423.135 1264.92 420.549 1262.74 414.632C1260.62 408.87 1266.2 394.352 1275.11 405.915C1275.19 406.018 1275.29 406.101 1275.4 406.158C1275.52 406.215 1275.65 406.245 1275.78 406.245C1275.91 406.245 1276.04 406.215 1276.15 406.158C1276.27 406.101 1276.37 406.018 1276.45 405.915C1277.91 404.019 1281.75 400.073 1287.08 402.458C1292.06 404.693 1292.63 408.352 1292.56 410.195C1292.55 410.322 1292.58 410.448 1292.63 410.565C1292.68 410.681 1292.75 410.785 1292.85 410.867C1292.94 410.95 1293.06 411.01 1293.18 411.042C1293.3 411.075 1293.43 411.079 1293.55 411.054C1296.08 410.576 1302.13 410.161 1304.95 416.366C1307.26 421.482 1305.77 424.374 1304.37 425.791C1304.27 425.895 1304.2 426.023 1304.16 426.163C1304.12 426.304 1304.12 426.452 1304.16 426.593C1304.19 426.734 1304.26 426.863 1304.36 426.968C1304.47 427.073 1304.59 427.15 1304.73 427.191C1306.39 427.698 1308.53 429.104 1308.32 432.987C1308.02 438.357 1302.02 437.885 1300.31 437.637C1300.18 437.616 1300.03 437.63 1299.9 437.676C1299.77 437.722 1299.65 437.8 1299.56 437.902C1298.09 439.527 1291.49 446.411 1284.35 447.241C1284.2 447.258 1284.06 447.237 1283.92 447.18C1283.79 447.123 1283.67 447.032 1283.58 446.916C1283.49 446.8 1283.43 446.663 1283.41 446.519C1283.39 446.374 1283.4 446.226 1283.46 446.089L1286.54 437.101C1286.61 436.9 1286.6 436.68 1286.52 436.484C1286.43 436.289 1286.28 436.133 1286.08 436.047L1284.57 435.401Z" fill="#2D3133"/>
<path d="M1283.33 436.681C1283.33 436.681 1291.09 431.351 1291.66 435.839C1292.22 440.327 1284.66 442.338 1280.92 440.662L1283.33 436.681Z" fill="#E8C6A7"/>
</svg>
