<svg id="Layer_1" data-name="Layer 1" xmlns="http://www.w3.org/2000/svg" viewBox="0 0 26.39 28.39"><defs><style>.cls-1{fill:#7abed1;opacity:0.3;isolation:isolate;}.cls-2,.cls-3,.cls-4{fill:none;stroke-linecap:round;}.cls-2,.cls-4{stroke:#000;}.cls-2{stroke-width:0.5px;}.cls-3{stroke:#e56a59;}.cls-4{stroke-width:0.8px;}</style></defs><path class="cls-1" d="M4.34,21.6V6.79c0-3,2.34-6.54,5.14-6.54H6.39C2.83.09.12,3.52.25,6.79V21.6c0,3,2.15,6.51,6.09,6.51H9.43C6.63,28.11,4.34,24.61,4.34,21.6Z"/><path class="cls-2" d="M20.07,28.14H6.32A6.32,6.32,0,0,1,.25,21.6V6.79A6.32,6.32,0,0,1,6.32.25H20.07a6.32,6.32,0,0,1,6.07,6.54V21.6A6.32,6.32,0,0,1,20.07,28.14Z"/><path class="cls-3" d="M13.55,13.11h7.13m-3.54-4.2H7.68"/><line class="cls-4" x1="6.64" y1="4.84" x2="10.84" y2="4.84"/><path class="cls-4" d="M6.74,17.74h15.5"/><path class="cls-4" d="M6.74,22.24h15.5"/></svg>