<svg id="Layer_1" data-name="Layer 1" xmlns="http://www.w3.org/2000/svg" viewBox="0 0 24.5 25"><defs><style>.cls-1{opacity:0.3;isolation:isolate;}.cls-2{fill:#7abed1;}.cls-3{fill:#e56a59;}</style></defs><g class="cls-1"><path class="cls-2" d="M4,18.63V10.42C4,7.7,6.92,5.5,10.51,5.5H7.35c-4.6,0-7.1,2.71-7.1,5.75v7.38c0,3.07,2.5,6.37,7.23,5.87h3.77C7.66,24.5,4,21.35,4,18.63Z"/></g><path d="M11.92,24.75h-6A5.89,5.89,0,0,1,0,18.88V11.19A5.89,5.89,0,0,1,5.88,5.31H18.63a5.89,5.89,0,0,1,5.87,5.88v3.75a.25.25,0,0,1-.5,0V11.19a5.38,5.38,0,0,0-5.37-5.38H5.88A5.38,5.38,0,0,0,.5,11.19v7.69a5.38,5.38,0,0,0,5.38,5.37h6a.25.25,0,1,1,0,.5Zm-1.5-4.12a1.43,1.43,0,1,1,1.42-1.43A1.43,1.43,0,0,1,10.42,20.63Zm0-2.35a.93.93,0,1,0,.92.92A.92.92,0,0,0,10.42,18.28Zm-4,2.35A1.43,1.43,0,1,1,7.81,19.2,1.43,1.43,0,0,1,6.39,20.63Zm0-2.35a.93.93,0,1,0,.92.92A.92.92,0,0,0,6.39,18.28Zm12.09-1.69a1.42,1.42,0,1,1,1.43-1.42A1.42,1.42,0,0,1,18.48,16.59Zm0-2.34a.92.92,0,1,0,.93.92A.92.92,0,0,0,18.48,14.25Zm-4,2.34a1.42,1.42,0,1,1,1.43-1.42A1.42,1.42,0,0,1,14.45,16.59Zm0-2.34a.92.92,0,1,0,.93.92A.92.92,0,0,0,14.45,14.25Zm-4,2.34a1.42,1.42,0,1,1,1.42-1.42A1.42,1.42,0,0,1,10.42,16.59Zm0-2.34a.92.92,0,1,0,.92.92A.92.92,0,0,0,10.42,14.25Zm-4,2.34a1.42,1.42,0,1,1,1.42-1.42A1.42,1.42,0,0,1,6.39,16.59Zm0-2.34a.92.92,0,1,0,.92.92A.92.92,0,0,0,6.39,14.25Zm8.06-1.69a1.42,1.42,0,1,1,1.43-1.42A1.43,1.43,0,0,1,14.45,12.56Zm0-2.34a.92.92,0,1,0,.93.92A.92.92,0,0,0,14.45,10.22Zm-4,2.34a1.42,1.42,0,1,1,1.42-1.42A1.43,1.43,0,0,1,10.42,12.56Zm0-2.34a.92.92,0,1,0,.92.92A.92.92,0,0,0,10.42,10.22Zm-4,2.34a1.42,1.42,0,1,1,1.42-1.42A1.43,1.43,0,0,1,6.39,12.56Zm0-2.34a.92.92,0,1,0,.92.92A.92.92,0,0,0,6.39,10.22Z"/><path class="cls-3" d="M17.65,25a3.37,3.37,0,0,1-2.42-1L13,21.71a.49.49,0,0,1,0-.7.48.48,0,0,1,.7,0l2.27,2.28a2.45,2.45,0,0,0,3.41,0L23.62,19a.5.5,0,0,1,.71,0,.5.5,0,0,1,0,.71L20.06,24A3.37,3.37,0,0,1,17.65,25Zm.83-12.19a1.67,1.67,0,1,1,1.68-1.67A1.67,1.67,0,0,1,18.48,12.81Zm0-2.34a.67.67,0,1,0,0,1.34.67.67,0,1,0,0-1.34Zm2-6.66a.5.5,0,0,1-.5-.5,2.31,2.31,0,1,0-4.62,0,.5.5,0,0,1-.5.5.5.5,0,0,1-.5-.5,3.31,3.31,0,1,1,6.62,0A.5.5,0,0,1,20.5,3.81Zm-10.78,0a.5.5,0,0,1-.5-.5,2.32,2.32,0,0,0-4.63,0,.5.5,0,0,1-.5.5.5.5,0,0,1-.5-.5,3.32,3.32,0,0,1,6.63,0A.5.5,0,0,1,9.72,3.81Z"/></svg>